<?xml version="1.0" encoding="UTF-8" standalone="no"?>
<!-- Created with Inkscape (http://www.inkscape.org/) -->

<svg
   xmlns:dc="http://purl.org/dc/elements/1.1/"
   xmlns:cc="http://creativecommons.org/ns#"
   xmlns:rdf="http://www.w3.org/1999/02/22-rdf-syntax-ns#"
   xmlns:svg="http://www.w3.org/2000/svg"
   xmlns="http://www.w3.org/2000/svg"
   xmlns:xlink="http://www.w3.org/1999/xlink"
   xmlns:sodipodi="http://sodipodi.sourceforge.net/DTD/sodipodi-0.dtd"
   xmlns:inkscape="http://www.inkscape.org/namespaces/inkscape"
   width="34.501713mm"
   height="57.492638mm"
   viewBox="0 0 122.25016 203.71407"
   id="svg4266"
   version="1.1"
   inkscape:version="0.91 r13725"
   sodipodi:docname="perfume.svg">
  <defs
     id="defs4268">
    <linearGradient
       inkscape:collect="always"
       id="linearGradient8261">
      <stop
         id="stop8265"
         offset="0"
         style="stop-color:#cb718c;stop-opacity:0;" />
      <stop
         id="stop8263"
         offset="1"
         style="stop-color:#cb718c;stop-opacity:1;" />
    </linearGradient>
    <linearGradient
       inkscape:collect="always"
       id="linearGradient4875">
      <stop
         style="stop-color:#f5dee3;stop-opacity:1"
         offset="0"
         id="stop4877" />
      <stop
         style="stop-color:#cb718c;stop-opacity:0.99607843"
         offset="1"
         id="stop4879" />
    </linearGradient>
    <linearGradient
       inkscape:collect="always"
       id="linearGradient4865">
      <stop
         style="stop-color:#e9d940;stop-opacity:1"
         offset="0"
         id="stop4867" />
      <stop
         style="stop-color:#dda332;stop-opacity:1"
         offset="1"
         id="stop4869" />
    </linearGradient>
    <linearGradient
       inkscape:collect="always"
       id="linearGradient4837">
      <stop
         style="stop-color:#dbe4fd;stop-opacity:1"
         offset="0"
         id="stop4839" />
      <stop
         style="stop-color:#e9fbe5;stop-opacity:1"
         offset="1"
         id="stop4841" />
    </linearGradient>
    <radialGradient
       inkscape:collect="always"
       xlink:href="#linearGradient4837"
       id="radialGradient4849"
       cx="329.97281"
       cy="424.35992"
       fx="329.97281"
       fy="424.35992"
       r="104.29802"
       gradientTransform="matrix(0.38941953,-0.01077412,0.02829803,1.0228032,125.30678,-162.10177)"
       gradientUnits="userSpaceOnUse" />
    <radialGradient
       inkscape:collect="always"
       xlink:href="#linearGradient4865"
       id="radialGradient4871"
       cx="325.07312"
       cy="250.69147"
       fx="325.07312"
       fy="250.69147"
       r="47.576878"
       gradientTransform="matrix(0.74926397,-0.02339483,0.01099175,0.35203178,16.949908,121.65274)"
       gradientUnits="userSpaceOnUse" />
    <radialGradient
       inkscape:collect="always"
       xlink:href="#linearGradient4875"
       id="radialGradient4881"
       cx="503.25952"
       cy="450.12189"
       fx="503.25952"
       fy="450.12189"
       r="85.872025"
       gradientTransform="matrix(0.38956848,0,0,1.1263321,136.61741,-223.81151)"
       gradientUnits="userSpaceOnUse" />
    <radialGradient
       inkscape:collect="always"
       xlink:href="#linearGradient4865"
       id="radialGradient4891"
       cx="498.76776"
       cy="523.40521"
       fx="498.76776"
       fy="523.40521"
       r="14.70499"
       gradientTransform="matrix(0.38956855,0,0,0.33221205,136.61738,133.72396)"
       gradientUnits="userSpaceOnUse" />
    <radialGradient
       inkscape:collect="always"
       xlink:href="#linearGradient4865"
       id="radialGradient4901"
       cx="354.67847"
       cy="207.87318"
       fx="354.67847"
       fy="207.87318"
       r="17.097834"
       gradientTransform="matrix(0.38956855,0,0,0.29437055,136.61738,123.49238)"
       gradientUnits="userSpaceOnUse" />
    <radialGradient
       inkscape:collect="always"
       xlink:href="#linearGradient4865"
       id="radialGradient4911"
       cx="325.83835"
       cy="212.52908"
       fx="325.83835"
       fy="212.52908"
       r="24.337292"
       gradientTransform="matrix(0.38956855,0,0,0.68260361,136.61738,41.424796)"
       gradientUnits="userSpaceOnUse" />
    <linearGradient
       inkscape:collect="always"
       xlink:href="#linearGradient8261"
       id="linearGradient8267"
       x1="245.77713"
       y1="187.39457"
       x2="258.04467"
       y2="187.39457"
       gradientUnits="userSpaceOnUse" />
  </defs>
  <sodipodi:namedview
     id="base"
     pagecolor="#ffffff"
     bordercolor="#666666"
     borderopacity="1.0"
     inkscape:pageopacity="0.0"
     inkscape:pageshadow="2"
     inkscape:zoom="2.8"
     inkscape:cx="-16.020593"
     inkscape:cy="58.691718"
     inkscape:document-units="px"
     inkscape:current-layer="layer1"
     showgrid="false"
     inkscape:snap-global="false"
     fit-margin-top="0"
     fit-margin-left="0"
     fit-margin-right="0"
     fit-margin-bottom="0"
     inkscape:window-width="2560"
     inkscape:window-height="1315"
     inkscape:window-x="0"
     inkscape:window-y="1"
     inkscape:window-maximized="1" />
  <metadata
     id="metadata4271">
    <rdf:RDF>
      <cc:Work
         rdf:about="">
        <dc:format>image/svg+xml</dc:format>
        <dc:type
           rdf:resource="http://purl.org/dc/dcmitype/StillImage" />
        <dc:title></dc:title>
      </cc:Work>
    </rdf:RDF>
  </metadata>
  <g
     inkscape:label="Layer 1"
     inkscape:groupmode="layer"
     id="layer1"
     transform="translate(-223.80462,-169.8852)">
    <g
       id="g8277">
      <path
         sodipodi:nodetypes="cssssssssssssc"
         inkscape:connector-curvature="0"
         id="path4825"
         d="m 263.50542,215.65055 c 0,0 -19.47842,-1.94785 -33.94811,15.861 -14.46969,17.80885 3.75655,54.67873 5.00873,56.76571 1.42508,2.37512 15.44361,22.40018 11.54793,27.96545 -3.89569,5.56527 -6.58316,5.03141 -8.90442,10.71314 -2.25197,5.51209 -2.04168,9.26307 0,13.2175 2.86476,5.54864 17.26948,10.78494 30.46982,10.01748 11.96532,-0.69566 24.26331,-5.11756 27.68719,-11.96532 3.0609,-6.12179 1.20866,-12.61061 -1.25218,-15.16535 -2.8082,-2.91534 -11.40879,-8.62616 -9.18269,-14.74795 2.22611,-6.12179 16.6958,-33.66985 16.97406,-35.89596 0.27826,-2.22611 7.79137,-28.10459 -2.2261,-40.06991 -10.01748,-11.96532 -14.74796,-13.6349 -19.47843,-15.861 -4.73048,-2.22611 -16.6958,-0.83479 -16.6958,-0.83479 z"
         style="opacity:1;fill:url(#radialGradient4849);fill-opacity:1;fill-rule:evenodd;stroke:#000000;stroke-width:0.38956854px;stroke-linecap:butt;stroke-linejoin:miter;stroke-opacity:1" />
      <path
         sodipodi:nodetypes="cssssssccc"
         inkscape:connector-curvature="0"
         id="path4855"
         d="m 247.01833,200.13737 c -0.55653,6.46962 0.34782,14.26099 -0.34783,14.95665 -0.69566,0.69566 -1.25219,1.11306 -1.25219,1.66958 0,0.55653 -0.13913,2.49059 -0.13913,3.20003 0,1.73914 3.02088,8.02276 17.39145,7.7218 13.28707,-0.27826 18.40274,-3.08247 19.20017,-8.62616 0.51589,-3.58652 -1.39132,-4.38265 -1.39132,-4.93917 0,-1.53045 0,-11.13053 -0.0696,-12.93924 -1.11305,-2.4348 0.27827,-5.4957 -17.35667,-6.60875 0,0 -13.80881,0.27826 -16.03491,5.56526 z"
         style="opacity:1;fill:url(#radialGradient4871);fill-opacity:1;fill-rule:evenodd;stroke:#3c0010;stroke-width:0.38956854px;stroke-linecap:butt;stroke-linejoin:miter;stroke-opacity:1" />
      <path
         sodipodi:nodetypes="csssssssssssssssssc"
         inkscape:connector-curvature="0"
         id="path4873"
         d="m 279.46647,180.35595 c 0,0 11.51057,-0.0984 16.03609,0.88542 4.52552,0.98381 15.74094,2.75467 23.90656,12.00247 8.16562,9.24781 12.98628,16.42962 16.03609,24.98876 3.04981,8.55914 4.91905,17.21666 5.01743,18.88913 0.0984,1.67248 1.95575,15.51993 1.86923,20.36485 -0.0984,5.50934 -1.18056,21.84057 -2.066,27.8418 -0.84637,5.73654 -6.29637,26.07095 -5.41094,26.95637 0.88542,0.88543 12.98628,15.34743 10.72351,31.67866 -2.26275,16.33123 -16.13446,30.10456 -23.80818,29.41589 -7.67371,-0.68867 -12.69114,-6.6899 -12.98628,-7.37857 -0.29514,-0.68866 -9.44456,-15.05228 -4.91904,-28.72722 4.52552,-13.67495 14.38506,-23.0732 20.75837,-26.36609 5.90286,-3.04981 9.41831,-34.54245 10.03485,-41.71351 0.63659,-7.40419 0.59024,-24.0543 -2.066,-35.12198 -1.78212,-7.42555 -3.51161,-17.66086 -11.01866,-27.44828 -5.59278,-7.29166 -12.29761,-14.65876 -22.13571,-17.21666 -9.83809,-2.5579 -18.49561,-2.16438 -19.47941,-2.066 -0.98382,0.0984 -0.49191,-6.98504 -0.49191,-6.98504 z"
         style="opacity:1;fill:url(#radialGradient4881);fill-opacity:1;fill-rule:evenodd;stroke:#000000;stroke-width:0.38956854px;stroke-linecap:butt;stroke-linejoin:miter;stroke-opacity:1" />
      <path
         sodipodi:nodetypes="cssssc"
         inkscape:connector-curvature="0"
         id="path4883"
         d="m 327.57474,303.62723 c 0,0 2.75466,-1.18057 4.82066,-0.4919 2.066,0.68867 4.03362,2.36114 4.03362,2.36114 0.22873,1.37238 -1.19509,7.09695 -1.47572,6.78828 -1.31365,-1.4449 -4.50701,-2.78843 -9.44456,-2.06599 -0.76028,0.11123 2.36114,-4.91905 2.066,-6.59153 z"
         style="fill:url(#radialGradient4891);fill-opacity:1;fill-rule:evenodd;stroke:#000000;stroke-width:0.38956854px;stroke-linecap:butt;stroke-linejoin:miter;stroke-opacity:1" />
      <path
         sodipodi:nodetypes="cssssc"
         inkscape:connector-curvature="0"
         id="path4893"
         d="m 268.34942,183.7009 c 0,0 1.27896,-2.75467 1.96763,-2.75467 0.68866,0 8.85428,-0.68867 9.44456,-1.08219 0.59029,-0.39352 2.66475,4.85719 0.59029,7.96885 0,0 -7.87047,0.49191 -10.13324,1.5741 -2.26276,1.08219 -1.86924,-5.70609 -1.86924,-5.70609 z"
         style="fill:url(#radialGradient4901);fill-opacity:1;fill-rule:evenodd;stroke:#000000;stroke-width:0.38956854px;stroke-linecap:butt;stroke-linejoin:miter;stroke-opacity:1" />
      <path
         sodipodi:nodetypes="cscssssssssscsc"
         inkscape:connector-curvature="0"
         id="path4903"
         d="m 262.7402,170.08494 c 0,0 -2.71307,0.17815 -2.71307,1.46088 0,0.62609 0.2087,1.73915 -0.0696,2.8522 -0.48696,0.27827 -3.2336,2.41363 -0.90435,5.98266 0.88687,1.35891 -5.43777,1.63066 -3.47829,8.27833 1.05384,3.57524 4.37503,3.33628 3.82612,4.80004 -1.04349,2.78264 -4.80004,4.80005 -4.80004,5.9131 0,0.62995 3.78326,2.66661 8.27833,2.57393 6.74789,-0.13913 9.66965,-1.60001 9.94791,-2.57393 0.27826,-0.97392 -5.27663,-5.23166 -4.86961,-6.19136 0.36872,-0.86937 3.53899,-3.09827 3.40873,-6.26092 -0.23404,-5.68215 -5.51762,-5.52747 -4.52178,-6.19136 0.62609,-0.41739 2.29567,-4.45221 -1.11305,-6.26092 -0.0696,-1.60002 0.0696,-2.78264 -0.2087,-3.2696 -0.27826,-0.48696 -1.66958,-1.18261 -2.78263,-1.11305 z"
         style="fill:url(#radialGradient4911);fill-opacity:1;fill-rule:evenodd;stroke:#000000;stroke-width:0.38956854px;stroke-linecap:butt;stroke-linejoin:miter;stroke-opacity:1" />
    </g>
    <path
       style="fill:url(#linearGradient8267);fill-opacity:1;fill-rule:evenodd;stroke:none;stroke-width:1px;stroke-linecap:butt;stroke-linejoin:miter;stroke-opacity:1"
       d="m 255.23319,180.74212 1.78572,6.07143 -2.14286,5.71429 z"
       id="path8259"
       inkscape:connector-curvature="0"
       sodipodi:nodetypes="cccc" />
  </g>
</svg>
