<?xml version="1.0" encoding="utf-8"?>
<!-- Generator: Adobe Illustrator 15.1.0, SVG Export Plug-In . SVG Version: 6.00 Build 0)  -->
<!DOCTYPE svg PUBLIC "-//W3C//DTD SVG 1.1//EN" "http://www.w3.org/Graphics/SVG/1.1/DTD/svg11.dtd">
<svg version="1.1" id="Layer_1" xmlns="http://www.w3.org/2000/svg" xmlns:xlink="http://www.w3.org/1999/xlink" x="0px" y="0px"
	 width="890.4px" height="804px" viewBox="0 0 890.4 804" enable-background="new 0 0 890.4 804" xml:space="preserve">
<g id="sbt_262" transform="translate(30.000000000000004, 30.000000000000004)rotate(0, 445.19999999999993,402)">
	<g id="sbt_262_scale" transform="scale(2.8722580645161284, 2.8714285714285714)">
		<g id="sbt_262_natural" transform="translate(0,0)">
			<g>
				<rect x="-10.337" y="-10.594" fill="#80CFEC" stroke="#010101" stroke-miterlimit="10" width="310" height="280"/>
				<rect x="-10.337" y="-10.594" fill="#54C2E0" width="11.5" height="280"/>
				<rect x="8.563" y="-10.594" fill="#54C2E0" width="12.5" height="280"/>
				<rect x="27.563" y="-10.594" fill="#54C2E0" width="12.5" height="280"/>
				<rect x="46.463" y="-10.594" fill="#54C2E0" width="12.5" height="280"/>
				<rect x="65.363" y="-10.594" fill="#54C2E0" width="12.5" height="280"/>
				<rect x="83.863" y="-10.594" fill="#54C2E0" width="12.5" height="280"/>
				<rect x="102.763" y="-10.594" fill="#54C2E0" width="12.5" height="280"/>
				<rect x="121.663" y="-10.594" fill="#54C2E0" width="12.5" height="280"/>
				<rect x="140.663" y="-10.594" fill="#54C2E0" width="12.5" height="280"/>
				<rect x="159.563" y="-10.594" fill="#54C2E0" width="12.5" height="280"/>
				<rect x="178.463" y="-10.594" fill="#54C2E0" width="12.5" height="280"/>
				<rect x="197.463" y="-10.594" fill="#54C2E0" width="12.5" height="280"/>
				<rect x="216.363" y="-10.594" fill="#54C2E0" width="12.5" height="280"/>
				<rect x="234.763" y="-10.594" fill="#54C2E0" width="12.5" height="280"/>
				<rect x="253.763" y="-10.594" fill="#54C2E0" width="12.5" height="280"/>
				<rect x="272.663" y="-10.594" fill="#54C2E0" width="12.5" height="280"/>
				<rect x="291.563" y="-10.594" fill="#54C2E0" width="7.5" height="280"/>
				<polygon fill="#2AAAE2" stroke="#010101" stroke-miterlimit="10" points="299.663,269.406 -10.337,269.406 -10.337,227.806 
					6.263,125.606 299.663,125.606 				"/>
				<line fill="none" stroke="#231F20" stroke-miterlimit="10" x1="6.363" y1="125.406" x2="6.363" y2="-10.594"/>
			</g>
			<g id="Bed">
				<g>
					<rect x="11.163" y="93.406" fill="#E6E6E5" stroke="#010101" stroke-miterlimit="10" width="97" height="28.3"/>
					<polygon fill="#FFFFFF" stroke="#010101" stroke-miterlimit="10" points="108.863,93.106 11.863,93.106 14.963,89.106 
						105.663,89.106 					"/>
				</g>
				<polygon fill="#FFFFFF" stroke="#010101" stroke-miterlimit="10" points="125.663,200.306 -8.237,200.306 13.763,105.106 
					105.663,105.106 				"/>
				<g>
					<ellipse fill="#FEE600" cx="14.363" cy="182.806" rx="2.8" ry="2.7"/>
					<g>
						<ellipse fill="#E7539A" cx="14.363" cy="174.506" rx="1.5" ry="3.8"/>
						<ellipse fill="#E7539A" cx="14.363" cy="191.106" rx="1.5" ry="3.8"/>
					</g>
					<g>
						<ellipse fill="#E7539A" cx="24.263" cy="182.806" rx="4.5" ry="1.2"/>
						<ellipse fill="#E7539A" cx="4.463" cy="182.806" rx="4.5" ry="1.2"/>
					</g>
					<g>
						<path fill="#E7539A" d="M22.363,177.806c-1.8,1.5-3.6,2.3-4.2,1.8c-0.6-0.5,0.4-2.1,2.1-3.5c1.8-1.5,3.6-2.3,4.2-1.8
							C25.063,174.706,24.163,176.306,22.363,177.806z"/>
						<path fill="#E7539A" d="M8.363,189.606c-1.8,1.5-3.6,2.3-4.2,1.8c-0.6-0.5,0.4-2.1,2.1-3.5c1.8-1.5,3.6-2.3,4.2-1.8
							C11.063,186.506,10.163,188.106,8.363,189.606z"/>
					</g>
					<g>
						<path fill="#E7539A" d="M20.263,189.606c-1.8-1.5-2.7-3.1-2.1-3.5c0.6-0.5,2.5,0.3,4.2,1.8c1.8,1.5,2.7,3.1,2.1,3.5
							C23.963,191.806,22.063,191.006,20.263,189.606z"/>
						<path fill="#E7539A" d="M6.263,177.806c-1.8-1.5-2.7-3.1-2.1-3.5c0.6-0.5,2.5,0.3,4.2,1.8c1.8,1.5,2.7,3.1,2.1,3.5
							C9.963,180.106,8.063,179.306,6.263,177.806z"/>
					</g>
				</g>
				<g>
					<ellipse fill="#FEE600" cx="54.663" cy="155.406" rx="2" ry="2"/>
					<g>
						<ellipse fill="#E7539A" cx="54.663" cy="149.306" rx="1.1" ry="2.8"/>
						<ellipse fill="#E7539A" cx="54.663" cy="161.506" rx="1.1" ry="2.8"/>
					</g>
					<g>
						<ellipse fill="#E7539A" cx="61.763" cy="155.406" rx="3.2" ry="0.9"/>
						<ellipse fill="#E7539A" cx="47.563" cy="155.406" rx="3.2" ry="0.9"/>
					</g>
					<g>
						<path fill="#E7539A" d="M60.463,151.706c-1.3,1.1-2.6,1.7-3,1.3c-0.4-0.4,0.3-1.5,1.5-2.6c1.2-1.1,2.6-1.7,3-1.3
							C62.363,149.506,61.763,150.606,60.463,151.706z"/>
						<path fill="#E7539A" d="M50.363,160.306c-1.3,1.1-2.6,1.7-3,1.3c-0.4-0.4,0.3-1.5,1.5-2.6c1.3-1.1,2.6-1.7,3-1.3
							C52.363,158.106,51.663,159.206,50.363,160.306z"/>
					</g>
					<g>
						<path fill="#E7539A" d="M58.963,160.306c-1.3-1.1-1.9-2.2-1.5-2.6c0.4-0.4,1.8,0.2,3,1.3c1.3,1.1,1.9,2.2,1.5,2.6
							C61.563,162.006,60.263,161.406,58.963,160.306z"/>
						<path fill="#E7539A" d="M48.863,151.706c-1.3-1.1-1.9-2.2-1.5-2.6c0.4-0.4,1.8,0.2,3,1.3c1.3,1.1,1.9,2.2,1.5,2.6
							C51.463,153.406,50.163,152.806,48.863,151.706z"/>
					</g>
				</g>
				<g>
					<ellipse fill="#FEE600" cx="107.463" cy="187.406" rx="1.999" ry="2"/>
					<g>
						<ellipse fill="#E7539A" cx="107.463" cy="181.306" rx="1.1" ry="2.8"/>
						<ellipse fill="#E7539A" cx="107.463" cy="193.506" rx="1.1" ry="2.8"/>
					</g>
					<g>
						<ellipse fill="#E7539A" cx="114.663" cy="187.406" rx="3.2" ry="0.9"/>
						<ellipse fill="#E7539A" cx="100.363" cy="187.406" rx="3.2" ry="0.9"/>
					</g>
					<g>
						<path fill="#E7539A" d="M113.263,183.706c-1.3,1.1-2.6,1.7-3,1.3c-0.4-0.4,0.3-1.5,1.5-2.6c1.3-1.1,2.6-1.7,3-1.3
							C115.263,181.406,114.563,182.606,113.263,183.706z"/>
						<path fill="#E7539A" d="M103.163,192.306c-1.3,1.1-2.6,1.7-3,1.3c-0.4-0.4,0.3-1.5,1.5-2.6c1.2-1.1,2.6-1.7,3-1.3
							C105.163,190.106,104.463,191.206,103.163,192.306z"/>
					</g>
					<g>
						<path fill="#E7539A" d="M111.763,192.306c-1.3-1.1-1.9-2.2-1.5-2.6c0.4-0.4,1.8,0.2,3,1.3c1.3,1.1,1.9,2.2,1.5,2.6
							C114.363,194.006,113.063,193.406,111.763,192.306z"/>
						<path fill="#E7539A" d="M101.663,183.706c-1.3-1.1-1.9-2.2-1.5-2.6c0.4-0.4,1.8,0.2,3,1.3c1.3,1.1,1.9,2.2,1.5,2.6
							C104.363,185.406,102.963,184.806,101.663,183.706z"/>
					</g>
				</g>
				<g>
					<ellipse fill="#FEE600" cx="98.963" cy="158.706" rx="1.3" ry="1.4"/>
					<g>
						<ellipse fill="#E7539A" cx="98.963" cy="154.506" rx="0.7" ry="1.9"/>
						<ellipse fill="#E7539A" cx="98.963" cy="162.906" rx="0.7" ry="1.9"/>
					</g>
					<g>
						<ellipse fill="#E7539A" cx="103.563" cy="158.706" rx="2.1" ry="0.6"/>
						<ellipse fill="#E7539A" cx="94.463" cy="158.706" rx="2.1" ry="0.6"/>
					</g>
					<g>
						<path fill="#E7539A" d="M102.663,156.206c-0.8,0.7-1.7,1.1-1.9,0.9c-0.3-0.2,0.2-1,1-1.8c0.8-0.7,1.7-1.1,1.9-0.9
							C103.963,154.606,103.463,155.406,102.663,156.206z"/>
						<path fill="#E7539A" d="M96.263,162.106c-0.8,0.7-1.7,1.1-1.9,0.9c-0.3-0.2,0.2-1,1-1.8c0.8-0.7,1.7-1.1,1.9-0.9
							C97.463,160.606,97.063,161.406,96.263,162.106z"/>
					</g>
					<g>
						<path fill="#E7539A" d="M101.763,162.106c-0.8-0.7-1.2-1.5-1-1.8c0.3-0.2,1.1,0.2,1.9,0.9c0.8,0.7,1.2,1.5,1,1.8
							C103.363,163.306,102.563,162.906,101.763,162.106z"/>
						<path fill="#E7539A" d="M95.263,156.206c-0.8-0.7-1.2-1.5-1-1.8c0.3-0.2,1.1,0.2,1.9,0.9c0.8,0.7,1.2,1.5,1,1.8
							C96.963,157.306,96.063,156.906,95.263,156.206z"/>
					</g>
				</g>
				<g>
					<ellipse fill="#FEE600" cx="76.463" cy="178.506" rx="3.8" ry="3.6"/>
					<g>
						<ellipse fill="#E7539A" cx="76.463" cy="167.406" rx="2" ry="5"/>
						<ellipse fill="#E7539A" cx="76.463" cy="189.606" rx="2" ry="5"/>
					</g>
					<g>
						<ellipse fill="#E7539A" cx="89.763" cy="178.506" rx="6" ry="1.7"/>
						<ellipse fill="#E7539A" cx="63.163" cy="178.506" rx="6" ry="1.7"/>
					</g>
					<g>
						<path fill="#E7539A" d="M87.263,171.806c-2.3,2-4.9,3-5.6,2.4c-0.8-0.6,0.5-2.8,2.8-4.7c2.3-2,4.9-3,5.6-2.4
							C90.863,167.706,89.563,169.806,87.263,171.806z"/>
						<path fill="#E7539A" d="M68.463,187.506c-2.3,2-4.9,3-5.6,2.4c-0.8-0.6,0.5-2.8,2.8-4.7c2.3-1.9,4.9-3,5.6-2.4
							C72.163,183.506,70.863,185.606,68.463,187.506z"/>
					</g>
					<g>
						<path fill="#E7539A" d="M84.463,187.506c-2.3-2-3.6-4.1-2.8-4.7c0.8-0.6,3.3,0.4,5.6,2.4c2.3,2,3.6,4.1,2.8,4.7
							C89.363,190.606,86.763,189.506,84.463,187.506z"/>
						<path fill="#E7539A" d="M65.663,171.806c-2.3-2-3.6-4.1-2.8-4.7c0.8-0.6,3.3,0.4,5.6,2.4c2.3,2,3.6,4.1,2.8,4.7
							C70.563,174.806,68.063,173.806,65.663,171.806z"/>
					</g>
				</g>
				<g>
					<ellipse fill="#FEE600" cx="44.263" cy="181.006" rx="1.3" ry="1.4"/>
					<g>
						<ellipse fill="#E7539A" cx="44.263" cy="176.806" rx="0.7" ry="1.9"/>
						<ellipse fill="#E7539A" cx="44.263" cy="185.206" rx="0.7" ry="1.9"/>
					</g>
					<g>
						<ellipse fill="#E7539A" cx="48.863" cy="181.006" rx="2.1" ry="0.6"/>
						<ellipse fill="#E7539A" cx="39.763" cy="181.006" rx="2.1" ry="0.6"/>
					</g>
					<g>
						<path fill="#E7539A" d="M47.963,178.506c-0.8,0.7-1.7,1.1-1.9,0.9c-0.3-0.2,0.2-1,1-1.8c0.8-0.7,1.7-1.1,1.9-0.9
							C49.263,176.906,48.763,177.706,47.963,178.506z"/>
						<path fill="#E7539A" d="M41.563,184.406c-0.8,0.7-1.7,1.1-1.9,0.9c-0.3-0.2,0.2-1,1-1.8c0.8-0.7,1.7-1.1,1.9-0.9
							C42.763,182.906,42.363,183.706,41.563,184.406z"/>
					</g>
					<g>
						<path fill="#E7539A" d="M47.063,184.406c-0.8-0.7-1.2-1.5-1-1.8c0.3-0.2,1.1,0.2,1.9,0.9c0.8,0.7,1.2,1.5,1,1.8
							C48.663,185.606,47.863,185.106,47.063,184.406z"/>
						<path fill="#E7539A" d="M40.563,178.506c-0.8-0.7-1.2-1.5-1-1.8c0.3-0.2,1.1,0.2,1.9,0.9c0.8,0.7,1.2,1.5,1,1.8
							C42.263,179.606,41.363,179.206,40.563,178.506z"/>
					</g>
				</g>
				<rect x="-8.437" y="203.206" fill="#010101" stroke="#010101" stroke-miterlimit="10" width="134" height="36.8"/>
				<g>
					<ellipse fill="#FEE600" cx="17.963" cy="154.506" rx="1.3" ry="1.4"/>
					<g>
						<ellipse fill="#E7539A" cx="17.963" cy="150.306" rx="0.7" ry="1.9"/>
						<ellipse fill="#E7539A" cx="17.963" cy="158.706" rx="0.7" ry="1.9"/>
					</g>
					<g>
						<ellipse fill="#E7539A" cx="22.563" cy="154.506" rx="2.1" ry="0.6"/>
						<ellipse fill="#E7539A" cx="13.463" cy="154.506" rx="2.1" ry="0.6"/>
					</g>
					<g>
						<path fill="#E7539A" d="M21.663,152.006c-0.8,0.7-1.7,1.1-1.9,0.9c-0.3-0.2,0.2-1,1-1.8c0.8-0.8,1.7-1.1,1.9-0.9
							C22.963,150.406,22.463,151.206,21.663,152.006z"/>
						<path fill="#E7539A" d="M15.263,157.906c-0.8,0.7-1.7,1.1-1.9,0.9c-0.3-0.2,0.2-1,1-1.8c0.8-0.8,1.7-1.1,1.9-0.9
							C16.463,156.406,16.063,157.206,15.263,157.906z"/>
					</g>
					<g>
						<path fill="#E7539A" d="M20.763,157.906c-0.8-0.7-1.2-1.5-1-1.8c0.3-0.2,1.1,0.2,1.9,0.9c0.8,0.7,1.2,1.5,1,1.8
							C22.463,159.106,21.563,158.706,20.763,157.906z"/>
						<path fill="#E7539A" d="M14.263,152.006c-0.8-0.7-1.2-1.5-1-1.8c0.3-0.2,1.1,0.2,1.9,0.9c0.8,0.7,1.2,1.5,1,1.8
							C15.963,153.106,15.063,152.706,14.263,152.006z"/>
					</g>
				</g>
				<rect x="-8.237" y="200.306" fill="#FFFFFF" stroke="#010101" stroke-miterlimit="10" width="134" height="36.8"/>
				<g id="Pillow">
					<path fill="#010101" stroke="#010101" stroke-miterlimit="10" d="M101.763,117.506v-11.5c0-1.6-0.1-2.9-0.5-3.9
						c1.2-2.3,1.5-4.3,0.5-5.3c-1.2-1.2-3.9-0.6-6.7,1.3c-0.7-0.1-1.5-0.1-2.3-0.1h-67.2c-0.5,0-0.9,0-1.4,0
						c-2.8-1.9-5.5-2.5-6.7-1.3c-1,1-0.7,2.9,0.4,5.1c-0.3,1.1-0.3,2.4-0.3,4.1v11.5c0,1.7,0.1,3.1,0.3,4.1
						c-1.1,2.2-1.3,4.2-0.4,5.1c1.2,1.2,3.8-1.4,6.7-3.3c0.4,0,0.9,0,1.4,0h67.2c0.8,0,1.6,0,2.3-0.1c2.9,1.9,5.5,4.5,6.7,3.3
						c1-1,0.7-3-0.5-5.3C101.663,120.406,101.763,119.106,101.763,117.506z"/>
					<g>
						<path fill="#E7539A" stroke="#010101" stroke-miterlimit="10" d="M101.763,115.406v-11.5c0-1.6-0.1-2.9-0.5-3.9
							c1.2-2.3,1.5-4.3,0.5-5.3c-1.2-1.2-3.9-0.6-6.7,1.3c-0.7-0.1-1.5-0.1-2.3-0.1h-67.2c-0.5,0-0.9,0-1.4,0
							c-2.8-1.9-5.5-2.5-6.7-1.3c-1,1-0.7,2.9,0.4,5.1c-0.3,1.1-0.3,2.4-0.3,4.1v11.6c0,1.7,0.1,3.1,0.3,4.1
							c-1.1,2.2-1.3,4.2-0.4,5.1c1.2,1.2,3.8,0.6,6.7-1.3c0.4,0,0.9,0,1.4,0h67.2c0.8,0,1.6,0,2.3-0.1c2.9,1.9,5.5,2.5,6.7,1.3
							c1-1,0.7-3-0.5-5.3C101.663,118.306,101.763,117.006,101.763,115.406z"/>
						<path fill="#E87EB3" d="M98.863,114.806c0,5.9-2.2,7.1-8.4,7.1h-62.5c-6.2,0-7.4-1.2-7.4-7.1v-10.2c0-5.9,1.3-7.1,7.4-7.1
							h62.5c6.2,0,8.4,1.2,8.4,7.1V114.806z"/>
					</g>
				</g>
			</g>
			<g id="Table">
				<g>
					<polygon fill="#E6E6E5" stroke="#010101" stroke-linejoin="round" stroke-miterlimit="10" points="289.763,151.406 
						280.163,126.406 280.163,108.306 289.763,108.306 					"/>
					
						<rect x="288.863" y="110.306" fill="#FFFFFF" stroke="#010101" stroke-linejoin="round" stroke-miterlimit="10" width="4.8" height="41.1"/>
				</g>
				<g>
					<polygon fill="#E6E6E5" stroke="#010101" stroke-linejoin="round" stroke-miterlimit="10" points="130.063,151.806 
						139.663,126.806 139.663,108.706 130.063,108.706 					"/>
					
						<rect x="126.263" y="110.606" fill="#FFFFFF" stroke="#010101" stroke-linejoin="round" stroke-miterlimit="10" width="4.8" height="41.1"/>
				</g>
				<g>
					<polygon fill="#FFFFFF" stroke="#010101" stroke-miterlimit="10" points="293.563,106.606 126.263,106.606 138.963,76.306 
						278.363,76.306 					"/>
					
						<rect x="126.263" y="106.606" fill="#FFFFFF" stroke="#010101" stroke-linejoin="round" stroke-miterlimit="10" width="167.3" height="4"/>
				</g>
			</g>
			<g id="TV">
				<g>
					
						<ellipse fill="#B4B4B4" stroke="#010101" stroke-linejoin="round" stroke-miterlimit="10" cx="208.163" cy="82.906" rx="37" ry="7.6"/>
					
						<ellipse fill="#FFFFFF" stroke="#010101" stroke-linejoin="round" stroke-miterlimit="10" cx="208.163" cy="80.906" rx="37" ry="7.6"/>
					<path fill="#FFFFFF" stroke="#010101" stroke-linejoin="round" stroke-miterlimit="10" d="M217.863,80.906c0,0,0.2,2.5-9.8,2.5
						c-10.1,0-9.5-2.5-9.5-2.5v-36.3h19.4v36.3H217.863L217.863,80.906z"/>
					<path fill="#E6E6E5" d="M217.863,71.506c0,0,0.2,1.8-9.8,1.8c-10,0-9.5-1.8-9.5-1.8v-26.2h19.4v26.2H217.863z"/>
					<path fill="none" stroke="#010101" stroke-linejoin="round" stroke-miterlimit="10" d="M217.863,80.906c0,0,0.2,2.5-9.8,2.5
						c-10.1,0-9.5-2.5-9.5-2.5v-36.3h19.4v36.3H217.863L217.863,80.906z"/>
				</g>
				<g>
					<path fill="#FFFFFF" stroke="#010101" stroke-width="2" stroke-linejoin="round" stroke-miterlimit="10" d="M267.463,51.906
						c0,12.2-1.9,16.5-11.3,16.5h-96c-9.3,0-11.3-4.4-11.3-16.5v-44.9c0-12.2,1.9-14.7,11.3-14.7h96c9.3,0,11.3,2.5,11.3,14.7
						V51.906L267.463,51.906z"/>
					<path fill="#333333" stroke="#E6E6E5" stroke-width="0.5" stroke-linejoin="round" stroke-miterlimit="10" d="M267.463,51.906
						c0,12.2-1.9,16.5-11.3,16.5h-96c-9.3,0-11.3-4.4-11.3-16.5v-44.9c0-12.2,1.9-14.7,11.3-14.7h96c9.3,0,11.3,2.5,11.3,14.7
						V51.906L267.463,51.906z"/>
					<path fill="#FFFFFF" stroke="#010101" stroke-linejoin="round" stroke-miterlimit="10" d="M264.663,49.106
						c0,12.2-1.9,16.5-11.3,16.5h-90.4c-9.3,0-11.3-4.4-11.3-16.5v-39.3c0-12.2,1.9-14.7,11.3-14.7h90.4c9.3,0,11.3,2.5,11.3,14.7
						V49.106z"/>
				</g>
			</g>
			<g id="Mirror">
				<rect x="22.863" y="-0.094" fill="#010101" stroke="#010101" stroke-miterlimit="10" width="72" height="83"/>
				<rect x="23.063" y="-0.094" fill="#E7539A" stroke="#010101" stroke-miterlimit="10" width="72" height="83"/>
				<rect x="26.063" y="2.906" fill="#FFFFFF" stroke="#010101" stroke-miterlimit="10" width="66" height="77"/>
			</g>
		</g>
	</g>
</g>
<g id="SvgTop">
</g>
</svg>
