<?xml version="1.0" encoding="utf-8"?>
<!-- Generator: Adobe Illustrator 15.1.0, SVG Export Plug-In . SVG Version: 6.00 Build 0)  -->
<!DOCTYPE svg PUBLIC "-//W3C//DTD SVG 1.1//EN" "http://www.w3.org/Graphics/SVG/1.1/DTD/svg11.dtd">
<svg version="1.1" xmlns="http://www.w3.org/2000/svg" xmlns:xlink="http://www.w3.org/1999/xlink" x="0px" y="0px"
	 width="172.803px" height="115.119px" viewBox="0 0 172.803 115.119" enable-background="new 0 0 172.803 115.119"
	 xml:space="preserve">
<g id="Layer_2">
	<path fill="#FFFFFF" stroke="#000000" stroke-miterlimit="10" d="M29.879,15.519c0,0-5.779,6.018-0.647,12.515
		c3.147,3.985-5.898-3.208-13.978-0.712c-3.875,1.197-7.222,6.185-7.479,10.607c-0.416,7.181,4.458,13.251,4.604,13.84
		s-9.065,4.239-10.989,9.25c-2.399,6.25,0.522,11.926,3.239,14.5c4.75,4.5,13.75,1.75,15.266,1.01s-6.442,6.958-3.016,13.49
		c2.903,5.535,6.495,6.865,10.75,7c6.822,0.216,10.25-7.419,10.25-7.419s-2.275,9.126,0,12.919c1.444,2.407,8.223,6.404,13,4.75
		c6.5-2.25,7.846-10.416,7.846-10.416s-1.318,11.073,2.904,14.416c6,4.75,12.75,3.25,16-0.75c1.705-2.099,2.75-10.678,2.75-10.678
		s3.327,10.293,4.25,11.678c3,4.5,12.25,3.75,15,0c2.198-2.997,0.75-11.678,0.75-11.678s2,11.928,9,12.428
		c3.57,0.255,10.831,0.458,12.75-4.75c1.75-4.75-0.745-15.814-0.277-13.083c0.527,3.083,1.905,9.157,10.788,10.832
		c1.481,0.279,7.613-0.184,9.489-2.998c4-6-3.031-15.498-3.031-15.498s4.66,7.644,10.531,7.248c5.816-0.392,6.921-2.411,8.5-8.75
		c1.813-7.278-6.784-10.249-4.98-10.234c2.02,0.017,6.279,5.234,9.48,5.234c5.5,0,10.09-5.82,7.09-11.07
		c-1.988-3.48-9.891-7.594-9.891-7.594s7.019-0.977,9.448-4.045c4.75-6,3.603-9.541-1.31-14.316
		c-3.252-3.161-11.087-0.725-11.087-0.725s4.436-1.441,6.501-7.126c1.64-4.514-3.001-14.374-10.501-12.874
		c-4.606,0.921-8.75,6.75-8.75,6.75s3.347-5.53-0.25-11.75c-1.845-3.191-7.441-6.207-12.25-4.75
		c-4.097,1.241-7.631,6.865-7.691,6.105c-0.129-1.641,1.528-7.614-1.972-10.864c-2.037-1.892-9.062-4.861-13.454-1.106
		c-3.445,2.945-5.383,7.615-5.383,7.615s-1.711-9.795-8.461-12.86c-3.58-1.625-8.316-1.977-13.289,1.86
		c-2.213,1.708-3.75,7.25-3.5,9.25s0.5-9-9.5-10.75c-3.508-0.614-11,3.25-12.75,6s-2.259,6.966-1.759,8.966
		s-3.991-5.466-11.991-6.466C36.04,9.789,29.879,15.519,29.879,15.519z"/>
	<text transform="matrix(1 0 0 1 56.6289 64.2686)" font-family="'MyriadPro-Regular'" font-size="12">Placeholder</text>
</g>
<g id="Layer_1">
</g>
</svg>
