<?xml version="1.0" encoding="UTF-8" standalone="no"?>
<svg
   xmlns:osb="http://www.openswatchbook.org/uri/2009/osb"
   xmlns:dc="http://purl.org/dc/elements/1.1/"
   xmlns:cc="http://creativecommons.org/ns#"
   xmlns:rdf="http://www.w3.org/1999/02/22-rdf-syntax-ns#"
   xmlns:svg="http://www.w3.org/2000/svg"
   xmlns="http://www.w3.org/2000/svg"
   xmlns:xlink="http://www.w3.org/1999/xlink"
   version="1.1"
   id="svg5728"
   viewBox="0 0 87.717896 173.11706"
   height="48.857483mm"
   width="24.755939mm">
  <defs
     id="defs5730">
    <linearGradient
       id="linearGradient4771">
      <stop
         style="stop-color:#787885;stop-opacity:1;"
         offset="0"
         id="stop4773" />
      <stop
         id="stop4858"
         offset="0.8214286"
         style="stop-color:#6d6483;stop-opacity:1;" />
      <stop
         style="stop-color:#62596b;stop-opacity:1;"
         offset="1"
         id="stop4775" />
    </linearGradient>
    <linearGradient
       id="linearGradient4757">
      <stop
         style="stop-color:#b3b3cb;stop-opacity:1;"
         offset="0"
         id="stop4759" />
      <stop
         style="stop-color:#76697e;stop-opacity:1;"
         offset="1"
         id="stop4761" />
    </linearGradient>
    <linearGradient
       id="linearGradient4726">
      <stop
         style="stop-color:#000000;stop-opacity:1;"
         offset="0"
         id="stop4728" />
      <stop
         style="stop-color:#4e413b;stop-opacity:1;"
         offset="1"
         id="stop4730" />
    </linearGradient>
    <linearGradient
       id="linearGradient4714">
      <stop
         style="stop-color:#ffaa00;stop-opacity:1;"
         offset="0"
         id="stop4716" />
      <stop
         style="stop-color:#8e392e;stop-opacity:1;"
         offset="1"
         id="stop4718" />
    </linearGradient>
    <linearGradient
       id="linearGradient4662"
       osb:paint="gradient">
      <stop
         id="stop4666"
         offset="0"
         style="stop-color:#e2dbec;stop-opacity:1;" />
      <stop
         id="stop4664"
         offset="1"
         style="stop-color:#b4a9bc;stop-opacity:1;" />
    </linearGradient>
    <linearGradient
       id="linearGradient4979"
       osb:paint="solid">
      <stop
         style="stop-color:#ffffff;stop-opacity:1;"
         offset="0"
         id="stop4981" />
    </linearGradient>
    <linearGradient
       id="linearGradient4849">
      <stop
         id="stop4853"
         offset="0"
         style="stop-color:#d7eef4;stop-opacity:1" />
      <stop
         id="stop4851"
         offset="1"
         style="stop-color:#aabfff;stop-opacity:1" />
    </linearGradient>
    <marker
       orient="auto"
       refY="0"
       refX="0"
       id="SquareM"
       style="overflow:visible">
      <path
         id="path4498"
         d="M -5,-5 -5,5 5,5 5,-5 -5,-5 Z"
         style="fill:#7d3f31;fill-opacity:1;fill-rule:evenodd;stroke:#000000;stroke-width:1pt;stroke-opacity:1"
         transform="scale(0.4,0.4)" />
    </marker>
    <marker
       orient="auto"
       refY="0"
       refX="0"
       id="DotL"
       style="overflow:visible">
      <path
         id="path4486"
         d="m -2.5,-1 c 0,2.76 -2.24,5 -5,5 -2.76,0 -5,-2.24 -5,-5 0,-2.76 2.24,-5 5,-5 2.76,0 5,2.24 5,5 z"
         style="fill:#7d3f31;fill-opacity:1;fill-rule:evenodd;stroke:#000000;stroke-width:1pt;stroke-opacity:1"
         transform="matrix(0.8,0,0,0.8,5.92,0.8)" />
    </marker>
    <radialGradient
       xlink:href="#linearGradient4849"
       id="radialGradient4855"
       cx="177.84604"
       cy="569.67688"
       fx="177.84604"
       fy="569.67688"
       r="60.535427"
       gradientTransform="matrix(1.6843643,0.00402501,-0.00589989,2.4689553,-118.35044,-820.58371)"
       gradientUnits="userSpaceOnUse" />
    <radialGradient
       xlink:href="#linearGradient4714"
       id="radialGradient4724"
       cx="275"
       cy="455.87613"
       fx="275"
       fy="455.87613"
       r="48.35714"
       gradientTransform="matrix(1,0,0,0.68361086,0,144.23426)"
       gradientUnits="userSpaceOnUse" />
    <radialGradient
       xlink:href="#linearGradient4757"
       id="radialGradient4763"
       cx="197.23228"
       cy="516.22369"
       fx="197.23228"
       fy="516.22369"
       r="100.25256"
       gradientTransform="matrix(1,0,0,0.82870668,0,88.425674)"
       gradientUnits="userSpaceOnUse" />
    <radialGradient
       xlink:href="#linearGradient4771"
       id="radialGradient4777"
       cx="196.00797"
       cy="523.5473"
       fx="196.00797"
       fy="523.5473"
       r="125.72055"
       gradientTransform="matrix(1,0,0,0.89585144,0,54.526701)"
       gradientUnits="userSpaceOnUse" />
    <filter
       style="color-interpolation-filters:sRGB"
       x="0"
       y="0"
       height="1"
       width="1"
       id="filter4971">
      <feColorMatrix
         in="SourceGraphic"
         result="r"
         type="matrix"
         values="1 0 0 0 0 1 0 0 0 0 1 0 0 0 0 0 0 0 0 1 "
         id="feColorMatrix4973" />
      <feColorMatrix
         in="SourceGraphic"
         result="g"
         type="matrix"
         values="0 1 0 0 0 0 1 0 0 0 0 1 0 0 0 0 0 0 0 1 "
         id="feColorMatrix4975" />
      <feColorMatrix
         in="SourceGraphic"
         result="b"
         type="matrix"
         values="0 0 1 0 0 0 0 1 0 0 0 0 1 0 0 0 0 0 0 1 "
         id="feColorMatrix4977" />
      <feBlend
         mode="darken"
         in="r"
         in2="g"
         result="minrg"
         id="feBlend4979" />
      <feBlend
         mode="darken"
         in="minrg"
         in2="b"
         result="p"
         id="feBlend4981" />
      <feBlend
         mode="lighten"
         in="r"
         in2="g"
         result="maxrg"
         id="feBlend4983" />
      <feBlend
         mode="lighten"
         in="maxrg"
         in2="b"
         result="q"
         id="feBlend4985" />
      <feComponentTransfer
         in="q"
         result="q2"
         id="feComponentTransfer4987">
        <feFuncR
           type="linear"
           slope="0"
           id="feFuncR4989" />
      </feComponentTransfer>
      <feBlend
         mode="lighten"
         in="p"
         in2="q2"
         result="pq"
         id="feBlend4991" />
      <feColorMatrix
         in="pq"
         result="qminp"
         type="matrix"
         values="-1 1 0 0 0 -1 1 0 0 0 -1 1 0 0 0 0 0 0 0 1 "
         id="feColorMatrix4993" />
      <feComponentTransfer
         in="qminp"
         result="coefsq"
         id="feComponentTransfer4995">
        <feFuncR
           type="table"
           tableValues="1 1 0 0 0 1 1"
           id="feFuncR4997" />
        <feFuncG
           type="table"
           tableValues="0 1 1 1 0 0 0"
           id="feFuncG4999" />
        <feFuncB
           type="table"
           tableValues="0 0 0 1 1 1 0"
           id="feFuncB5001" />
      </feComponentTransfer>
      <feFlood
         flood-color="rgb(203,0,254)"
         result="result1"
         id="feFlood5003" />
      <feComposite
         k4="0"
         k3="0"
         k2="0"
         in="qminp"
         in2="result1"
         result="qminpc"
         operator="arithmetic"
         k1="1"
         id="feComposite5005" />
      <feComposite
         k4="0"
         k1="0"
         in="p"
         in2="qminpc"
         result="color"
         operator="arithmetic"
         k2="1"
         k3="1"
         id="feComposite5007" />
      <feComposite
         in="color"
         in2="SourceGraphic"
         operator="in"
         id="feComposite5009" />
    </filter>
  </defs>
  <metadata
     id="metadata5733">
    <rdf:RDF>
      <cc:Work
         rdf:about="">
        <dc:format>image/svg+xml</dc:format>
        <dc:type
           rdf:resource="http://purl.org/dc/dcmitype/StillImage" />
        <dc:title></dc:title>
      </cc:Work>
    </rdf:RDF>
  </metadata>
  <g
     transform="translate(-192.85534,-172.701)"
     id="layer1">
    <g
       transform="translate(-23.146657,11.254371)"
       style="display:inline"
       id="Febreze">
      <g
         transform="matrix(0.71628179,0,0,0.71628179,132.45996,-137.9456)"
         id="g4878">
        <path
           style="fill:#7343a4;fill-opacity:1;fill-rule:evenodd;stroke:#4c2889;stroke-width:1px;stroke-linecap:butt;stroke-linejoin:miter;stroke-opacity:1"
           d="m 117.14286,420.93363 0.35714,17.85714 16.78571,0.35715 c 0,0 6.78572,9.64285 4.28572,12.85714 -2.5,3.21429 -14.8899,22.98977 -15.35714,36.42857 -0.24381,7.0125 8.71174,-27.64136 32.14285,-37.14286 13.21429,-7.85714 28.42194,-12.15761 67.5,-12.14285 3.21429,-8.21429 -10.98977,-13.86819 -19.64286,-16.78572 -7.80529,-2.63168 -45.98274,-6.65365 -69.28571,-1.07143 -2.00721,-0.58256 -16.78571,-0.35714 -16.78571,-0.35714 z"
           id="path4839" />
        <path
           style="fill:url(#radialGradient4855);fill-opacity:1;fill-rule:evenodd;stroke:#5e6d9d;stroke-width:1px;stroke-linecap:butt;stroke-linejoin:miter;stroke-opacity:1"
           d="m 155.71429,452.00506 c 0,0 7.85714,8.21429 7.85714,10 0,1.78571 -1.42857,7.14286 -3.21429,6.78571 -1.78571,-0.35714 0.35715,18.57143 0.35715,18.57143 0,0 -1.07143,14.28572 -2.5,15.71429 -1.42858,1.42857 -13.57143,34.28571 -19.64286,42.5 -6.15619,8.32897 -19.64286,38.57143 -20,44.64286 -0.35714,6.07142 1.42857,38.21428 4.28571,40 2.85715,1.78571 3.92857,8.57142 4.28572,11.42857 0.35714,2.85714 5.35714,11.07143 5.35714,12.5 0,1.42857 41.92016,5.34188 48.92857,5 14.64286,-0.71429 40.71429,-1.07143 43.92857,-5.35715 3.21429,-4.28571 6.78572,-14.64285 6.78572,-14.64285 0,0 1.42857,-6.78572 0.35714,-8.57143 -1.07143,-1.78572 4.64286,-5.35714 5,-9.28571 0.18291,-2.01201 3.92857,-27.14286 -3.57143,-46.07143 -7.5,-18.92858 -25.35714,-49.64286 -25.35714,-49.64286 0,0 -14.64286,-25.71429 -14.28572,-37.5 0.35715,-11.78572 0.35715,-25.71429 0.35715,-25.71429 0,0 1.78571,-8.21428 4.28571,-8.92857 2.5,-0.71428 16.78572,-8.21428 18.92857,-7.5 2.14286,0.71429 5,-6.78571 5,-6.78571 0,0 -53.57143,-1.42857 -67.14285,12.85714 z"
           id="path4841" />
        <path
           style="fill:none;fill-rule:evenodd;stroke:#5e6d9d;stroke-width:1px;stroke-linecap:butt;stroke-linejoin:miter;stroke-opacity:1"
           d="m 160.35714,485.93363 c 0,0 17.14286,7.14286 33.21429,1.42857"
           id="path4843" />
        <path
           style="fill:none;fill-rule:evenodd;stroke:#7c8db9;stroke-width:1px;stroke-linecap:butt;stroke-linejoin:miter;stroke-opacity:1"
           d="m 196.07143,497.71935 c 0,0 -33.57143,2.14285 -37.14286,4.64285"
           id="path4845" />
        <path
           style="fill:#ffffff;fill-opacity:1;fill-rule:evenodd;stroke:#000000;stroke-width:1px;stroke-linecap:butt;stroke-linejoin:miter;stroke-opacity:1"
           d="m 165.71428,537.3622 c -2.99645,1.97505 -23.57142,40.35715 -26.78571,47.85714 -2.90032,6.76738 -5.80012,27.7851 -5.35714,30.00001 1.42857,7.14285 6.25502,14.1383 17.14285,17.14286 6.43159,1.77483 37.31314,1.08477 42.5,0.71428 5,-0.35715 18.10074,-3.36346 22.85715,-10.71429 3.92857,-6.07143 7.62482,-20.50689 3.57143,-30.71428 -3.47989,-8.76319 -23.98014,-49.92385 -27.5,-52.85715 -5.32714,-4.4394 -11.60937,-4.05642 -14.28572,-3.92856 -2.5225,0.1205 -9.1464,0.52495 -12.14286,2.49999 z"
           id="path4847" />
        <path
           style="fill:none;fill-rule:evenodd;stroke:#3d0055;stroke-width:1px;stroke-linecap:butt;stroke-linejoin:miter;stroke-opacity:1"
           d="m 133.57143,421.29077 0.35714,18.21429"
           id="path4867" />
      </g>
    </g>
  </g>
</svg>
