<?xml version="1.0" encoding="UTF-8" standalone="no"?>
<svg
   xmlns:osb="http://www.openswatchbook.org/uri/2009/osb"
   xmlns:dc="http://purl.org/dc/elements/1.1/"
   xmlns:cc="http://creativecommons.org/ns#"
   xmlns:rdf="http://www.w3.org/1999/02/22-rdf-syntax-ns#"
   xmlns:svg="http://www.w3.org/2000/svg"
   xmlns="http://www.w3.org/2000/svg"
   xmlns:xlink="http://www.w3.org/1999/xlink"
   version="1.1"
   id="svg5728"
   viewBox="0 0 81.097626 143.92587"
   height="40.61908mm"
   width="22.887552mm">
  <defs
     id="defs5730">
    <linearGradient
       id="linearGradient4771">
      <stop
         style="stop-color:#787885;stop-opacity:1;"
         offset="0"
         id="stop4773" />
      <stop
         id="stop4858"
         offset="0.8214286"
         style="stop-color:#6d6483;stop-opacity:1;" />
      <stop
         style="stop-color:#62596b;stop-opacity:1;"
         offset="1"
         id="stop4775" />
    </linearGradient>
    <linearGradient
       id="linearGradient4757">
      <stop
         style="stop-color:#b3b3cb;stop-opacity:1;"
         offset="0"
         id="stop4759" />
      <stop
         style="stop-color:#76697e;stop-opacity:1;"
         offset="1"
         id="stop4761" />
    </linearGradient>
    <linearGradient
       id="linearGradient4726">
      <stop
         style="stop-color:#000000;stop-opacity:1;"
         offset="0"
         id="stop4728" />
      <stop
         style="stop-color:#4e413b;stop-opacity:1;"
         offset="1"
         id="stop4730" />
    </linearGradient>
    <linearGradient
       id="linearGradient4714">
      <stop
         style="stop-color:#ffaa00;stop-opacity:1;"
         offset="0"
         id="stop4716" />
      <stop
         style="stop-color:#8e392e;stop-opacity:1;"
         offset="1"
         id="stop4718" />
    </linearGradient>
    <linearGradient
       id="linearGradient4662"
       osb:paint="gradient">
      <stop
         id="stop4666"
         offset="0"
         style="stop-color:#e2dbec;stop-opacity:1;" />
      <stop
         id="stop4664"
         offset="1"
         style="stop-color:#b4a9bc;stop-opacity:1;" />
    </linearGradient>
    <linearGradient
       id="linearGradient4534">
      <stop
         style="stop-color:#803a00;stop-opacity:1;"
         offset="0"
         id="stop4536" />
      <stop
         style="stop-color:#deaa87;stop-opacity:1"
         offset="1"
         id="stop4538" />
    </linearGradient>
    <linearGradient
       id="linearGradient4979"
       osb:paint="solid">
      <stop
         style="stop-color:#ffffff;stop-opacity:1;"
         offset="0"
         id="stop4981" />
    </linearGradient>
    <marker
       orient="auto"
       refY="0"
       refX="0"
       id="SquareM"
       style="overflow:visible">
      <path
         id="path4498"
         d="M -5,-5 -5,5 5,5 5,-5 -5,-5 Z"
         style="fill:#7d3f31;fill-opacity:1;fill-rule:evenodd;stroke:#000000;stroke-width:1pt;stroke-opacity:1"
         transform="scale(0.4,0.4)" />
    </marker>
    <marker
       orient="auto"
       refY="0"
       refX="0"
       id="DotL"
       style="overflow:visible">
      <path
         id="path4486"
         d="m -2.5,-1 c 0,2.76 -2.24,5 -5,5 -2.76,0 -5,-2.24 -5,-5 0,-2.76 2.24,-5 5,-5 2.76,0 5,2.24 5,5 z"
         style="fill:#7d3f31;fill-opacity:1;fill-rule:evenodd;stroke:#000000;stroke-width:1pt;stroke-opacity:1"
         transform="matrix(0.8,0,0,0.8,5.92,0.8)" />
    </marker>
    <linearGradient
       xlink:href="#linearGradient4534"
       id="linearGradient4540"
       x1="114.67837"
       y1="497.19861"
       x2="193.30608"
       y2="497.19861"
       gradientUnits="userSpaceOnUse" />
    <radialGradient
       xlink:href="#linearGradient4714"
       id="radialGradient4724"
       cx="275"
       cy="455.87613"
       fx="275"
       fy="455.87613"
       r="48.35714"
       gradientTransform="matrix(1,0,0,0.68361086,0,144.23426)"
       gradientUnits="userSpaceOnUse" />
    <radialGradient
       xlink:href="#linearGradient4757"
       id="radialGradient4763"
       cx="197.23228"
       cy="516.22369"
       fx="197.23228"
       fy="516.22369"
       r="100.25256"
       gradientTransform="matrix(1,0,0,0.82870668,0,88.425674)"
       gradientUnits="userSpaceOnUse" />
    <radialGradient
       xlink:href="#linearGradient4771"
       id="radialGradient4777"
       cx="196.00797"
       cy="523.5473"
       fx="196.00797"
       fy="523.5473"
       r="125.72055"
       gradientTransform="matrix(1,0,0,0.89585144,0,54.526701)"
       gradientUnits="userSpaceOnUse" />
    <filter
       style="color-interpolation-filters:sRGB"
       x="0"
       y="0"
       height="1"
       width="1"
       id="filter4971">
      <feColorMatrix
         in="SourceGraphic"
         result="r"
         type="matrix"
         values="1 0 0 0 0 1 0 0 0 0 1 0 0 0 0 0 0 0 0 1 "
         id="feColorMatrix4973" />
      <feColorMatrix
         in="SourceGraphic"
         result="g"
         type="matrix"
         values="0 1 0 0 0 0 1 0 0 0 0 1 0 0 0 0 0 0 0 1 "
         id="feColorMatrix4975" />
      <feColorMatrix
         in="SourceGraphic"
         result="b"
         type="matrix"
         values="0 0 1 0 0 0 0 1 0 0 0 0 1 0 0 0 0 0 0 1 "
         id="feColorMatrix4977" />
      <feBlend
         mode="darken"
         in="r"
         in2="g"
         result="minrg"
         id="feBlend4979" />
      <feBlend
         mode="darken"
         in="minrg"
         in2="b"
         result="p"
         id="feBlend4981" />
      <feBlend
         mode="lighten"
         in="r"
         in2="g"
         result="maxrg"
         id="feBlend4983" />
      <feBlend
         mode="lighten"
         in="maxrg"
         in2="b"
         result="q"
         id="feBlend4985" />
      <feComponentTransfer
         in="q"
         result="q2"
         id="feComponentTransfer4987">
        <feFuncR
           type="linear"
           slope="0"
           id="feFuncR4989" />
      </feComponentTransfer>
      <feBlend
         mode="lighten"
         in="p"
         in2="q2"
         result="pq"
         id="feBlend4991" />
      <feColorMatrix
         in="pq"
         result="qminp"
         type="matrix"
         values="-1 1 0 0 0 -1 1 0 0 0 -1 1 0 0 0 0 0 0 0 1 "
         id="feColorMatrix4993" />
      <feComponentTransfer
         in="qminp"
         result="coefsq"
         id="feComponentTransfer4995">
        <feFuncR
           type="table"
           tableValues="1 1 0 0 0 1 1"
           id="feFuncR4997" />
        <feFuncG
           type="table"
           tableValues="0 1 1 1 0 0 0"
           id="feFuncG4999" />
        <feFuncB
           type="table"
           tableValues="0 0 0 1 1 1 0"
           id="feFuncB5001" />
      </feComponentTransfer>
      <feFlood
         flood-color="rgb(203,0,254)"
         result="result1"
         id="feFlood5003" />
      <feComposite
         k4="0"
         k3="0"
         k2="0"
         in="qminp"
         in2="result1"
         result="qminpc"
         operator="arithmetic"
         k1="1"
         id="feComposite5005" />
      <feComposite
         k4="0"
         k1="0"
         in="p"
         in2="qminpc"
         result="color"
         operator="arithmetic"
         k2="1"
         k3="1"
         id="feComposite5007" />
      <feComposite
         in="color"
         in2="SourceGraphic"
         operator="in"
         id="feComposite5009" />
    </filter>
  </defs>
  <metadata
     id="metadata5733">
    <rdf:RDF>
      <cc:Work
         rdf:about="">
        <dc:format>image/svg+xml</dc:format>
        <dc:type
           rdf:resource="http://purl.org/dc/dcmitype/StillImage" />
        <dc:title></dc:title>
      </cc:Work>
    </rdf:RDF>
  </metadata>
  <g
     transform="translate(-112.63322,-250.05304)"
     id="layer1">
    <g
       transform="translate(-23.146657,11.254371)"
       style="display:inline"
       id="Plant">
      <g
         transform="translate(23.571429,-149.28571)"
         id="g4542"
         style="display:inline">
        <path
           style="fill:#803a00;fill-opacity:1;fill-rule:evenodd;stroke:#803a00;stroke-width:1px;stroke-linecap:butt;stroke-linejoin:miter;stroke-opacity:1"
           d="m 116.78572,463.07649 8.03572,17.67857 59.82143,0.53572 6.60714,-18.57143 c 0,0 -16.07143,-5 -37.85714,-4.28571 -14.28572,-0.35715 -27.85715,0.35714 -36.60715,4.64285 z"
           id="path4530" />
        <path
           style="fill:#808d32;fill-opacity:1;fill-rule:evenodd;stroke:#4e6000;stroke-width:0.69999999;stroke-linecap:butt;stroke-linejoin:miter;stroke-miterlimit:4;stroke-dasharray:none;stroke-dashoffset:0;stroke-opacity:1"
           d="m 152.67857,469.50506 c 0,0 -1.06698,-25.53769 -1.24999,-28.39286 -0.11148,-1.73929 0.0255,-8.20905 -2.14286,-13.75 -1.16989,-2.98953 -4.46429,-5.89286 -4.46429,-5.89286 0,0 -7.22048,-1.11846 -10.53572,-2.67857 -3.03571,-1.42857 -4.82142,-1.42857 -8.39285,-7.5 -3.57143,-6.07142 -2.92988,-5.02219 -4.82143,-8.75 -1.1458,-2.2581 -2.09077,-5.2006 -4.28572,-9.46428 -2.41703,-4.69506 -3.21428,-4.64286 -3.21428,-4.64286 0,0 11.29872,5.38151 12.32143,5.89286 5.71427,2.85714 8.74999,3.57142 8.74999,3.57142 5.01142,3.11039 9.4643,9.46429 10.35716,11.96429 0.89285,2.5 1.78571,10 1.24999,10.35714 -0.53571,0.35715 3.21428,5.00001 3.92857,6.42858 0.47915,0.95831 2.32144,9.46428 2.67857,13.03571 0.24939,2.49393 2.67858,28.75 1.96429,29.82143 -0.71429,1.07143 -2.14286,0 -2.14286,0 z"
           id="path4522" />
        <path
           style="fill:#808d32;fill-opacity:1;fill-rule:evenodd;stroke:#4e6000;stroke-width:0.69999999;stroke-linecap:butt;stroke-linejoin:miter;stroke-miterlimit:4;stroke-dasharray:none;stroke-opacity:1"
           d="m 177.32143,409.32649 c 0,0 -8.92857,1.24999 -15.53572,8.75 -6.61451,7.50837 -8.21428,10.89285 -8.57142,18.03572 -0.197,3.93984 1.96428,12.32142 2.5,13.03571 0.53571,0.71428 -1.60715,3.03571 -1.60715,3.03571 l 0.53572,7.32143 c 0,0 0.35714,-7.85714 2.14286,-9.64286 1.78571,-1.78571 7.75167,-4.95288 11.24999,-9.10714 2.85715,-3.39286 8.21063,-11.68313 9.64286,-21.78572 0.6824,-4.81346 -0.35714,-9.64285 -0.35714,-9.64285 z"
           id="path4524" />
        <path
           style="fill:none;fill-rule:evenodd;stroke:#4e6000;stroke-width:0.30000001;stroke-linecap:butt;stroke-linejoin:miter;stroke-miterlimit:4;stroke-dasharray:none;stroke-opacity:1"
           d="m 142.14286,417.89791 c 0.92895,0.90527 -3.87227,-14.62299 -18.39286,-20.71428"
           id="path4526" />
        <path
           style="fill:none;fill-rule:evenodd;stroke:#4e6000;stroke-width:0.30000001;stroke-linecap:round;stroke-linejoin:miter;stroke-miterlimit:4;stroke-dasharray:none;stroke-opacity:1"
           d="m 157.32143,445.75506 c 0,0 1.07143,-21.25 15,-30.89286"
           id="path4528" />
        <path
           style="fill:url(#linearGradient4540);fill-opacity:1;fill-rule:evenodd;stroke:#803a00;stroke-width:1px;stroke-linecap:butt;stroke-linejoin:miter;stroke-opacity:1"
           d="m 115.17858,465.39791 0.71428,17.32143 c 0,0 1.60714,1.78572 4.46428,2.5 1.07143,-0.89285 10.53572,42.5 12.32143,42.85715 1.78572,0.35714 12.33226,3.84655 20.35715,3.39286 8.32653,-0.47075 20.89285,-1.78572 22.67857,-3.92858 1.78571,-2.14285 11.42857,-41.60714 11.78571,-43.03571 1.25,-0.53571 3.39286,-0.53571 3.92857,-2.14286 0.68697,-2.06094 1.96429,-19.28571 1.07143,-19.46428 -0.89286,-0.17858 -5.56955,4.05461 -10,4.82142 -9.28571,1.60715 -33.57143,3.39286 -40.35714,2.85715 -2.59198,-0.20463 -21.2332,-4.90791 -25,-6.96428 -1.90678,-1.04096 -1.96428,1.7857 -1.96428,1.7857 z"
           id="path4532" />
      </g>
    </g>
  </g>
</svg>
