<?xml version="1.0" encoding="UTF-8" standalone="no"?>
<svg
   xmlns:osb="http://www.openswatchbook.org/uri/2009/osb"
   xmlns:dc="http://purl.org/dc/elements/1.1/"
   xmlns:cc="http://creativecommons.org/ns#"
   xmlns:rdf="http://www.w3.org/1999/02/22-rdf-syntax-ns#"
   xmlns:svg="http://www.w3.org/2000/svg"
   xmlns="http://www.w3.org/2000/svg"
   xmlns:xlink="http://www.w3.org/1999/xlink"
   xmlns:sodipodi="http://sodipodi.sourceforge.net/DTD/sodipodi-0.dtd"
   xmlns:inkscape="http://www.inkscape.org/namespaces/inkscape"
   version="1.1"
   id="svg5728"
   viewBox="0 0 78.087591 72.454259"
   height="20.448202mm"
   width="22.038054mm"
   inkscape:version="0.91 r13725"
   sodipodi:docname="Rat.svg">
  <sodipodi:namedview
     pagecolor="#ffffff"
     bordercolor="#666666"
     borderopacity="1"
     objecttolerance="10"
     gridtolerance="10"
     guidetolerance="10"
     inkscape:pageopacity="0"
     inkscape:pageshadow="2"
     inkscape:window-width="2560"
     inkscape:window-height="1315"
     id="namedview3488"
     showgrid="false"
     inkscape:zoom="13.02891"
     inkscape:cx="36.841842"
     inkscape:cy="39.733596"
     inkscape:window-x="19"
     inkscape:window-y="0"
     inkscape:window-maximized="0"
     inkscape:current-layer="Rat2" />
  <defs
     id="defs5730">
    <linearGradient
       id="linearGradient4771">
      <stop
         style="stop-color:#787885;stop-opacity:1;"
         offset="0"
         id="stop4773" />
      <stop
         id="stop4858"
         offset="0.8214286"
         style="stop-color:#6d6483;stop-opacity:1;" />
      <stop
         style="stop-color:#62596b;stop-opacity:1;"
         offset="1"
         id="stop4775" />
    </linearGradient>
    <linearGradient
       id="linearGradient4757">
      <stop
         style="stop-color:#b3b3cb;stop-opacity:1;"
         offset="0"
         id="stop4759" />
      <stop
         style="stop-color:#76697e;stop-opacity:1;"
         offset="1"
         id="stop4761" />
    </linearGradient>
    <linearGradient
       id="linearGradient4726">
      <stop
         style="stop-color:#000000;stop-opacity:1;"
         offset="0"
         id="stop4728" />
      <stop
         style="stop-color:#4e413b;stop-opacity:1;"
         offset="1"
         id="stop4730" />
    </linearGradient>
    <linearGradient
       id="linearGradient4714">
      <stop
         style="stop-color:#ffaa00;stop-opacity:1;"
         offset="0"
         id="stop4716" />
      <stop
         style="stop-color:#8e392e;stop-opacity:1;"
         offset="1"
         id="stop4718" />
    </linearGradient>
    <linearGradient
       id="linearGradient4662"
       osb:paint="gradient">
      <stop
         id="stop4666"
         offset="0"
         style="stop-color:#e2dbec;stop-opacity:1;" />
      <stop
         id="stop4664"
         offset="1"
         style="stop-color:#b4a9bc;stop-opacity:1;" />
    </linearGradient>
    <linearGradient
       id="linearGradient4979"
       osb:paint="solid">
      <stop
         style="stop-color:#ffffff;stop-opacity:1;"
         offset="0"
         id="stop4981" />
    </linearGradient>
    <marker
       orient="auto"
       refY="0"
       refX="0"
       id="SquareM"
       style="overflow:visible">
      <path
         id="path4498"
         d="M -5,-5 -5,5 5,5 5,-5 -5,-5 Z"
         style="fill:#7d3f31;fill-opacity:1;fill-rule:evenodd;stroke:#000000;stroke-width:1pt;stroke-opacity:1"
         transform="scale(0.4,0.4)" />
    </marker>
    <marker
       orient="auto"
       refY="0"
       refX="0"
       id="DotL"
       style="overflow:visible">
      <path
         id="path4486"
         d="m -2.5,-1 c 0,2.76 -2.24,5 -5,5 -2.76,0 -5,-2.24 -5,-5 0,-2.76 2.24,-5 5,-5 2.76,0 5,2.24 5,5 z"
         style="fill:#7d3f31;fill-opacity:1;fill-rule:evenodd;stroke:#000000;stroke-width:1pt;stroke-opacity:1"
         transform="matrix(0.8,0,0,0.8,5.92,0.8)" />
    </marker>
    <linearGradient
       id="linearGradient4198">
      <stop
         style="stop-color:#28170b;stop-opacity:1"
         offset="0"
         id="stop4200" />
      <stop
         style="stop-color:#784421;stop-opacity:1"
         offset="1"
         id="stop4202" />
    </linearGradient>
    <linearGradient
       xlink:href="#linearGradient4198"
       id="linearGradient6492"
       x1="354.11127"
       y1="459.33221"
       x2="304.86536"
       y2="395.67148"
       gradientUnits="userSpaceOnUse" />
    <radialGradient
       xlink:href="#linearGradient4714"
       id="radialGradient4724"
       cx="275"
       cy="455.87613"
       fx="275"
       fy="455.87613"
       r="48.35714"
       gradientTransform="matrix(1,0,0,0.68361086,0,144.23426)"
       gradientUnits="userSpaceOnUse" />
    <radialGradient
       xlink:href="#linearGradient4757"
       id="radialGradient4763"
       cx="197.23228"
       cy="516.22369"
       fx="197.23228"
       fy="516.22369"
       r="100.25256"
       gradientTransform="matrix(1,0,0,0.82870668,0,88.425674)"
       gradientUnits="userSpaceOnUse" />
    <radialGradient
       xlink:href="#linearGradient4771"
       id="radialGradient4777"
       cx="196.00797"
       cy="523.5473"
       fx="196.00797"
       fy="523.5473"
       r="125.72055"
       gradientTransform="matrix(1,0,0,0.89585144,0,54.526701)"
       gradientUnits="userSpaceOnUse" />
    <filter
       style="color-interpolation-filters:sRGB"
       x="0"
       y="0"
       height="1"
       width="1"
       id="filter4971">
      <feColorMatrix
         in="SourceGraphic"
         result="r"
         type="matrix"
         values="1 0 0 0 0 1 0 0 0 0 1 0 0 0 0 0 0 0 0 1 "
         id="feColorMatrix4973" />
      <feColorMatrix
         in="SourceGraphic"
         result="g"
         type="matrix"
         values="0 1 0 0 0 0 1 0 0 0 0 1 0 0 0 0 0 0 0 1 "
         id="feColorMatrix4975" />
      <feColorMatrix
         in="SourceGraphic"
         result="b"
         type="matrix"
         values="0 0 1 0 0 0 0 1 0 0 0 0 1 0 0 0 0 0 0 1 "
         id="feColorMatrix4977" />
      <feBlend
         mode="darken"
         in="r"
         in2="g"
         result="minrg"
         id="feBlend4979" />
      <feBlend
         mode="darken"
         in="minrg"
         in2="b"
         result="p"
         id="feBlend4981" />
      <feBlend
         mode="lighten"
         in="r"
         in2="g"
         result="maxrg"
         id="feBlend4983" />
      <feBlend
         mode="lighten"
         in="maxrg"
         in2="b"
         result="q"
         id="feBlend4985" />
      <feComponentTransfer
         in="q"
         result="q2"
         id="feComponentTransfer4987">
        <feFuncR
           type="linear"
           slope="0"
           id="feFuncR4989" />
      </feComponentTransfer>
      <feBlend
         mode="lighten"
         in="p"
         in2="q2"
         result="pq"
         id="feBlend4991" />
      <feColorMatrix
         in="pq"
         result="qminp"
         type="matrix"
         values="-1 1 0 0 0 -1 1 0 0 0 -1 1 0 0 0 0 0 0 0 1 "
         id="feColorMatrix4993" />
      <feComponentTransfer
         in="qminp"
         result="coefsq"
         id="feComponentTransfer4995">
        <feFuncR
           type="table"
           tableValues="1 1 0 0 0 1 1"
           id="feFuncR4997" />
        <feFuncG
           type="table"
           tableValues="0 1 1 1 0 0 0"
           id="feFuncG4999" />
        <feFuncB
           type="table"
           tableValues="0 0 0 1 1 1 0"
           id="feFuncB5001" />
      </feComponentTransfer>
      <feFlood
         flood-color="rgb(203,0,254)"
         result="result1"
         id="feFlood5003" />
      <feComposite
         k4="0"
         k3="0"
         k2="0"
         in="qminp"
         in2="result1"
         result="qminpc"
         operator="arithmetic"
         k1="1"
         id="feComposite5005" />
      <feComposite
         k4="0"
         k1="0"
         in="p"
         in2="qminpc"
         result="color"
         operator="arithmetic"
         k2="1"
         k3="1"
         id="feComposite5007" />
      <feComposite
         in="color"
         in2="SourceGraphic"
         operator="in"
         id="feComposite5009" />
    </filter>
    <marker
       style="overflow:visible"
       id="SquareM-5"
       refX="0"
       refY="0"
       orient="auto">
      <path
         transform="scale(0.4,0.4)"
         style="fill:#7d3f31;fill-opacity:1;fill-rule:evenodd;stroke:#000000;stroke-width:1pt;stroke-opacity:1"
         d="M -5,-5 -5,5 5,5 5,-5 -5,-5 Z"
         id="path4498-0" />
    </marker>
    <marker
       style="overflow:visible"
       id="DotL-5"
       refX="0"
       refY="0"
       orient="auto">
      <path
         transform="matrix(0.8,0,0,0.8,5.92,0.8)"
         style="fill:#7d3f31;fill-opacity:1;fill-rule:evenodd;stroke:#000000;stroke-width:1pt;stroke-opacity:1"
         d="m -2.5,-1 c 0,2.76 -2.24,5 -5,5 -2.76,0 -5,-2.24 -5,-5 0,-2.76 2.24,-5 5,-5 2.76,0 5,2.24 5,5 z"
         id="path4486-2" />
    </marker>
    <linearGradient
       gradientUnits="userSpaceOnUse"
       y2="395.67148"
       x2="304.86536"
       y1="459.33221"
       x1="354.11127"
       id="linearGradient3722"
       xlink:href="#linearGradient4198" />
    <radialGradient
       gradientUnits="userSpaceOnUse"
       gradientTransform="matrix(1,0,0,0.68361086,0,144.23426)"
       r="48.35714"
       fy="455.87613"
       fx="275"
       cy="455.87613"
       cx="275"
       id="radialGradient4724-1"
       xlink:href="#linearGradient4714" />
    <radialGradient
       gradientUnits="userSpaceOnUse"
       gradientTransform="matrix(1,0,0,0.82870668,0,88.425674)"
       r="100.25256"
       fy="516.22369"
       fx="197.23228"
       cy="516.22369"
       cx="197.23228"
       id="radialGradient4763-9"
       xlink:href="#linearGradient4757" />
    <radialGradient
       gradientUnits="userSpaceOnUse"
       gradientTransform="matrix(1,0,0,0.89585144,0,54.526701)"
       r="125.72055"
       fy="523.5473"
       fx="196.00797"
       cy="523.5473"
       cx="196.00797"
       id="radialGradient4777-6"
       xlink:href="#linearGradient4771" />
    <filter
       id="filter4971-9"
       width="1"
       height="1"
       y="0"
       x="0"
       style="color-interpolation-filters:sRGB">
      <feColorMatrix
         id="feColorMatrix4973-8"
         values="1 0 0 0 0 1 0 0 0 0 1 0 0 0 0 0 0 0 0 1 "
         type="matrix"
         result="r"
         in="SourceGraphic" />
      <feColorMatrix
         id="feColorMatrix4975-0"
         values="0 1 0 0 0 0 1 0 0 0 0 1 0 0 0 0 0 0 0 1 "
         type="matrix"
         result="g"
         in="SourceGraphic" />
      <feColorMatrix
         id="feColorMatrix4977-2"
         values="0 0 1 0 0 0 0 1 0 0 0 0 1 0 0 0 0 0 0 1 "
         type="matrix"
         result="b"
         in="SourceGraphic" />
      <feBlend
         id="feBlend4979-1"
         result="minrg"
         in2="g"
         in="r"
         mode="darken" />
      <feBlend
         id="feBlend4981-5"
         result="p"
         in2="b"
         in="minrg"
         mode="darken" />
      <feBlend
         id="feBlend4983-6"
         result="maxrg"
         in2="g"
         in="r"
         mode="lighten" />
      <feBlend
         id="feBlend4985-2"
         result="q"
         in2="b"
         in="maxrg"
         mode="lighten" />
      <feComponentTransfer
         id="feComponentTransfer4987-4"
         result="q2"
         in="q">
        <feFuncR
           id="feFuncR4989-0"
           slope="0"
           type="linear" />
      </feComponentTransfer>
      <feBlend
         id="feBlend4991-1"
         result="pq"
         in2="q2"
         in="p"
         mode="lighten" />
      <feColorMatrix
         id="feColorMatrix4993-6"
         values="-1 1 0 0 0 -1 1 0 0 0 -1 1 0 0 0 0 0 0 0 1 "
         type="matrix"
         result="qminp"
         in="pq" />
      <feComponentTransfer
         id="feComponentTransfer4995-3"
         result="coefsq"
         in="qminp">
        <feFuncR
           id="feFuncR4997-2"
           tableValues="1 1 0 0 0 1 1"
           type="table" />
        <feFuncG
           id="feFuncG4999-3"
           tableValues="0 1 1 1 0 0 0"
           type="table" />
        <feFuncB
           id="feFuncB5001-5"
           tableValues="0 0 0 1 1 1 0"
           type="table" />
      </feComponentTransfer>
      <feFlood
         id="feFlood5003-4"
         result="result1"
         flood-color="rgb(203,0,254)" />
      <feComposite
         id="feComposite5005-2"
         k1="1"
         operator="arithmetic"
         result="qminpc"
         in2="result1"
         in="qminp"
         k2="0"
         k3="0"
         k4="0" />
      <feComposite
         id="feComposite5007-2"
         k3="1"
         k2="1"
         operator="arithmetic"
         result="color"
         in2="qminpc"
         in="p"
         k1="0"
         k4="0" />
      <feComposite
         id="feComposite5009-3"
         operator="in"
         in2="SourceGraphic"
         in="color" />
    </filter>
    <marker
       style="overflow:visible"
       id="SquareM-4"
       refX="0"
       refY="0"
       orient="auto">
      <path
         transform="scale(0.4,0.4)"
         style="fill:#7d3f31;fill-opacity:1;fill-rule:evenodd;stroke:#000000;stroke-width:1pt;stroke-opacity:1"
         d="M -5,-5 -5,5 5,5 5,-5 -5,-5 Z"
         id="path4498-5" />
    </marker>
    <marker
       style="overflow:visible"
       id="DotL-9"
       refX="0"
       refY="0"
       orient="auto">
      <path
         transform="matrix(0.8,0,0,0.8,5.92,0.8)"
         style="fill:#7d3f31;fill-opacity:1;fill-rule:evenodd;stroke:#000000;stroke-width:1pt;stroke-opacity:1"
         d="m -2.5,-1 c 0,2.76 -2.24,5 -5,5 -2.76,0 -5,-2.24 -5,-5 0,-2.76 2.24,-5 5,-5 2.76,0 5,2.24 5,5 z"
         id="path4486-8" />
    </marker>
    <linearGradient
       gradientUnits="userSpaceOnUse"
       y2="395.67148"
       x2="304.86536"
       y1="459.33221"
       x1="354.11127"
       id="linearGradient3965"
       xlink:href="#linearGradient4198" />
    <radialGradient
       gradientUnits="userSpaceOnUse"
       gradientTransform="matrix(1,0,0,0.68361086,0,144.23426)"
       r="48.35714"
       fy="455.87613"
       fx="275"
       cy="455.87613"
       cx="275"
       id="radialGradient4724-7"
       xlink:href="#linearGradient4714" />
    <radialGradient
       gradientUnits="userSpaceOnUse"
       gradientTransform="matrix(1,0,0,0.82870668,0,88.425674)"
       r="100.25256"
       fy="516.22369"
       fx="197.23228"
       cy="516.22369"
       cx="197.23228"
       id="radialGradient4763-0"
       xlink:href="#linearGradient4757" />
    <radialGradient
       gradientUnits="userSpaceOnUse"
       gradientTransform="matrix(1,0,0,0.89585144,0,54.526701)"
       r="125.72055"
       fy="523.5473"
       fx="196.00797"
       cy="523.5473"
       cx="196.00797"
       id="radialGradient4777-7"
       xlink:href="#linearGradient4771" />
    <filter
       id="filter4971-2"
       width="1"
       height="1"
       y="0"
       x="0"
       style="color-interpolation-filters:sRGB">
      <feColorMatrix
         id="feColorMatrix4973-2"
         values="1 0 0 0 0 1 0 0 0 0 1 0 0 0 0 0 0 0 0 1 "
         type="matrix"
         result="r"
         in="SourceGraphic" />
      <feColorMatrix
         id="feColorMatrix4975-9"
         values="0 1 0 0 0 0 1 0 0 0 0 1 0 0 0 0 0 0 0 1 "
         type="matrix"
         result="g"
         in="SourceGraphic" />
      <feColorMatrix
         id="feColorMatrix4977-0"
         values="0 0 1 0 0 0 0 1 0 0 0 0 1 0 0 0 0 0 0 1 "
         type="matrix"
         result="b"
         in="SourceGraphic" />
      <feBlend
         id="feBlend4979-2"
         result="minrg"
         in2="g"
         in="r"
         mode="darken" />
      <feBlend
         id="feBlend4981-9"
         result="p"
         in2="b"
         in="minrg"
         mode="darken" />
      <feBlend
         id="feBlend4983-9"
         result="maxrg"
         in2="g"
         in="r"
         mode="lighten" />
      <feBlend
         id="feBlend4985-4"
         result="q"
         in2="b"
         in="maxrg"
         mode="lighten" />
      <feComponentTransfer
         id="feComponentTransfer4987-5"
         result="q2"
         in="q">
        <feFuncR
           id="feFuncR4989-9"
           slope="0"
           type="linear" />
      </feComponentTransfer>
      <feBlend
         id="feBlend4991-3"
         result="pq"
         in2="q2"
         in="p"
         mode="lighten" />
      <feColorMatrix
         id="feColorMatrix4993-8"
         values="-1 1 0 0 0 -1 1 0 0 0 -1 1 0 0 0 0 0 0 0 1 "
         type="matrix"
         result="qminp"
         in="pq" />
      <feComponentTransfer
         id="feComponentTransfer4995-8"
         result="coefsq"
         in="qminp">
        <feFuncR
           id="feFuncR4997-6"
           tableValues="1 1 0 0 0 1 1"
           type="table" />
        <feFuncG
           id="feFuncG4999-0"
           tableValues="0 1 1 1 0 0 0"
           type="table" />
        <feFuncB
           id="feFuncB5001-2"
           tableValues="0 0 0 1 1 1 0"
           type="table" />
      </feComponentTransfer>
      <feFlood
         id="feFlood5003-1"
         result="result1"
         flood-color="rgb(203,0,254)" />
      <feComposite
         id="feComposite5005-23"
         k1="1"
         operator="arithmetic"
         result="qminpc"
         in2="result1"
         in="qminp"
         k2="0"
         k3="0"
         k4="0" />
      <feComposite
         id="feComposite5007-3"
         k3="1"
         k2="1"
         operator="arithmetic"
         result="color"
         in2="qminpc"
         in="p"
         k1="0"
         k4="0" />
      <feComposite
         id="feComposite5009-0"
         operator="in"
         in2="SourceGraphic"
         in="color" />
    </filter>
  </defs>
  <metadata
     id="metadata5733">
    <rdf:RDF>
      <cc:Work
         rdf:about="">
        <dc:format>image/svg+xml</dc:format>
        <dc:type
           rdf:resource="http://purl.org/dc/dcmitype/StillImage" />
        <dc:title></dc:title>
      </cc:Work>
    </rdf:RDF>
  </metadata>
  <g
     inkscape:groupmode="layer"
     id="Rat1"
     inkscape:label="Rat1"
     style="display:inline">
    <g
       transform="translate(-393.91102,-333.82372)"
       id="g3446">
      <g
         transform="translate(-23.146657,11.254371)"
         id="Rat">
        <g
           transform="matrix(0.98542783,0,0,0.98542783,133.65514,-61.375923)"
           id="g6500">
          <path
             style="fill:url(#linearGradient6492);fill-opacity:1;fill-rule:evenodd;stroke:#000000;stroke-width:0.30000001;stroke-linecap:butt;stroke-linejoin:miter;stroke-miterlimit:4;stroke-dasharray:none;stroke-opacity:1"
             d="m 287.76786,417.71934 c 0,0 6.07143,-9.73214 7.05357,-10 0.98214,-0.26785 -0.35714,-0.53571 0.0893,-1.25 0.44642,-0.71428 0.80357,-1.42857 1.51785,-1.33928 0.71429,0.0893 1.33929,-1.16072 1.33929,-1.16072 0,0 1.78571,-0.98214 2.23214,-1.25 0.44643,-0.26785 2.94643,-1.875 2.85714,-3.03571 -0.0893,-1.16071 0.62217,-7.16313 0.80358,-7.76785 0.26785,-0.89286 0.53573,-2.14286 0.98214,-2.14286 0.44643,0 4.19643,6.51785 4.01786,6.96428 -0.17858,0.44643 4.19642,0.44643 4.19642,0.44643 l 2.94643,0.0893 c 0,0 0.98215,-1.69643 1.60715,-1.96429 0.625,-0.26786 1.42857,-1.33929 3.125,-1.07143 1.69642,0.26786 2.76785,0.625 2.76785,0.625 0,0 0.35715,-0.44643 1.16072,-0.98214 0.80357,-0.53572 7.14285,-4.01786 8.83928,-4.01786 1.69643,0 6.60715,-0.53571 9.19643,1.69643 2.58929,2.23214 7.05357,7.32143 8.21429,9.10714 1.16071,1.78572 3.39285,4.64286 3.83928,4.82143 0.44643,0.17857 8.21429,-0.80357 8.125,-1.42857 -0.0893,-0.625 0.53572,-1.07143 -1.33928,-2.23214 -1.875,-1.16072 -12.14286,-3.75 -12.41072,-3.75 -0.26785,0 -1.33928,-1.60715 -1.33928,-1.60715 0,0 8.92857,1.25 10.26785,1.96429 1.33929,0.71429 6.7659,2.15587 7.5,2.94643 1.16072,1.25 2.32143,3.30357 -0.0893,5.08928 -2.41072,1.78572 -8.48214,3.66072 -9.375,3.57143 -0.89286,-0.0893 0.71428,3.03571 0.71428,3.03571 0,0 1.33929,6.96429 0.625,8.48215 -0.71428,1.51786 -2.32142,7.14286 -4.55357,8.92857 -2.23214,1.78572 -4.91071,5.89286 -5.89285,6.16072 -0.98215,0.26785 2.41071,0.80357 2.76785,0.71428 0.35715,-0.0893 1.875,-0.625 2.05357,-0.26786 0.17858,0.35715 2.23215,1.69643 2.67858,1.96429 0.44642,0.26786 -0.17858,1.60714 -0.89286,1.33929 -0.71429,-0.26786 -1.60714,-0.35715 -1.60714,-0.35715 0,0 1.51785,1.78572 1.51785,2.14286 0,0.35714 -0.26785,1.69643 -0.71428,1.60714 -0.44643,-0.0893 -2.05357,-0.98214 -2.23215,-1.42857 -0.17857,-0.44643 -1.07142,-1.33928 -1.07142,-1.33928 L 350,443.07649 c 0,0 -0.35714,1.25 -0.98214,1.25 -0.625,0 -0.98214,-0.0893 -1.25,-0.71429 -0.26786,-0.625 -0.35714,-1.69643 -0.98214,-1.69643 -0.625,0 -0.71429,1.07143 -0.71429,1.60715 0,0.53571 -0.26786,1.16071 -0.71429,0.89285 -0.44642,-0.26785 -1.25,-0.35714 -1.42857,-1.25 -0.17857,-0.89285 -0.17857,-2.5 -0.80357,-1.875 -0.625,0.625 -1.25,1.875 -1.25,2.5 0,0.625 -0.625,6.69643 -0.625,6.69643 0,0 0,5.625 0.625,6.16072 0.625,0.53571 3.92857,1.69642 3.83929,2.05357 -0.0893,0.35714 -0.625,0.89285 -1.07143,0.80357 -0.44643,-0.0893 -3.30357,-0.35714 -3.30357,-0.625 0,-0.26786 -0.35715,0.89286 0.0893,1.42857 0.44643,0.53571 0.625,2.14286 0.0893,2.14286 -0.53572,0 -1.07143,0.80357 -1.07143,0.35714 0,-0.44643 -0.26786,-2.32143 -1.16071,-1.96429 -0.89286,0.35715 -1.60715,2.32143 -2.32143,2.14286 -0.71429,-0.17857 -1.16072,-0.625 -0.71429,-1.16071 0.44643,-0.53572 1.78572,-2.67857 1.33929,-2.5 -0.44643,0.17857 -3.39286,2.23214 -4.10715,2.14285 -0.71428,-0.0893 -1.96428,-0.625 -1.33928,-1.07142 0.625,-0.44643 3.66071,-2.23215 3.66071,-2.23215 0,0 0.98215,-4.10714 0.625,-4.19643 -0.35714,-0.0893 0,-3.03571 -0.0893,-3.39285 -0.0893,-0.35715 -5,-10.17857 -5.625,-10.17857 -0.625,0 -10.89286,-3.75 -13.03572,-1.96429 -2.14285,1.78571 -8.125,9.19643 -8.03571,11.51786 0.0893,2.32143 0.80357,3.83928 0.53571,4.19643 -0.26785,0.35714 -0.98214,0.71428 -1.16071,0.17857 -0.17857,-0.53572 -0.89286,1.07143 -0.53572,1.875 0.35715,0.80357 0.39154,3.21428 -0.0893,3.21429 -0.89286,0 -1.25,-2.14287 -1.875,-2.14287 -0.625,0 -0.625,0.17859 -1.07143,0.62501 -0.44643,0.44642 -0.98214,2.05357 -1.78572,2.32142 -0.80357,0.26786 -0.89285,-0.89285 -0.62499,-1.42857 0.26785,-0.53571 0.80357,-1.51785 0.35714,-1.25 -0.44643,0.26786 -2.14285,1.96429 -2.67857,1.78572 -0.53571,-0.17857 -1.07143,-0.26786 -0.44643,-0.71429 0.625,-0.44642 1.69643,-2.58928 1.69643,-2.58928 0,0 -2.41072,0.80357 -1.33929,-0.0893 1.07143,-0.89286 2.41072,-2.32143 2.05357,-2.41071 -0.35714,-0.0893 1.96429,0.17857 1.875,-0.26786 -0.0893,-0.44643 0.71429,-3.92857 0.26786,-4.19643 -0.44643,-0.26786 0.26786,-1.25 0.17858,-2.58928 -1.07145,-5.62501 1.16071,-10.35715 -3.2143,-20.44644 -4.01785,-0.44643 -5.96357,-0.66421 -8.57142,-1.87499 -2.5,-1.16071 -3.57143,-2.14286 -4.46429,-3.57143 -0.89286,-1.42857 -0.98214,-2.85715 -0.98214,-2.85715 z"
             id="path6480"
             inkscape:connector-curvature="0" />
          <path
             style="fill:#020202;fill-opacity:1;fill-rule:evenodd;stroke:#4c2b15;stroke-width:0.30000001;stroke-linecap:butt;stroke-linejoin:miter;stroke-miterlimit:4;stroke-dasharray:none;stroke-dashoffset:0;stroke-opacity:1"
             d="m 303.30357,410.84434 c 0,0 0.80357,-1.51785 0.98215,-2.05357 0.17857,-0.53571 1.875,-1.51785 2.41071,-1.42857 0.53571,0.0893 2.41071,1.60714 2.5,2.23214 0.0893,0.625 0.35714,2.23215 -0.625,2.5 -0.98214,0.26786 -2.5,0.98215 -3.39286,0 -0.89285,-0.98214 -1.875,-1.25 -1.875,-1.25 z"
             id="path6482"
             inkscape:connector-curvature="0" />
          <path
             style="fill:#ff9fb2;fill-opacity:1;fill-rule:evenodd;stroke:#000000;stroke-width:0.2;stroke-linecap:butt;stroke-linejoin:miter;stroke-miterlimit:4;stroke-dasharray:none;stroke-opacity:1"
             d="m 290.71429,421.38006 c 0,0 1.875,-0.26786 2.05357,-0.98214 0.17857,-0.71429 0,-3.03572 -0.53572,-2.85715 -0.53571,0.17857 -2.41071,-0.89285 -2.67857,-0.44643 -0.26785,0.44643 -0.71428,0.0893 -1.16071,0.71429 -0.44643,0.625 -0.17857,2.05357 0.0893,2.41071 0.26786,0.35715 0.71429,1.51786 1.07143,1.51786 0.35715,0 1.16072,-0.35714 1.16072,-0.35714 z"
             id="path6484"
             inkscape:connector-curvature="0" />
          <path
             style="fill:#020202;fill-opacity:1;fill-rule:evenodd;stroke:#000000;stroke-width:0.2;stroke-linecap:butt;stroke-linejoin:miter;stroke-miterlimit:4;stroke-dasharray:none;stroke-opacity:1"
             d="m 296.96429,405.21934 -1.78572,2.32143 c 0,0 -0.53571,-0.625 -0.35714,-0.98214 0.17857,-0.35714 0.89286,-1.33929 0.89286,-1.33929 z"
             id="path6496"
             inkscape:connector-curvature="0" />
          <path
             style="fill:#ff9fb2;fill-opacity:1;fill-rule:evenodd;stroke:#000000;stroke-width:0.1;stroke-linecap:butt;stroke-linejoin:round;stroke-miterlimit:4;stroke-dasharray:none;stroke-opacity:1"
             d="m 354.64286,405.39792 c 0,0 0.98214,4.28571 1.07143,5 0.0893,0.71428 0.26785,-0.44643 0.26785,-0.44643 l 3.30358,-0.71429 4.28571,-1.875 2.23214,-1.25 0.80357,-1.16071 0.17858,-1.33929 -0.53572,-1.16071 -1.25,-1.42857 -4.91071,-1.78572 -2.85715,-1.07143 -9.73214,-1.78571 1.51786,1.78571 1.60714,0.26786 6.875,1.96429 3.48214,1.16071 1.60715,1.16071 0.0893,0.80358 -0.0893,0.71428 -1.33929,0.53572 -3.21428,0.35714 -2.41072,0.35714 z"
             id="path6498"
             inkscape:connector-curvature="0" />
        </g>
      </g>
    </g>
  </g>
  <g
     inkscape:groupmode="layer"
     id="Rat2"
     inkscape:label="Rat2"
     style="display:inline">
    <g
       style="display:inline"
       id="g3475"
       transform="translate(-393.91102,-333.82372)">
      <g
         id="g3477"
         transform="translate(-23.146657,11.254371)">
        <g
           id="g3479"
           transform="matrix(0.98542783,0,0,0.98542783,133.65514,-61.375923)">
          <path
             inkscape:connector-curvature="0"
             id="path3481"
             d="m 297.96404,416.2328 c 0,0 -0.59774,-3.75488 -0.27873,-4.72161 0.28115,-0.85201 0.78449,-2.78432 1.11406,-3.73227 0.49758,-0.9279 0.62889,-1.35068 0.99268,-2.11815 0.48062,-0.49486 1.06,-1.25083 1.06,-1.25083 0,0 0.79437,-1.97349 1.2408,-2.24135 0.44643,-0.26785 0.85359,-1.32425 0.7643,-2.48496 -0.0893,-1.16071 -3.66339,-0.45627 -4.26329,-3.58217 -1.38572,-7.22059 7.06512,-6.80747 8.61929,-5.39389 2.14907,1.95465 1.62615,5.5832 1.44758,6.02963 -0.17858,0.44643 4.19642,0.44643 4.19642,0.44643 l 2.94643,0.0893 c 0,0 0.50579,-1.71926 0.75039,-2.35373 0.31345,-0.81307 2.75265,-2.97492 4.44908,-2.70706 1.69642,0.26786 3.93617,1.32598 3.93617,1.32598 0,0 -1.27849,0.87766 -0.47492,0.34195 0.80357,-0.53572 7.14285,-4.01786 8.83928,-4.01786 1.69643,0 6.60715,-0.53571 9.19643,1.69643 2.58929,2.23214 7.05357,7.32143 8.21429,9.10714 1.16071,1.78572 3.39285,4.64286 3.83928,4.82143 0.44643,0.17857 8.21429,-0.80357 8.125,-1.42857 -0.0893,-0.625 0.53572,-1.07143 -1.33928,-2.23214 -1.875,-1.16072 -12.14286,-3.75 -12.41072,-3.75 -0.26785,0 -1.33928,-1.60715 -1.33928,-1.60715 0,0 8.92857,1.25 10.26785,1.96429 1.33929,0.71429 6.7659,2.15587 7.5,2.94643 1.16072,1.25 2.32143,3.30357 -0.0893,5.08928 -2.41072,1.78572 -8.48214,3.66072 -9.375,3.57143 -0.89286,-0.0893 0.71428,3.03571 0.71428,3.03571 0,0 1.33929,6.96429 0.625,8.48215 -0.71428,1.51786 -2.32142,7.14286 -4.55357,8.92857 -2.23214,1.78572 -4.91071,5.89286 -5.89285,6.16072 -0.98215,0.26785 2.41071,0.80357 2.76785,0.71428 0.35715,-0.0893 1.875,-0.625 2.05357,-0.26786 0.17858,0.35715 2.23215,1.69643 2.67858,1.96429 0.44642,0.26786 -0.17858,1.60714 -0.89286,1.33929 -0.71429,-0.26786 -1.60714,-0.35715 -1.60714,-0.35715 0,0 1.51785,1.78572 1.51785,2.14286 0,0.35714 -0.26785,1.69643 -0.71428,1.60714 -0.44643,-0.0893 -2.05357,-0.98214 -2.23215,-1.42857 -0.17857,-0.44643 -1.07142,-1.33928 -1.07142,-1.33928 L 350,443.07649 c 0,0 -0.35714,1.25 -0.98214,1.25 -0.625,0 -0.98214,-0.0893 -1.25,-0.71429 -0.26786,-0.625 -0.35714,-1.69643 -0.98214,-1.69643 -0.625,0 -0.71429,1.07143 -0.71429,1.60715 0,0.53571 -0.26786,1.16071 -0.71429,0.89285 -0.44642,-0.26785 -1.25,-0.35714 -1.42857,-1.25 -0.17857,-0.89285 -0.17857,-2.5 -0.80357,-1.875 -0.625,0.625 -1.25,1.875 -1.25,2.5 0,0.625 -0.625,6.69643 -0.625,6.69643 0,0 0,5.625 0.625,6.16072 0.625,0.53571 3.92857,1.69642 3.83929,2.05357 -0.0893,0.35714 -0.625,0.89285 -1.07143,0.80357 -0.44643,-0.0893 -3.30357,-0.35714 -3.30357,-0.625 0,-0.26786 -0.35715,0.89286 0.0893,1.42857 0.44643,0.53571 0.625,2.14286 0.0893,2.14286 -0.53572,0 -1.07143,0.80357 -1.07143,0.35714 0,-0.44643 -0.26786,-2.32143 -1.16071,-1.96429 -0.89286,0.35715 -1.60715,2.32143 -2.32143,2.14286 -0.71429,-0.17857 -1.16072,-0.625 -0.71429,-1.16071 0.44643,-0.53572 1.78572,-2.67857 1.33929,-2.5 -0.44643,0.17857 -3.39286,2.23214 -4.10715,2.14285 -0.71428,-0.0893 -1.96428,-0.625 -1.33928,-1.07142 0.625,-0.44643 3.66071,-2.23215 3.66071,-2.23215 0,0 0.98215,-4.10714 0.625,-4.19643 -0.35714,-0.0893 0,-3.03571 -0.0893,-3.39285 -0.0893,-0.35715 -5,-10.17857 -5.625,-10.17857 -0.625,0 -10.89286,-3.75 -13.03572,-1.96429 -2.14285,1.78571 -8.125,9.19643 -8.03571,11.51786 0.0893,2.32143 0.80357,3.83928 0.53571,4.19643 -0.26785,0.35714 -0.98214,0.71428 -1.16071,0.17857 -0.17857,-0.53572 -0.89286,1.07143 -0.53572,1.875 0.35715,0.80357 0.39154,3.21428 -0.0893,3.21429 -0.89286,0 -1.25,-2.14287 -1.875,-2.14287 -0.625,0 -0.625,0.17859 -1.07143,0.62501 -0.44643,0.44642 -0.98214,2.05357 -1.78572,2.32142 -0.80357,0.26786 -0.89285,-0.89285 -0.62499,-1.42857 0.26785,-0.53571 0.80357,-1.51785 0.35714,-1.25 -0.44643,0.26786 -2.14285,1.96429 -2.67857,1.78572 -0.53571,-0.17857 -1.07143,-0.26786 -0.44643,-0.71429 0.625,-0.44642 1.69643,-2.58928 1.69643,-2.58928 0,0 -2.41072,0.80357 -1.33929,-0.0893 1.07143,-0.89286 2.41072,-2.32143 2.05357,-2.41071 -0.35714,-0.0893 1.96429,0.17857 1.875,-0.26786 -0.0893,-0.44643 0.71429,-3.92857 0.26786,-4.19643 -0.44643,-0.26786 0.26786,-1.25 0.17858,-2.58928 -1.07145,-5.62501 1.5112,-10.70764 -2.86381,-20.79693 -0.62975,-0.64115 -1.32212,-2.22794 -1.63943,-2.88753 -0.34597,-0.71916 -0.90026,-1.62832 -1.48054,-3.20987 -0.58131,-1.58434 -1.05219,-3.34222 -1.05218,-3.34221 z"
             style="fill:url(#linearGradient6492);fill-opacity:1;fill-rule:evenodd;stroke:#000000;stroke-width:0.30000001;stroke-linecap:butt;stroke-linejoin:miter;stroke-miterlimit:4;stroke-dasharray:none;stroke-opacity:1"
             sodipodi:nodetypes="csccccssscccsscssssscsscsssccsscccsscsccccsssssssscsccscsssssscsccssssssscsscscsscsccsccssc" />
          <path
             inkscape:connector-curvature="0"
             id="path3485"
             d="m 310.34684,421.967 c 0,0 1.15763,0.006 1.37746,-0.87347 0.21982,-0.87933 1.00771,-3.70078 0.25133,-3.75701 -0.8362,-0.0622 -2.87182,0.0995 -4.06452,0.0257 -1.04886,-0.0257 -1.07108,-0.2736 -1.62065,0.49579 -0.54957,0.7694 0.16371,2.43217 0.49347,2.87183 0.32975,0.43967 1.02314,1.2453 1.4628,1.2453 0.43967,0 1.38097,-0.39172 1.38097,-0.39172 z"
             style="fill:#ff9fb2;fill-opacity:1;fill-rule:evenodd;stroke:#000000;stroke-width:0.24620967;stroke-linecap:butt;stroke-linejoin:miter;stroke-miterlimit:4;stroke-dasharray:none;stroke-opacity:1"
             sodipodi:nodetypes="csscscscc" />
          <path
             inkscape:connector-curvature="0"
             id="path3487"
             d="m 305.99923,406.93286 c 0.14305,1.67685 -1.09061,2.61694 -3.10981,2.4772 -1.01687,-0.0704 -2.03837,-0.9311 -2.07066,-2.07256 -0.0465,-1.64369 1.6267,-2.86301 3.15159,-2.42971 1.26413,0.3592 1.88675,0.35911 2.02888,2.02507 z"
             style="fill:#020202;fill-opacity:1;fill-rule:evenodd;stroke:#4c2b15;stroke-width:0.2;stroke-linecap:butt;stroke-linejoin:miter;stroke-miterlimit:4;stroke-dasharray:none;stroke-opacity:1"
             sodipodi:nodetypes="sssss" />
          <path
             inkscape:connector-curvature="0"
             id="path3489"
             d="m 354.64286,405.39792 c 0,0 0.98214,4.28571 1.07143,5 0.0893,0.71428 0.26785,-0.44643 0.26785,-0.44643 l 3.30358,-0.71429 4.28571,-1.875 2.23214,-1.25 0.80357,-1.16071 0.17858,-1.33929 -0.53572,-1.16071 -1.25,-1.42857 -4.91071,-1.78572 -2.85715,-1.07143 -9.73214,-1.78571 1.51786,1.78571 1.60714,0.26786 6.875,1.96429 3.48214,1.16071 1.60715,1.16071 0.0893,0.80358 -0.0893,0.71428 -1.33929,0.53572 -3.21428,0.35714 -2.41072,0.35714 z"
             style="fill:#ff9fb2;fill-opacity:1;fill-rule:evenodd;stroke:#000000;stroke-width:0.1;stroke-linecap:butt;stroke-linejoin:round;stroke-miterlimit:4;stroke-dasharray:none;stroke-opacity:1" />
          <path
             sodipodi:nodetypes="sssss"
             style="fill:#020202;fill-opacity:1;fill-rule:evenodd;stroke:#4c2b15;stroke-width:0.2;stroke-linecap:butt;stroke-linejoin:miter;stroke-miterlimit:4;stroke-dasharray:none;stroke-opacity:1"
             d="m 320.71995,407.71173 c 0.14305,1.67685 -1.09061,2.61694 -3.10981,2.4772 -1.01687,-0.0704 -2.03837,-0.9311 -2.07066,-2.07256 -0.0465,-1.64369 1.6267,-2.86301 3.15159,-2.42971 1.26413,0.3592 1.88675,0.35911 2.02888,2.02507 z"
             id="path4335"
             inkscape:connector-curvature="0" />
        </g>
      </g>
    </g>
    <path
       style="fill:none;fill-rule:evenodd;stroke:#000000;stroke-width:0.2;stroke-linecap:butt;stroke-linejoin:miter;stroke-opacity:1;stroke-miterlimit:4;stroke-dasharray:none"
       d="m 21.413918,31.468481 0.07675,1.304791 -0.997781,0.460514 0.997781,-0.383762 1.842058,0.30701"
       id="path4337"
       inkscape:connector-curvature="0" />
    <path
       style="fill:none;fill-rule:evenodd;stroke:#000000;stroke-width:0.1;stroke-linecap:butt;stroke-linejoin:miter;stroke-opacity:1;stroke-miterlimit:4;stroke-dasharray:none"
       d="m 16.732022,35.075844 c 0,0 5.065658,1.842057 6.216944,1.6118 1.151286,-0.230257 4.988905,-0.383762 6.907715,-1.688553"
       id="path4339"
       inkscape:connector-curvature="0" />
  </g>
  <g
     inkscape:groupmode="layer"
     id="Rat3"
     inkscape:label="Rat3"
     style="display:inline" />
</svg>
