<?xml version="1.0" encoding="UTF-8" standalone="no"?>
<svg
   xmlns:osb="http://www.openswatchbook.org/uri/2009/osb"
   xmlns:dc="http://purl.org/dc/elements/1.1/"
   xmlns:cc="http://creativecommons.org/ns#"
   xmlns:rdf="http://www.w3.org/1999/02/22-rdf-syntax-ns#"
   xmlns:svg="http://www.w3.org/2000/svg"
   xmlns="http://www.w3.org/2000/svg"
   xmlns:xlink="http://www.w3.org/1999/xlink"
   version="1.1"
   id="svg5728"
   viewBox="0 0 136.30455 247.63292"
   height="69.887512mm"
   width="38.468174mm">
  <defs
     id="defs5730">
    <linearGradient
       id="linearGradient4771">
      <stop
         style="stop-color:#787885;stop-opacity:1;"
         offset="0"
         id="stop4773" />
      <stop
         id="stop4858"
         offset="0.8214286"
         style="stop-color:#6d6483;stop-opacity:1;" />
      <stop
         style="stop-color:#62596b;stop-opacity:1;"
         offset="1"
         id="stop4775" />
    </linearGradient>
    <linearGradient
       id="linearGradient4757">
      <stop
         style="stop-color:#b3b3cb;stop-opacity:1;"
         offset="0"
         id="stop4759" />
      <stop
         style="stop-color:#76697e;stop-opacity:1;"
         offset="1"
         id="stop4761" />
    </linearGradient>
    <linearGradient
       id="linearGradient4726">
      <stop
         style="stop-color:#000000;stop-opacity:1;"
         offset="0"
         id="stop4728" />
      <stop
         style="stop-color:#4e413b;stop-opacity:1;"
         offset="1"
         id="stop4730" />
    </linearGradient>
    <linearGradient
       id="linearGradient4714">
      <stop
         style="stop-color:#ffaa00;stop-opacity:1;"
         offset="0"
         id="stop4716" />
      <stop
         style="stop-color:#8e392e;stop-opacity:1;"
         offset="1"
         id="stop4718" />
    </linearGradient>
    <linearGradient
       id="linearGradient4662"
       osb:paint="gradient">
      <stop
         id="stop4666"
         offset="0"
         style="stop-color:#e2dbec;stop-opacity:1;" />
      <stop
         id="stop4664"
         offset="1"
         style="stop-color:#b4a9bc;stop-opacity:1;" />
    </linearGradient>
    <linearGradient
       id="linearGradient4979"
       osb:paint="solid">
      <stop
         style="stop-color:#ffffff;stop-opacity:1;"
         offset="0"
         id="stop4981" />
    </linearGradient>
    <linearGradient
       id="linearGradient4919">
      <stop
         style="stop-color:#f8fbff;stop-opacity:1;"
         offset="0"
         id="stop4921" />
      <stop
         style="stop-color:#f3ffff;stop-opacity:1"
         offset="1"
         id="stop4923" />
    </linearGradient>
    <marker
       orient="auto"
       refY="0"
       refX="0"
       id="SquareM"
       style="overflow:visible">
      <path
         id="path4498"
         d="M -5,-5 -5,5 5,5 5,-5 -5,-5 Z"
         style="fill:#7d3f31;fill-opacity:1;fill-rule:evenodd;stroke:#000000;stroke-width:1pt;stroke-opacity:1"
         transform="scale(0.4,0.4)" />
    </marker>
    <marker
       orient="auto"
       refY="0"
       refX="0"
       id="DotL"
       style="overflow:visible">
      <path
         id="path4486"
         d="m -2.5,-1 c 0,2.76 -2.24,5 -5,5 -2.76,0 -5,-2.24 -5,-5 0,-2.76 2.24,-5 5,-5 2.76,0 5,2.24 5,5 z"
         style="fill:#7d3f31;fill-opacity:1;fill-rule:evenodd;stroke:#000000;stroke-width:1pt;stroke-opacity:1"
         transform="matrix(0.8,0,0,0.8,5.92,0.8)" />
    </marker>
    <linearGradient
       xlink:href="#linearGradient4919"
       id="linearGradient4927"
       x1="208.35258"
       y1="182.15221"
       x2="413.3475"
       y2="182.15221"
       gradientUnits="userSpaceOnUse" />
    <radialGradient
       xlink:href="#linearGradient4714"
       id="radialGradient4724"
       cx="275"
       cy="455.87613"
       fx="275"
       fy="455.87613"
       r="48.35714"
       gradientTransform="matrix(1,0,0,0.68361086,0,144.23426)"
       gradientUnits="userSpaceOnUse" />
    <radialGradient
       xlink:href="#linearGradient4757"
       id="radialGradient4763"
       cx="197.23228"
       cy="516.22369"
       fx="197.23228"
       fy="516.22369"
       r="100.25256"
       gradientTransform="matrix(1,0,0,0.82870668,0,88.425674)"
       gradientUnits="userSpaceOnUse" />
    <radialGradient
       xlink:href="#linearGradient4771"
       id="radialGradient4777"
       cx="196.00797"
       cy="523.5473"
       fx="196.00797"
       fy="523.5473"
       r="125.72055"
       gradientTransform="matrix(1,0,0,0.89585144,0,54.526701)"
       gradientUnits="userSpaceOnUse" />
    <filter
       style="color-interpolation-filters:sRGB"
       x="0"
       y="0"
       height="1"
       width="1"
       id="filter4971">
      <feColorMatrix
         in="SourceGraphic"
         result="r"
         type="matrix"
         values="1 0 0 0 0 1 0 0 0 0 1 0 0 0 0 0 0 0 0 1 "
         id="feColorMatrix4973" />
      <feColorMatrix
         in="SourceGraphic"
         result="g"
         type="matrix"
         values="0 1 0 0 0 0 1 0 0 0 0 1 0 0 0 0 0 0 0 1 "
         id="feColorMatrix4975" />
      <feColorMatrix
         in="SourceGraphic"
         result="b"
         type="matrix"
         values="0 0 1 0 0 0 0 1 0 0 0 0 1 0 0 0 0 0 0 1 "
         id="feColorMatrix4977" />
      <feBlend
         mode="darken"
         in="r"
         in2="g"
         result="minrg"
         id="feBlend4979" />
      <feBlend
         mode="darken"
         in="minrg"
         in2="b"
         result="p"
         id="feBlend4981" />
      <feBlend
         mode="lighten"
         in="r"
         in2="g"
         result="maxrg"
         id="feBlend4983" />
      <feBlend
         mode="lighten"
         in="maxrg"
         in2="b"
         result="q"
         id="feBlend4985" />
      <feComponentTransfer
         in="q"
         result="q2"
         id="feComponentTransfer4987">
        <feFuncR
           type="linear"
           slope="0"
           id="feFuncR4989" />
      </feComponentTransfer>
      <feBlend
         mode="lighten"
         in="p"
         in2="q2"
         result="pq"
         id="feBlend4991" />
      <feColorMatrix
         in="pq"
         result="qminp"
         type="matrix"
         values="-1 1 0 0 0 -1 1 0 0 0 -1 1 0 0 0 0 0 0 0 1 "
         id="feColorMatrix4993" />
      <feComponentTransfer
         in="qminp"
         result="coefsq"
         id="feComponentTransfer4995">
        <feFuncR
           type="table"
           tableValues="1 1 0 0 0 1 1"
           id="feFuncR4997" />
        <feFuncG
           type="table"
           tableValues="0 1 1 1 0 0 0"
           id="feFuncG4999" />
        <feFuncB
           type="table"
           tableValues="0 0 0 1 1 1 0"
           id="feFuncB5001" />
      </feComponentTransfer>
      <feFlood
         flood-color="rgb(203,0,254)"
         result="result1"
         id="feFlood5003" />
      <feComposite
         k4="0"
         k3="0"
         k2="0"
         in="qminp"
         in2="result1"
         result="qminpc"
         operator="arithmetic"
         k1="1"
         id="feComposite5005" />
      <feComposite
         k4="0"
         k1="0"
         in="p"
         in2="qminpc"
         result="color"
         operator="arithmetic"
         k2="1"
         k3="1"
         id="feComposite5007" />
      <feComposite
         in="color"
         in2="SourceGraphic"
         operator="in"
         id="feComposite5009" />
    </filter>
  </defs>
  <metadata
     id="metadata5733">
    <rdf:RDF>
      <cc:Work
         rdf:about="">
        <dc:format>image/svg+xml</dc:format>
        <dc:type
           rdf:resource="http://purl.org/dc/dcmitype/StillImage" />
        <dc:title></dc:title>
      </cc:Work>
    </rdf:RDF>
  </metadata>
  <g
     transform="translate(-245.81509,-122.25896)"
     id="layer1">
    <g
       transform="translate(-23.146657,11.254371)"
       id="Bleach">
      <g
         transform="matrix(0.66491671,0,0,0.66491671,130.42463,65.096722)"
         id="g6429"
         style="display:inline">
        <path
           style="fill:#0000a4;fill-opacity:1;fill-rule:evenodd;stroke:#000000;stroke-width:1px;stroke-linecap:butt;stroke-linejoin:miter;stroke-opacity:1"
           d="m 235.71429,70.576487 -0.35715,17.142857 3.21429,0.714286 c 0,0 0,2.5 1.78571,2.5 1.78572,0 34.91631,8.6e-4 39.28572,0 2.34874,-4.62e-4 1.78571,-2.142857 1.78571,-2.142857 l 3.21429,0 -0.35714,-18.928572 c 0,0 -38.92858,-1.071428 -48.57143,0.714286 z"
           id="path4905" />
        <path
           style="fill:url(#linearGradient4927);fill-opacity:1;fill-rule:evenodd;stroke:#000000;stroke-width:1px;stroke-linecap:butt;stroke-linejoin:miter;stroke-opacity:1"
           d="m 239.91123,91.202056 c 0,0 1.01015,3.535533 -1.01015,4.545686 -2.02031,1.010153 -20.20305,32.324878 -22.22336,62.124378 -2.0203,29.7995 -11.11168,65.65992 -6.56599,100.51019 1.51522,10.10152 51.51778,13.13198 51.51778,13.13198 0,0 74.75129,2.0203 88.38835,1.51522 13.63706,-0.50507 60.37689,-6.53655 61.11422,-14.64721 0.50508,-5.55583 -1.51522,-6.06091 1.01016,-8.58629 2.52538,-2.52539 -1.51523,-51.01271 -15.65737,-72.22591 -14.14213,-21.21321 -39.39594,-48.9924 -62.62945,-61.61931 -23.23351,-12.6269 -55.5584,-21.2132 -55.5584,-21.2132 l 1e-5,-3.030458 z"
           id="path4907" />
        <path
           style="fill:#bfcde8;fill-opacity:1;fill-rule:evenodd;stroke:#000000;stroke-width:1px;stroke-linecap:butt;stroke-linejoin:miter;stroke-opacity:1"
           d="m 282.33764,124.03201 c 0,0 -16.16244,17.1726 14.14213,39.90103 30.30458,22.72843 62.12438,30.80965 67.17515,23.73858 5.05076,-7.07106 1.01015,-31.31473 -28.78935,-46.46701 -29.7995,-15.15229 -42.93148,-22.72844 -52.52793,-17.1726 z"
           id="path4909" />
        <path
           style="fill:#ffffff;fill-opacity:1;fill-rule:evenodd;stroke:#000000;stroke-width:1px;stroke-linecap:butt;stroke-linejoin:miter;stroke-opacity:1"
           d="m 210.14236,383.01359 c 0,0 -4.57632,21.33576 6.03029,31.94236 10.6066,10.6066 19.85098,15.40361 23.11621,16.75943 10.32125,4.28572 31.94639,7.87963 39.90103,8.58629 7.75471,0.68891 40.43576,0.87794 45.06908,0.41317 6.50997,-0.65302 26.76904,0 37.88072,-4.04061 11.11168,-4.04061 28.66864,-10.49272 34.85026,-14.14214 6.68855,-3.9487 11.11168,-9.59645 12.12183,-13.63706 1.01015,-4.04061 3.35697,-12.24438 1.84174,-24.36621"
           id="path4977" />
        <path
           style="fill:#0000a2;fill-opacity:1;fill-rule:evenodd;stroke:#000000;stroke-width:1px;stroke-linecap:butt;stroke-linejoin:miter;stroke-opacity:1"
           d="m 209.10158,258.88738 1.01015,126.26907 c 0,0 5.55584,11.11167 23.23351,15.65736 17.67767,4.54569 70.2056,10.6066 79.29697,9.59645 9.09138,-1.01015 44.95179,-2.0203 59.09393,-6.06091 14.14213,-4.04061 33.84011,-8.5863 38.38579,-16.66752 4.54569,-8.08122 1.51523,-130.81476 1.51523,-130.81476 0,0 -3.03045,11.61676 -54.54823,15.15229 -51.51778,3.53554 -108.5914,-2.0203 -108.5914,-2.0203 0,0 -36.87057,-4.54569 -39.39595,-11.11168 z"
           id="path4967" />
      </g>
    </g>
  </g>
</svg>
