<?xml version="1.0" encoding="UTF-8" standalone="no"?>
<svg
   xmlns:osb="http://www.openswatchbook.org/uri/2009/osb"
   xmlns:dc="http://purl.org/dc/elements/1.1/"
   xmlns:cc="http://creativecommons.org/ns#"
   xmlns:rdf="http://www.w3.org/1999/02/22-rdf-syntax-ns#"
   xmlns:svg="http://www.w3.org/2000/svg"
   xmlns="http://www.w3.org/2000/svg"
   xmlns:xlink="http://www.w3.org/1999/xlink"
   version="1.1"
   id="svg2"
   viewBox="0 0 328.11637 309.08699"
   height="87.231216mm"
   width="92.60173mm">
  <defs
     id="defs4">
    <linearGradient
       id="linearGradient4771">
      <stop
         style="stop-color:#787885;stop-opacity:1;"
         offset="0"
         id="stop4773" />
      <stop
         id="stop4858"
         offset="0.8214286"
         style="stop-color:#6d6483;stop-opacity:1;" />
      <stop
         style="stop-color:#62596b;stop-opacity:1;"
         offset="1"
         id="stop4775" />
    </linearGradient>
    <linearGradient
       id="linearGradient4757">
      <stop
         style="stop-color:#b3b3cb;stop-opacity:1;"
         offset="0"
         id="stop4759" />
      <stop
         style="stop-color:#76697e;stop-opacity:1;"
         offset="1"
         id="stop4761" />
    </linearGradient>
    <linearGradient
       id="linearGradient4726">
      <stop
         style="stop-color:#000000;stop-opacity:1;"
         offset="0"
         id="stop4728" />
      <stop
         style="stop-color:#4e413b;stop-opacity:1;"
         offset="1"
         id="stop4730" />
    </linearGradient>
    <linearGradient
       id="linearGradient4714">
      <stop
         style="stop-color:#ffaa00;stop-opacity:1;"
         offset="0"
         id="stop4716" />
      <stop
         style="stop-color:#8e392e;stop-opacity:1;"
         offset="1"
         id="stop4718" />
    </linearGradient>
    <linearGradient
       id="linearGradient4662"
       osb:paint="gradient">
      <stop
         id="stop4666"
         offset="0"
         style="stop-color:#e2dbec;stop-opacity:1;" />
      <stop
         id="stop4664"
         offset="1"
         style="stop-color:#b4a9bc;stop-opacity:1;" />
    </linearGradient>
    <linearGradient
       id="linearGradient4979"
       osb:paint="solid">
      <stop
         style="stop-color:#ffffff;stop-opacity:1;"
         offset="0"
         id="stop4981" />
    </linearGradient>
    <marker
       orient="auto"
       refY="0"
       refX="0"
       id="SquareM"
       style="overflow:visible">
      <path
         id="path4498"
         d="M -5,-5 -5,5 5,5 5,-5 -5,-5 Z"
         style="fill:#7d3f31;fill-opacity:1;fill-rule:evenodd;stroke:#000000;stroke-width:1pt;stroke-opacity:1"
         transform="scale(0.4,0.4)" />
    </marker>
    <marker
       orient="auto"
       refY="0"
       refX="0"
       id="DotL"
       style="overflow:visible">
      <path
         id="path4486"
         d="m -2.5,-1 c 0,2.76 -2.24,5 -5,5 -2.76,0 -5,-2.24 -5,-5 0,-2.76 2.24,-5 5,-5 2.76,0 5,2.24 5,5 z"
         style="fill:#7d3f31;fill-opacity:1;fill-rule:evenodd;stroke:#000000;stroke-width:1pt;stroke-opacity:1"
         transform="matrix(0.8,0,0,0.8,5.92,0.8)" />
    </marker>
    <linearGradient
       id="linearGradient4288">
      <stop
         id="stop4290"
         offset="0"
         style="stop-color:#483e37;stop-opacity:1" />
      <stop
         id="stop4292"
         offset="1"
         style="stop-color:#c8beb7;stop-opacity:1" />
    </linearGradient>
    <linearGradient
       id="linearGradient4243">
      <stop
         style="stop-color:#ffaaaa;stop-opacity:1;"
         offset="0"
         id="stop4245" />
      <stop
         style="stop-color:#c83737;stop-opacity:1"
         offset="1"
         id="stop4247" />
    </linearGradient>
    <linearGradient
       xlink:href="#linearGradient4243"
       id="linearGradient4249"
       x1="252.93614"
       y1="405.2399"
       x2="267.30338"
       y2="405.2399"
       gradientUnits="userSpaceOnUse" />
    <linearGradient
       xlink:href="#linearGradient4288"
       id="linearGradient4258"
       x1="208.5623"
       y1="489.8718"
       x2="536.67865"
       y2="489.8718"
       gradientUnits="userSpaceOnUse" />
    <radialGradient
       xlink:href="#linearGradient4714"
       id="radialGradient4724"
       cx="275"
       cy="455.87613"
       fx="275"
       fy="455.87613"
       r="48.35714"
       gradientTransform="matrix(1,0,0,0.68361086,0,144.23426)"
       gradientUnits="userSpaceOnUse" />
    <radialGradient
       xlink:href="#linearGradient4757"
       id="radialGradient4763"
       cx="197.23228"
       cy="516.22369"
       fx="197.23228"
       fy="516.22369"
       r="100.25256"
       gradientTransform="matrix(1,0,0,0.82870668,0,88.425674)"
       gradientUnits="userSpaceOnUse" />
    <radialGradient
       xlink:href="#linearGradient4771"
       id="radialGradient4777"
       cx="196.00797"
       cy="523.5473"
       fx="196.00797"
       fy="523.5473"
       r="125.72055"
       gradientTransform="matrix(1,0,0,0.89585144,0,54.526701)"
       gradientUnits="userSpaceOnUse" />
    <filter
       style="color-interpolation-filters:sRGB"
       x="0"
       y="0"
       height="1"
       width="1"
       id="filter4971">
      <feColorMatrix
         in="SourceGraphic"
         result="r"
         type="matrix"
         values="1 0 0 0 0 1 0 0 0 0 1 0 0 0 0 0 0 0 0 1 "
         id="feColorMatrix4973" />
      <feColorMatrix
         in="SourceGraphic"
         result="g"
         type="matrix"
         values="0 1 0 0 0 0 1 0 0 0 0 1 0 0 0 0 0 0 0 1 "
         id="feColorMatrix4975" />
      <feColorMatrix
         in="SourceGraphic"
         result="b"
         type="matrix"
         values="0 0 1 0 0 0 0 1 0 0 0 0 1 0 0 0 0 0 0 1 "
         id="feColorMatrix4977" />
      <feBlend
         mode="darken"
         in="r"
         in2="g"
         result="minrg"
         id="feBlend4979" />
      <feBlend
         mode="darken"
         in="minrg"
         in2="b"
         result="p"
         id="feBlend4981" />
      <feBlend
         mode="lighten"
         in="r"
         in2="g"
         result="maxrg"
         id="feBlend4983" />
      <feBlend
         mode="lighten"
         in="maxrg"
         in2="b"
         result="q"
         id="feBlend4985" />
      <feComponentTransfer
         in="q"
         result="q2"
         id="feComponentTransfer4987">
        <feFuncR
           type="linear"
           slope="0"
           id="feFuncR4989" />
      </feComponentTransfer>
      <feBlend
         mode="lighten"
         in="p"
         in2="q2"
         result="pq"
         id="feBlend4991" />
      <feColorMatrix
         in="pq"
         result="qminp"
         type="matrix"
         values="-1 1 0 0 0 -1 1 0 0 0 -1 1 0 0 0 0 0 0 0 1 "
         id="feColorMatrix4993" />
      <feComponentTransfer
         in="qminp"
         result="coefsq"
         id="feComponentTransfer4995">
        <feFuncR
           type="table"
           tableValues="1 1 0 0 0 1 1"
           id="feFuncR4997" />
        <feFuncG
           type="table"
           tableValues="0 1 1 1 0 0 0"
           id="feFuncG4999" />
        <feFuncB
           type="table"
           tableValues="0 0 0 1 1 1 0"
           id="feFuncB5001" />
      </feComponentTransfer>
      <feFlood
         flood-color="rgb(203,0,254)"
         result="result1"
         id="feFlood5003" />
      <feComposite
         k4="0"
         k3="0"
         k2="0"
         in="qminp"
         in2="result1"
         result="qminpc"
         operator="arithmetic"
         k1="1"
         id="feComposite5005" />
      <feComposite
         k4="0"
         k1="0"
         in="p"
         in2="qminpc"
         result="color"
         operator="arithmetic"
         k2="1"
         k3="1"
         id="feComposite5007" />
      <feComposite
         in="color"
         in2="SourceGraphic"
         operator="in"
         id="feComposite5009" />
    </filter>
  </defs>
  <metadata
     id="metadata7">
    <rdf:RDF>
      <cc:Work
         rdf:about="">
        <dc:format>image/svg+xml</dc:format>
        <dc:type
           rdf:resource="http://purl.org/dc/dcmitype/StillImage" />
        <dc:title></dc:title>
      </cc:Work>
    </rdf:RDF>
  </metadata>
  <g
     transform="translate(-0.95519704,-0.89513362)"
     id="layer1">
    <g
       transform="translate(-33.860887,-10.174215)"
       style="display:inline"
       id="Cat">
      <g
         transform="translate(-173.74622,-324.25897)"
         id="g4251">
        <path
           style="fill:url(#linearGradient4258);fill-opacity:1;fill-rule:evenodd;stroke:#000000;stroke-width:1px;stroke-linecap:butt;stroke-linejoin:miter;stroke-opacity:1"
           d="m 223.24371,454.85697 c 0,0 3.03046,5.55584 -0.50507,11.11168 -3.53554,5.55584 -6.566,18.68782 -5.55584,23.23351 1.01015,4.54569 9.59645,28.28427 9.59645,28.28427 0,0 7.57614,18.68782 7.57614,26.26397 0,7.57614 3.03046,31.8198 2.52538,34.85026 -0.50507,3.03046 -1.51523,20.70813 0,26.26397 1.51523,5.55584 -9.09137,7.07106 -9.09137,7.07106 0,0 -2.02031,3.53554 0.50508,5.05077 2.52538,1.51523 -11.11168,-3.53554 -14.64722,1.51523 -3.53553,5.05076 -4.54568,11.11167 -4.54568,11.11167 0,0 7.57614,6.566 11.11168,6.06092 3.53553,-0.50508 27.77919,-0.50508 27.77919,-0.50508 0,0 13.63706,-24.74873 14.64721,-30.30457 1.01015,-5.55584 1.51523,-11.11168 1.51523,-11.11168 0,0 8.29043,23.76397 10.81582,25.27919 2.52538,1.51523 -3.23968,7.55077 -3.23968,7.55077 0,0 -4.04061,10.6066 -1.51522,12.12183 2.52538,1.51523 7.40799,6.1305 16.16244,5.05076 7.69343,-0.94888 13.70246,0.54918 16.90211,-3.08647 3.89112,-4.42136 -1.68038,-7.43155 1.75508,-8.72372 2.06624,-0.77718 2.05093,-0.81672 2.05093,-0.81672 0,0 22.22336,2.02031 23.73859,1.01016 1.51523,-1.01016 -3.53554,1.01015 -2.02031,3.53553 1.51523,2.52538 6.4886,4.19352 11.64214,4.24982 6.30621,0.0689 12.54025,0.8876 16.8207,-1.21936 4.17788,-2.05647 62.62946,-5.29061 62.62946,-5.29061 0,0 24.31763,-8.09391 29.62094,-11.88199 4.94906,-3.53505 13.63706,-9.09137 13.63706,-9.09137 0,0 11.06405,-6.56323 14.89974,-9.09137 8.00409,-5.27557 22.08555,-10.37017 25.50636,-9.34392 5.05076,1.51524 30.33981,13.59485 32.45486,1.32397 1.99336,-11.56486 -14.52466,-17.48641 -28.16172,-23.04225 -6.36206,-2.59194 -35.99155,1.1767 -50.50763,18.68783 -4.74012,5.71813 -16.77731,11.07823 -16.16244,3.53553 3.16834,-38.86642 -20.96066,-83.08504 -46.71955,-105.81348 -25.75889,-22.72843 -22.60727,-36.21401 -63.63962,-49.49747 -12.30741,-3.98429 -4.02823,-9.93098 -13.13198,-16.66752 -7.85787,-5.81462 -11.61675,-36.87057 -15.65736,-44.95179 -4.04061,-8.08122 8.55213,-34.16574 -1.01015,-38.3858 -4.63205,-2.04424 -18.18275,18.18275 -18.18275,18.18275 0,0 -32.37763,7.26662 -38.3858,-1.51523 -6.57221,-9.60627 -22.22335,-19.69797 -22.22335,-19.69797 0,0 -5.14099,32.34982 1.51523,40.91118 0,0 -13.63706,31.8198 -6.06092,51.0127 5.80837,14.71455 5.55584,26.76904 5.55584,26.76904 z"
           id="path3350" />
        <path
           style="fill:none;fill-rule:evenodd;stroke:#000000;stroke-width:1px;stroke-linecap:butt;stroke-linejoin:miter;stroke-opacity:1"
           d="m 258.03571,543.6122 c 0,0 11.60715,40.53572 15.71429,44.64286 4.10714,4.10714 1.78571,31.78572 1.78571,31.78572"
           id="path3352" />
        <path
           style="display:inline;fill:none;fill-rule:evenodd;stroke:#000000;stroke-width:1px;stroke-linecap:butt;stroke-linejoin:miter;stroke-opacity:1"
           d="m 331.07143,631.29078 c 0,0 3.92857,-10 7.14286,-9.82143 3.21428,0.17857 15.53571,-4.64286 18.57143,-2.14286 3.03571,2.5 13.57142,5.71429 11.60714,9.28571 -1.96429,3.57143 0.35714,8.57143 0.35714,8.57143"
           id="path3356" />
        <path
           style="display:inline;fill:none;fill-rule:evenodd;stroke:#000000;stroke-width:1px;stroke-linecap:butt;stroke-linejoin:miter;stroke-opacity:1"
           d="m 441.36729,594.46826 c 0,0 -0.29586,8.7868 -1.54586,14.32252 -1.25,5.53571 -7.5,20.71428 -7.5,20.71428"
           id="path3360" />
        <path
           style="display:inline;fill:none;fill-rule:evenodd;stroke:#000000;stroke-width:1px;stroke-linecap:butt;stroke-linejoin:miter;stroke-opacity:1"
           d="m 250.17857,419.14792 9.82143,-5 9.10714,6.07143"
           id="path3364" />
        <path
           style="display:inline;fill:url(#linearGradient4249);fill-opacity:1;fill-rule:evenodd;stroke:#000000;stroke-width:1px;stroke-linecap:butt;stroke-linejoin:miter;stroke-opacity:1"
           d="m 253.57143,401.64792 c 0,0 12.85714,-0.89286 13.21428,0.53571 0.35715,1.42857 -6.60714,6.78572 -6.60714,6.78572 0,0 -7.85714,-6.42858 -6.60714,-7.32143 z"
           id="path3370" />
        <path
           style="display:inline;fill:none;fill-rule:evenodd;stroke:#000000;stroke-width:1px;stroke-linecap:butt;stroke-linejoin:miter;stroke-opacity:1"
           d="M 260.17857,413.79077 260,408.43363"
           id="path3372" />
        <path
           style="display:inline;fill:#ffff6e;fill-opacity:1;fill-rule:evenodd;stroke:#000000;stroke-width:1px;stroke-linecap:butt;stroke-linejoin:miter;stroke-opacity:1"
           d="m 270,391.29077 c 0,0 0.89286,-8.03571 4.28571,-7.67857 3.39286,0.35715 7.67858,-1.60714 9.10715,1.78572 1.42857,3.39285 -0.71429,8.03571 -1.78572,8.39285 -1.07143,0.35715 -8.57143,2.14286 -11.60714,-2.5 z"
           id="path3374" />
        <path
           style="display:inline;fill:none;fill-rule:evenodd;stroke:#000000;stroke-width:1px;stroke-linecap:butt;stroke-linejoin:miter;stroke-opacity:1"
           d="m 234.82143,427.00506 c 0,0 16.60714,8.21429 24.82143,6.96429 8.21428,-1.25 22.5,-1.78572 30.35714,-8.75"
           id="path3362" />
        <path
           style="fill:none;fill-rule:evenodd;stroke:#000000;stroke-width:1px;stroke-linecap:butt;stroke-linejoin:miter;stroke-opacity:1"
           d="m 303.80338,632.89636 c 0,0 5.3033,-33.0825 9.34391,-36.87057 4.04061,-3.78807 18.68782,-62.62946 17.42513,-64.14468"
           id="path3389" />
        <path
           style="fill:none;fill-rule:evenodd;stroke:#000000;stroke-width:1px;stroke-linecap:butt;stroke-linejoin:miter;stroke-opacity:1"
           d="m 264.15489,593.50041 c 0,0 3.53553,-14.39467 6.06092,-12.12183"
           id="path3391" />
        <path
           style="fill:#ffff6e;fill-opacity:1;fill-rule:evenodd;stroke:#000000;stroke-width:1px;stroke-linecap:butt;stroke-linejoin:miter;stroke-opacity:1"
           d="m 252.03306,390.96482 c 0,0 -1.26269,-8.33375 -6.56599,-8.83883 -5.3033,-0.50508 -6.81853,3.03046 -6.56599,4.79822 0.25254,1.76777 1.26269,6.31346 4.29315,6.81853 3.03045,0.50508 6.06091,1.01016 8.83883,-2.77792 z"
           id="path3393" />
        <ellipse
           style="fill:#000000;fill-opacity:1;fill-rule:evenodd;stroke:#000000;stroke-width:1px;stroke-linecap:butt;stroke-linejoin:miter;stroke-opacity:1"
           id="path3395"
           cx="276.7818"
           cy="388.43945"
           rx="0.75761443"
           ry="2.5253813" />
        <ellipse
           style="fill:#000000;fill-opacity:1;fill-rule:evenodd;stroke:#000000;stroke-width:1px;stroke-linecap:butt;stroke-linejoin:miter;stroke-opacity:1"
           id="path3397"
           cx="246.35095"
           cy="387.55557"
           rx="0.88388348"
           ry="2.3991122" />
      </g>
    </g>
    <g
       transform="translate(-41.718029,239.1115)"
       style="display:inline"
       id="layer2" />
    <g
       transform="translate(-41.718029,239.1115)"
       style="display:inline"
       id="layer1-4" />
  </g>
</svg>
