<?xml version="1.0" encoding="UTF-8" standalone="no"?>
<svg
   xmlns:osb="http://www.openswatchbook.org/uri/2009/osb"
   xmlns:dc="http://purl.org/dc/elements/1.1/"
   xmlns:cc="http://creativecommons.org/ns#"
   xmlns:rdf="http://www.w3.org/1999/02/22-rdf-syntax-ns#"
   xmlns:svg="http://www.w3.org/2000/svg"
   xmlns="http://www.w3.org/2000/svg"
   xmlns:xlink="http://www.w3.org/1999/xlink"
   version="1.1"
   id="svg5728"
   viewBox="0 0 314.71243 294.23422"
   height="83.039436mm"
   width="88.81884mm">
  <defs
     id="defs5730">
    <linearGradient
       id="linearGradient4771">
      <stop
         style="stop-color:#787885;stop-opacity:1;"
         offset="0"
         id="stop4773" />
      <stop
         id="stop4858"
         offset="0.8214286"
         style="stop-color:#6d6483;stop-opacity:1;" />
      <stop
         style="stop-color:#62596b;stop-opacity:1;"
         offset="1"
         id="stop4775" />
    </linearGradient>
    <linearGradient
       id="linearGradient4757">
      <stop
         style="stop-color:#b3b3cb;stop-opacity:1;"
         offset="0"
         id="stop4759" />
      <stop
         style="stop-color:#76697e;stop-opacity:1;"
         offset="1"
         id="stop4761" />
    </linearGradient>
    <linearGradient
       id="linearGradient4726">
      <stop
         style="stop-color:#000000;stop-opacity:1;"
         offset="0"
         id="stop4728" />
      <stop
         style="stop-color:#4e413b;stop-opacity:1;"
         offset="1"
         id="stop4730" />
    </linearGradient>
    <linearGradient
       id="linearGradient4714">
      <stop
         style="stop-color:#ffaa00;stop-opacity:1;"
         offset="0"
         id="stop4716" />
      <stop
         style="stop-color:#8e392e;stop-opacity:1;"
         offset="1"
         id="stop4718" />
    </linearGradient>
    <linearGradient
       id="linearGradient4662"
       osb:paint="gradient">
      <stop
         id="stop4666"
         offset="0"
         style="stop-color:#e2dbec;stop-opacity:1;" />
      <stop
         id="stop4664"
         offset="1"
         style="stop-color:#b4a9bc;stop-opacity:1;" />
    </linearGradient>
    <linearGradient
       id="linearGradient4979"
       osb:paint="solid">
      <stop
         style="stop-color:#ffffff;stop-opacity:1;"
         offset="0"
         id="stop4981" />
    </linearGradient>
    <marker
       orient="auto"
       refY="0"
       refX="0"
       id="SquareM"
       style="overflow:visible">
      <path
         id="path4498"
         d="M -5,-5 -5,5 5,5 5,-5 -5,-5 Z"
         style="fill:#7d3f31;fill-opacity:1;fill-rule:evenodd;stroke:#000000;stroke-width:1pt;stroke-opacity:1"
         transform="scale(0.4,0.4)" />
    </marker>
    <marker
       orient="auto"
       refY="0"
       refX="0"
       id="DotL"
       style="overflow:visible">
      <path
         id="path4486"
         d="m -2.5,-1 c 0,2.76 -2.24,5 -5,5 -2.76,0 -5,-2.24 -5,-5 0,-2.76 2.24,-5 5,-5 2.76,0 5,2.24 5,5 z"
         style="fill:#7d3f31;fill-opacity:1;fill-rule:evenodd;stroke:#000000;stroke-width:1pt;stroke-opacity:1"
         transform="matrix(0.8,0,0,0.8,5.92,0.8)" />
    </marker>
    <linearGradient
       id="linearGradient4407">
      <stop
         id="stop4411"
         offset="0"
         style="stop-color:#916f6f;stop-opacity:1" />
      <stop
         id="stop4409"
         offset="1"
         style="stop-color:#532100;stop-opacity:1;" />
    </linearGradient>
    <linearGradient
       id="linearGradient4352">
      <stop
         style="stop-color:#ffcbaa;stop-opacity:1"
         offset="0"
         id="stop4354" />
      <stop
         style="stop-color:#a06b2c;stop-opacity:1"
         offset="1"
         id="stop4356" />
    </linearGradient>
    <linearGradient
       xlink:href="#linearGradient4352"
       id="linearGradient4358"
       x1="386.96429"
       y1="527.71936"
       x2="303.21429"
       y2="660.04077"
       gradientUnits="userSpaceOnUse" />
    <radialGradient
       xlink:href="#linearGradient4407"
       id="radialGradient4413"
       cx="388.42163"
       cy="515.2027"
       fx="388.42163"
       fy="515.2027"
       r="14.291911"
       gradientTransform="matrix(-0.08056864,-0.99674906,2.6593337,-0.21495772,-951.63819,1012.0464)"
       gradientUnits="userSpaceOnUse" />
    <radialGradient
       xlink:href="#linearGradient4714"
       id="radialGradient4724"
       cx="275"
       cy="455.87613"
       fx="275"
       fy="455.87613"
       r="48.35714"
       gradientTransform="matrix(1,0,0,0.68361086,0,144.23426)"
       gradientUnits="userSpaceOnUse" />
    <radialGradient
       xlink:href="#linearGradient4757"
       id="radialGradient4763"
       cx="197.23228"
       cy="516.22369"
       fx="197.23228"
       fy="516.22369"
       r="100.25256"
       gradientTransform="matrix(1,0,0,0.82870668,0,88.425674)"
       gradientUnits="userSpaceOnUse" />
    <radialGradient
       xlink:href="#linearGradient4771"
       id="radialGradient4777"
       cx="196.00797"
       cy="523.5473"
       fx="196.00797"
       fy="523.5473"
       r="125.72055"
       gradientTransform="matrix(1,0,0,0.89585144,0,54.526701)"
       gradientUnits="userSpaceOnUse" />
    <filter
       style="color-interpolation-filters:sRGB"
       x="0"
       y="0"
       height="1"
       width="1"
       id="filter4971">
      <feColorMatrix
         in="SourceGraphic"
         result="r"
         type="matrix"
         values="1 0 0 0 0 1 0 0 0 0 1 0 0 0 0 0 0 0 0 1 "
         id="feColorMatrix4973" />
      <feColorMatrix
         in="SourceGraphic"
         result="g"
         type="matrix"
         values="0 1 0 0 0 0 1 0 0 0 0 1 0 0 0 0 0 0 0 1 "
         id="feColorMatrix4975" />
      <feColorMatrix
         in="SourceGraphic"
         result="b"
         type="matrix"
         values="0 0 1 0 0 0 0 1 0 0 0 0 1 0 0 0 0 0 0 1 "
         id="feColorMatrix4977" />
      <feBlend
         mode="darken"
         in="r"
         in2="g"
         result="minrg"
         id="feBlend4979" />
      <feBlend
         mode="darken"
         in="minrg"
         in2="b"
         result="p"
         id="feBlend4981" />
      <feBlend
         mode="lighten"
         in="r"
         in2="g"
         result="maxrg"
         id="feBlend4983" />
      <feBlend
         mode="lighten"
         in="maxrg"
         in2="b"
         result="q"
         id="feBlend4985" />
      <feComponentTransfer
         in="q"
         result="q2"
         id="feComponentTransfer4987">
        <feFuncR
           type="linear"
           slope="0"
           id="feFuncR4989" />
      </feComponentTransfer>
      <feBlend
         mode="lighten"
         in="p"
         in2="q2"
         result="pq"
         id="feBlend4991" />
      <feColorMatrix
         in="pq"
         result="qminp"
         type="matrix"
         values="-1 1 0 0 0 -1 1 0 0 0 -1 1 0 0 0 0 0 0 0 1 "
         id="feColorMatrix4993" />
      <feComponentTransfer
         in="qminp"
         result="coefsq"
         id="feComponentTransfer4995">
        <feFuncR
           type="table"
           tableValues="1 1 0 0 0 1 1"
           id="feFuncR4997" />
        <feFuncG
           type="table"
           tableValues="0 1 1 1 0 0 0"
           id="feFuncG4999" />
        <feFuncB
           type="table"
           tableValues="0 0 0 1 1 1 0"
           id="feFuncB5001" />
      </feComponentTransfer>
      <feFlood
         flood-color="rgb(203,0,254)"
         result="result1"
         id="feFlood5003" />
      <feComposite
         k4="0"
         k3="0"
         k2="0"
         in="qminp"
         in2="result1"
         result="qminpc"
         operator="arithmetic"
         k1="1"
         id="feComposite5005" />
      <feComposite
         k4="0"
         k1="0"
         in="p"
         in2="qminpc"
         result="color"
         operator="arithmetic"
         k2="1"
         k3="1"
         id="feComposite5007" />
      <feComposite
         in="color"
         in2="SourceGraphic"
         operator="in"
         id="feComposite5009" />
    </filter>
  </defs>
  <metadata
     id="metadata5733">
    <rdf:RDF>
      <cc:Work
         rdf:about="">
        <dc:format>image/svg+xml</dc:format>
        <dc:type
           rdf:resource="http://purl.org/dc/dcmitype/StillImage" />
        <dc:title></dc:title>
      </cc:Work>
    </rdf:RDF>
  </metadata>
  <g
     transform="translate(-381.32297,-52.360964)"
     id="layer1">
    <g
       transform="translate(-23.146657,11.254371)"
       style="display:inline"
       id="Dog">
      <g
         transform="translate(186.07143,-425.35714)"
         id="g4778">
        <path
           style="opacity:1;fill:url(#linearGradient4358);fill-opacity:1;fill-rule:evenodd;stroke:#000000;stroke-width:1px;stroke-linecap:butt;stroke-linejoin:miter;stroke-opacity:1"
           d="m 411.13209,718.50679 c 0,0 12.87944,-2.02031 24.4962,-1.01016 11.61675,1.01016 32.57742,3.53554 34.09264,6.06092 1.51523,2.52538 7.07107,9.09137 9.34392,9.84899 2.27284,0.75761 24.24366,5.80837 30.55711,5.3033 6.31345,-0.50508 13.13198,1.26269 16.16244,-0.75762 3.03046,-2.0203 7.07107,-2.52538 6.81853,-3.53553 -0.25254,-1.01015 -2.52538,-7.07107 -2.52538,-7.07107 0,0 -4.54569,-8.58629 -6.81853,-9.09137 -2.27284,-0.50508 -8.08122,0 -8.08122,-1.26269 0,-1.26269 -9.09137,-2.77792 -9.09137,-2.77792 0,0 -4.29315,-1.76777 -6.06092,-2.52538 -1.76777,-0.75762 -9.59645,-4.04061 -9.59645,-4.04061 l -5.05076,-5.3033 c 0,0 1.26269,-11.11168 -2.27284,-17.1726 -3.53554,-6.06091 -7.82869,-22.22335 -15.40483,-30.55711 -7.57614,-8.33376 -10.6066,-13.38452 -10.85914,-15.9099 -0.25254,-2.52539 -3.283,-17.42514 -5.05076,-19.69798 -1.76777,-2.27284 3.28299,-10.35406 5.3033,-10.35406 2.0203,0 -6.06092,-11.86929 -6.06092,-14.14214 0,-2.27284 -6.56599,-14.39467 -5.3033,-18.43528 1.26269,-4.04061 1.76777,-25.75889 -0.50507,-27.7792 -2.27285,-2.0203 0.50507,1.26269 1.76776,0.25254 1.26269,-1.01015 8.08122,1.01015 11.36422,-2.0203 3.28299,-3.03046 17.93021,-28.28428 18.18274,-29.04189 0.25254,-0.75761 -2.52538,-9.59645 -4.54568,-10.35406 -2.02031,-0.75762 -12.37437,-8.33376 -12.37437,-8.33376 0,0 -12.12183,-11.36422 -12.62691,-13.38452 -0.50507,-2.02031 -3.28299,-8.08122 -6.56599,-8.83884 -3.28299,-0.75761 -10.6066,-1.51523 -10.85914,0 -0.25254,1.51523 -7.3236,-3.78807 -8.33376,-3.78807 -1.01015,0 -11.86929,-5.55584 -19.1929,-5.80838 -7.3236,-0.25254 -24.24366,2.77792 -27.77919,4.29315 -2.46746,1.05749 -17.9516,7.76944 -26.01143,17.17259 -1.51522,1.76777 -9.59645,2.52539 -11.11168,7.57615 -2.46406,8.2135 -7.57614,16.92005 -14.39467,22.72843 -6.81853,5.80838 -1.76777,19.1929 0,20.96067 1.76777,1.76776 15.45776,18.7448 15.9099,19.95051 0.75761,2.0203 8.33376,1.26269 8.5863,-0.25254 0.25254,-1.51523 -1.76777,19.44544 -3.283,19.69798 -1.51523,0.25253 -3.28299,8.83883 -3.03045,9.09137 0.25253,0.25254 -5.05077,1.01015 -7.07107,2.77792 -2.02031,1.76777 -11.61676,-0.25254 -12.12183,0.75761 -0.50508,1.01016 -3.03046,4.54569 -4.79823,5.55584 -1.76776,1.01015 -8.58629,-1.51523 -11.86929,1.01015 -3.283,2.52539 -20.70813,10.60661 -22.47589,13.13199 -1.76777,2.52538 -16.16245,18.68782 -15.40483,20.20305 0.75761,1.51523 -13.8896,11.11168 -12.87945,15.9099 1.01016,4.79823 2.02031,20.96067 10.60661,24.74874 8.58629,3.78807 12.6269,11.36421 12.12183,12.87944 -0.50508,1.51523 -6.81853,-5.55584 -8.33376,-5.55584 -1.51523,0 -4.29315,-4.29314 -8.83884,-4.04061 -4.54568,0.25254 -18.43528,3.53554 -23.99112,8.08122 -5.55584,4.54569 -13.8896,16.66752 -16.92006,16.92006 -3.03045,0.25254 62.62946,0.25254 62.62946,0.25254 0,0 11.8693,-0.25254 15.40483,1.76776 3.53553,2.02031 13.63706,11.61676 19.69797,10.35407 6.06092,-1.26269 7.70243,-1.38897 8.96512,-0.12628 1.26269,1.26269 -1.13644,5.68211 6.43971,8.46003 7.57614,2.77792 39.64849,11.61676 42.42641,13.8896 2.36168,1.93228 18.18274,7.82869 18.94036,10.85914 0.75761,3.03046 16.66751,3.53554 16.66751,3.53554 0,0 3.03046,4.54568 6.81853,4.54568 3.78808,0 9.34392,2.77792 13.13199,2.27285 3.78807,-0.50508 12.6269,3.28299 13.63706,0.75761 1.01015,-2.52538 7.57614,3.03046 8.83883,0.50508 1.26269,-2.52538 3.53554,-1.51523 4.29315,-3.03046 0.75761,-1.51523 3.78807,-13.13198 0,-16.41498 -3.78807,-3.28299 1.01015,-3.78807 -0.50508,-4.79822 -1.51523,-1.01015 -9.84898,-5.05077 -11.61675,-4.54569 -1.76777,0.50508 -15.40483,-2.27284 -19.95051,-1.51523 -4.54569,0.75762 -3.283,-3.78807 -6.31346,-4.79822 -3.03045,-1.01015 -7.3236,-4.04061 -7.3236,-4.04061 z"
           id="path4316" />
        <path
           style="fill:none;fill-rule:evenodd;stroke:#000000;stroke-width:1px;stroke-linecap:butt;stroke-linejoin:miter;stroke-opacity:1"
           d="m 341.42105,635.35675 c 0,0 -11.7394,56.62461 -15.0155,60.92668 -2.05099,2.6933 -1.34808,13.32229 0.12626,20.20305"
           id="path4318" />
        <path
           style="fill:none;fill-rule:evenodd;stroke:#000000;stroke-width:1px;stroke-linecap:butt;stroke-linejoin:miter;stroke-opacity:1"
           d="m 393.92857,682.3622 c 0,0 -23.92857,10 -23.57143,12.5 0.35715,2.5 -8.92857,-3.21428 -15.35714,-1.42857"
           id="path4320" />
        <path
           style="fill:none;fill-rule:evenodd;stroke:#000000;stroke-width:1px;stroke-linecap:butt;stroke-linejoin:miter;stroke-opacity:1"
           d="m 411.07143,718.6122 c 0,0 -23.75,-7.5 -25.53571,-9.46428 -1.78572,-1.96429 -15.71429,-13.92857 -15.71429,-13.92857"
           id="path4322" />
        <path
           style="fill:none;fill-rule:evenodd;stroke:#000000;stroke-width:1px;stroke-linecap:butt;stroke-linejoin:miter;stroke-opacity:1"
           d="m 440,677.00506 c 0,0 20,10.71428 23.21429,7.67856 3.21428,-3.03571 12.5,-4.46427 12.85714,-3.57142"
           id="path4324" />
        <path
           style="fill:none;fill-rule:evenodd;stroke:#000000;stroke-width:1px;stroke-linecap:butt;stroke-linejoin:miter;stroke-opacity:1"
           d="m 462.5,684.8622 c 0,0 -6.65272,12.68763 -6.42857,20.71429 0.17491,6.26355 10.17857,16.96429 13.39286,17.5"
           id="path4326" />
        <path
           style="fill:none;fill-rule:evenodd;stroke:#000000;stroke-width:1px;stroke-linecap:butt;stroke-linejoin:miter;stroke-opacity:1"
           d="m 281.07143,700.75506 c 0,0 -4.10714,-4.10714 -3.39286,-5.35714 0.71429,-1.25 -0.71428,-7.5 1.78572,-9.28572 2.5,-1.78571 2.85714,-3.92857 5,-2.67857 2.14285,1.25 5.35714,0.35714 6.42857,3.39286 1.07143,3.03571 4.46428,8.21428 4.28571,10.35714 -0.17857,2.14286 0.17857,4.82143 0.17857,4.82143 0,0 -12.14285,-1.78571 -14.28571,-1.25 z"
           id="path4328" />
        <path
           style="opacity:1;fill:#000000;fill-opacity:1;fill-rule:evenodd;stroke:#000000;stroke-width:1px;stroke-linecap:butt;stroke-linejoin:miter;stroke-opacity:1"
           d="m 367.14286,541.46935 c 0,0 6.96428,8.03571 7.67857,6.78571 0.71429,-1.25 4.46429,-1.78571 5.71429,-5.35714 1.25,-3.57143 7.5,-6.42857 8.39285,-5.35715 0.89286,1.07143 10.53572,3.39286 13.57143,6.96429 3.03572,3.57143 12.85714,-3.21429 13.39286,-4.64286 0.53571,-1.42857 6.07143,-4.10714 6.25,-1.07143 0.17857,3.03572 -5.17857,19.10715 -8.57143,20.53572 -3.39286,1.42857 -8.21429,4.46428 -11.78571,9.28571 -3.57143,4.82143 -21.07143,2.67857 -20.53572,0.53572 0.53572,-2.14286 -2.85714,-8.57143 -4.46428,-8.03572 -1.60715,0.53572 -5.17858,-9.46428 -5.17858,-9.46428 z"
           id="path4330" />
        <path
           style="fill:url(#radialGradient4413);fill-opacity:1;fill-rule:evenodd;stroke:#000000;stroke-width:1px;stroke-linecap:butt;stroke-linejoin:miter;stroke-opacity:1"
           d="m 388.57143,536.64792 -0.53571,-5 c 0,0 -7.67858,-2.5 -8.39286,-3.39286 -0.71429,-0.89286 -5.89286,-4.10714 -5.89286,-6.42857 0,-2.32143 1.42857,-7.5 2.32143,-7.5 0.89286,0 4.28571,-5.17857 6.96429,-4.46429 2.67857,0.71429 9.46428,-1.25 10.71428,0.17857 1.25,1.42858 5.17857,2.85715 5.53572,4.82143 0.35714,1.96429 2.5,1.96429 1.96428,4.28572 -0.53571,2.32143 -4.82143,9.28571 -8.03571,10.53571 -3.21429,1.25 -5.17857,1.96429 -5.17857,1.96429 z"
           id="path4332" />
        <path
           style="fill:#712f1d;fill-opacity:1;fill-rule:evenodd;stroke:#000000;stroke-width:1px;stroke-linecap:butt;stroke-linejoin:miter;stroke-opacity:1"
           d="m 374.82143,500.57649 c 0,0 -2.5,0.17857 -2.5,-0.53572 0,-0.71428 -1.09686,-2.99443 -2.85714,-4.10714 -0.90184,-0.57007 -4.09663,-1.1906 -5.63135,1.96429 -1.65047,3.39285 -1.51151,4.28571 -1.51151,4.28571 0,0 1.60714,0.53572 2.5,1.42857 0.89286,0.89286 2.99239,1.37627 4.53825,0.68365 1.67214,-0.44008 2.96175,-1.04079 2.96175,-2.11222 0,-1.07143 2.5,-1.60714 2.5,-1.60714 z"
           id="path4334" />
        <path
           style="fill:#712f1d;fill-opacity:1;fill-rule:evenodd;stroke:#000000;stroke-width:1px;stroke-linecap:butt;stroke-linejoin:miter;stroke-opacity:1"
           d="m 406.96429,498.07649 c 0,0 0.48934,-1.7823 1.3546,-2.75254 1.11476,-1.25 1.35198,-1.87048 2.83548,-2.26913 1.37627,-0.36983 2.16584,-0.28385 4.41198,0.64032 1.34564,0.55367 2.38271,2.21682 2.98341,2.65691 0.96632,0.70794 1.98596,2.79587 2.87881,2.6173 0.89286,-0.17858 -3.5281,1.11475 -4.33801,1.80738 -0.82551,0.70596 -3.12763,1.10206 -4.42096,0.78825 -1.16412,-0.28247 -2.61835,-0.88652 -3.19262,-1.31128 -1.13642,-0.84055 -1.79841,-2.71293 -2.51269,-2.17721 z"
           id="path4336" />
        <path
           style="fill:none;fill-rule:evenodd;stroke:#000000;stroke-width:1px;stroke-linecap:butt;stroke-linejoin:miter;stroke-opacity:1"
           d="m 346.96429,559.14792 c 0,0 5.17857,-7.14286 3.75,-10.71429 -1.42857,-3.57143 -1.96429,-18.57143 -1.60714,-21.78571 0.23082,-2.07735 0.1215,-25.01109 0.35713,-26.07143 0.35715,-1.60715 2.0616,-7.93816 4.10715,-10.89286 1.60714,-2.32142 4.14577,-5.32499 6.07143,-7.67857 1.60715,-1.96428 4.46428,-5.71429 4.46428,-5.71429"
           id="path4338" />
        <path
           style="fill:none;fill-rule:evenodd;stroke:#000000;stroke-width:1px;stroke-linecap:butt;stroke-linejoin:miter;stroke-opacity:1"
           d="m 429.10714,477.00506 c 0,0 9.10715,15.35714 9.46429,21.60714 0.35714,6.25 3.75,21.42857 2.85714,23.21429 -0.89285,1.78571 -2.14285,15.71428 -0.35714,19.10714 1.78571,3.39286 1.60714,5.89286 3.57143,6.96429"
           id="path4340" />
        <path
           style="fill:none;fill-rule:evenodd;stroke:#000000;stroke-width:1px;stroke-linecap:butt;stroke-linejoin:miter;stroke-opacity:1"
           d="m 355,545.75506 c 0,0 8.70884,11.38452 13.21428,15.17857 6.78572,5.71428 7.32144,9.82143 9.10715,10.00001 1.78572,0.17857 5.79692,3.33621 10.17857,3.92856 4.28013,0.57863 10.05612,1.43278 13.57143,0 4.21596,-1.71835 6.33421,-4.68009 8.57143,-6.78571 3.03571,-2.85714 10.17857,-11.07143 11.78571,-12.50001 1.60714,-1.42857 6.58497,-5.87066 8.39286,-7.67856 1.96429,-1.96429 5,-3.92858 7.5,-6.78572"
           id="path4342" />
        <path
           style="fill:#cb7092;fill-opacity:1;fill-rule:evenodd;stroke:#000000;stroke-width:1px;stroke-linecap:butt;stroke-linejoin:miter;stroke-opacity:1"
           d="m 378.04959,545.51816 0.50508,2.77792 c 0,0 -1.6415,2.90419 -1.38896,3.53554 0.25254,0.63134 -2.65165,0.88388 -2.77792,1.89403 -0.12627,1.01016 0.63134,4.41942 2.0203,4.41942 1.38896,0 1.89404,0.50508 2.14658,1.38896 0.25254,0.88388 1.51523,4.29315 2.39911,4.16688 0.88388,-0.12627 2.52538,1.6415 4.04061,1.13642 1.51523,-0.50508 4.79822,-1.89404 5.93465,-1.26269 1.13642,0.63135 4.79822,0.75761 5.55584,0.37881 0.75761,-0.37881 4.29314,-1.76777 4.29314,-3.15673 0,-1.38896 3.283,-4.04061 3.283,-4.04061 0,0 1.89404,-6.18718 1.26269,-6.56599 -0.63135,-0.37881 3.91434,-2.14658 4.04061,-2.90419 0.12627,-0.75761 1.13642,-3.40927 1.76777,-3.283 0.63134,0.12627 -4.79823,1.51523 -6.43973,1.38896 -1.64149,-0.12626 -4.29314,2.14658 -5.17703,3.15673 -0.88388,1.01015 -5.68211,-1.26269 -8.08122,1.38896 -2.39911,2.65165 0.50508,-0.88388 -0.75761,-0.50508 -1.26269,0.37881 -4.54569,-2.65165 -8.46003,-0.75761 -3.91434,1.89404 -4.54569,1.26269 -4.54569,1.26269 l 1.01016,-1.89404 z"
           id="path4368" />
        <path
           style="fill:none;fill-rule:evenodd;stroke:#000000;stroke-width:1px;stroke-linecap:butt;stroke-linejoin:miter;stroke-opacity:1"
           d="m 388.02485,531.37603 -0.75762,-14.39468"
           id="path4370" />
        <ellipse
           style="opacity:1;fill:#000000;fill-opacity:1;fill-rule:evenodd;stroke:#000000;stroke-width:1;stroke-miterlimit:4;stroke-dasharray:none;stroke-opacity:1"
           id="path4372"
           cx="380.38559"
           cy="-520.7063"
           rx="2.0834396"
           ry="2.2097087"
           transform="scale(1,-1)" />
        <circle
           style="opacity:1;fill:#000000;fill-opacity:1;fill-rule:evenodd;stroke:#000000;stroke-width:1;stroke-miterlimit:4;stroke-dasharray:none;stroke-opacity:1"
           id="path4405"
           cx="393.32816"
           cy="520.13806"
           r="2.1465743" />
        <ellipse
           style="opacity:1;fill:#000000;fill-opacity:1;fill-rule:evenodd;stroke:#ffffff;stroke-width:1;stroke-miterlimit:4;stroke-dasharray:1, 8;stroke-dashoffset:0;stroke-opacity:1"
           id="path4417"
           cx="367.88492"
           cy="500.50323"
           rx="1.5783633"
           ry="1.4520943" />
        <ellipse
           style="opacity:1;fill:#000000;fill-opacity:1;fill-rule:evenodd;stroke:#ffffff;stroke-width:1;stroke-linejoin:miter;stroke-miterlimit:4;stroke-dasharray:1, 12;stroke-dashoffset:0;stroke-opacity:1"
           id="path4419"
           cx="412.96298"
           cy="497.59906"
           rx="1.4520943"
           ry="1.5783633" />
        <path
           style="fill:none;fill-rule:evenodd;stroke:#000000;stroke-width:1px;stroke-linecap:butt;stroke-linejoin:miter;stroke-opacity:1"
           d="m 430,752.89792 c 0,0 3.21429,5.71428 2.85714,7.14285 -0.35714,1.42858 1.25,-6.25 -0.35714,-6.78571 -1.60714,-0.53571 -2.5,-0.35714 -2.5,-0.35714 z"
           id="path4727" />
        <path
           style="fill:none;fill-rule:evenodd;stroke:#000000;stroke-width:1px;stroke-linecap:butt;stroke-linejoin:miter;stroke-opacity:1"
           d="m 447.5,753.6122 c 0,0 3.21429,3.92857 2.5,5.17857 -0.71428,1.25 2.14286,-3.75 0.89286,-4.10714 -1.25,-0.35714 -2.67857,-1.07143 -2.67857,-1.07143 z"
           id="path4729" />
        <path
           style="fill:none;fill-rule:evenodd;stroke:#000000;stroke-width:1px;stroke-linecap:butt;stroke-linejoin:miter;stroke-opacity:1"
           d="m 454.28572,750.04077 c 0,0 4.28571,4.28572 3.75,5.17858 -0.53572,0.89285 1.60714,-5.17858 0.35714,-5.35715 -1.25,-0.17857 -4.10714,0.17857 -4.10714,0.17857 z"
           id="path4731" />
      </g>
    </g>
  </g>
</svg>
