<?xml version="1.0" encoding="UTF-8" standalone="no"?>
<svg
   xmlns:osb="http://www.openswatchbook.org/uri/2009/osb"
   xmlns:dc="http://purl.org/dc/elements/1.1/"
   xmlns:cc="http://creativecommons.org/ns#"
   xmlns:rdf="http://www.w3.org/1999/02/22-rdf-syntax-ns#"
   xmlns:svg="http://www.w3.org/2000/svg"
   xmlns="http://www.w3.org/2000/svg"
   xmlns:xlink="http://www.w3.org/1999/xlink"
   version="1.1"
   id="svg5728"
   viewBox="0 0 54.824193 40.133065"
   height="11.326443mm"
   width="15.472606mm">
  <defs
     id="defs5730">
    <linearGradient
       id="linearGradient4771">
      <stop
         style="stop-color:#787885;stop-opacity:1;"
         offset="0"
         id="stop4773" />
      <stop
         id="stop4858"
         offset="0.8214286"
         style="stop-color:#6d6483;stop-opacity:1;" />
      <stop
         style="stop-color:#62596b;stop-opacity:1;"
         offset="1"
         id="stop4775" />
    </linearGradient>
    <linearGradient
       id="linearGradient4757">
      <stop
         style="stop-color:#b3b3cb;stop-opacity:1;"
         offset="0"
         id="stop4759" />
      <stop
         style="stop-color:#76697e;stop-opacity:1;"
         offset="1"
         id="stop4761" />
    </linearGradient>
    <linearGradient
       id="linearGradient4726">
      <stop
         style="stop-color:#000000;stop-opacity:1;"
         offset="0"
         id="stop4728" />
      <stop
         style="stop-color:#4e413b;stop-opacity:1;"
         offset="1"
         id="stop4730" />
    </linearGradient>
    <linearGradient
       id="linearGradient4714">
      <stop
         style="stop-color:#ffaa00;stop-opacity:1;"
         offset="0"
         id="stop4716" />
      <stop
         style="stop-color:#8e392e;stop-opacity:1;"
         offset="1"
         id="stop4718" />
    </linearGradient>
    <linearGradient
       id="linearGradient4662"
       osb:paint="gradient">
      <stop
         id="stop4666"
         offset="0"
         style="stop-color:#e2dbec;stop-opacity:1;" />
      <stop
         id="stop4664"
         offset="1"
         style="stop-color:#b4a9bc;stop-opacity:1;" />
    </linearGradient>
    <linearGradient
       id="linearGradient4979"
       osb:paint="solid">
      <stop
         style="stop-color:#ffffff;stop-opacity:1;"
         offset="0"
         id="stop4981" />
    </linearGradient>
    <marker
       orient="auto"
       refY="0"
       refX="0"
       id="SquareM"
       style="overflow:visible">
      <path
         id="path4498"
         d="M -5,-5 -5,5 5,5 5,-5 -5,-5 Z"
         style="fill:#7d3f31;fill-opacity:1;fill-rule:evenodd;stroke:#000000;stroke-width:1pt;stroke-opacity:1"
         transform="scale(0.4,0.4)" />
    </marker>
    <marker
       orient="auto"
       refY="0"
       refX="0"
       id="DotL"
       style="overflow:visible">
      <path
         id="path4486"
         d="m -2.5,-1 c 0,2.76 -2.24,5 -5,5 -2.76,0 -5,-2.24 -5,-5 0,-2.76 2.24,-5 5,-5 2.76,0 5,2.24 5,5 z"
         style="fill:#7d3f31;fill-opacity:1;fill-rule:evenodd;stroke:#000000;stroke-width:1pt;stroke-opacity:1"
         transform="matrix(0.8,0,0,0.8,5.92,0.8)" />
    </marker>
    <linearGradient
       id="linearGradient4198">
      <stop
         style="stop-color:#28170b;stop-opacity:1"
         offset="0"
         id="stop4200" />
      <stop
         style="stop-color:#784421;stop-opacity:1"
         offset="1"
         id="stop4202" />
    </linearGradient>
    <linearGradient
       xlink:href="#linearGradient4198"
       id="linearGradient4204"
       x1="442.85715"
       y1="687.71936"
       x2="486.42859"
       y2="788.43365"
       gradientUnits="userSpaceOnUse" />
    <radialGradient
       xlink:href="#linearGradient4714"
       id="radialGradient4724"
       cx="275"
       cy="455.87613"
       fx="275"
       fy="455.87613"
       r="48.35714"
       gradientTransform="matrix(1,0,0,0.68361086,0,144.23426)"
       gradientUnits="userSpaceOnUse" />
    <radialGradient
       xlink:href="#linearGradient4757"
       id="radialGradient4763"
       cx="197.23228"
       cy="516.22369"
       fx="197.23228"
       fy="516.22369"
       r="100.25256"
       gradientTransform="matrix(1,0,0,0.82870668,0,88.425674)"
       gradientUnits="userSpaceOnUse" />
    <radialGradient
       xlink:href="#linearGradient4771"
       id="radialGradient4777"
       cx="196.00797"
       cy="523.5473"
       fx="196.00797"
       fy="523.5473"
       r="125.72055"
       gradientTransform="matrix(1,0,0,0.89585144,0,54.526701)"
       gradientUnits="userSpaceOnUse" />
    <filter
       style="color-interpolation-filters:sRGB"
       x="0"
       y="0"
       height="1"
       width="1"
       id="filter4971">
      <feColorMatrix
         in="SourceGraphic"
         result="r"
         type="matrix"
         values="1 0 0 0 0 1 0 0 0 0 1 0 0 0 0 0 0 0 0 1 "
         id="feColorMatrix4973" />
      <feColorMatrix
         in="SourceGraphic"
         result="g"
         type="matrix"
         values="0 1 0 0 0 0 1 0 0 0 0 1 0 0 0 0 0 0 0 1 "
         id="feColorMatrix4975" />
      <feColorMatrix
         in="SourceGraphic"
         result="b"
         type="matrix"
         values="0 0 1 0 0 0 0 1 0 0 0 0 1 0 0 0 0 0 0 1 "
         id="feColorMatrix4977" />
      <feBlend
         mode="darken"
         in="r"
         in2="g"
         result="minrg"
         id="feBlend4979" />
      <feBlend
         mode="darken"
         in="minrg"
         in2="b"
         result="p"
         id="feBlend4981" />
      <feBlend
         mode="lighten"
         in="r"
         in2="g"
         result="maxrg"
         id="feBlend4983" />
      <feBlend
         mode="lighten"
         in="maxrg"
         in2="b"
         result="q"
         id="feBlend4985" />
      <feComponentTransfer
         in="q"
         result="q2"
         id="feComponentTransfer4987">
        <feFuncR
           type="linear"
           slope="0"
           id="feFuncR4989" />
      </feComponentTransfer>
      <feBlend
         mode="lighten"
         in="p"
         in2="q2"
         result="pq"
         id="feBlend4991" />
      <feColorMatrix
         in="pq"
         result="qminp"
         type="matrix"
         values="-1 1 0 0 0 -1 1 0 0 0 -1 1 0 0 0 0 0 0 0 1 "
         id="feColorMatrix4993" />
      <feComponentTransfer
         in="qminp"
         result="coefsq"
         id="feComponentTransfer4995">
        <feFuncR
           type="table"
           tableValues="1 1 0 0 0 1 1"
           id="feFuncR4997" />
        <feFuncG
           type="table"
           tableValues="0 1 1 1 0 0 0"
           id="feFuncG4999" />
        <feFuncB
           type="table"
           tableValues="0 0 0 1 1 1 0"
           id="feFuncB5001" />
      </feComponentTransfer>
      <feFlood
         flood-color="rgb(203,0,254)"
         result="result1"
         id="feFlood5003" />
      <feComposite
         k4="0"
         k3="0"
         k2="0"
         in="qminp"
         in2="result1"
         result="qminpc"
         operator="arithmetic"
         k1="1"
         id="feComposite5005" />
      <feComposite
         k4="0"
         k1="0"
         in="p"
         in2="qminpc"
         result="color"
         operator="arithmetic"
         k2="1"
         k3="1"
         id="feComposite5007" />
      <feComposite
         in="color"
         in2="SourceGraphic"
         operator="in"
         id="feComposite5009" />
    </filter>
  </defs>
  <metadata
     id="metadata5733">
    <rdf:RDF>
      <cc:Work
         rdf:about="">
        <dc:format>image/svg+xml</dc:format>
        <dc:type
           rdf:resource="http://purl.org/dc/dcmitype/StillImage" />
        <dc:title></dc:title>
      </cc:Work>
    </rdf:RDF>
  </metadata>
  <g
     transform="translate(-209.83059,-347.01403)"
     id="layer1">
    <g
       transform="translate(-23.146657,11.254371)"
       style="display:inline"
       id="Roach">
      <g
         transform="matrix(0.19792639,0,0,0.19792639,170.23744,185.41242)"
         id="g4222">
        <g
           transform="translate(30.622068,153.11034)"
           id="g4233">
          <path
             id="path4214"
             d="m 470,790.93363 c 0,0 -14.28571,-8.57143 -13.92857,-15.71428 0.35714,-7.14286 -47.5,-14.28572 -52.14286,-12.5 -4.64285,1.78571 -1.78571,-22.5 -1.78571,-22.5 l -9.28572,0.35714 18.92858,-5.35714 c 0,0 -3.57143,18.92857 -0.71429,20 2.85714,1.07142 40.71429,7.5 46.42857,16.07142 5.71429,8.57143 12.5,19.64286 12.5,19.64286 z"
             style="fill:#000000;fill-opacity:1;fill-rule:evenodd;stroke:#000000;stroke-width:1px;stroke-linecap:butt;stroke-linejoin:miter;stroke-opacity:1" />
          <path
             id="path4220"
             d="m 349.28572,757.3622 10,12.14286 c 0,0 19.28571,12.5 23.92857,12.14286 4.64285,-0.35715 11.07143,5 29.64285,1.78571 18.57143,-3.21428 43.21429,-11.78571 46.42858,-13.21428 3.21428,-1.42858 37.15264,-25.38498 39.64285,-26.78572 11.42858,-6.42857 18.21508,-10.69171 24.28573,-12.67858 8.27599,-2.70865 18.39285,-5.5357 26.96428,-4.99999 8.67274,0.54205 12.4421,0.005 12.67857,4.10714 0,0 -1.07144,-7.85714 -27.5,-3.21428 -31.98661,5.61927 -61.78572,38.57143 -94.64286,47.5 -32.85715,8.92857 -55.35715,4.64285 -55.35715,4.64285 0,0 -17.85714,-5.35714 -19.28571,-10.35714 -1.42857,-5 -12.85714,-10.71428 -12.85714,-10.71428 l -2.14286,-3.21429 z"
             style="fill:#000000;fill-opacity:1;fill-rule:evenodd;stroke:#000000;stroke-width:1px;stroke-linecap:butt;stroke-linejoin:miter;stroke-opacity:1" />
          <path
             id="path4212"
             d="m 379.64286,748.43363 5,14.28572 -14.28572,20.35714 c 0,0 -3.21428,16.78571 -0.71428,20 2.5,3.21429 3.21428,6.07143 3.21428,6.07143 l 0.35715,-24.64286 c 0,0 16.42857,-21.07143 19.64285,-20.35714 3.21429,0.71428 -8.21428,-16.42857 -7.5,-21.07143 0.71429,-4.64286 -3.92857,-3.21429 -5.71428,5.35714 z"
             style="fill:#000000;fill-opacity:1;fill-rule:evenodd;stroke:#000000;stroke-width:1px;stroke-linecap:butt;stroke-linejoin:miter;stroke-opacity:1" />
          <path
             id="path4208"
             d="m 362.5,691.29077 c 0,0 -16.07143,-13.92857 -18.92857,-15.71428 -2.85714,-1.78572 17.14286,-22.14286 16.78571,-24.28572 -0.35714,-2.14285 -4.28571,-2.85714 -1.78571,-8.57142 2.5,-5.71429 7.14286,-6.78572 4.28571,-15 -2.85714,-8.21429 -3.57142,-9.28572 -3.57142,-9.28572 0,0 7.85714,6.07143 8.21428,8.92857 0.35714,2.85715 -1.42857,4.28572 -1.42857,4.28572 0,0 -3.92857,10.71428 -4.64286,13.57143 -0.71428,2.85714 3.57143,5 1.78572,8.21428 -1.78572,3.21429 -11.78572,17.14286 -8.92857,18.57143 2.85714,1.42857 17.5,13.92857 15.35714,16.07143 C 367.5,690.21935 362.5,691.29077 362.5,691.29077 Z"
             style="fill:#000000;fill-opacity:1;fill-rule:evenodd;stroke:#000000;stroke-width:1px;stroke-linecap:butt;stroke-linejoin:miter;stroke-opacity:1" />
          <path
             id="path4206"
             d="m 351.01488,706.85455 c 0,0 -10.65774,-9.1352 -11.01488,-10.56378 -0.35714,-1.42857 -18.21428,17.5 -22.5,18.92858 -4.28571,1.42857 -21.42857,-5.71429 -28.21428,2.14285 -6.78572,7.85715 2.14285,-7.85714 8.92857,-7.14285 6.78571,0.71428 18.92857,2.14285 18.92857,2.14285 0,0 21.78571,-23.21428 20.35714,-25.71428 -1.42857,-2.5 15.35714,13.92857 16.42857,12.5 1.07143,-1.42857 -2.91369,7.70663 -2.91369,7.70663 z"
             style="fill:#000000;fill-opacity:1;fill-rule:evenodd;stroke:#000000;stroke-width:1px;stroke-linecap:butt;stroke-linejoin:miter;stroke-opacity:1" />
          <path
             id="path4216"
             d="m 426.42857,728.07649 c 0,0 10.35715,23.92857 11.78572,23.92857 1.42857,0 6.42857,-0.71429 8.21428,-2.5 1.78572,-1.78571 40.35715,-34.28571 42.14286,-36.78571 1.78572,-2.5 10,-1.07143 12.5,-1.78572 2.5,-0.71428 45.71429,-15.35714 47.5,-15 1.78572,0.35714 -46.07143,11.07143 -48.21428,11.78572 -2.14286,0.71428 -12.14286,-0.35715 -12.85715,1.07142 -0.71428,1.42858 -21.93578,22.31487 -43.57143,33.57143 0,0 -1.07143,-10.35714 -6.78571,-18.57143 -3.93896,-5.66225 -10.71429,4.28572 -10.71429,4.28572 z"
             style="fill:#000000;fill-opacity:1;fill-rule:evenodd;stroke:#000000;stroke-width:1px;stroke-linecap:butt;stroke-linejoin:miter;stroke-opacity:1" />
          <path
             id="path4210"
             d="m 378.49618,681.55395 0.35714,-13.21429 c 0,0 -6.07143,-7.85714 -4.64286,-9.64285 1.42858,-1.78572 20.35715,-6.07143 21.42858,-7.5 1.07142,-1.42857 12.14285,-8.92857 13.92857,-8.21429 1.78571,0.71429 9.64285,-3.57143 10.35714,-6.42857 0.71429,-2.85714 14.28571,-26.42857 15.71429,-26.42857 1.42857,0 -7.5,13.92857 -6.42858,18.57143 1.07143,4.64285 -9.28571,15 -15,16.78571 -5.71428,1.78572 -16.42857,12.5 -22.5,12.5 -6.07142,0 -8.57142,2.85714 -8.57142,2.85714 0,0 6.78571,12.85715 3.57142,16.42858 -3.21428,3.57142 -8.21428,4.28571 -8.21428,4.28571 z"
             style="fill:#000000;fill-opacity:1;fill-rule:evenodd;stroke:#000000;stroke-width:1px;stroke-linecap:butt;stroke-linejoin:miter;stroke-opacity:1" />
          <path
             id="path4180"
             d="m 346.42857,704.14792 c 0,0 -25.35714,18.57143 -21.07143,42.14285 4.28572,23.57143 53.92858,2.85715 53.92858,2.85715 0,0 3.21428,-4.64286 2.14285,-6.42857 -1.07143,-1.78572 21.42857,4.64285 67.85715,-26.42858 46.42857,-31.07142 51.78571,-52.5 51.78571,-52.5 0,0 -7.5,-2.85714 -8.92857,-6.42857 -1.42857,-3.57143 -50.35714,-2.5 -54.28572,-1.07143 -3.92857,1.42858 -38.21428,9.64286 -52.14285,21.07143 -13.92857,11.42857 -31.44197,17.21163 -35.71429,27.50001 0,0 0,0 -3.57143,-0.71429 z"
             style="fill:url(#linearGradient4204);fill-opacity:1;fill-rule:evenodd;stroke:#000000;stroke-width:1px;stroke-linecap:butt;stroke-linejoin:miter;stroke-opacity:1" />
          <path
             id="path4218"
             d="m 325.35714,740.21935 c 0,0 -20.35714,-22.14286 -20.71428,-26.42858 -0.35714,-4.28571 -2.14286,-25 0.35714,-27.5 2.5,-2.5 13.92857,-16.42857 15.71429,-16.78571 1.78571,-0.35714 13.57143,-8.92857 17.14285,-10.71429 3.57143,-1.78571 67.69856,-29.45815 71.96429,-43.39285 2.67857,-8.75 2.67857,-8.75 2.67857,-8.75 0,0 0.89286,22.32143 -56.96429,45.53571 -57.85714,23.21429 -49.10714,55.89286 -49.10714,55.89286 0,0 13.57143,18.57143 14.28572,20 0.71428,1.42857 4.64285,12.14286 4.64285,12.14286 z"
             style="fill:#000000;fill-opacity:1;fill-rule:evenodd;stroke:#000000;stroke-width:1px;stroke-linecap:butt;stroke-linejoin:miter;stroke-opacity:1" />
        </g>
      </g>
    </g>
  </g>
</svg>
