<?xml version="1.0" encoding="UTF-8" standalone="no"?>
<!-- Created with Inkscape (http://www.inkscape.org/) -->

<svg
   xmlns:osb="http://www.openswatchbook.org/uri/2009/osb"
   xmlns:dc="http://purl.org/dc/elements/1.1/"
   xmlns:cc="http://creativecommons.org/ns#"
   xmlns:rdf="http://www.w3.org/1999/02/22-rdf-syntax-ns#"
   xmlns:svg="http://www.w3.org/2000/svg"
   xmlns="http://www.w3.org/2000/svg"
   xmlns:xlink="http://www.w3.org/1999/xlink"
   xmlns:sodipodi="http://sodipodi.sourceforge.net/DTD/sodipodi-0.dtd"
   xmlns:inkscape="http://www.inkscape.org/namespaces/inkscape"
   width="210mm"
   height="297mm"
   viewBox="0 0 744.09448819 1052.3622047"
   id="svg2"
   version="1.1"
   inkscape:version="0.91 r13725"
   sodipodi:docname="asthmaRoomAssets.svg">
  <defs
     id="defs4">
    <linearGradient
       id="linearGradient4771">
      <stop
         style="stop-color:#787885;stop-opacity:1;"
         offset="0"
         id="stop4773" />
      <stop
         id="stop4858"
         offset="0.8214286"
         style="stop-color:#6d6483;stop-opacity:1;" />
      <stop
         style="stop-color:#62596b;stop-opacity:1;"
         offset="1"
         id="stop4775" />
    </linearGradient>
    <linearGradient
       id="linearGradient4757">
      <stop
         style="stop-color:#b3b3cb;stop-opacity:1;"
         offset="0"
         id="stop4759" />
      <stop
         style="stop-color:#76697e;stop-opacity:1;"
         offset="1"
         id="stop4761" />
    </linearGradient>
    <linearGradient
       id="linearGradient4726">
      <stop
         style="stop-color:#000000;stop-opacity:1;"
         offset="0"
         id="stop4728" />
      <stop
         style="stop-color:#4e413b;stop-opacity:1;"
         offset="1"
         id="stop4730" />
    </linearGradient>
    <linearGradient
       id="linearGradient4714">
      <stop
         style="stop-color:#ffaa00;stop-opacity:1;"
         offset="0"
         id="stop4716" />
      <stop
         style="stop-color:#8e392e;stop-opacity:1;"
         offset="1"
         id="stop4718" />
    </linearGradient>
    <linearGradient
       inkscape:collect="always"
       id="linearGradient4680">
      <stop
         id="stop4684"
         offset="0"
         style="stop-color:#d2dcef;stop-opacity:1" />
      <stop
         id="stop4682"
         offset="1"
         style="stop-color:#a49fbc;stop-opacity:1;" />
    </linearGradient>
    <linearGradient
       id="linearGradient4662"
       osb:paint="gradient">
      <stop
         id="stop4666"
         offset="0"
         style="stop-color:#e2dbec;stop-opacity:1;" />
      <stop
         id="stop4664"
         offset="1"
         style="stop-color:#b4a9bc;stop-opacity:1;" />
    </linearGradient>
    <linearGradient
       inkscape:collect="always"
       id="linearGradient4534">
      <stop
         style="stop-color:#803a00;stop-opacity:1;"
         offset="0"
         id="stop4536" />
      <stop
         style="stop-color:#deaa87;stop-opacity:1"
         offset="1"
         id="stop4538" />
    </linearGradient>
    <linearGradient
       inkscape:collect="always"
       id="linearGradient4393">
      <stop
         style="stop-color:#de8787;stop-opacity:1;"
         offset="0"
         id="stop4395" />
      <stop
         style="stop-color:#951321;stop-opacity:1"
         offset="1"
         id="stop4397" />
    </linearGradient>
    <linearGradient
       inkscape:collect="always"
       id="linearGradient4361">
      <stop
         style="stop-color:#ffffff;stop-opacity:1;"
         offset="0"
         id="stop4363" />
      <stop
         style="stop-color:#e1e2e3;stop-opacity:1"
         offset="1"
         id="stop4365" />
    </linearGradient>
    <linearGradient
       inkscape:collect="always"
       id="linearGradient4329">
      <stop
         style="stop-color:#faf0f0;stop-opacity:1"
         offset="0"
         id="stop4331" />
      <stop
         style="stop-color:#c8beb7;stop-opacity:1"
         offset="1"
         id="stop4333" />
    </linearGradient>
    <linearGradient
       inkscape:collect="always"
       id="linearGradient6445">
      <stop
         style="stop-color:#bfcde8;stop-opacity:1;"
         offset="0"
         id="stop6447" />
      <stop
         style="stop-color:#beb7c8;stop-opacity:1"
         offset="1"
         id="stop6449" />
    </linearGradient>
    <linearGradient
       id="linearGradient4979"
       osb:paint="solid">
      <stop
         style="stop-color:#ffffff;stop-opacity:1;"
         offset="0"
         id="stop4981" />
    </linearGradient>
    <linearGradient
       inkscape:collect="always"
       id="linearGradient4919">
      <stop
         style="stop-color:#f8fbff;stop-opacity:1;"
         offset="0"
         id="stop4921" />
      <stop
         style="stop-color:#f3ffff;stop-opacity:1"
         offset="1"
         id="stop4923" />
    </linearGradient>
    <linearGradient
       inkscape:collect="always"
       id="linearGradient4849">
      <stop
         id="stop4853"
         offset="0"
         style="stop-color:#d7eef4;stop-opacity:1" />
      <stop
         id="stop4851"
         offset="1"
         style="stop-color:#aabfff;stop-opacity:1" />
    </linearGradient>
    <marker
       inkscape:stockid="SquareM"
       orient="auto"
       refY="0.0"
       refX="0.0"
       id="SquareM"
       style="overflow:visible"
       inkscape:isstock="true">
      <path
         id="path4498"
         d="M -5.0,-5.0 L -5.0,5.0 L 5.0,5.0 L 5.0,-5.0 L -5.0,-5.0 z "
         style="fill-rule:evenodd;stroke:#000000;stroke-width:1pt;stroke-opacity:1;fill:#7d3f31;fill-opacity:1"
         transform="scale(0.4)" />
    </marker>
    <marker
       inkscape:stockid="DotL"
       orient="auto"
       refY="0.0"
       refX="0.0"
       id="DotL"
       style="overflow:visible"
       inkscape:isstock="true">
      <path
         id="path4486"
         d="M -2.5,-1.0 C -2.5,1.7600000 -4.7400000,4.0 -7.5,4.0 C -10.260000,4.0 -12.5,1.7600000 -12.5,-1.0 C -12.5,-3.7600000 -10.260000,-6.0 -7.5,-6.0 C -4.7400000,-6.0 -2.5,-3.7600000 -2.5,-1.0 z "
         style="fill-rule:evenodd;stroke:#000000;stroke-width:1pt;stroke-opacity:1;fill:#7d3f31;fill-opacity:1"
         transform="scale(0.8) translate(7.4, 1)" />
    </marker>
    <linearGradient
       inkscape:collect="always"
       id="linearGradient4407">
      <stop
         id="stop4411"
         offset="0"
         style="stop-color:#916f6f;stop-opacity:1" />
      <stop
         id="stop4409"
         offset="1"
         style="stop-color:#532100;stop-opacity:1;" />
    </linearGradient>
    <linearGradient
       inkscape:collect="always"
       id="linearGradient4352">
      <stop
         style="stop-color:#ffcbaa;stop-opacity:1"
         offset="0"
         id="stop4354" />
      <stop
         style="stop-color:#a06b2c;stop-opacity:1"
         offset="1"
         id="stop4356" />
    </linearGradient>
    <linearGradient
       id="linearGradient4288"
       inkscape:collect="always">
      <stop
         id="stop4290"
         offset="0"
         style="stop-color:#483e37;stop-opacity:1" />
      <stop
         id="stop4292"
         offset="1"
         style="stop-color:#c8beb7;stop-opacity:1" />
    </linearGradient>
    <linearGradient
       inkscape:collect="always"
       id="linearGradient4198">
      <stop
         style="stop-color:#28170b;stop-opacity:1"
         offset="0"
         id="stop4200" />
      <stop
         style="stop-color:#784421;stop-opacity:1"
         offset="1"
         id="stop4202" />
    </linearGradient>
    <linearGradient
       inkscape:collect="always"
       id="linearGradient4243">
      <stop
         style="stop-color:#ffaaaa;stop-opacity:1;"
         offset="0"
         id="stop4245" />
      <stop
         style="stop-color:#c83737;stop-opacity:1"
         offset="1"
         id="stop4247" />
    </linearGradient>
    <linearGradient
       inkscape:collect="always"
       xlink:href="#linearGradient4243"
       id="linearGradient4249"
       x1="252.93614"
       y1="405.23989"
       x2="267.30338"
       y2="405.23989"
       gradientUnits="userSpaceOnUse" />
    <linearGradient
       inkscape:collect="always"
       xlink:href="#linearGradient4198"
       id="linearGradient4204"
       x1="442.85715"
       y1="687.71936"
       x2="486.42859"
       y2="788.43365"
       gradientUnits="userSpaceOnUse" />
    <linearGradient
       inkscape:collect="always"
       xlink:href="#linearGradient4288"
       id="linearGradient4258"
       x1="208.5623"
       y1="489.8718"
       x2="536.67865"
       y2="489.8718"
       gradientUnits="userSpaceOnUse" />
    <linearGradient
       inkscape:collect="always"
       xlink:href="#linearGradient4352"
       id="linearGradient4358"
       x1="386.96429"
       y1="527.71936"
       x2="303.21429"
       y2="660.04077"
       gradientUnits="userSpaceOnUse" />
    <radialGradient
       inkscape:collect="always"
       xlink:href="#linearGradient4407"
       id="radialGradient4413"
       cx="388.42163"
       cy="515.2027"
       fx="388.42163"
       fy="515.2027"
       r="14.291911"
       gradientTransform="matrix(-0.08056864,-0.99674906,2.6593337,-0.21495772,-951.63819,1012.0464)"
       gradientUnits="userSpaceOnUse" />
    <radialGradient
       inkscape:collect="always"
       xlink:href="#linearGradient4849"
       id="radialGradient4855"
       cx="177.84604"
       cy="569.67688"
       fx="177.84604"
       fy="569.67688"
       r="60.535426"
       gradientTransform="matrix(1.6843643,0.00402501,-0.00589989,2.4689553,-118.35044,-820.58371)"
       gradientUnits="userSpaceOnUse" />
    <linearGradient
       inkscape:collect="always"
       xlink:href="#linearGradient4919"
       id="linearGradient4927"
       x1="208.35258"
       y1="182.15221"
       x2="413.3475"
       y2="182.15221"
       gradientUnits="userSpaceOnUse" />
    <radialGradient
       inkscape:collect="always"
       xlink:href="#linearGradient6445"
       id="radialGradient6457"
       cx="563.4165"
       cy="351.50259"
       fx="563.4165"
       fy="351.50259"
       r="67.559052"
       gradientTransform="matrix(1,0,0,0.36235463,0,224.13399)"
       gradientUnits="userSpaceOnUse" />
    <linearGradient
       inkscape:collect="always"
       xlink:href="#linearGradient4198"
       id="linearGradient6492"
       x1="354.11127"
       y1="459.33221"
       x2="304.86536"
       y2="395.67148"
       gradientUnits="userSpaceOnUse" />
    <radialGradient
       inkscape:collect="always"
       xlink:href="#linearGradient4329"
       id="radialGradient4337"
       cx="185.36299"
       cy="436.10648"
       fx="185.36299"
       fy="436.10648"
       r="69.569183"
       gradientTransform="matrix(1,0,0,0.45277987,0,238.64625)"
       gradientUnits="userSpaceOnUse" />
    <radialGradient
       inkscape:collect="always"
       xlink:href="#linearGradient4361"
       id="radialGradient4367"
       cx="153.92857"
       cy="458.87866"
       fx="153.92857"
       fy="458.87866"
       r="30.510085"
       gradientTransform="matrix(-0.91842346,0.46332181,-0.48077822,-0.95302585,515.91905,823.90268)"
       gradientUnits="userSpaceOnUse" />
    <radialGradient
       inkscape:collect="always"
       xlink:href="#linearGradient4329"
       id="radialGradient4375"
       cx="187.37315"
       cy="458.46796"
       fx="187.37315"
       fy="458.46796"
       r="13.155205"
       gradientTransform="matrix(1,0,0,0.86993993,0,59.628377)"
       gradientUnits="userSpaceOnUse" />
    <radialGradient
       inkscape:collect="always"
       xlink:href="#linearGradient4393"
       id="radialGradient4399"
       cx="163.56761"
       cy="462.06648"
       fx="163.56761"
       fy="462.06648"
       r="19.136338"
       gradientTransform="matrix(1,0,0,0.71883397,0,129.9174)"
       gradientUnits="userSpaceOnUse" />
    <radialGradient
       inkscape:collect="always"
       xlink:href="#linearGradient4361"
       id="radialGradient4427"
       gradientUnits="userSpaceOnUse"
       gradientTransform="matrix(0.96776558,-0.34870981,0.36184812,1.004227,-98.179866,46.844382)"
       cx="153.92857"
       cy="458.87866"
       fx="153.92857"
       fy="458.87866"
       r="30.510085" />
    <radialGradient
       inkscape:collect="always"
       xlink:href="#linearGradient4243"
       id="radialGradient4437"
       cx="207.30818"
       cy="458.79099"
       fx="207.30818"
       fy="458.79099"
       r="15.344705"
       gradientTransform="matrix(1,0,0,0.62649494,0,171.36076)"
       gradientUnits="userSpaceOnUse" />
    <radialGradient
       inkscape:collect="always"
       xlink:href="#linearGradient4352"
       id="radialGradient4445"
       cx="230.62958"
       cy="457.88266"
       fx="230.62958"
       fy="457.88266"
       r="14.63707"
       gradientTransform="matrix(1,0,0,0.6824067,0,145.42046)"
       gradientUnits="userSpaceOnUse" />
    <radialGradient
       inkscape:collect="always"
       xlink:href="#linearGradient4329"
       id="radialGradient4463"
       cx="185.89285"
       cy="542.36169"
       fx="185.89285"
       fy="542.36169"
       r="101.21428"
       gradientTransform="matrix(1,0,0,0.12491709,0,474.61143)"
       gradientUnits="userSpaceOnUse" />
    <linearGradient
       inkscape:collect="always"
       xlink:href="#linearGradient4534"
       id="linearGradient4540"
       x1="114.67837"
       y1="497.1986"
       x2="193.30607"
       y2="497.1986"
       gradientUnits="userSpaceOnUse" />
    <radialGradient
       inkscape:collect="always"
       xlink:href="#linearGradient4662"
       id="radialGradient4678"
       cx="220.14133"
       cy="581.68953"
       fx="220.14133"
       fy="581.68953"
       r="16.355608"
       gradientTransform="matrix(1,0,0,2.1199181,0,-651.44465)"
       gradientUnits="userSpaceOnUse" />
    <radialGradient
       inkscape:collect="always"
       xlink:href="#linearGradient4680"
       id="radialGradient4686"
       cx="243.46712"
       cy="553.19631"
       fx="243.46712"
       fy="553.19631"
       r="39.702926"
       gradientTransform="matrix(1,0,0,0.15350141,0,468.2799)"
       gradientUnits="userSpaceOnUse" />
    <radialGradient
       inkscape:collect="always"
       xlink:href="#linearGradient4714"
       id="radialGradient4724"
       cx="275"
       cy="455.87613"
       fx="275"
       fy="455.87613"
       r="48.35714"
       gradientTransform="matrix(1,0,0,0.68361086,0,144.23426)"
       gradientUnits="userSpaceOnUse" />
    <linearGradient
       inkscape:collect="always"
       xlink:href="#linearGradient4726"
       id="linearGradient4732"
       x1="252.71429"
       y1="561.14103"
       x2="298.35529"
       y2="561.14103"
       gradientUnits="userSpaceOnUse" />
    <linearGradient
       inkscape:collect="always"
       xlink:href="#linearGradient4726"
       id="linearGradient4738"
       gradientUnits="userSpaceOnUse"
       x1="252.71429"
       y1="561.14103"
       x2="298.35529"
       y2="561.14103" />
    <radialGradient
       inkscape:collect="always"
       xlink:href="#linearGradient4714"
       id="radialGradient4740"
       gradientUnits="userSpaceOnUse"
       gradientTransform="matrix(1,0,0,0.68361086,0,144.23426)"
       cx="275"
       cy="455.87613"
       fx="275"
       fy="455.87613"
       r="48.35714" />
    <radialGradient
       inkscape:collect="always"
       xlink:href="#linearGradient4757"
       id="radialGradient4763"
       cx="197.23229"
       cy="516.22372"
       fx="197.23229"
       fy="516.22372"
       r="100.25256"
       gradientTransform="matrix(1,0,0,0.82870668,0,88.425674)"
       gradientUnits="userSpaceOnUse" />
    <radialGradient
       inkscape:collect="always"
       xlink:href="#linearGradient4771"
       id="radialGradient4777"
       cx="196.00796"
       cy="523.54733"
       fx="196.00796"
       fy="523.54733"
       r="125.72055"
       gradientTransform="matrix(1,0,0,0.89585144,0,54.526701)"
       gradientUnits="userSpaceOnUse" />
    <radialGradient
       inkscape:collect="always"
       xlink:href="#linearGradient4771"
       id="radialGradient4867"
       gradientUnits="userSpaceOnUse"
       gradientTransform="matrix(1,0,0,0.89585144,0,54.526701)"
       cx="196.00796"
       cy="523.54733"
       fx="196.00796"
       fy="523.54733"
       r="125.72055" />
    <radialGradient
       inkscape:collect="always"
       xlink:href="#linearGradient4757"
       id="radialGradient4869"
       gradientUnits="userSpaceOnUse"
       gradientTransform="matrix(1,0,0,0.82870668,0,88.425674)"
       cx="197.23229"
       cy="516.22372"
       fx="197.23229"
       fy="516.22372"
       r="100.25256" />
    <filter
       inkscape:label="Tritone"
       inkscape:menu="Color"
       inkscape:menu-tooltip="Create a tritone palette with hue selectable by flood"
       x="0"
       y="0"
       height="1"
       width="1"
       color-interpolation-filters="sRGB"
       id="filter4971">
      <feColorMatrix
         in="SourceGraphic"
         result="r"
         type="matrix"
         values="1 0 0 0 0 1 0 0 0 0 1 0 0 0 0 0 0 0 0 1 "
         id="feColorMatrix4973" />
      <feColorMatrix
         in="SourceGraphic"
         result="g"
         type="matrix"
         values="0 1 0 0 0 0 1 0 0 0 0 1 0 0 0 0 0 0 0 1 "
         id="feColorMatrix4975" />
      <feColorMatrix
         in="SourceGraphic"
         result="b"
         type="matrix"
         values="0 0 1 0 0 0 0 1 0 0 0 0 1 0 0 0 0 0 0 1 "
         id="feColorMatrix4977" />
      <feBlend
         mode="darken"
         in="r"
         in2="g"
         result="minrg"
         id="feBlend4979" />
      <feBlend
         mode="darken"
         in="minrg"
         in2="b"
         result="p"
         id="feBlend4981" />
      <feBlend
         mode="lighten"
         in="r"
         in2="g"
         result="maxrg"
         id="feBlend4983" />
      <feBlend
         mode="lighten"
         in="maxrg"
         in2="b"
         result="q"
         id="feBlend4985" />
      <feComponentTransfer
         in="q"
         result="q2"
         id="feComponentTransfer4987">
        <feFuncR
           type="linear"
           slope="0"
           id="feFuncR4989" />
      </feComponentTransfer>
      <feBlend
         mode="lighten"
         in="p"
         in2="q2"
         result="pq"
         id="feBlend4991" />
      <feColorMatrix
         in="pq"
         result="qminp"
         type="matrix"
         values="-1 1 0 0 0 -1 1 0 0 0 -1 1 0 0 0 0 0 0 0 1 "
         id="feColorMatrix4993" />
      <feComponentTransfer
         in="qminp"
         result="coefsq"
         id="feComponentTransfer4995">
        <feFuncR
           type="table"
           tableValues="1 1 0 0 0 1 1"
           id="feFuncR4997" />
        <feFuncG
           type="table"
           tableValues="0 1 1 1 0 0 0"
           id="feFuncG4999" />
        <feFuncB
           type="table"
           tableValues="0 0 0 1 1 1 0"
           id="feFuncB5001" />
      </feComponentTransfer>
      <feFlood
         flood-color="rgb(203,0,254)"
         result="result1"
         id="feFlood5003" />
      <feComposite
         in="qminp"
         in2="result1"
         result="qminpc"
         operator="arithmetic"
         k1="1"
         id="feComposite5005" />
      <feComposite
         in="p"
         in2="qminpc"
         result="color"
         operator="arithmetic"
         k2="1"
         k3="1"
         id="feComposite5007" />
      <feComposite
         in="color"
         in2="SourceGraphic"
         operator="in"
         k1="1"
         id="feComposite5009" />
    </filter>
  </defs>
  <sodipodi:namedview
     id="base"
     pagecolor="#ffffff"
     bordercolor="#666666"
     borderopacity="1.0"
     inkscape:pageopacity="0.0"
     inkscape:pageshadow="2"
     inkscape:zoom="2.8"
     inkscape:cx="378.83598"
     inkscape:cy="615.78963"
     inkscape:document-units="px"
     inkscape:current-layer="layer2"
     showgrid="false"
     inkscape:window-width="2560"
     inkscape:window-height="1315"
     inkscape:window-x="0"
     inkscape:window-y="1"
     inkscape:window-maximized="1"
     inkscape:snap-nodes="false"
     inkscape:snap-global="false"
     showguides="true"
     inkscape:guide-bbox="true">
    <sodipodi:guide
       orientation="0,1"
       position="306.42857,432.14286"
       id="guide3928" />
    <sodipodi:guide
       orientation="0,1"
       position="306.07143,421.07143"
       id="guide3930" />
    <sodipodi:guide
       orientation="0,1"
       position="303.57143,436.25"
       id="guide3932" />
  </sodipodi:namedview>
  <metadata
     id="metadata7">
    <rdf:RDF>
      <cc:Work
         rdf:about="">
        <dc:format>image/svg+xml</dc:format>
        <dc:type
           rdf:resource="http://purl.org/dc/dcmitype/StillImage" />
        <dc:title />
      </cc:Work>
    </rdf:RDF>
  </metadata>
  <g
     inkscape:groupmode="layer"
     id="Cat"
     inkscape:label="Cat"
     style="display:inline">
    <g
       id="g4251"
       transform="translate(-173.74622,-324.25897)">
      <path
         sodipodi:nodetypes="csscssscsscscscscsssscsssscscssssssssssscscssc"
         inkscape:connector-curvature="0"
         id="path3350"
         d="m 223.24371,454.85697 c 0,0 3.03046,5.55584 -0.50507,11.11168 -3.53554,5.55584 -6.566,18.68782 -5.55584,23.23351 1.01015,4.54569 9.59645,28.28427 9.59645,28.28427 0,0 7.57614,18.68782 7.57614,26.26397 0,7.57614 3.03046,31.8198 2.52538,34.85026 -0.50507,3.03046 -1.51523,20.70813 0,26.26397 1.51523,5.55584 -9.09137,7.07106 -9.09137,7.07106 0,0 -2.02031,3.53554 0.50508,5.05077 2.52538,1.51523 -11.11168,-3.53554 -14.64722,1.51523 -3.53553,5.05076 -4.54568,11.11167 -4.54568,11.11167 0,0 7.57614,6.566 11.11168,6.06092 3.53553,-0.50508 27.77919,-0.50508 27.77919,-0.50508 0,0 13.63706,-24.74873 14.64721,-30.30457 1.01015,-5.55584 1.51523,-11.11168 1.51523,-11.11168 0,0 8.29043,23.76397 10.81582,25.27919 2.52538,1.51523 -3.23968,7.55077 -3.23968,7.55077 0,0 -4.04061,10.6066 -1.51522,12.12183 2.52538,1.51523 7.40799,6.1305 16.16244,5.05076 7.69343,-0.94888 13.70246,0.54918 16.90211,-3.08647 3.89112,-4.42136 -1.68038,-7.43155 1.75508,-8.72372 2.06624,-0.77718 2.05093,-0.81672 2.05093,-0.81672 0,0 22.22336,2.02031 23.73859,1.01016 1.51523,-1.01016 -3.53554,1.01015 -2.02031,3.53553 1.51523,2.52538 6.4886,4.19352 11.64214,4.24982 6.30621,0.0689 12.54025,0.8876 16.8207,-1.21936 4.17788,-2.05647 62.62946,-5.29061 62.62946,-5.29061 0,0 24.31763,-8.09391 29.62094,-11.88199 4.94906,-3.53505 13.63706,-9.09137 13.63706,-9.09137 0,0 11.06405,-6.56323 14.89974,-9.09137 8.00409,-5.27557 22.08555,-10.37017 25.50636,-9.34392 5.05076,1.51524 30.33981,13.59485 32.45486,1.32397 1.99336,-11.56486 -14.52466,-17.48641 -28.16172,-23.04225 -6.36206,-2.59194 -35.99155,1.1767 -50.50763,18.68783 -4.74012,5.71813 -16.77731,11.07823 -16.16244,3.53553 3.16834,-38.86642 -20.96066,-83.08504 -46.71955,-105.81348 -25.75889,-22.72843 -22.60727,-36.21401 -63.63962,-49.49747 -12.30741,-3.98429 -4.02823,-9.93098 -13.13198,-16.66752 -7.85787,-5.81462 -11.61675,-36.87057 -15.65736,-44.95179 -4.04061,-8.08122 8.55213,-34.16574 -1.01015,-38.3858 -4.63205,-2.04424 -18.18275,18.18275 -18.18275,18.18275 0,0 -32.37763,7.26662 -38.3858,-1.51523 -6.57221,-9.60627 -22.22335,-19.69797 -22.22335,-19.69797 0,0 -5.14099,32.34982 1.51523,40.91118 0,0 -13.63706,31.8198 -6.06092,51.0127 5.80837,14.71455 5.55584,26.76904 5.55584,26.76904 z"
         style="fill:url(#linearGradient4258);fill-opacity:1;fill-rule:evenodd;stroke:#000000;stroke-width:1px;stroke-linecap:butt;stroke-linejoin:miter;stroke-opacity:1" />
      <path
         sodipodi:nodetypes="csc"
         inkscape:connector-curvature="0"
         id="path3352"
         d="m 258.03571,543.6122 c 0,0 11.60715,40.53572 15.71429,44.64286 4.10714,4.10714 1.78571,31.78572 1.78571,31.78572"
         style="fill:none;fill-rule:evenodd;stroke:#000000;stroke-width:1px;stroke-linecap:butt;stroke-linejoin:miter;stroke-opacity:1" />
      <path
         inkscape:connector-curvature="0"
         id="path3356"
         d="m 331.07143,631.29078 c 0,0 3.92857,-10 7.14286,-9.82143 3.21428,0.17857 15.53571,-4.64286 18.57143,-2.14286 3.03571,2.5 13.57142,5.71429 11.60714,9.28571 -1.96429,3.57143 0.35714,8.57143 0.35714,8.57143"
         style="display:inline;fill:none;fill-rule:evenodd;stroke:#000000;stroke-width:1px;stroke-linecap:butt;stroke-linejoin:miter;stroke-opacity:1" />
      <path
         sodipodi:nodetypes="csc"
         inkscape:connector-curvature="0"
         id="path3360"
         d="m 441.36729,594.46826 c 0,0 -0.29586,8.7868 -1.54586,14.32252 -1.25,5.53571 -7.5,20.71428 -7.5,20.71428"
         style="display:inline;fill:none;fill-rule:evenodd;stroke:#000000;stroke-width:1px;stroke-linecap:butt;stroke-linejoin:miter;stroke-opacity:1" />
      <path
         inkscape:connector-curvature="0"
         id="path3364"
         d="m 250.17857,419.14792 9.82143,-5 9.10714,6.07143"
         style="display:inline;fill:none;fill-rule:evenodd;stroke:#000000;stroke-width:1px;stroke-linecap:butt;stroke-linejoin:miter;stroke-opacity:1" />
      <path
         inkscape:connector-curvature="0"
         id="path3370"
         d="m 253.57143,401.64792 c 0,0 12.85714,-0.89286 13.21428,0.53571 0.35715,1.42857 -6.60714,6.78572 -6.60714,6.78572 0,0 -7.85714,-6.42858 -6.60714,-7.32143 z"
         style="display:inline;fill:url(#linearGradient4249);fill-opacity:1;fill-rule:evenodd;stroke:#000000;stroke-width:1px;stroke-linecap:butt;stroke-linejoin:miter;stroke-opacity:1" />
      <path
         inkscape:connector-curvature="0"
         id="path3372"
         d="M 260.17857,413.79077 260,408.43363"
         style="display:inline;fill:none;fill-rule:evenodd;stroke:#000000;stroke-width:1px;stroke-linecap:butt;stroke-linejoin:miter;stroke-opacity:1" />
      <path
         inkscape:connector-curvature="0"
         id="path3374"
         d="m 270,391.29077 c 0,0 0.89286,-8.03571 4.28571,-7.67857 3.39286,0.35715 7.67858,-1.60714 9.10715,1.78572 1.42857,3.39285 -0.71429,8.03571 -1.78572,8.39285 -1.07143,0.35715 -8.57143,2.14286 -11.60714,-2.5 z"
         style="display:inline;fill:#ffff6e;fill-opacity:1;fill-rule:evenodd;stroke:#000000;stroke-width:1px;stroke-linecap:butt;stroke-linejoin:miter;stroke-opacity:1" />
      <path
         inkscape:connector-curvature="0"
         id="path3362"
         d="m 234.82143,427.00506 c 0,0 16.60714,8.21429 24.82143,6.96429 8.21428,-1.25 22.5,-1.78572 30.35714,-8.75"
         style="display:inline;fill:none;fill-rule:evenodd;stroke:#000000;stroke-width:1px;stroke-linecap:butt;stroke-linejoin:miter;stroke-opacity:1" />
      <path
         inkscape:connector-curvature="0"
         id="path3389"
         d="m 303.80338,632.89636 c 0,0 5.3033,-33.0825 9.34391,-36.87057 4.04061,-3.78807 18.68782,-62.62946 17.42513,-64.14468"
         style="fill:none;fill-rule:evenodd;stroke:#000000;stroke-width:1px;stroke-linecap:butt;stroke-linejoin:miter;stroke-opacity:1" />
      <path
         inkscape:connector-curvature="0"
         id="path3391"
         d="m 264.15489,593.50041 c 0,0 3.53553,-14.39467 6.06092,-12.12183"
         style="fill:none;fill-rule:evenodd;stroke:#000000;stroke-width:1px;stroke-linecap:butt;stroke-linejoin:miter;stroke-opacity:1" />
      <path
         inkscape:connector-curvature="0"
         id="path3393"
         d="m 252.03306,390.96482 c 0,0 -1.26269,-8.33375 -6.56599,-8.83883 -5.3033,-0.50508 -6.81853,3.03046 -6.56599,4.79822 0.25254,1.76777 1.26269,6.31346 4.29315,6.81853 3.03045,0.50508 6.06091,1.01016 8.83883,-2.77792 z"
         style="fill:#ffff6e;fill-opacity:1;fill-rule:evenodd;stroke:#000000;stroke-width:1px;stroke-linecap:butt;stroke-linejoin:miter;stroke-opacity:1" />
      <ellipse
         ry="2.5253813"
         rx="0.75761443"
         cy="388.43945"
         cx="276.7818"
         id="path3395"
         style="fill:#000000;fill-opacity:1;fill-rule:evenodd;stroke:#000000;stroke-width:1px;stroke-linecap:butt;stroke-linejoin:miter;stroke-opacity:1" />
      <ellipse
         ry="2.3991122"
         rx="0.88388348"
         cy="387.55557"
         cx="246.35095"
         id="path3397"
         style="fill:#000000;fill-opacity:1;fill-rule:evenodd;stroke:#000000;stroke-width:1px;stroke-linecap:butt;stroke-linejoin:miter;stroke-opacity:1" />
    </g>
  </g>
  <g
     inkscape:groupmode="layer"
     id="Ashtray"
     inkscape:label="Ashtray "
     style="display:inline">
    <g
       style="display:inline"
       id="g4305"
       transform="matrix(0.22428884,0,0,0.22428884,-47.717841,222.26023)">
      <g
         transform="translate(106.06601,9.0913723)"
         id="g4278">
        <path
           style="fill:#5a5d7b;fill-opacity:1;fill-rule:evenodd;stroke:#000000;stroke-width:1px;stroke-linecap:butt;stroke-linejoin:miter;stroke-opacity:1"
           d="m 217.1828,430.10824 c 0,0 71.29796,-25.6778 132.32998,-26.26397 49.75401,-0.47785 127.27922,-3.03046 188.89852,29.29443 0,0 -31.31472,86.87311 -35.35533,97.98479 -4.04061,11.11168 -244.45692,-3.03046 -244.45692,-3.03046 0,0 -22.22335,-29.29442 -41.41625,-97.98479 z"
           id="path4269"
           inkscape:connector-curvature="0"
           sodipodi:nodetypes="csc" />
        <path
           style="fill:#e5e5e5;fill-opacity:1;fill-rule:evenodd;stroke:#000000;stroke-width:1px;stroke-linecap:butt;stroke-linejoin:miter;stroke-opacity:1"
           d="m 217.1828,431.11839 0,105.05586 c 0,0 133.34014,78.31963 322.23866,3.03046 l 0,-107.07617 -60.63748,21.15816 c -3.45972,60.53221 -43.42331,49.18533 -46.78688,8.89718 0,0 -133.05079,8.59226 -214.8143,-31.06549 z"
           id="path4267"
           inkscape:connector-curvature="0"
           sodipodi:nodetypes="ccccccc" />
      </g>
      <g
         transform="matrix(0.99554896,-0.09424574,0.09424574,0.99554896,74.251963,48.473931)"
         id="g4282">
        <g
           transform="matrix(0.37349181,-0.92763348,0.92763348,0.37349181,-48.532115,983.05133)"
           id="g4296">
          <g
             id="g4275">
            <path
               style="fill:#ffffff;fill-opacity:1;fill-rule:evenodd;stroke:#000000;stroke-width:1px;stroke-linecap:butt;stroke-linejoin:miter;stroke-opacity:1"
               d="m 642.45702,121.00156 0,277.79195 c 0,0 19.1929,17.17259 33.33503,-1.01016 l 0,-274.76149 c 0,0 -16.16244,-15.15228 -33.33503,-2.0203 z"
               id="path4271"
               inkscape:connector-curvature="0"
               sodipodi:nodetypes="ccccc" />
          </g>
          <path
             sodipodi:nodetypes="ccccc"
             inkscape:connector-curvature="0"
             id="path4273"
             d="m 642.26576,348.28588 c 0,0 17.42513,14.94556 33.58757,-1.01015 l 0,49.49747 c 0,0 -11.11167,21.46575 -33.33503,1.01016 0,-24.24367 -0.25254,-49.49748 -0.25254,-49.49748 z"
             style="fill:#e59f36;fill-opacity:1;fill-rule:evenodd;stroke:#000000;stroke-width:1px;stroke-linecap:butt;stroke-linejoin:miter;stroke-opacity:1" />
        </g>
      </g>
      <path
         inkscape:connector-curvature="0"
         id="path4301"
         d="m 487.13745,472.52501 c 0,0 47.85713,1.07143 50.35713,-1.42857 2.5,-2.5 0.71429,33.21429 26.07143,33.92857 25.35714,0.71429 -28.92857,55.71429 -28.92857,55.71429 0,0 -79.28571,-41.42857 -61.07142,-52.85714 18.21429,-11.42858 13.57143,-35.35715 13.57143,-35.35715 z"
         style="fill:#e5e5e5;fill-opacity:1;fill-rule:evenodd;stroke:#000000;stroke-width:1;stroke-linecap:butt;stroke-linejoin:miter;stroke-miterlimit:4;stroke-dasharray:none;stroke-opacity:1" />
      <path
         inkscape:connector-curvature="0"
         id="path4303"
         d="m 491.42316,473.95358 c 0,0 -3.57143,-3.57142 -10,0 -6.42857,3.57143 -43.57143,42.5 -38.57143,51.78572 5,9.28571 91.78571,47.14286 98.21428,42.85714 6.42857,-4.28571 47.85714,-53.21428 46.78572,-60.71428 -1.07143,-7.5 -37.14286,-1.07143 -37.14286,-1.07143 0,0 1.78571,33.57143 -17.5,31.78571 -19.28572,-1.78571 -47.14285,-52.14286 -43.92856,-55.35714 3.21428,-3.21429 2.14285,-9.28572 2.14285,-9.28572 z"
         style="fill:#e5e5e5;fill-opacity:1;fill-rule:evenodd;stroke:none;stroke-width:1px;stroke-linecap:butt;stroke-linejoin:miter;stroke-opacity:1" />
    </g>
  </g>
  <g
     inkscape:groupmode="layer"
     id="Roach"
     inkscape:label="Roach"
     style="display:inline">
    <g
       id="g4222"
       transform="matrix(0.19792639,0,0,0.19792639,170.23744,185.41242)">
      <g
         id="g4233"
         transform="translate(30.622068,153.11034)">
        <path
           style="fill:#000000;fill-opacity:1;fill-rule:evenodd;stroke:#000000;stroke-width:1px;stroke-linecap:butt;stroke-linejoin:miter;stroke-opacity:1"
           d="m 470,790.93363 c 0,0 -14.28571,-8.57143 -13.92857,-15.71428 0.35714,-7.14286 -47.5,-14.28572 -52.14286,-12.5 -4.64285,1.78571 -1.78571,-22.5 -1.78571,-22.5 l -9.28572,0.35714 18.92858,-5.35714 c 0,0 -3.57143,18.92857 -0.71429,20 2.85714,1.07142 40.71429,7.5 46.42857,16.07142 5.71429,8.57143 12.5,19.64286 12.5,19.64286 z"
           id="path4214"
           inkscape:connector-curvature="0" />
        <path
           style="fill:#000000;fill-opacity:1;fill-rule:evenodd;stroke:#000000;stroke-width:1px;stroke-linecap:butt;stroke-linejoin:miter;stroke-opacity:1"
           d="m 349.28572,757.3622 10,12.14286 c 0,0 19.28571,12.5 23.92857,12.14286 4.64285,-0.35715 11.07143,5 29.64285,1.78571 18.57143,-3.21428 43.21429,-11.78571 46.42858,-13.21428 3.21428,-1.42858 37.15264,-25.38498 39.64285,-26.78572 11.42858,-6.42857 18.21508,-10.69171 24.28573,-12.67858 8.27599,-2.70865 18.39285,-5.5357 26.96428,-4.99999 8.67274,0.54205 12.4421,0.005 12.67857,4.10714 0,0 -1.07144,-7.85714 -27.5,-3.21428 -31.98661,5.61927 -61.78572,38.57143 -94.64286,47.5 -32.85715,8.92857 -55.35715,4.64285 -55.35715,4.64285 0,0 -17.85714,-5.35714 -19.28571,-10.35714 -1.42857,-5 -12.85714,-10.71428 -12.85714,-10.71428 l -2.14286,-3.21429 z"
           id="path4220"
           inkscape:connector-curvature="0"
           sodipodi:nodetypes="ccsssssscsscsccc" />
        <path
           style="fill:#000000;fill-opacity:1;fill-rule:evenodd;stroke:#000000;stroke-width:1px;stroke-linecap:butt;stroke-linejoin:miter;stroke-opacity:1"
           d="m 379.64286,748.43363 5,14.28572 -14.28572,20.35714 c 0,0 -3.21428,16.78571 -0.71428,20 2.5,3.21429 3.21428,6.07143 3.21428,6.07143 l 0.35715,-24.64286 c 0,0 16.42857,-21.07143 19.64285,-20.35714 3.21429,0.71428 -8.21428,-16.42857 -7.5,-21.07143 0.71429,-4.64286 -3.92857,-3.21429 -5.71428,5.35714 z"
           id="path4212"
           inkscape:connector-curvature="0" />
        <path
           style="fill:#000000;fill-opacity:1;fill-rule:evenodd;stroke:#000000;stroke-width:1px;stroke-linecap:butt;stroke-linejoin:miter;stroke-opacity:1"
           d="m 362.5,691.29077 c 0,0 -16.07143,-13.92857 -18.92857,-15.71428 -2.85714,-1.78572 17.14286,-22.14286 16.78571,-24.28572 -0.35714,-2.14285 -4.28571,-2.85714 -1.78571,-8.57142 2.5,-5.71429 7.14286,-6.78572 4.28571,-15 -2.85714,-8.21429 -3.57142,-9.28572 -3.57142,-9.28572 0,0 7.85714,6.07143 8.21428,8.92857 0.35714,2.85715 -1.42857,4.28572 -1.42857,4.28572 0,0 -3.92857,10.71428 -4.64286,13.57143 -0.71428,2.85714 3.57143,5 1.78572,8.21428 -1.78572,3.21429 -11.78572,17.14286 -8.92857,18.57143 2.85714,1.42857 17.5,13.92857 15.35714,16.07143 C 367.5,690.21935 362.5,691.29077 362.5,691.29077 Z"
           id="path4208"
           inkscape:connector-curvature="0" />
        <path
           style="fill:#000000;fill-opacity:1;fill-rule:evenodd;stroke:#000000;stroke-width:1px;stroke-linecap:butt;stroke-linejoin:miter;stroke-opacity:1"
           d="m 351.01488,706.85455 c 0,0 -10.65774,-9.1352 -11.01488,-10.56378 -0.35714,-1.42857 -18.21428,17.5 -22.5,18.92858 -4.28571,1.42857 -21.42857,-5.71429 -28.21428,2.14285 -6.78572,7.85715 2.14285,-7.85714 8.92857,-7.14285 6.78571,0.71428 18.92857,2.14285 18.92857,2.14285 0,0 21.78571,-23.21428 20.35714,-25.71428 -1.42857,-2.5 15.35714,13.92857 16.42857,12.5 1.07143,-1.42857 -2.91369,7.70663 -2.91369,7.70663 z"
           id="path4206"
           inkscape:connector-curvature="0"
           sodipodi:nodetypes="csssscssc" />
        <path
           style="fill:#000000;fill-opacity:1;fill-rule:evenodd;stroke:#000000;stroke-width:1px;stroke-linecap:butt;stroke-linejoin:miter;stroke-opacity:1"
           d="m 426.42857,728.07649 c 0,0 10.35715,23.92857 11.78572,23.92857 1.42857,0 6.42857,-0.71429 8.21428,-2.5 1.78572,-1.78571 40.35715,-34.28571 42.14286,-36.78571 1.78572,-2.5 10,-1.07143 12.5,-1.78572 2.5,-0.71428 45.71429,-15.35714 47.5,-15 1.78572,0.35714 -46.07143,11.07143 -48.21428,11.78572 -2.14286,0.71428 -12.14286,-0.35715 -12.85715,1.07142 -0.71428,1.42858 -21.93578,22.31487 -43.57143,33.57143 0,0 -1.07143,-10.35714 -6.78571,-18.57143 -3.93896,-5.66225 -10.71429,4.28572 -10.71429,4.28572 z"
           id="path4216"
           inkscape:connector-curvature="0"
           sodipodi:nodetypes="cssssssscsc" />
        <path
           style="fill:#000000;fill-opacity:1;fill-rule:evenodd;stroke:#000000;stroke-width:1px;stroke-linecap:butt;stroke-linejoin:miter;stroke-opacity:1"
           d="m 378.49618,681.55395 0.35714,-13.21429 c 0,0 -6.07143,-7.85714 -4.64286,-9.64285 1.42858,-1.78572 20.35715,-6.07143 21.42858,-7.5 1.07142,-1.42857 12.14285,-8.92857 13.92857,-8.21429 1.78571,0.71429 9.64285,-3.57143 10.35714,-6.42857 0.71429,-2.85714 14.28571,-26.42857 15.71429,-26.42857 1.42857,0 -7.5,13.92857 -6.42858,18.57143 1.07143,4.64285 -9.28571,15 -15,16.78571 -5.71428,1.78572 -16.42857,12.5 -22.5,12.5 -6.07142,0 -8.57142,2.85714 -8.57142,2.85714 0,0 6.78571,12.85715 3.57142,16.42858 -3.21428,3.57142 -8.21428,4.28571 -8.21428,4.28571 z"
           id="path4210"
           inkscape:connector-curvature="0" />
        <path
           style="fill:url(#linearGradient4204);fill-opacity:1;fill-rule:evenodd;stroke:#000000;stroke-width:1px;stroke-linecap:butt;stroke-linejoin:miter;stroke-opacity:1"
           d="m 346.42857,704.14792 c 0,0 -25.35714,18.57143 -21.07143,42.14285 4.28572,23.57143 53.92858,2.85715 53.92858,2.85715 0,0 3.21428,-4.64286 2.14285,-6.42857 -1.07143,-1.78572 21.42857,4.64285 67.85715,-26.42858 46.42857,-31.07142 51.78571,-52.5 51.78571,-52.5 0,0 -7.5,-2.85714 -8.92857,-6.42857 -1.42857,-3.57143 -50.35714,-2.5 -54.28572,-1.07143 -3.92857,1.42858 -38.21428,9.64286 -52.14285,21.07143 -13.92857,11.42857 -31.44197,17.21163 -35.71429,27.50001 0,0 0,0 -3.57143,-0.71429 z"
           id="path4180"
           inkscape:connector-curvature="0"
           sodipodi:nodetypes="cscsscssssc" />
        <path
           style="fill:#000000;fill-opacity:1;fill-rule:evenodd;stroke:#000000;stroke-width:1px;stroke-linecap:butt;stroke-linejoin:miter;stroke-opacity:1"
           d="m 325.35714,740.21935 c 0,0 -20.35714,-22.14286 -20.71428,-26.42858 -0.35714,-4.28571 -2.14286,-25 0.35714,-27.5 2.5,-2.5 13.92857,-16.42857 15.71429,-16.78571 1.78571,-0.35714 13.57143,-8.92857 17.14285,-10.71429 3.57143,-1.78571 67.69856,-29.45815 71.96429,-43.39285 2.67857,-8.75 2.67857,-8.75 2.67857,-8.75 0,0 0.89286,22.32143 -56.96429,45.53571 -57.85714,23.21429 -49.10714,55.89286 -49.10714,55.89286 0,0 13.57143,18.57143 14.28572,20 0.71428,1.42857 4.64285,12.14286 4.64285,12.14286 z"
           id="path4218"
           inkscape:connector-curvature="0"
           sodipodi:nodetypes="cssssscscsc" />
      </g>
    </g>
  </g>
  <g
     inkscape:groupmode="layer"
     id="Dog"
     inkscape:label="Pupper"
     style="display:inline">
    <g
       id="g4778"
       transform="translate(186.07143,-425.35714)">
      <path
         sodipodi:nodetypes="csssssscsscsccsssssssssscscssssssssssssscssssssssssssscsssssscssssssssssc"
         inkscape:connector-curvature="0"
         id="path4316"
         d="m 411.13209,718.50679 c 0,0 12.87944,-2.02031 24.4962,-1.01016 11.61675,1.01016 32.57742,3.53554 34.09264,6.06092 1.51523,2.52538 7.07107,9.09137 9.34392,9.84899 2.27284,0.75761 24.24366,5.80837 30.55711,5.3033 6.31345,-0.50508 13.13198,1.26269 16.16244,-0.75762 3.03046,-2.0203 7.07107,-2.52538 6.81853,-3.53553 -0.25254,-1.01015 -2.52538,-7.07107 -2.52538,-7.07107 0,0 -4.54569,-8.58629 -6.81853,-9.09137 -2.27284,-0.50508 -8.08122,0 -8.08122,-1.26269 0,-1.26269 -9.09137,-2.77792 -9.09137,-2.77792 0,0 -4.29315,-1.76777 -6.06092,-2.52538 -1.76777,-0.75762 -9.59645,-4.04061 -9.59645,-4.04061 l -5.05076,-5.3033 c 0,0 1.26269,-11.11168 -2.27284,-17.1726 -3.53554,-6.06091 -7.82869,-22.22335 -15.40483,-30.55711 -7.57614,-8.33376 -10.6066,-13.38452 -10.85914,-15.9099 -0.25254,-2.52539 -3.283,-17.42514 -5.05076,-19.69798 -1.76777,-2.27284 3.28299,-10.35406 5.3033,-10.35406 2.0203,0 -6.06092,-11.86929 -6.06092,-14.14214 0,-2.27284 -6.56599,-14.39467 -5.3033,-18.43528 1.26269,-4.04061 1.76777,-25.75889 -0.50507,-27.7792 -2.27285,-2.0203 0.50507,1.26269 1.76776,0.25254 1.26269,-1.01015 8.08122,1.01015 11.36422,-2.0203 3.28299,-3.03046 17.93021,-28.28428 18.18274,-29.04189 0.25254,-0.75761 -2.52538,-9.59645 -4.54568,-10.35406 -2.02031,-0.75762 -12.37437,-8.33376 -12.37437,-8.33376 0,0 -12.12183,-11.36422 -12.62691,-13.38452 -0.50507,-2.02031 -3.28299,-8.08122 -6.56599,-8.83884 -3.28299,-0.75761 -10.6066,-1.51523 -10.85914,0 -0.25254,1.51523 -7.3236,-3.78807 -8.33376,-3.78807 -1.01015,0 -11.86929,-5.55584 -19.1929,-5.80838 -7.3236,-0.25254 -24.24366,2.77792 -27.77919,4.29315 -2.46746,1.05749 -17.9516,7.76944 -26.01143,17.17259 -1.51522,1.76777 -9.59645,2.52539 -11.11168,7.57615 -2.46406,8.2135 -7.57614,16.92005 -14.39467,22.72843 -6.81853,5.80838 -1.76777,19.1929 0,20.96067 1.76777,1.76776 15.45776,18.7448 15.9099,19.95051 0.75761,2.0203 8.33376,1.26269 8.5863,-0.25254 0.25254,-1.51523 -1.76777,19.44544 -3.283,19.69798 -1.51523,0.25253 -3.28299,8.83883 -3.03045,9.09137 0.25253,0.25254 -5.05077,1.01015 -7.07107,2.77792 -2.02031,1.76777 -11.61676,-0.25254 -12.12183,0.75761 -0.50508,1.01016 -3.03046,4.54569 -4.79823,5.55584 -1.76776,1.01015 -8.58629,-1.51523 -11.86929,1.01015 -3.283,2.52539 -20.70813,10.60661 -22.47589,13.13199 -1.76777,2.52538 -16.16245,18.68782 -15.40483,20.20305 0.75761,1.51523 -13.8896,11.11168 -12.87945,15.9099 1.01016,4.79823 2.02031,20.96067 10.60661,24.74874 8.58629,3.78807 12.6269,11.36421 12.12183,12.87944 -0.50508,1.51523 -6.81853,-5.55584 -8.33376,-5.55584 -1.51523,0 -4.29315,-4.29314 -8.83884,-4.04061 -4.54568,0.25254 -18.43528,3.53554 -23.99112,8.08122 -5.55584,4.54569 -13.8896,16.66752 -16.92006,16.92006 -3.03045,0.25254 62.62946,0.25254 62.62946,0.25254 0,0 11.8693,-0.25254 15.40483,1.76776 3.53553,2.02031 13.63706,11.61676 19.69797,10.35407 6.06092,-1.26269 7.70243,-1.38897 8.96512,-0.12628 1.26269,1.26269 -1.13644,5.68211 6.43971,8.46003 7.57614,2.77792 39.64849,11.61676 42.42641,13.8896 2.36168,1.93228 18.18274,7.82869 18.94036,10.85914 0.75761,3.03046 16.66751,3.53554 16.66751,3.53554 0,0 3.03046,4.54568 6.81853,4.54568 3.78808,0 9.34392,2.77792 13.13199,2.27285 3.78807,-0.50508 12.6269,3.28299 13.63706,0.75761 1.01015,-2.52538 7.57614,3.03046 8.83883,0.50508 1.26269,-2.52538 3.53554,-1.51523 4.29315,-3.03046 0.75761,-1.51523 3.78807,-13.13198 0,-16.41498 -3.78807,-3.28299 1.01015,-3.78807 -0.50508,-4.79822 -1.51523,-1.01015 -9.84898,-5.05077 -11.61675,-4.54569 -1.76777,0.50508 -15.40483,-2.27284 -19.95051,-1.51523 -4.54569,0.75762 -3.283,-3.78807 -6.31346,-4.79822 -3.03045,-1.01015 -7.3236,-4.04061 -7.3236,-4.04061 z"
         style="opacity:1;fill:url(#linearGradient4358);fill-opacity:1;fill-rule:evenodd;stroke:#000000;stroke-width:1px;stroke-linecap:butt;stroke-linejoin:miter;stroke-opacity:1" />
      <path
         sodipodi:nodetypes="csc"
         inkscape:connector-curvature="0"
         id="path4318"
         d="m 341.42105,635.35675 c 0,0 -11.7394,56.62461 -15.0155,60.92668 -2.05099,2.6933 -1.34808,13.32229 0.12626,20.20305"
         style="fill:none;fill-rule:evenodd;stroke:#000000;stroke-width:1px;stroke-linecap:butt;stroke-linejoin:miter;stroke-opacity:1" />
      <path
         inkscape:connector-curvature="0"
         id="path4320"
         d="m 393.92857,682.3622 c 0,0 -23.92857,10 -23.57143,12.5 0.35715,2.5 -8.92857,-3.21428 -15.35714,-1.42857"
         style="fill:none;fill-rule:evenodd;stroke:#000000;stroke-width:1px;stroke-linecap:butt;stroke-linejoin:miter;stroke-opacity:1" />
      <path
         inkscape:connector-curvature="0"
         id="path4322"
         d="m 411.07143,718.6122 c 0,0 -23.75,-7.5 -25.53571,-9.46428 -1.78572,-1.96429 -15.71429,-13.92857 -15.71429,-13.92857"
         style="fill:none;fill-rule:evenodd;stroke:#000000;stroke-width:1px;stroke-linecap:butt;stroke-linejoin:miter;stroke-opacity:1" />
      <path
         sodipodi:nodetypes="csc"
         inkscape:connector-curvature="0"
         id="path4324"
         d="m 440,677.00506 c 0,0 20,10.71428 23.21429,7.67856 3.21428,-3.03571 12.5,-4.46427 12.85714,-3.57142"
         style="fill:none;fill-rule:evenodd;stroke:#000000;stroke-width:1px;stroke-linecap:butt;stroke-linejoin:miter;stroke-opacity:1" />
      <path
         sodipodi:nodetypes="csc"
         inkscape:connector-curvature="0"
         id="path4326"
         d="m 462.5,684.8622 c 0,0 -6.65272,12.68763 -6.42857,20.71429 0.17491,6.26355 10.17857,16.96429 13.39286,17.5"
         style="fill:none;fill-rule:evenodd;stroke:#000000;stroke-width:1px;stroke-linecap:butt;stroke-linejoin:miter;stroke-opacity:1" />
      <path
         inkscape:connector-curvature="0"
         id="path4328"
         d="m 281.07143,700.75506 c 0,0 -4.10714,-4.10714 -3.39286,-5.35714 0.71429,-1.25 -0.71428,-7.5 1.78572,-9.28572 2.5,-1.78571 2.85714,-3.92857 5,-2.67857 2.14285,1.25 5.35714,0.35714 6.42857,3.39286 1.07143,3.03571 4.46428,8.21428 4.28571,10.35714 -0.17857,2.14286 0.17857,4.82143 0.17857,4.82143 0,0 -12.14285,-1.78571 -14.28571,-1.25 z"
         style="fill:none;fill-rule:evenodd;stroke:#000000;stroke-width:1px;stroke-linecap:butt;stroke-linejoin:miter;stroke-opacity:1" />
      <path
         inkscape:connector-curvature="0"
         id="path4330"
         d="m 367.14286,541.46935 c 0,0 6.96428,8.03571 7.67857,6.78571 0.71429,-1.25 4.46429,-1.78571 5.71429,-5.35714 1.25,-3.57143 7.5,-6.42857 8.39285,-5.35715 0.89286,1.07143 10.53572,3.39286 13.57143,6.96429 3.03572,3.57143 12.85714,-3.21429 13.39286,-4.64286 0.53571,-1.42857 6.07143,-4.10714 6.25,-1.07143 0.17857,3.03572 -5.17857,19.10715 -8.57143,20.53572 -3.39286,1.42857 -8.21429,4.46428 -11.78571,9.28571 -3.57143,4.82143 -21.07143,2.67857 -20.53572,0.53572 0.53572,-2.14286 -2.85714,-8.57143 -4.46428,-8.03572 -1.60715,0.53572 -5.17858,-9.46428 -5.17858,-9.46428 z"
         style="opacity:1;fill:#000000;fill-opacity:1;fill-rule:evenodd;stroke:#000000;stroke-width:1px;stroke-linecap:butt;stroke-linejoin:miter;stroke-opacity:1" />
      <path
         inkscape:connector-curvature="0"
         id="path4332"
         d="m 388.57143,536.64792 -0.53571,-5 c 0,0 -7.67858,-2.5 -8.39286,-3.39286 -0.71429,-0.89286 -5.89286,-4.10714 -5.89286,-6.42857 0,-2.32143 1.42857,-7.5 2.32143,-7.5 0.89286,0 4.28571,-5.17857 6.96429,-4.46429 2.67857,0.71429 9.46428,-1.25 10.71428,0.17857 1.25,1.42858 5.17857,2.85715 5.53572,4.82143 0.35714,1.96429 2.5,1.96429 1.96428,4.28572 -0.53571,2.32143 -4.82143,9.28571 -8.03571,10.53571 -3.21429,1.25 -5.17857,1.96429 -5.17857,1.96429 z"
         style="fill:url(#radialGradient4413);fill-opacity:1;fill-rule:evenodd;stroke:#000000;stroke-width:1px;stroke-linecap:butt;stroke-linejoin:miter;stroke-opacity:1" />
      <path
         sodipodi:nodetypes="cssscscsc"
         inkscape:connector-curvature="0"
         id="path4334"
         d="m 374.82143,500.57649 c 0,0 -2.5,0.17857 -2.5,-0.53572 0,-0.71428 -1.09686,-2.99443 -2.85714,-4.10714 -0.90184,-0.57007 -4.09663,-1.1906 -5.63135,1.96429 -1.65047,3.39285 -1.51151,4.28571 -1.51151,4.28571 0,0 1.60714,0.53572 2.5,1.42857 0.89286,0.89286 2.99239,1.37627 4.53825,0.68365 1.67214,-0.44008 2.96175,-1.04079 2.96175,-2.11222 0,-1.07143 2.5,-1.60714 2.5,-1.60714 z"
         style="fill:#712f1d;fill-opacity:1;fill-rule:evenodd;stroke:#000000;stroke-width:1px;stroke-linecap:butt;stroke-linejoin:miter;stroke-opacity:1" />
      <path
         sodipodi:nodetypes="cssssssssc"
         inkscape:connector-curvature="0"
         id="path4336"
         d="m 406.96429,498.07649 c 0,0 0.48934,-1.7823 1.3546,-2.75254 1.11476,-1.25 1.35198,-1.87048 2.83548,-2.26913 1.37627,-0.36983 2.16584,-0.28385 4.41198,0.64032 1.34564,0.55367 2.38271,2.21682 2.98341,2.65691 0.96632,0.70794 1.98596,2.79587 2.87881,2.6173 0.89286,-0.17858 -3.5281,1.11475 -4.33801,1.80738 -0.82551,0.70596 -3.12763,1.10206 -4.42096,0.78825 -1.16412,-0.28247 -2.61835,-0.88652 -3.19262,-1.31128 -1.13642,-0.84055 -1.79841,-2.71293 -2.51269,-2.17721 z"
         style="fill:#712f1d;fill-opacity:1;fill-rule:evenodd;stroke:#000000;stroke-width:1px;stroke-linecap:butt;stroke-linejoin:miter;stroke-opacity:1" />
      <path
         sodipodi:nodetypes="csssssc"
         inkscape:connector-curvature="0"
         id="path4338"
         d="m 346.96429,559.14792 c 0,0 5.17857,-7.14286 3.75,-10.71429 -1.42857,-3.57143 -1.96429,-18.57143 -1.60714,-21.78571 0.23082,-2.07735 0.1215,-25.01109 0.35713,-26.07143 0.35715,-1.60715 2.0616,-7.93816 4.10715,-10.89286 1.60714,-2.32142 4.14577,-5.32499 6.07143,-7.67857 1.60715,-1.96428 4.46428,-5.71429 4.46428,-5.71429"
         style="fill:none;fill-rule:evenodd;stroke:#000000;stroke-width:1px;stroke-linecap:butt;stroke-linejoin:miter;stroke-opacity:1" />
      <path
         inkscape:connector-curvature="0"
         id="path4340"
         d="m 429.10714,477.00506 c 0,0 9.10715,15.35714 9.46429,21.60714 0.35714,6.25 3.75,21.42857 2.85714,23.21429 -0.89285,1.78571 -2.14285,15.71428 -0.35714,19.10714 1.78571,3.39286 1.60714,5.89286 3.57143,6.96429"
         style="fill:none;fill-rule:evenodd;stroke:#000000;stroke-width:1px;stroke-linecap:butt;stroke-linejoin:miter;stroke-opacity:1" />
      <path
         sodipodi:nodetypes="csssssssc"
         inkscape:connector-curvature="0"
         id="path4342"
         d="m 355,545.75506 c 0,0 8.70884,11.38452 13.21428,15.17857 6.78572,5.71428 7.32144,9.82143 9.10715,10.00001 1.78572,0.17857 5.79692,3.33621 10.17857,3.92856 4.28013,0.57863 10.05612,1.43278 13.57143,0 4.21596,-1.71835 6.33421,-4.68009 8.57143,-6.78571 3.03571,-2.85714 10.17857,-11.07143 11.78571,-12.50001 1.60714,-1.42857 6.58497,-5.87066 8.39286,-7.67856 1.96429,-1.96429 5,-3.92858 7.5,-6.78572"
         style="fill:none;fill-rule:evenodd;stroke:#000000;stroke-width:1px;stroke-linecap:butt;stroke-linejoin:miter;stroke-opacity:1" />
      <path
         sodipodi:nodetypes="ccssssssscscssssssssccc"
         inkscape:connector-curvature="0"
         id="path4368"
         d="m 378.04959,545.51816 0.50508,2.77792 c 0,0 -1.6415,2.90419 -1.38896,3.53554 0.25254,0.63134 -2.65165,0.88388 -2.77792,1.89403 -0.12627,1.01016 0.63134,4.41942 2.0203,4.41942 1.38896,0 1.89404,0.50508 2.14658,1.38896 0.25254,0.88388 1.51523,4.29315 2.39911,4.16688 0.88388,-0.12627 2.52538,1.6415 4.04061,1.13642 1.51523,-0.50508 4.79822,-1.89404 5.93465,-1.26269 1.13642,0.63135 4.79822,0.75761 5.55584,0.37881 0.75761,-0.37881 4.29314,-1.76777 4.29314,-3.15673 0,-1.38896 3.283,-4.04061 3.283,-4.04061 0,0 1.89404,-6.18718 1.26269,-6.56599 -0.63135,-0.37881 3.91434,-2.14658 4.04061,-2.90419 0.12627,-0.75761 1.13642,-3.40927 1.76777,-3.283 0.63134,0.12627 -4.79823,1.51523 -6.43973,1.38896 -1.64149,-0.12626 -4.29314,2.14658 -5.17703,3.15673 -0.88388,1.01015 -5.68211,-1.26269 -8.08122,1.38896 -2.39911,2.65165 0.50508,-0.88388 -0.75761,-0.50508 -1.26269,0.37881 -4.54569,-2.65165 -8.46003,-0.75761 -3.91434,1.89404 -4.54569,1.26269 -4.54569,1.26269 l 1.01016,-1.89404 z"
         style="fill:#cb7092;fill-opacity:1;fill-rule:evenodd;stroke:#000000;stroke-width:1px;stroke-linecap:butt;stroke-linejoin:miter;stroke-opacity:1" />
      <path
         inkscape:connector-curvature="0"
         id="path4370"
         d="m 388.02485,531.37603 -0.75762,-14.39468"
         style="fill:none;fill-rule:evenodd;stroke:#000000;stroke-width:1px;stroke-linecap:butt;stroke-linejoin:miter;stroke-opacity:1" />
      <ellipse
         transform="scale(1,-1)"
         ry="2.2097087"
         rx="2.0834396"
         cy="-520.7063"
         cx="380.38559"
         id="path4372"
         style="opacity:1;fill:#000000;fill-opacity:1;fill-rule:evenodd;stroke:#000000;stroke-width:1;stroke-miterlimit:4;stroke-dasharray:none;stroke-opacity:1" />
      <circle
         r="2.1465743"
         cy="520.13806"
         cx="393.32816"
         id="path4405"
         style="opacity:1;fill:#000000;fill-opacity:1;fill-rule:evenodd;stroke:#000000;stroke-width:1;stroke-miterlimit:4;stroke-dasharray:none;stroke-opacity:1" />
      <ellipse
         ry="1.4520943"
         rx="1.5783633"
         cy="500.50323"
         cx="367.88492"
         id="path4417"
         style="opacity:1;fill:#000000;fill-opacity:1;fill-rule:evenodd;stroke:#ffffff;stroke-width:1;stroke-miterlimit:4;stroke-dasharray:1, 8;stroke-dashoffset:0;stroke-opacity:1" />
      <ellipse
         ry="1.5783633"
         rx="1.4520943"
         cy="497.59906"
         cx="412.96298"
         id="path4419"
         style="opacity:1;fill:#000000;fill-opacity:1;fill-rule:evenodd;stroke:#ffffff;stroke-width:1;stroke-linejoin:miter;stroke-miterlimit:4;stroke-dasharray:1, 12;stroke-dashoffset:0;stroke-opacity:1" />
      <path
         inkscape:connector-curvature="0"
         id="path4727"
         d="m 430,752.89792 c 0,0 3.21429,5.71428 2.85714,7.14285 -0.35714,1.42858 1.25,-6.25 -0.35714,-6.78571 -1.60714,-0.53571 -2.5,-0.35714 -2.5,-0.35714 z"
         style="fill:none;fill-rule:evenodd;stroke:#000000;stroke-width:1px;stroke-linecap:butt;stroke-linejoin:miter;stroke-opacity:1" />
      <path
         inkscape:connector-curvature="0"
         id="path4729"
         d="m 447.5,753.6122 c 0,0 3.21429,3.92857 2.5,5.17857 -0.71428,1.25 2.14286,-3.75 0.89286,-4.10714 -1.25,-0.35714 -2.67857,-1.07143 -2.67857,-1.07143 z"
         style="fill:none;fill-rule:evenodd;stroke:#000000;stroke-width:1px;stroke-linecap:butt;stroke-linejoin:miter;stroke-opacity:1" />
      <path
         inkscape:connector-curvature="0"
         id="path4731"
         d="m 454.28572,750.04077 c 0,0 4.28571,4.28572 3.75,5.17858 -0.53572,0.89285 1.60714,-5.17858 0.35714,-5.35715 -1.25,-0.17857 -4.10714,0.17857 -4.10714,0.17857 z"
         style="fill:none;fill-rule:evenodd;stroke:#000000;stroke-width:1px;stroke-linecap:butt;stroke-linejoin:miter;stroke-opacity:1" />
    </g>
  </g>
  <g
     inkscape:groupmode="layer"
     id="Bleach"
     inkscape:label="Bleach">
    <g
       style="display:inline"
       id="g6429"
       transform="matrix(0.66491671,0,0,0.66491671,130.42463,65.096722)">
      <path
         sodipodi:nodetypes="cccsscccc"
         inkscape:connector-curvature="0"
         id="path4905"
         d="m 235.71429,70.576487 -0.35715,17.142857 3.21429,0.714286 c 0,0 0,2.5 1.78571,2.5 1.78572,0 34.91631,8.6e-4 39.28572,0 2.34874,-4.62e-4 1.78571,-2.142857 1.78571,-2.142857 l 3.21429,0 -0.35714,-18.928572 c 0,0 -38.92858,-1.071428 -48.57143,0.714286 z"
         style="fill:#0000a4;fill-opacity:1;fill-rule:evenodd;stroke:#000000;stroke-width:1px;stroke-linecap:butt;stroke-linejoin:miter;stroke-opacity:1" />
      <path
         sodipodi:nodetypes="cssccsssssccc"
         inkscape:connector-curvature="0"
         id="path4907"
         d="m 239.91123,91.202056 c 0,0 1.01015,3.535533 -1.01015,4.545686 -2.02031,1.010153 -20.20305,32.324878 -22.22336,62.124378 -2.0203,29.7995 -11.11168,65.65992 -6.56599,100.51019 1.51522,10.10152 51.51778,13.13198 51.51778,13.13198 0,0 74.75129,2.0203 88.38835,1.51522 13.63706,-0.50507 60.37689,-6.53655 61.11422,-14.64721 0.50508,-5.55583 -1.51522,-6.06091 1.01016,-8.58629 2.52538,-2.52539 -1.51523,-51.01271 -15.65737,-72.22591 -14.14213,-21.21321 -39.39594,-48.9924 -62.62945,-61.61931 -23.23351,-12.6269 -55.5584,-21.2132 -55.5584,-21.2132 l 1e-5,-3.030458 z"
         style="fill:url(#linearGradient4927);fill-opacity:1;fill-rule:evenodd;stroke:#000000;stroke-width:1px;stroke-linecap:butt;stroke-linejoin:miter;stroke-opacity:1" />
      <path
         inkscape:connector-curvature="0"
         id="path4909"
         d="m 282.33764,124.03201 c 0,0 -16.16244,17.1726 14.14213,39.90103 30.30458,22.72843 62.12438,30.80965 67.17515,23.73858 5.05076,-7.07106 1.01015,-31.31473 -28.78935,-46.46701 -29.7995,-15.15229 -42.93148,-22.72844 -52.52793,-17.1726 z"
         style="fill:#bfcde8;fill-opacity:1;fill-rule:evenodd;stroke:#000000;stroke-width:1px;stroke-linecap:butt;stroke-linejoin:miter;stroke-opacity:1" />
      <path
         sodipodi:nodetypes="csssssssc"
         inkscape:connector-curvature="0"
         id="path4977"
         d="m 210.14236,383.01359 c 0,0 -4.57632,21.33576 6.03029,31.94236 10.6066,10.6066 19.85098,15.40361 23.11621,16.75943 10.32125,4.28572 31.94639,7.87963 39.90103,8.58629 7.75471,0.68891 40.43576,0.87794 45.06908,0.41317 6.50997,-0.65302 26.76904,0 37.88072,-4.04061 11.11168,-4.04061 28.66864,-10.49272 34.85026,-14.14214 6.68855,-3.9487 11.11168,-9.59645 12.12183,-13.63706 1.01015,-4.04061 3.35697,-12.24438 1.84174,-24.36621"
         style="fill:#ffffff;fill-opacity:1;fill-rule:evenodd;stroke:#000000;stroke-width:1px;stroke-linecap:butt;stroke-linejoin:miter;stroke-opacity:1" />
      <path
         inkscape:connector-curvature="0"
         id="path4967"
         d="m 209.10158,258.88738 1.01015,126.26907 c 0,0 5.55584,11.11167 23.23351,15.65736 17.67767,4.54569 70.2056,10.6066 79.29697,9.59645 9.09138,-1.01015 44.95179,-2.0203 59.09393,-6.06091 14.14213,-4.04061 33.84011,-8.5863 38.38579,-16.66752 4.54569,-8.08122 1.51523,-130.81476 1.51523,-130.81476 0,0 -3.03045,11.61676 -54.54823,15.15229 -51.51778,3.53554 -108.5914,-2.0203 -108.5914,-2.0203 0,0 -36.87057,-4.54569 -39.39595,-11.11168 z"
         style="fill:#0000a2;fill-opacity:1;fill-rule:evenodd;stroke:#000000;stroke-width:1px;stroke-linecap:butt;stroke-linejoin:miter;stroke-opacity:1" />
    </g>
  </g>
  <g
     inkscape:groupmode="layer"
     id="Febreze"
     inkscape:label="Febreze"
     style="display:inline">
    <g
       id="g4878"
       transform="matrix(0.71628179,0,0,0.71628179,132.45996,-137.9456)">
      <path
         sodipodi:nodetypes="cccssccscc"
         inkscape:connector-curvature="0"
         id="path4839"
         d="m 117.14286,420.93363 0.35714,17.85714 16.78571,0.35715 c 0,0 6.78572,9.64285 4.28572,12.85714 -2.5,3.21429 -14.8899,22.98977 -15.35714,36.42857 -0.24381,7.0125 8.71174,-27.64136 32.14285,-37.14286 13.21429,-7.85714 28.42194,-12.15761 67.5,-12.14285 3.21429,-8.21429 -10.98977,-13.86819 -19.64286,-16.78572 -7.80529,-2.63168 -45.98274,-6.65365 -69.28571,-1.07143 -2.00721,-0.58256 -16.78571,-0.35714 -16.78571,-0.35714 z"
         style="fill:#7343a4;fill-opacity:1;fill-rule:evenodd;stroke:#4c2889;stroke-width:1px;stroke-linecap:butt;stroke-linejoin:miter;stroke-opacity:1" />
      <path
         sodipodi:nodetypes="csscsssssssscssscscsscc"
         inkscape:connector-curvature="0"
         id="path4841"
         d="m 155.71429,452.00506 c 0,0 7.85714,8.21429 7.85714,10 0,1.78571 -1.42857,7.14286 -3.21429,6.78571 -1.78571,-0.35714 0.35715,18.57143 0.35715,18.57143 0,0 -1.07143,14.28572 -2.5,15.71429 -1.42858,1.42857 -13.57143,34.28571 -19.64286,42.5 -6.15619,8.32897 -19.64286,38.57143 -20,44.64286 -0.35714,6.07142 1.42857,38.21428 4.28571,40 2.85715,1.78571 3.92857,8.57142 4.28572,11.42857 0.35714,2.85714 5.35714,11.07143 5.35714,12.5 0,1.42857 41.92016,5.34188 48.92857,5 14.64286,-0.71429 40.71429,-1.07143 43.92857,-5.35715 3.21429,-4.28571 6.78572,-14.64285 6.78572,-14.64285 0,0 1.42857,-6.78572 0.35714,-8.57143 -1.07143,-1.78572 4.64286,-5.35714 5,-9.28571 0.18291,-2.01201 3.92857,-27.14286 -3.57143,-46.07143 -7.5,-18.92858 -25.35714,-49.64286 -25.35714,-49.64286 0,0 -14.64286,-25.71429 -14.28572,-37.5 0.35715,-11.78572 0.35715,-25.71429 0.35715,-25.71429 0,0 1.78571,-8.21428 4.28571,-8.92857 2.5,-0.71428 16.78572,-8.21428 18.92857,-7.5 2.14286,0.71429 5,-6.78571 5,-6.78571 0,0 -53.57143,-1.42857 -67.14285,12.85714 z"
         style="fill:url(#radialGradient4855);fill-opacity:1;fill-rule:evenodd;stroke:#5e6d9d;stroke-width:1px;stroke-linecap:butt;stroke-linejoin:miter;stroke-opacity:1" />
      <path
         inkscape:connector-curvature="0"
         id="path4843"
         d="m 160.35714,485.93363 c 0,0 17.14286,7.14286 33.21429,1.42857"
         style="fill:none;fill-rule:evenodd;stroke:#5e6d9d;stroke-width:1px;stroke-linecap:butt;stroke-linejoin:miter;stroke-opacity:1" />
      <path
         inkscape:connector-curvature="0"
         id="path4845"
         d="m 196.07143,497.71935 c 0,0 -33.57143,2.14285 -37.14286,4.64285"
         style="fill:none;fill-rule:evenodd;stroke:#7c8db9;stroke-width:1px;stroke-linecap:butt;stroke-linejoin:miter;stroke-opacity:1" />
      <path
         sodipodi:nodetypes="zssssssssz"
         inkscape:connector-curvature="0"
         id="path4847"
         d="m 165.71428,537.3622 c -2.99645,1.97505 -23.57142,40.35715 -26.78571,47.85714 -2.90032,6.76738 -5.80012,27.7851 -5.35714,30.00001 1.42857,7.14285 6.25502,14.1383 17.14285,17.14286 6.43159,1.77483 37.31314,1.08477 42.5,0.71428 5,-0.35715 18.10074,-3.36346 22.85715,-10.71429 3.92857,-6.07143 7.62482,-20.50689 3.57143,-30.71428 -3.47989,-8.76319 -23.98014,-49.92385 -27.5,-52.85715 -5.32714,-4.4394 -11.60937,-4.05642 -14.28572,-3.92856 -2.5225,0.1205 -9.1464,0.52495 -12.14286,2.49999 z"
         style="fill:#ffffff;fill-opacity:1;fill-rule:evenodd;stroke:#000000;stroke-width:1px;stroke-linecap:butt;stroke-linejoin:miter;stroke-opacity:1" />
      <path
         inkscape:connector-curvature="0"
         id="path4867"
         d="m 133.57143,421.29077 0.35714,18.21429"
         style="fill:none;fill-rule:evenodd;stroke:#3d0055;stroke-width:1px;stroke-linecap:butt;stroke-linejoin:miter;stroke-opacity:1" />
    </g>
  </g>
  <g
     inkscape:groupmode="layer"
     id="Dust"
     inkscape:label="Dust">
    <path
       style="display:inline;fill:url(#radialGradient6457);fill-opacity:1;fill-rule:evenodd;stroke:#8769c8;stroke-width:1px;stroke-linecap:butt;stroke-linejoin:miter;stroke-opacity:1"
       d="m 509.11688,357.37725 c 0,0 2.02031,-10.10152 9.09138,-10.10152 7.07106,0 11.11167,0 16.16244,-8.08122 5.05076,-8.08122 3.03046,-18.18275 15.15229,-6.06092 12.12183,12.12183 9.09137,9.09137 31.31472,13.13198 22.22336,4.04061 20.20306,-2.0203 28.28428,7.07107 8.08122,9.09137 13.13198,-7.07107 20.20305,7.07107 7.07106,14.14214 -20.20305,4.04061 -34.34519,4.04061 -14.14214,0 -26.26397,-5.05076 -38.3858,3.03046 -12.12183,8.08122 -12.12183,11.11168 -27.27412,4.04061 -15.15228,-7.07107 -52.52793,-10.10153 -20.20305,-14.14214 z"
       id="path6443"
       inkscape:connector-curvature="0" />
  </g>
  <g
     inkscape:groupmode="layer"
     id="Rat"
     inkscape:label="Rat">
    <g
       id="g6500"
       transform="matrix(0.98542783,0,0,0.98542783,133.65514,-61.375923)">
      <path
         sodipodi:nodetypes="csccccssscccsscssssscsscsssccsscccsscsccccsssssssscsccscsssssscsccsssssssssscscsscsccsccsscc"
         inkscape:connector-curvature="0"
         id="path6480"
         d="m 287.76786,417.71934 c 0,0 6.07143,-9.73214 7.05357,-10 0.98214,-0.26785 -0.35714,-0.53571 0.0893,-1.25 0.44642,-0.71428 0.80357,-1.42857 1.51785,-1.33928 0.71429,0.0893 1.33929,-1.16072 1.33929,-1.16072 0,0 1.78571,-0.98214 2.23214,-1.25 0.44643,-0.26785 2.94643,-1.875 2.85714,-3.03571 -0.0893,-1.16071 0.62217,-7.16313 0.80358,-7.76785 0.26785,-0.89286 0.53573,-2.14286 0.98214,-2.14286 0.44643,0 4.19643,6.51785 4.01786,6.96428 -0.17858,0.44643 4.19642,0.44643 4.19642,0.44643 l 2.94643,0.0893 c 0,0 0.98215,-1.69643 1.60715,-1.96429 0.625,-0.26786 1.42857,-1.33929 3.125,-1.07143 1.69642,0.26786 2.76785,0.625 2.76785,0.625 0,0 0.35715,-0.44643 1.16072,-0.98214 0.80357,-0.53572 7.14285,-4.01786 8.83928,-4.01786 1.69643,0 6.60715,-0.53571 9.19643,1.69643 2.58929,2.23214 7.05357,7.32143 8.21429,9.10714 1.16071,1.78572 3.39285,4.64286 3.83928,4.82143 0.44643,0.17857 8.21429,-0.80357 8.125,-1.42857 -0.0893,-0.625 0.53572,-1.07143 -1.33928,-2.23214 -1.875,-1.16072 -12.14286,-3.75 -12.41072,-3.75 -0.26785,0 -1.33928,-1.60715 -1.33928,-1.60715 0,0 8.92857,1.25 10.26785,1.96429 1.33929,0.71429 6.7659,2.15587 7.5,2.94643 1.16072,1.25 2.32143,3.30357 -0.0893,5.08928 -2.41072,1.78572 -8.48214,3.66072 -9.375,3.57143 -0.89286,-0.0893 0.71428,3.03571 0.71428,3.03571 0,0 1.33929,6.96429 0.625,8.48215 -0.71428,1.51786 -2.32142,7.14286 -4.55357,8.92857 -2.23214,1.78572 -4.91071,5.89286 -5.89285,6.16072 -0.98215,0.26785 2.41071,0.80357 2.76785,0.71428 0.35715,-0.0893 1.875,-0.625 2.05357,-0.26786 0.17858,0.35715 2.23215,1.69643 2.67858,1.96429 0.44642,0.26786 -0.17858,1.60714 -0.89286,1.33929 -0.71429,-0.26786 -1.60714,-0.35715 -1.60714,-0.35715 0,0 1.51785,1.78572 1.51785,2.14286 0,0.35714 -0.26785,1.69643 -0.71428,1.60714 -0.44643,-0.0893 -2.05357,-0.98214 -2.23215,-1.42857 -0.17857,-0.44643 -1.07142,-1.33928 -1.07142,-1.33928 L 350,443.07649 c 0,0 -0.35714,1.25 -0.98214,1.25 -0.625,0 -0.98214,-0.0893 -1.25,-0.71429 -0.26786,-0.625 -0.35714,-1.69643 -0.98214,-1.69643 -0.625,0 -0.71429,1.07143 -0.71429,1.60715 0,0.53571 -0.26786,1.16071 -0.71429,0.89285 -0.44642,-0.26785 -1.25,-0.35714 -1.42857,-1.25 -0.17857,-0.89285 -0.17857,-2.5 -0.80357,-1.875 -0.625,0.625 -1.25,1.875 -1.25,2.5 0,0.625 -0.625,6.69643 -0.625,6.69643 0,0 0,5.625 0.625,6.16072 0.625,0.53571 3.92857,1.69642 3.83929,2.05357 -0.0893,0.35714 -0.625,0.89285 -1.07143,0.80357 -0.44643,-0.0893 -3.30357,-0.35714 -3.30357,-0.625 0,-0.26786 -0.35715,0.89286 0.0893,1.42857 0.44643,0.53571 0.625,2.14286 0.0893,2.14286 -0.53572,0 -1.07143,0.80357 -1.07143,0.35714 0,-0.44643 -0.26786,-2.32143 -1.16071,-1.96429 -0.89286,0.35715 -1.60715,2.32143 -2.32143,2.14286 -0.71429,-0.17857 -1.16072,-0.625 -0.71429,-1.16071 0.44643,-0.53572 1.78572,-2.67857 1.33929,-2.5 -0.44643,0.17857 -3.39286,2.23214 -4.10715,2.14285 -0.71428,-0.0893 -1.96428,-0.625 -1.33928,-1.07142 0.625,-0.44643 3.66071,-2.23215 3.66071,-2.23215 0,0 0.98215,-4.10714 0.625,-4.19643 -0.35714,-0.0893 0,-3.03571 -0.0893,-3.39285 -0.0893,-0.35715 -5,-10.17857 -5.625,-10.17857 -0.625,0 -10.89286,-3.75 -13.03572,-1.96429 -2.14285,1.78571 -8.125,9.19643 -8.03571,11.51786 0.0893,2.32143 0.80357,3.83928 0.53571,4.19643 -0.26785,0.35714 -0.98214,0.71428 -1.16071,0.17857 -0.17857,-0.53572 -0.89286,1.07143 -0.53572,1.875 0.35715,0.80357 0.39154,3.21428 -0.0893,3.21429 -0.89286,0 -1.25,-2.14287 -1.875,-2.14287 -0.625,0 -0.625,0.17859 -1.07143,0.62501 -0.44643,0.44642 -0.98214,2.05357 -1.78572,2.32142 -0.80357,0.26786 -0.89285,-0.89285 -0.62499,-1.42857 0.26785,-0.53571 0.80357,-1.51785 0.35714,-1.25 -0.44643,0.26786 -2.14285,1.96429 -2.67857,1.78572 -0.53571,-0.17857 -1.07143,-0.26786 -0.44643,-0.71429 0.625,-0.44642 1.69643,-2.58928 1.69643,-2.58928 0,0 -2.41072,0.80357 -1.33929,-0.0893 1.07143,-0.89286 2.41072,-2.32143 2.05357,-2.41071 -0.35714,-0.0893 1.96429,0.17857 1.875,-0.26786 -0.0893,-0.44643 0.71429,-3.92857 0.26786,-4.19643 -0.44643,-0.26786 0.26786,-1.25 0.17858,-2.58928 -1.07145,-5.62501 1.16071,-10.35715 -3.2143,-20.44644 -4.01785,-0.44643 -5.96357,-0.66421 -8.57142,-1.87499 -2.5,-1.16071 -3.57143,-2.14286 -4.46429,-3.57143 -0.89286,-1.42857 -0.98214,-2.85715 -0.98214,-2.85715 z"
         style="fill:url(#linearGradient6492);fill-opacity:1;fill-rule:evenodd;stroke:#000000;stroke-width:0.30000001;stroke-linecap:butt;stroke-linejoin:miter;stroke-miterlimit:4;stroke-dasharray:none;stroke-opacity:1" />
      <path
         inkscape:connector-curvature="0"
         id="path6482"
         d="m 303.30357,410.84434 c 0,0 0.80357,-1.51785 0.98215,-2.05357 0.17857,-0.53571 1.875,-1.51785 2.41071,-1.42857 0.53571,0.0893 2.41071,1.60714 2.5,2.23214 0.0893,0.625 0.35714,2.23215 -0.625,2.5 -0.98214,0.26786 -2.5,0.98215 -3.39286,0 -0.89285,-0.98214 -1.875,-1.25 -1.875,-1.25 z"
         style="fill:#020202;fill-opacity:1;fill-rule:evenodd;stroke:#4c2b15;stroke-width:0.30000001;stroke-linecap:butt;stroke-linejoin:miter;stroke-miterlimit:4;stroke-dasharray:none;stroke-dashoffset:0;stroke-opacity:1" />
      <path
         inkscape:connector-curvature="0"
         id="path6484"
         d="m 290.71429,421.38006 c 0,0 1.875,-0.26786 2.05357,-0.98214 0.17857,-0.71429 0,-3.03572 -0.53572,-2.85715 -0.53571,0.17857 -2.41071,-0.89285 -2.67857,-0.44643 -0.26785,0.44643 -0.71428,0.0893 -1.16071,0.71429 -0.44643,0.625 -0.17857,2.05357 0.0893,2.41071 0.26786,0.35715 0.71429,1.51786 1.07143,1.51786 0.35715,0 1.16072,-0.35714 1.16072,-0.35714 z"
         style="fill:#ff9fb2;fill-opacity:1;fill-rule:evenodd;stroke:#000000;stroke-width:0.2;stroke-linecap:butt;stroke-linejoin:miter;stroke-miterlimit:4;stroke-dasharray:none;stroke-opacity:1" />
      <path
         inkscape:connector-curvature="0"
         id="path6496"
         d="m 296.96429,405.21934 -1.78572,2.32143 c 0,0 -0.53571,-0.625 -0.35714,-0.98214 0.17857,-0.35714 0.89286,-1.33929 0.89286,-1.33929 z"
         style="fill:#020202;fill-opacity:1;fill-rule:evenodd;stroke:#000000;stroke-width:0.2;stroke-linecap:butt;stroke-linejoin:miter;stroke-miterlimit:4;stroke-dasharray:none;stroke-opacity:1" />
      <path
         inkscape:connector-curvature="0"
         id="path6498"
         d="m 354.64286,405.39792 c 0,0 0.98214,4.28571 1.07143,5 0.0893,0.71428 0.26785,-0.44643 0.26785,-0.44643 l 3.30358,-0.71429 4.28571,-1.875 2.23214,-1.25 0.80357,-1.16071 0.17858,-1.33929 -0.53572,-1.16071 -1.25,-1.42857 -4.91071,-1.78572 -2.85715,-1.07143 -9.73214,-1.78571 1.51786,1.78571 1.60714,0.26786 6.875,1.96429 3.48214,1.16071 1.60715,1.16071 0.0893,0.80358 -0.0893,0.71428 -1.33929,0.53572 -3.21428,0.35714 -2.41072,0.35714 z"
         style="fill:#ff9fb2;fill-opacity:1;fill-rule:evenodd;stroke:#000000;stroke-width:0.1;stroke-linecap:butt;stroke-linejoin:round;stroke-miterlimit:4;stroke-dasharray:none;stroke-opacity:1" />
    </g>
  </g>
  <g
     inkscape:groupmode="layer"
     id="Bed"
     inkscape:label="Bed"
     style="display:inline">
    <g
       id="g4477"
       transform="translate(437.39606,5.0507627)">
      <path
         sodipodi:nodetypes="ccccccccc"
         inkscape:connector-curvature="0"
         id="path3473"
         d="m 116.29381,462.05431 0,-56.94735 138.13836,0 0,58.33631 -2.39911,0 0,3.6618 -134.60283,-0.25254 0,-4.79822 z"
         style="fill:url(#radialGradient4337);fill-opacity:1;fill-rule:evenodd;stroke:#9f7c86;stroke-width:1px;stroke-linecap:butt;stroke-linejoin:miter;stroke-opacity:1" />
      <path
         style="fill:url(#radialGradient4427);fill-opacity:1;fill-rule:evenodd;stroke:#d4d7dc;stroke-width:1px;stroke-linecap:butt;stroke-linejoin:miter;stroke-opacity:1"
         d="m 246.67077,470.39863 c 0,0 -1.49969,-20.15126 -0.11611,-24.12008 1.38358,-3.96883 -56.41117,-6.52113 -56.41117,-6.52113 0,0 0.0818,12.60263 -1.67382,25.52081 38.1365,-1.46461 58.2011,5.1204 58.2011,5.1204 z"
         id="path4425"
         inkscape:connector-curvature="0"
         sodipodi:nodetypes="csccc" />
      <path
         sodipodi:nodetypes="ccccc"
         inkscape:connector-curvature="0"
         id="path4349"
         d="m 220.35714,449.14792 c 0,0 21.78572,-2.5 24.28572,1.60714 0.53571,4.10714 -0.89286,16.60714 -0.89286,16.60714 l -27.14286,-0.53571 z"
         style="fill:url(#radialGradient4445);fill-opacity:1;fill-rule:evenodd;stroke:#984a4a;stroke-width:1px;stroke-linecap:butt;stroke-linejoin:miter;stroke-opacity:1" />
      <path
         inkscape:connector-curvature="0"
         id="path3475"
         d="m 122.67857,462.89792 0,-50.89286 124.64286,0 0,51.78571"
         style="fill:none;fill-rule:evenodd;stroke:#9f7c86;stroke-width:1;stroke-linecap:butt;stroke-linejoin:miter;stroke-miterlimit:4;stroke-dasharray:2, 1, 0.5, 1;stroke-dashoffset:0;stroke-opacity:1" />
      <path
         sodipodi:nodetypes="csccc"
         inkscape:connector-curvature="0"
         id="path4339"
         d="m 122.32142,445.21935 c 0,0 3.92858,19.82142 3.03572,23.92856 -0.89285,4.10715 56.78572,-0.35714 56.78572,-0.35714 0,0 -1.60715,-12.5 -1.42857,-25.53571 -37.67858,6.07142 -58.39287,1.96429 -58.39287,1.96429 z"
         style="fill:url(#radialGradient4367);fill-opacity:1;fill-rule:evenodd;stroke:#d4d7dc;stroke-width:1px;stroke-linecap:butt;stroke-linejoin:miter;stroke-opacity:1" />
      <path
         inkscape:connector-curvature="0"
         id="path4341"
         d="m 145.17857,450.57649 c 0,0 5.89286,18.03571 4.64286,22.5 -1.25,4.46428 32.32143,0.89285 32.32143,0.89285 l -3.21429,-25 c 0,0 -16.78571,5.35715 -33.75,1.60715 z"
         style="fill:url(#radialGradient4399);fill-opacity:1;fill-rule:evenodd;stroke:#68003f;stroke-width:1px;stroke-linecap:butt;stroke-linejoin:miter;stroke-opacity:1" />
      <path
         inkscape:connector-curvature="0"
         id="path4345"
         d="m 221.78572,449.68363 0.35714,18.21429 -28.39286,-0.35715 -1.25,-17.5 z"
         style="fill:url(#radialGradient4437);fill-opacity:1;fill-rule:evenodd;stroke:#862e4e;stroke-width:1px;stroke-linecap:butt;stroke-linejoin:miter;stroke-opacity:1" />
      <path
         sodipodi:nodetypes="csccc"
         inkscape:connector-curvature="0"
         id="path4343"
         d="m 199.46429,448.07649 c 0,0 -0.53572,18.57143 0.53571,20.17857 1.07143,1.60714 -23.92857,1.07143 -23.92857,1.07143 0,0 0.17856,-18.92858 -0.53571,-21.07143 7.85715,0.89286 14.46428,1.07143 23.92857,-0.17857 z"
         style="fill:url(#radialGradient4375);fill-opacity:1;fill-rule:evenodd;stroke:#bca18e;stroke-width:1px;stroke-linecap:butt;stroke-linejoin:miter;stroke-opacity:1" />
      <path
         sodipodi:nodetypes="csccsssc"
         inkscape:connector-curvature="0"
         id="path4447"
         d="m 97.857143,490.93363 c 0,0 9.821427,-20 27.142857,-23.75 17.32143,-3.75 110.89286,-2.32143 110.89286,-2.32143 0,0 24.46428,-0.35714 31.42857,19.10714 -19.10714,-15 -40.34644,-11.79344 -53.75,-12.32143 -12.05205,-0.47475 -34.64286,0.35715 -41.78571,0.53572 -9.83782,0.24593 -38.25614,-0.91416 -48.92857,2.14285 -10.53907,3.01881 -21.60715,12.67858 -25.000007,16.60715 z"
         style="fill:#f5ffff;fill-opacity:1;fill-rule:evenodd;stroke:#d6dfff;stroke-width:1px;stroke-linecap:butt;stroke-linejoin:miter;stroke-opacity:1" />
      <path
         sodipodi:nodetypes="cscssscssc"
         inkscape:connector-curvature="0"
         id="path4449"
         d="m 93.035715,500.75506 c 0,0 2.421189,-7.18346 4.821428,-10 5.740697,-6.73636 14.862487,-12.9459 21.785717,-15.17857 12.38763,-4.8534 50.44211,-3.57142 53.21429,-3.57143 3.21428,0 58.03571,-0.71429 62.85714,-0.17857 3.36743,0.37416 21.25022,3.50512 30.89285,11.24999 7.14397,5.73797 12.14286,16.07144 12.5,18.57144 -8.39285,-9.10714 -28.12878,-11.85913 -43.57142,-13.03572 -18.75001,-1.42857 -87.28662,-0.63092 -90.35714,-0.35714 -2.39206,0.21328 -35.53572,-4.10714 -52.142865,12.5 z"
         style="fill:#cdcdcb;fill-opacity:1;fill-rule:evenodd;stroke:#939999;stroke-width:1px;stroke-linecap:butt;stroke-linejoin:miter;stroke-opacity:1" />
      <path
         sodipodi:nodetypes="cscssssscc"
         inkscape:connector-curvature="0"
         id="path4451"
         d="m 88.214286,531.29077 c 0,0 -0.445733,-13.64169 0.357143,-18.39285 0.57772,-3.41876 3.216632,-11.01386 5,-12.5 5,-5 18.136971,-13.47665 43.750001,-13.39287 12.19065,0.0399 36.41216,0.008 51.96429,1e-5 15.06976,-0.007 37.16654,-0.70299 47.5,0.17857 10.54128,0.89929 16.78571,1.96428 27.85714,5.53571 13.16521,4.24684 17.80884,10.46022 18.21429,17.85715 0.63234,11.53642 -0.17857,18.75 -0.35715,20.89286 -4.46429,1.78571 -194.285714,-0.17858 -194.285714,-0.17858 z"
         style="fill:#333332;fill-opacity:1;fill-rule:evenodd;stroke:#000000;stroke-width:1px;stroke-linecap:butt;stroke-linejoin:miter;stroke-opacity:1" />
      <path
         inkscape:connector-curvature="0"
         id="path4465"
         d="m 87.142858,554.8622 0,7.67857 9.821428,0 4.750284,-8.22773 z"
         style="fill:#333332;fill-opacity:1;fill-rule:evenodd;stroke:#000000;stroke-width:1px;stroke-linecap:butt;stroke-linejoin:miter;stroke-opacity:1" />
      <path
         inkscape:connector-curvature="0"
         id="path4467"
         d="m 269.64286,554.50506 4.75349,8.23329 10.24651,0 0,-8.41186 z"
         style="fill:#333332;fill-opacity:1;fill-rule:evenodd;stroke:#000000;stroke-width:1px;stroke-linecap:butt;stroke-linejoin:miter;stroke-opacity:1" />
      <path
         inkscape:connector-curvature="0"
         id="path4453"
         d="m 87.678572,531.46934 -2.5,2.85715 0,20.17857 201.428568,0 0,-21.60714 -3.57142,-2.67858 z"
         style="fill:url(#radialGradient4463);fill-opacity:1;fill-rule:evenodd;stroke:#9f7c86;stroke-width:1px;stroke-linecap:butt;stroke-linejoin:miter;stroke-opacity:1" />
    </g>
  </g>
  <g
     inkscape:groupmode="layer"
     id="Dresser"
     inkscape:label="Dresser"
     style="display:inline">
    <g
       style="display:inline"
       id="g4698"
       transform="matrix(1.7400802,0,0,1.7400802,12.303686,-504.5421)">
      <path
         sodipodi:nodetypes="ccccc"
         inkscape:connector-curvature="0"
         id="path4636"
         d="m 204.28572,593.25507 0,-45.53572 31.70558,10.98379 -0.89286,56.69478 z"
         style="fill:url(#radialGradient4678);fill-opacity:1;fill-rule:evenodd;stroke:#8e788a;stroke-width:1px;stroke-linecap:butt;stroke-linejoin:miter;stroke-opacity:1" />
      <path
         sodipodi:nodetypes="ccccc"
         inkscape:connector-curvature="0"
         id="path4638"
         d="m 236.07143,558.79077 46.96429,0 -38.83642,-10.83179 -40.27073,-0.35714 z"
         style="fill:url(#radialGradient4686);fill-opacity:1;fill-rule:evenodd;stroke:#656894;stroke-width:1px;stroke-linecap:butt;stroke-linejoin:miter;stroke-opacity:1" />
      <path
         sodipodi:nodetypes="ccccc"
         inkscape:connector-curvature="0"
         id="path4640"
         d="m 282.85714,558.79077 -0.89286,55.89286 -46.60713,0.89285 0.35714,-56.78571 z"
         style="fill:#988d99;fill-opacity:1;fill-rule:evenodd;stroke:#595064;stroke-width:1px;stroke-linecap:butt;stroke-linejoin:miter;stroke-opacity:1" />
      <path
         sodipodi:nodetypes="ccccc"
         inkscape:connector-curvature="0"
         id="path4642"
         d="m 205.89286,554.14792 0,15.35714 11.72739,6.61246 0.17857,-17.50532 z"
         style="fill:#c2bcc8;fill-opacity:1;fill-rule:evenodd;stroke:#8e788a;stroke-width:0.60000002;stroke-linecap:butt;stroke-linejoin:miter;stroke-miterlimit:4;stroke-dasharray:none;stroke-opacity:1" />
      <path
         sodipodi:nodetypes="ccccc"
         inkscape:connector-curvature="0"
         id="path4644"
         d="m 220.53572,560.04077 0,17.67858 13.16151,7.46068 0.17858,-20.31783 z"
         style="fill:#c2bcc8;fill-opacity:1;fill-rule:evenodd;stroke:#8e788a;stroke-width:0.60000002;stroke-linecap:butt;stroke-linejoin:miter;stroke-miterlimit:4;stroke-dasharray:none;stroke-opacity:1" />
      <path
         sodipodi:nodetypes="ccccc"
         inkscape:connector-curvature="0"
         id="path4646"
         d="m 205.89286,576.64792 0,16.07143 11.07143,7.5 0.35714,-16.96429 z"
         style="fill:#c2bcc8;fill-opacity:1;fill-rule:evenodd;stroke:#8e788a;stroke-width:0.60000002;stroke-linecap:butt;stroke-linejoin:miter;stroke-miterlimit:4;stroke-dasharray:none;stroke-opacity:1" />
      <path
         sodipodi:nodetypes="ccccc"
         inkscape:connector-curvature="0"
         id="path4648"
         d="m 220.35715,584.50506 -0.53572,17.85715 13.92857,9.99999 0,-19.82143 z"
         style="fill:#c2bcc8;fill-opacity:1;fill-rule:evenodd;stroke:#8e7889;stroke-width:0.5;stroke-linecap:butt;stroke-linejoin:miter;stroke-miterlimit:4;stroke-dasharray:none;stroke-opacity:0.8" />
      <path
         inkscape:connector-curvature="0"
         id="path4650"
         d="m 224.10714,569.8622 0,2.5 5,2.5 0,-2.67857 z"
         style="fill:none;stroke:#8e788a;stroke-width:1px;stroke-linecap:butt;stroke-linejoin:miter;stroke-opacity:1" />
      <path
         style="fill:none;stroke:#8e788a;stroke-width:1px;stroke-linecap:butt;stroke-linejoin:miter;stroke-opacity:1"
         d="m 209.28571,562.71934 0,2.5 5,2.5 0,-2.67857 z"
         id="path4654"
         inkscape:connector-curvature="0" />
      <path
         sodipodi:nodetypes="ccccc"
         inkscape:connector-curvature="0"
         id="path4656"
         d="m 208.75,585.04077 0,2.67857 5,3.03571 0,-2.49999 z"
         style="fill:none;stroke:#8e788a;stroke-width:1px;stroke-linecap:butt;stroke-linejoin:miter;stroke-opacity:1" />
      <path
         sodipodi:nodetypes="ccccc"
         style="fill:none;stroke:#8e788a;stroke-width:1px;stroke-linecap:butt;stroke-linejoin:miter;stroke-opacity:1"
         d="m 224.10713,595.21935 10e-6,2.67856 5.17857,3.39286 0,-2.85714 z"
         id="path4658"
         inkscape:connector-curvature="0" />
    </g>
  </g>
  <g
     inkscape:groupmode="layer"
     id="layer2"
     inkscape:label="Nightstand"
     style="display:inline">
    <g
       id="g4860"
       transform="matrix(0.37847903,0,0,0.37847903,222.25653,303.96706)"
       style="display:inline;filter:url(#filter4971)">
      <path
         transform="translate(-4.9229925e-6,0)"
         inkscape:connector-curvature="0"
         id="path4753"
         d="m 75.256365,635.67426 -1.515229,-203.04066 -2.953725,0.79144 0,-8.87266 10.529869,-13.13199 222.73864,0 17.17259,12.12183 -3.53553,209.60666 -22.72844,0 -9.59645,-22.72844 -182.33253,0 -3.535534,25.25382 z"
         style="fill:url(#radialGradient4867);fill-opacity:1;stroke:#573367;stroke-width:1px;stroke-linecap:butt;stroke-linejoin:miter;stroke-opacity:1" />
      <path
         transform="translate(-4.9229925e-6,0)"
         inkscape:connector-curvature="0"
         id="path4755"
         d="m 97.479721,434.6539 1.515228,164.14979 195.969591,-2.0203 2.02031,-163.13964 z"
         style="fill:url(#radialGradient4869);fill-opacity:1;stroke:#573367;stroke-width:1px;stroke-linecap:butt;stroke-linejoin:miter;stroke-opacity:1" />
      <path
         transform="translate(-4.9229925e-6,0)"
         inkscape:connector-curvature="0"
         id="path4765"
         d="m 97.479721,516.98133 197.989899,0"
         style="fill:#573367;fill-opacity:1;stroke:#573367;stroke-width:1px;stroke-linecap:butt;stroke-linejoin:miter;stroke-opacity:1" />
      <rect
         transform="translate(-4.9229925e-6,0)"
         y="471.01938"
         x="158.59395"
         height="10.606602"
         width="76.771591"
         id="rect4767"
         style="fill:#000000;fill-opacity:1;stroke:#573367;stroke-opacity:1" />
      <rect
         style="fill:#000000;fill-opacity:1;stroke:#573367;stroke-width:1;stroke-opacity:1"
         id="rect4769"
         width="76.771591"
         height="10.606602"
         x="159.09901"
         y="554.35699" />
    </g>
  </g>
  <g
     inkscape:groupmode="layer"
     id="layer1"
     inkscape:label="Lamp"
     style="display:inline">
    <g
       style="display:inline"
       id="g4734"
       transform="matrix(0.29557483,0,0,0.29557483,363.95629,274.36555)">
      <path
         sodipodi:nodetypes="cccssssccscssccsscscccccccscscccc"
         transform="translate(-4.9229925e-6,0)"
         inkscape:connector-curvature="0"
         id="path3926"
         d="m 271.78571,488.07647 0,8.21428 -9.28571,0 c 0,0 5.35714,3.21429 7.14286,2.5 1.78571,-0.71428 -1.07143,2.85715 2.14285,3.21429 3.21429,0.35714 -3.21428,1.07143 0,2.14286 3.21429,1.07143 -5,1.42857 -1.78571,1.42857 3.21429,0 1.78571,2.14286 1.78571,2.14286 l 0,93.57142 c 0,0 -1.42857,-0.71428 -1.07142,0.71429 0.35714,1.42857 1.78571,2.5 1.78571,2.5 0,0 -1.42857,1.78571 -2.5,3.21429 -1.07143,1.42857 -5.71429,6.78571 -7.5,8.21428 -1.78571,1.42857 -5.53572,2.67857 -8.21429,4.64286 -0.89285,3.57143 -1.07142,10.71428 -1.07142,10.71428 0,0 8.21899,3.03572 11.60714,3.03572 2.5,0 31.19484,1.5337 32.67857,-3.21428 0.89286,-2.85715 -0.17858,-10.53573 -0.17858,-10.53573 0,0 -6.60713,-3.39285 -8.92856,-4.46427 -2.2699,-1.04765 -6.78572,-7.50001 -6.78572,-7.50001 l -1.25,-1.60714 -2.5,-2.85714 1.42857,-1.60715 -1.07142,-2.32142 0,-94.28572 3.48214,-0.26786 c 0,0 -6.87838,-0.89282 -1.87501,-1.96428 0.70088,-0.15009 -1.60713,-1.69643 -1.60713,-1.69643 0,0 3.21428,-1.42857 2.14285,-2.5 -1.07143,-1.07143 6.78572,-3.21429 6.78572,-3.21429 l -10,0 0,-8.57142 z"
         style="fill:url(#linearGradient4738);fill-opacity:1;stroke:#000000;stroke-width:1px;stroke-linecap:butt;stroke-linejoin:miter;stroke-opacity:1" />
      <path
         transform="translate(-4.9229925e-6,0)"
         inkscape:connector-curvature="0"
         id="path3924"
         d="m 238.92857,427.00504 -11.78571,61.42857 95.71428,0 -11.78571,-61.78571 c 0,0 -41.9857,-7.72345 -72.14286,0.35714 z"
         style="fill:url(#radialGradient4740);fill-opacity:1;stroke:#7f0000;stroke-width:1px;stroke-linecap:butt;stroke-linejoin:miter;stroke-opacity:1" />
    </g>
  </g>
  <g
     inkscape:groupmode="layer"
     id="Plant"
     inkscape:label="Plant"
     style="display:inline">
    <g
       style="display:inline"
       id="g4542"
       transform="translate(23.571429,-149.28571)">
      <path
         sodipodi:nodetypes="cccccc"
         inkscape:connector-curvature="0"
         id="path4530"
         d="m 116.78572,463.07649 8.03572,17.67857 59.82143,0.53572 6.60714,-18.57143 c 0,0 -16.07143,-5 -37.85714,-4.28571 -14.28572,-0.35715 -27.85715,0.35714 -36.60715,4.64285 z"
         style="fill:#803a00;fill-opacity:1;fill-rule:evenodd;stroke:#803a00;stroke-width:1px;stroke-linecap:butt;stroke-linejoin:miter;stroke-opacity:1" />
      <path
         sodipodi:nodetypes="csscsssscssscsssc"
         inkscape:connector-curvature="0"
         id="path4522"
         d="m 152.67857,469.50506 c 0,0 -1.06698,-25.53769 -1.24999,-28.39286 -0.11148,-1.73929 0.0255,-8.20905 -2.14286,-13.75 -1.16989,-2.98953 -4.46429,-5.89286 -4.46429,-5.89286 0,0 -7.22048,-1.11846 -10.53572,-2.67857 -3.03571,-1.42857 -4.82142,-1.42857 -8.39285,-7.5 -3.57143,-6.07142 -2.92988,-5.02219 -4.82143,-8.75 -1.1458,-2.2581 -2.09077,-5.2006 -4.28572,-9.46428 -2.41703,-4.69506 -3.21428,-4.64286 -3.21428,-4.64286 0,0 11.29872,5.38151 12.32143,5.89286 5.71427,2.85714 8.74999,3.57142 8.74999,3.57142 5.01142,3.11039 9.4643,9.46429 10.35716,11.96429 0.89285,2.5 1.78571,10 1.24999,10.35714 -0.53571,0.35715 3.21428,5.00001 3.92857,6.42858 0.47915,0.95831 2.32144,9.46428 2.67857,13.03571 0.24939,2.49393 2.67858,28.75 1.96429,29.82143 -0.71429,1.07143 -2.14286,0 -2.14286,0 z"
         style="fill:#808d32;fill-opacity:1;fill-rule:evenodd;stroke:#4e6000;stroke-width:0.69999999;stroke-linecap:butt;stroke-linejoin:miter;stroke-miterlimit:4;stroke-dasharray:none;stroke-dashoffset:0;stroke-opacity:1" />
      <path
         sodipodi:nodetypes="csssccsssc"
         inkscape:connector-curvature="0"
         id="path4524"
         d="m 177.32143,409.32649 c 0,0 -8.92857,1.24999 -15.53572,8.75 -6.61451,7.50837 -8.21428,10.89285 -8.57142,18.03572 -0.197,3.93984 1.96428,12.32142 2.5,13.03571 0.53571,0.71428 -1.60715,3.03571 -1.60715,3.03571 l 0.53572,7.32143 c 0,0 0.35714,-7.85714 2.14286,-9.64286 1.78571,-1.78571 7.75167,-4.95288 11.24999,-9.10714 2.85715,-3.39286 8.21063,-11.68313 9.64286,-21.78572 0.6824,-4.81346 -0.35714,-9.64285 -0.35714,-9.64285 z"
         style="fill:#808d32;fill-opacity:1;fill-rule:evenodd;stroke:#4e6000;stroke-width:0.69999999;stroke-linecap:butt;stroke-linejoin:miter;stroke-miterlimit:4;stroke-dasharray:none;stroke-opacity:1" />
      <path
         sodipodi:nodetypes="cc"
         inkscape:connector-curvature="0"
         id="path4526"
         d="m 142.14286,417.89791 c 0.92895,0.90527 -3.87227,-14.62299 -18.39286,-20.71428"
         style="fill:none;fill-rule:evenodd;stroke:#4e6000;stroke-width:0.30000001;stroke-linecap:butt;stroke-linejoin:miter;stroke-miterlimit:4;stroke-dasharray:none;stroke-opacity:1" />
      <path
         sodipodi:nodetypes="cc"
         inkscape:connector-curvature="0"
         id="path4528"
         d="m 157.32143,445.75506 c 0,0 1.07143,-21.25 15,-30.89286"
         style="fill:none;fill-rule:evenodd;stroke:#4e6000;stroke-width:0.30000001;stroke-linecap:round;stroke-linejoin:miter;stroke-miterlimit:4;stroke-dasharray:none;stroke-opacity:1" />
      <path
         sodipodi:nodetypes="cccssscscsssc"
         inkscape:connector-curvature="0"
         id="path4532"
         d="m 115.17858,465.39791 0.71428,17.32143 c 0,0 1.60714,1.78572 4.46428,2.5 1.07143,-0.89285 10.53572,42.5 12.32143,42.85715 1.78572,0.35714 12.33226,3.84655 20.35715,3.39286 8.32653,-0.47075 20.89285,-1.78572 22.67857,-3.92858 1.78571,-2.14285 11.42857,-41.60714 11.78571,-43.03571 1.25,-0.53571 3.39286,-0.53571 3.92857,-2.14286 0.68697,-2.06094 1.96429,-19.28571 1.07143,-19.46428 -0.89286,-0.17858 -5.56955,4.05461 -10,4.82142 -9.28571,1.60715 -33.57143,3.39286 -40.35714,2.85715 -2.59198,-0.20463 -21.2332,-4.90791 -25,-6.96428 -1.90678,-1.04096 -1.96428,1.7857 -1.96428,1.7857 z"
         style="fill:url(#linearGradient4540);fill-opacity:1;fill-rule:evenodd;stroke:#803a00;stroke-width:1px;stroke-linecap:butt;stroke-linejoin:miter;stroke-opacity:1" />
    </g>
  </g>
</svg>
