<?xml version="1.0" encoding="utf-8"?>
<!-- Generator: Adobe Illustrator 21.0.2, SVG Export Plug-In . SVG Version: 6.00 Build 0)  -->
<svg version="1.1" xmlns="http://www.w3.org/2000/svg" xmlns:xlink="http://www.w3.org/1999/xlink" x="0px" y="0px"
	 viewBox="0 0 576.5 500.2" style="enable-background:new 0 0 576.5 500.2;" xml:space="preserve">
<style type="text/css">
	.st0{fill:#FFFFFF;stroke:#000000;stroke-miterlimit:10;}
</style>
<g id="Layer_1_xA0_Image_1_">
	
		<image style="overflow:visible;" width="1201" height="1042" id="Layer_1_xA0_Image" xlink:href="1C886ADF1D7F3D34.png"  transform="matrix(0.48 0 0 0.48 0 0)">
	</image>
</g>
<g id="Layer_2_xA0_Image_1_">
	
		<image style="overflow:visible;" width="601" height="393" id="Layer_2_xA0_Image" xlink:href="1C886ADF1D7F3D35.png"  transform="matrix(0.48 0 0 0.48 0 126.24)">
	</image>
</g>
<g id="Layer_3_xA0_Image_1_">
	
		<image style="overflow:visible;" width="591" height="393" id="Layer_3_xA0_Image" xlink:href="1C886ADF1D7F3D33.png"  transform="matrix(0.48 0 0 0.48 288.48 126.24)">
	</image>
</g>
<g id="Layer_4_xA0_Image_1_">
	
		<image style="overflow:visible;" width="601" height="386" id="Layer_4_xA0_Image" xlink:href="1C886ADF1D7F3D3C.png"  transform="matrix(0.48 0 0 0.48 0 314.88)">
	</image>
</g>
<g id="Layer_5_xA0_Image_1_">
	
		<image style="overflow:visible;" width="591" height="386" id="Layer_5_xA0_Image" xlink:href="1C886ADF1D7F3D3F.png"  transform="matrix(0.48 0 0 0.48 288.48 314.88)">
	</image>
</g>
<g id="Layer_6">
	
		<rect x="283.1" y="28.8" transform="matrix(-1.836970e-16 1 -1 -1.836970e-16 600.96 28.8)" class="st0" width="6" height="572.2"/>
	
		<rect x="283.7" y="-157" transform="matrix(-1.836970e-16 1 -1 -1.836970e-16 415.82 -157.66)" class="st0" width="6" height="572.2"/>
	
		<rect x="285.2" y="211.1" transform="matrix(-1.836970e-16 1 -1 -1.836970e-16 785.4 208.92)" class="st0" width="6" height="572.2"/>
	<rect x="566.2" y="126.1" class="st0" width="6" height="374.1"/>
	<rect x="2.2" y="126.1" class="st0" width="6" height="374.1"/>
	<rect x="284.2" y="127.8" class="st0" width="6" height="374.1"/>
	<circle class="st0" cx="630.7" cy="185.1" r="0"/>
</g>
</svg>
