<svg id="cbfd20e2-26c8-4d94-9a25-e5acaa9fb95e" data-name="Background" xmlns="http://www.w3.org/2000/svg" viewBox="0 0 969.27 882.96"><defs><style>.\37 fa768bd-968b-466f-b2a7-a896efee1a8c,.eb80851f-fd8f-4360-8b74-9a29c8861ea6{fill:#1c75bc;}.eb80851f-fd8f-4360-8b74-9a29c8861ea6{stroke:#414042;}.\31 f1f72cf-65b5-47b6-bc73-03968ef85026,.\33 be26657-19db-4eb5-b1cb-ed49802b1d03,.\35 68c06a0-66e0-492a-b2e7-96707ae44975,.\37 fa768bd-968b-466f-b2a7-a896efee1a8c,.bf4b80af-a9ca-438a-84f8-0fa73e12f69f,.c90ab2ad-2c5a-4ef7-801a-986a18c6a039,.eb80851f-fd8f-4360-8b74-9a29c8861ea6{stroke-miterlimit:10;}.\35 68c06a0-66e0-492a-b2e7-96707ae44975{fill:none;}.\31 f1f72cf-65b5-47b6-bc73-03968ef85026,.\33 be26657-19db-4eb5-b1cb-ed49802b1d03,.\35 68c06a0-66e0-492a-b2e7-96707ae44975,.\37 fa768bd-968b-466f-b2a7-a896efee1a8c,.bf4b80af-a9ca-438a-84f8-0fa73e12f69f,.c90ab2ad-2c5a-4ef7-801a-986a18c6a039{stroke:#f1f2f2;}.\31 f1f72cf-65b5-47b6-bc73-03968ef85026,.\33 be26657-19db-4eb5-b1cb-ed49802b1d03,.c90ab2ad-2c5a-4ef7-801a-986a18c6a039{fill:#f1f2f2;}.\37 fa768bd-968b-466f-b2a7-a896efee1a8c{stroke-width:2px;}.\31 f1f72cf-65b5-47b6-bc73-03968ef85026{font-size:47px;}.\31 f1f72cf-65b5-47b6-bc73-03968ef85026,.\33 be26657-19db-4eb5-b1cb-ed49802b1d03{font-family:Letter Gothic Std;}.bf4b80af-a9ca-438a-84f8-0fa73e12f69f{fill:#a7a9ac;}.\33 be26657-19db-4eb5-b1cb-ed49802b1d03{writing-mode:tb;text-orientation:upright;glyph-orientation-vertical:0deg;font-size:36px;}</style></defs><title>houseMap</title><rect class="eb80851f-fd8f-4360-8b74-9a29c8861ea6" x="0.5" y="0.5" width="968.27" height="881.96"/><rect class="568c06a0-66e0-492a-b2e7-96707ae44975" x="0.51" y="0.5" width="968.26" height="881.96"/><line class="568c06a0-66e0-492a-b2e7-96707ae44975" x1="0.51" y1="735.46" x2="968.77" y2="735.46"/><line class="568c06a0-66e0-492a-b2e7-96707ae44975" x1="0.51" y1="588.47" x2="968.77" y2="588.47"/><line class="568c06a0-66e0-492a-b2e7-96707ae44975" x1="0.51" y1="441.48" x2="968.77" y2="441.48"/><line class="568c06a0-66e0-492a-b2e7-96707ae44975" x1="0.51" y1="294.49" x2="968.77" y2="294.49"/><line class="568c06a0-66e0-492a-b2e7-96707ae44975" x1="0.51" y1="147.49" x2="968.77" y2="147.49"/><line class="568c06a0-66e0-492a-b2e7-96707ae44975" x1="807.39" y1="0.5" x2="807.39" y2="882.46"/><line class="568c06a0-66e0-492a-b2e7-96707ae44975" x1="646.01" y1="0.5" x2="646.01" y2="882.46"/><line class="568c06a0-66e0-492a-b2e7-96707ae44975" x1="484.64" y1="0.5" x2="484.64" y2="882.46"/><line class="568c06a0-66e0-492a-b2e7-96707ae44975" x1="323.26" y1="0.5" x2="323.26" y2="882.46"/><line class="568c06a0-66e0-492a-b2e7-96707ae44975" x1="161.88" y1="0.5" x2="161.88" y2="882.46"/><rect class="c90ab2ad-2c5a-4ef7-801a-986a18c6a039" x="66.83" y="420.51" width="9" height="395.8"/><rect class="c90ab2ad-2c5a-4ef7-801a-986a18c6a039" x="437.88" y="420.51" width="9" height="395.8"/><rect class="c90ab2ad-2c5a-4ef7-801a-986a18c6a039" x="260.16" y="631.79" width="9" height="380.05" transform="translate(1078.67 551.65) rotate(90)"/><rect class="7fa768bd-968b-466f-b2a7-a896efee1a8c" x="59.88" y="574.47" width="23" height="136"/><rect class="c90ab2ad-2c5a-4ef7-801a-986a18c6a039" x="207.76" y="292.89" width="9" height="275.25" transform="translate(634.97 212.75) rotate(90)"/><rect class="c90ab2ad-2c5a-4ef7-801a-986a18c6a039" x="474.12" y="380.29" width="9" height="100.43" transform="translate(901.32 -53.61) rotate(90)"/><rect class="c90ab2ad-2c5a-4ef7-801a-986a18c6a039" x="364.19" y="451.18" width="78.52" height="7.48" transform="translate(-211.31 413.02) rotate(-45)"/><path class="568c06a0-66e0-492a-b2e7-96707ae44975" d="M349.89,435c0,16,17.56,28.91,39.26,28.91" transform="translate(-7.81 -5.5)"/><text class="1f1f72cf-65b5-47b6-bc73-03968ef85026" transform="translate(161.83 641.97)">BEDROOM</text><rect class="c90ab2ad-2c5a-4ef7-801a-986a18c6a039" x="251.16" y="65.52" width="9" height="354.99"/><rect class="c90ab2ad-2c5a-4ef7-801a-986a18c6a039" x="564.94" y="-234.95" width="9" height="620.94" transform="translate(637.15 -499.42) rotate(90)"/><rect class="bf4b80af-a9ca-438a-84f8-0fa73e12f69f" x="229.19" y="192.56" width="38.67" height="133.33"/><rect class="7fa768bd-968b-466f-b2a7-a896efee1a8c" x="472.57" y="9.19" width="19.94" height="133.86" transform="translate(550.85 -411.92) rotate(90)"/><rect class="c90ab2ad-2c5a-4ef7-801a-986a18c6a039" x="681.39" y="233.03" width="9" height="196.49"/><rect class="c90ab2ad-2c5a-4ef7-801a-986a18c6a039" x="681.39" y="65.52" width="9" height="81.28"/><rect class="c90ab2ad-2c5a-4ef7-801a-986a18c6a039" x="628.54" y="171.12" width="78.52" height="7.48" transform="translate(64.14 517.92) rotate(-45)"/><path class="568c06a0-66e0-492a-b2e7-96707ae44975" d="M648.17,198.06c0,22.37,17.56,40.46,39.26,40.46" transform="translate(-7.81 -5.5)"/><text class="1f1f72cf-65b5-47b6-bc73-03968ef85026" transform="translate(325.83 265.23)">LIVINGROOM</text><rect class="c90ab2ad-2c5a-4ef7-801a-986a18c6a039" x="863.42" y="65.52" width="9" height="669.61"/><rect class="7fa768bd-968b-466f-b2a7-a896efee1a8c" x="773.21" y="33.5" width="23" height="85.24" transform="translate(853.03 -714.09) rotate(90)"/><rect class="c90ab2ad-2c5a-4ef7-801a-986a18c6a039" x="835.21" y="390.42" width="9" height="80.39" transform="translate(1262.52 -414.59) rotate(90)"/><rect class="c90ab2ad-2c5a-4ef7-801a-986a18c6a039" x="736.34" y="397.58" width="78.52" height="7.48" transform="translate(503.14 -436.39) rotate(45)"/><path class="568c06a0-66e0-492a-b2e7-96707ae44975" d="M758.16,389.33c-19.29,0-34.91,16.39-34.91,36.66" transform="translate(-7.81 -5.5)"/><text class="3be26657-19db-4eb5-b1cb-ed49802b1d03" transform="translate(775.8 87.23)">BATHROOM</text><rect class="c90ab2ad-2c5a-4ef7-801a-986a18c6a039" x="668.45" y="381.29" width="9" height="100.43" transform="translate(1096.66 -246.94) rotate(90)"/><text class="1f1f72cf-65b5-47b6-bc73-03968ef85026" transform="translate(561.63 613.47)">KITCHEN</text><rect class="c90ab2ad-2c5a-4ef7-801a-986a18c6a039" x="506.55" y="709.23" width="9" height="125.16" transform="translate(1275.06 255.26) rotate(90)"/><rect class="c90ab2ad-2c5a-4ef7-801a-986a18c6a039" x="688.19" y="698.56" width="9" height="246.51" transform="translate(1506.7 123.62) rotate(90)"/><rect class="c90ab2ad-2c5a-4ef7-801a-986a18c6a039" x="557.13" y="761.81" width="9" height="59"/><rect class="7fa768bd-968b-466f-b2a7-a896efee1a8c" x="735.63" y="785.34" width="23" height="72.95" transform="translate(1561.14 69.19) rotate(90)"/><rect class="7fa768bd-968b-466f-b2a7-a896efee1a8c" x="633.72" y="785.34" width="23" height="72.95" transform="translate(1459.23 171.09) rotate(90)"/><rect class="c90ab2ad-2c5a-4ef7-801a-986a18c6a039" x="828.84" y="812.49" width="9" height="59" transform="translate(-359.1 830.37) rotate(-45)"/><rect class="c90ab2ad-2c5a-4ef7-801a-986a18c6a039" x="896.48" y="726.61" width="9" height="74.05" transform="translate(-283.88 855.26) rotate(-45)"/><rect class="c90ab2ad-2c5a-4ef7-801a-986a18c6a039" x="850.11" y="845.3" width="9" height="21.38" transform="translate(847.78 -359.09) rotate(45)"/><rect class="c90ab2ad-2c5a-4ef7-801a-986a18c6a039" x="915.11" y="780.32" width="9" height="21.38" transform="translate(820.87 -424.08) rotate(45)"/><rect class="c90ab2ad-2c5a-4ef7-801a-986a18c6a039" x="880.35" y="832.33" width="78.52" height="7.48" transform="translate(75.73 1750.18) rotate(-90)"/><path class="568c06a0-66e0-492a-b2e7-96707ae44975" d="M865.26,851.67c13.64,13.64,36.28,13.09,50.6-1.24" transform="translate(-7.81 -5.5)"/></svg>