<?xml version="1.0" encoding="utf-8"?>
<!-- Generator: Adobe Illustrator 21.0.2, SVG Export Plug-In . SVG Version: 6.00 Build 0)  -->
<svg version="1.1"
	 id="svg4187" inkscape:version="0.91 r13725" sodipodi:docname="livingRoom.svg" xmlns:cc="http://creativecommons.org/ns#" xmlns:dc="http://purl.org/dc/elements/1.1/" xmlns:inkscape="http://www.inkscape.org/namespaces/inkscape" xmlns:osb="http://www.openswatchbook.org/uri/2009/osb" xmlns:rdf="http://www.w3.org/1999/02/22-rdf-syntax-ns#" xmlns:sodipodi="http://sodipodi.sourceforge.net/DTD/sodipodi-0.dtd" xmlns:svg="http://www.w3.org/2000/svg"
	 xmlns="http://www.w3.org/2000/svg" xmlns:xlink="http://www.w3.org/1999/xlink" x="0px" y="0px" viewBox="0 0 1686.6 1052.4"
	 style="enable-background:new 0 0 1686.6 1052.4;" xml:space="preserve">
<style type="text/css">
	.st0{fill:url(#path4758_1_);stroke:#000000;}
	.st1{fill:url(#path4760_1_);stroke:#000000;}
	.st2{fill:url(#path4764_1_);stroke:#000000;}
	.st3{fill:url(#path4766_1_);stroke:#000000;}
	.st4{fill:url(#path4762_1_);stroke:#000000;}
	.st5{fill:url(#Carpet_1_);stroke:#000000;}
	.st6{fill:#94D4EC;stroke:#FFFFFF;stroke-width:10.2832;}
	.st7{fill:#008000;}
	.st8{fill:#F0E200;stroke:#EAA500;}
	.st9{fill:#FFFFFF;}
	.st10{fill:url(#path7792_2_);stroke:#000000;}
	.st11{fill:none;stroke:#000000;}
	.st12{fill:url(#path7792_3_);stroke:#000000;}
	.st13{fill:url(#path4678_1_);stroke:#000000;}
	.st14{fill:url(#path4689_1_);stroke:#000000;}
	.st15{fill:url(#path6342_1_);stroke:#000000;}
	.st16{fill:url(#path6344_1_);stroke:#000000;}
	.st17{fill:url(#path6348_1_);stroke:#000000;}
	.st18{fill:url(#path6346_3_);stroke:#000000;}
	.st19{fill:url(#path6350_1_);stroke:#000000;}
	.st20{fill:#AF8F8D;stroke:#000000;}
	.st21{fill:url(#path6346_4_);stroke:#000000;}
	.st22{fill:#F0CAC0;stroke:#000000;}
	.st23{opacity:0.988;fill:#F3C9B9;stroke:#000000;enable-background:new    ;}
	.st24{fill:#D1AA9B;stroke:#000000;}
	.st25{fill:#A0A3B9;stroke:#000000;}
	.st26{fill:#F3C9B9;stroke:#000000;}
	.st27{fill:#B7B9B9;stroke:#000000;}
	.st28{stroke:#000000;}
	.st29{fill:#E69311;}
	.st30{fill:#FEF7ED;}
	.st31{fill:url(#path10483_1_);}
	.st32{fill:#FFFFFF;stroke:#000000;}
	.st33{fill:#6AA3A4;stroke:#000000;}
	.st34{fill:#71534C;stroke:#000000;}
	.st35{fill:#7A6864;stroke:#000000;}
	.st36{fill:#B5C3DE;stroke:#000000;}
	.st37{fill:url(#path10610_1_);}
	.st38{fill:url(#path6346_5_);stroke:#000000;}
	.st39{fill:#5A5D7B;stroke:#000000;}
	.st40{fill:#E5E5E5;stroke:#000000;}
	.st41{fill:#E59F36;stroke:#000000;}
	.st42{fill:#E5E5E5;}
	.st43{fill:#8A575C;stroke:#000000;stroke-width:1.1454;}
	.st44{fill:url(#path6418_1_);stroke:#000000;}
	.st45{fill:#532F22;stroke:#000000;}
	.st46{fill:#7B4629;stroke:#000000;}
	.st47{fill:#643822;stroke:#000000;}
	.st48{fill:#000022;}
	.st49{fill:#3C1C14;stroke:#000000;}
	.st50{fill:url(#path5911_1_);stroke:#000000;stroke-width:0.7342;}
	.st51{fill:url(#path3926_1_);stroke:#000000;}
	.st52{fill:url(#path3924_1_);stroke:#000000;}
	.st53{fill:#BC6208;stroke:#000000;}
	.st54{fill:url(#path4332_1_);stroke:#000000;}
	.st55{fill:#712F1D;stroke:#000000;}
	.st56{fill:#CB7092;stroke:#000000;}
	.st57{stroke:#FFFFFF;stroke-dasharray:1,8;}
	.st58{stroke:#FFFFFF;stroke-dasharray:1,12;}
	.st59{fill:#803A00;stroke:#000000;}
	.st60{fill:#808D32;stroke:#4E6000;stroke-width:0.7;}
	.st61{fill:none;stroke:#4E6000;stroke-width:0.3;}
	.st62{fill:none;stroke:#4E6000;stroke-width:0.3;stroke-linecap:round;}
	.st63{fill:url(#path4532_1_);stroke:#000000;}
	.st64{fill:#522F1F;stroke:#000000;}
	.st65{fill:#996D3A;stroke:#000000;}
	.st66{fill:#FEFBF6;stroke:#000000;}
	.st67{fill:url(#path10572_1_);stroke:#000000;}
	.st68{fill:url(#circle10574_1_);stroke:#000000;}
	.st69{fill:url(#circle10576_1_);stroke:#000000;}
	.st70{fill:#10100E;stroke:#000000;}
	.st71{fill:#EDEBF8;stroke:#000000;}
	.st72{fill:#C69B88;stroke:#000000;}
	.st73{fill:#C9B586;stroke:#000000;}
	.st74{fill:#FFFBFE;stroke:#000000;}
	.st75{fill:#5C3B36;stroke:#000000;}
	.st76{fill:#F2F5F8;stroke:#000000;}
	.st77{fill:#3A2723;stroke:#000000;}
	.st78{fill:#DEDBE6;stroke:#000000;}
	.st79{fill:#D28D9E;stroke:#000000;}
	.st80{fill:#412C39;stroke:#000000;stroke-width:0.8326;}
	.st81{fill:url(#path9671_1_);stroke:#000000;}
	.st82{fill:#F2F0CE;stroke:#000000;}
	.st83{fill:#5A3F74;stroke:#000000;}
	.st84{fill:#392255;stroke:#000000;}
	.st85{fill:#F6F0EC;stroke:#000000;}
	.st86{fill:#FFFFFD;stroke:#000000;}
	.st87{fill:#15264B;stroke:#000000;}
	.st88{fill:#C31A1A;stroke:#000000;}
	.st89{fill:#273D6E;stroke:#000000;}
	.st90{fill:#DD2922;stroke:#000000;}
	.st91{fill:#153678;stroke:#000000;}
	.st92{fill:#D7D9E8;stroke:#000000;}
	.st93{fill:#FEFBF1;stroke:#000000;}
	.st94{fill:#FF3B45;stroke:#000000;}
	.st95{fill:#FFFEFE;stroke:#000000;stroke-width:0.8534;}
	.st96{fill:#983E41;stroke:#000000;stroke-width:0.7596;}
	.st97{fill:#272527;stroke:#000000;}
	.st98{fill:#D8A468;stroke:#000000;}
	.st99{fill:#2E3131;stroke:#000000;}
	.st100{fill:#FFFEFE;stroke:#000000;}
	.st101{fill:#D75A57;stroke:#000000;}
	.st102{fill:#FFFDFB;stroke:#000000;}
	.st103{fill:#2A2829;stroke:#000000;}
	.st104{fill:#B03236;stroke:#000000;}
	.st105{fill:#C53D41;stroke:#000000;}
	.st106{fill:#646464;}
</style>
<sodipodi:namedview  bordercolor="#666666" borderopacity="1.0" id="base" inkscape:current-layer="layer2" inkscape:cx="826.80035" inkscape:cy="513.29392" inkscape:document-units="px" inkscape:guide-bbox="true" inkscape:pageopacity="0.0" inkscape:pageshadow="2" inkscape:snap-global="false" inkscape:snap-grids="true" inkscape:window-height="1315" inkscape:window-maximized="0" inkscape:window-width="2560" inkscape:window-x="31" inkscape:window-y="0" inkscape:zoom="1.0918295" pagecolor="#ffffff" showgrid="false" showguides="false">
	<sodipodi:guide  id="guide6482" orientation="0,1" position="913.17729,323.24882"></sodipodi:guide>
	<sodipodi:guide  id="guide4923" orientation="1,0" position="1396.9474,317.6649"></sodipodi:guide>
	<sodipodi:guide  id="guide4925" orientation="1,0" position="1407.9572,323.81743"></sodipodi:guide>
	<sodipodi:guide  id="guide5040" orientation="0,1" position="868.4959,689.89717"></sodipodi:guide>
	<sodipodi:guide  id="guide5049" orientation="0,1" position="959.62729,645.01836"></sodipodi:guide>
	<sodipodi:guide  id="guide5057" orientation="0,1" position="909.25316,566.0225"></sodipodi:guide>
	<sodipodi:guide  id="guide5065" orientation="0,1" position="901.23909,476.95181"></sodipodi:guide>
	<sodipodi:guide  id="guide8771" orientation="1,0" position="397.49772,457.94699"></sodipodi:guide>
	<sodipodi:guide  id="guide6127" orientation="0,1" position="1241.5151,109.45028"></sodipodi:guide>
</sodipodi:namedview>
<g id="layer2" inkscape:groupmode="layer" inkscape:label="Room Vector">
	<g id="g6439" transform="translate(173.74624,86.873119)">
		
			<radialGradient id="path4758_1_" cx="-199.6811" cy="1408.9714" r="822.4337" gradientTransform="matrix(1 0 0 -0.1466 868.7311 1025.4052)" gradientUnits="userSpaceOnUse">
			<stop  offset="0" style="stop-color:#704643"/>
			<stop  offset="1" style="stop-color:#604045"/>
		</radialGradient>
		<path id="path4758" inkscape:connector-curvature="0" sodipodi:nodetypes="ccccc" class="st0" d="M259.6,698.8h814.2l415.8,240.1
			H-151.5L259.6,698.8z"/>
		
			<linearGradient id="path4760_1_" gradientUnits="userSpaceOnUse" x1="-202.0311" y1="902.5472" x2="-202.0311" y2="375.2476" gradientTransform="matrix(1 0 0 -1 868.7311 1081.1268)">
			<stop  offset="0" style="stop-color:#E4F9F3"/>
			<stop  offset="1" style="stop-color:#7D8E94"/>
		</linearGradient>
		<path id="path4760" inkscape:connector-curvature="0" sodipodi:nodetypes="ccccc" class="st1" d="M261.6,179.6l811.2,2v517.2
			H260.6L261.6,179.6z"/>
		
			<radialGradient id="path4764_1_" cx="-195.9312" cy="2136.8967" r="827.1942" gradientTransform="matrix(1 0 0 -0.1503 868.7311 378.9756)" gradientUnits="userSpaceOnUse">
			<stop  offset="0" style="stop-color:#E4F9F3"/>
			<stop  offset="1" style="stop-color:#C3D4D2"/>
		</radialGradient>
		<path id="path4764" inkscape:connector-curvature="0" sodipodi:nodetypes="ccccc" class="st2" d="M1073.8,181.6L1498.1-66
			l-1650.6,7.1L260.1,180L1073.8,181.6z"/>
		
			<linearGradient id="path4766_1_" gradientUnits="userSpaceOnUse" x1="418.8053" y1="996.2941" x2="407.4973" y2="288.1772" gradientTransform="matrix(1 0 0 -1 868.7311 1081.1268)">
			<stop  offset="0" style="stop-color:#E4F9F3"/>
			<stop  offset="1" style="stop-color:#7D8E94"/>
		</linearGradient>
		<path id="path4766" inkscape:connector-curvature="0" sodipodi:nodetypes="ccccc" class="st3" d="M1497-64.9l-10.1,1003.1
			L1073,699V181.6L1497-64.9z"/>
		
			<linearGradient id="path4762_1_" gradientUnits="userSpaceOnUse" x1="-793.6099" y1="992.3122" x2="-862.187" y2="259.9517" gradientTransform="matrix(1 0 0 -1 868.7311 1081.1268)">
			<stop  offset="0" style="stop-color:#E4F9F3"/>
			<stop  offset="1" style="stop-color:#7D8E94"/>
		</linearGradient>
		<path id="path4762" inkscape:connector-curvature="0" sodipodi:nodetypes="ccccc" class="st4" d="M262.6,180.6L-152.7-59.2v999.4
			l412.3-240.5L262.6,180.6z"/>
	</g>
	
		<radialGradient id="Carpet_1_" cx="827.4501" cy="1584.5464" r="463.4894" gradientTransform="matrix(1 0 0 -0.1317 0 1091.0348)" gradientUnits="userSpaceOnUse">
		<stop  offset="0" style="stop-color:#B6393C"/>
		<stop  offset="0.2618" style="stop-color:#E79700"/>
		<stop  offset="0.4622" style="stop-color:#469F57"/>
		<stop  offset="0.655" style="stop-color:#DB6042"/>
		<stop  offset="0.8502" style="stop-color:#8986EC"/>
		<stop  offset="1" style="stop-color:#E9C332"/>
	</radialGradient>
	<path id="Carpet" inkscape:connector-curvature="0" class="st5" d="M365.3,942.9l162.6-121.1h612.7l149,121.1H365.3z"/>
	<g id="Window">
		<circle id="path6434" class="st6" cx="830.7" cy="513.8" r="193.9"/>
		<path id="path4919" inkscape:connector-curvature="0" sodipodi:nodetypes="ccsssssc" class="st7" d="M644.8,546.8l371.9-0.6
			c0,0-7.2,40.6-30,74.7c-12.6,18.9-51.7,56.6-87.4,70c-31.4,11.8-80.1,14.8-109.9,8.1c-27.1-6-59.9-25-73.3-33.9
			c-13.5-9.1-34.2-32.2-50-57.9C653.1,585.7,644.8,546.8,644.8,546.8z"/>
		<circle id="path4921" class="st8" cx="730.5" cy="425.1" r="14.2"/>
		<path id="path4923" inkscape:connector-curvature="0" class="st9" d="M765.4,448.8c0,0-5.3-4-11.9-9.9
			c-6.6-5.9-20.4-16.5-25.7-13.2s-15.2,12.5-24.4,9.2s-23.7,4-19.1,9.9s13.8,7.3,14.5,13.8c0.7,6.6,2.6,10.5,12.5,7.3
			c9.9-3.3,15.2-11.9,20.4-7.9c5.3,4,7.3,8.6,15.8,5.3s11.2-6.6,18.5-2.6C773.3,464.6,779.9,450.1,765.4,448.8L765.4,448.8z"/>
		<path id="path4925" inkscape:connector-curvature="0" class="st9" d="M789.8,407c-8.1,4.4-15.5,8.9-9.6,10.3
			c5.9,1.5,18.5,1.5,16.3,5.9s-3,5.9,4.4,5.2c7.4-0.7,14-10.3,23.6-4.4s14,9.6,17.7,3.7s8.9-7.4,18.5-4.4s19.9-4.4,11.1-8.1
			c-8.9-3.7,3-13.3-9.6-15.5s-20.7-11.8-28.1-4.4s-11.1,10.3-17,3c-5.9-7.4-5.9-10.3-13.3-3S796.5,409.2,789.8,407L789.8,407z"/>
	</g>
	<g id="Ouch" transform="translate(-7.7716175,-81.601984)">
		
			<radialGradient id="path7792_2_" cx="1550.2225" cy="595.4662" r="280.078" gradientTransform="matrix(1.5607 -2.493697e-02 -1.117898e-02 -0.6996 -1575.3125 1243.1191)" gradientUnits="userSpaceOnUse">
			<stop  offset="0" style="stop-color:#FED4AA"/>
			<stop  offset="1" style="stop-color:#EEECF6"/>
		</radialGradient>
		<path id="path7792_1_" inkscape:connector-curvature="0" sodipodi:nodetypes="cccsscsccsscsssssssssssc" class="st10" d="
			M599,752.9l22-3.7c0,0,26.6,1.5,22-27.7c1.8-3.7,4-22.6,4.8-29.9c0.7-6.5,1.6-8.2,8-9.2c22.3-3.5,141.9-9.4,176.7-3
			c8.3-0.4,3.7,121.2,5.1,121.5c2.2,0.5-5.8-123.8,6-121.5c9.2-1.6,132.6-10.1,183.9-2.8c7.9,7.3,8.7,35.3,12.1,37.8
			c8.1,6.1-5.4,23.1,1.6,25.9c8.6,3.4,31.6,7.2,37.9,9.5c4.4,2.3,17.8,4.7,28.3,15c8,7.9,16.9,34.5,0.4,44.6s-29.2,4-29.5,20.5
			c-0.1,7.2-1.5,102-7.7,102.6c-9.2,0.9-215.9-5.6-237.9-3.7S634.2,928,618.4,929c-12.7,0.8-14-13.2-15.5-42.2
			c-1.8-34.8-3.4-65.2-16.2-73.4s-24-5.7-27.7-24.7c-1.4-7.1-3.9-13.7,7.6-24.2c8.4-7.7,9-7.2,19.5-9.8
			C591.5,753.4,592.8,754,599,752.9L599,752.9z"/>
		<path id="path4691_1_" inkscape:connector-curvature="0" sodipodi:nodetypes="cssssssssc" class="st11" d="M630.1,814.7
			c0,0,35.9-22.7,41.8-23s116.6-1,125.3-0.3s40.2,0.3,39.8,8.7c-0.3,8.4-1.3,15.5-1.3,17.2s1,35-0.3,36.6s-11.7,4.2-44,2.9
			c-32.4-1.3-133.7,0.6-137.9,0.6s-21.7,2.6-22.7-4.9C629.8,845.1,626.9,816.6,630.1,814.7L630.1,814.7z"/>
		<path id="path4693_1_" inkscape:connector-curvature="0" sodipodi:nodetypes="cssscssscc" class="st11" d="M838,798.2
			c1.9-1,5.2-4.2,12.3-5.5s88.7-4.9,92.3-4.9s60.6-1.3,63.8-0.6c3.2,0.6,38.9,20.1,39.2,23.6c1.9,3.6,3.9,39.8,0.6,42.1
			s-25.6,3.9-96.5,3.6s-111.7,1.6-113-3.2s-1-35.9-1-35.9S836.4,799.5,838,798.2L838,798.2z"/>
		<path id="path4695_1_" inkscape:connector-curvature="0" class="st11" d="M629.5,815.7c0,0,23.3,3.9,38.5,3.2
			c15.2-0.6,164.2-2.9,166.8-2.3c2.6,0.6,107.2-0.3,112.4-0.6s92.9-5.5,98.1-2.6"/>
		<path id="path4701_1_" inkscape:connector-curvature="0" sodipodi:nodetypes="csssc" class="st11" d="M578.3,756.6
			c0,0,11.4-5.5,26.8,9.6c9.9,9.7,13.8,28.5,13.7,37.6c-0.1,4.6,7.4,57.2,7.8,64.9c0.3,7.8,2.9,58.3,3.6,59.9"/>
		<path id="path4703_1_" inkscape:connector-curvature="0" sodipodi:nodetypes="cc" class="st11" d="M627.9,903.4
			c0,0,417.8,0.6,421.4,2.3"/>
		<path id="path4705_1_" inkscape:connector-curvature="0" sodipodi:nodetypes="cssc" class="st11" d="M1103.4,761.4
			c0,0-17.9-7.3-28.7,0.5c-15.2,11-19.4,33.7-19.4,47.3s-7.8,120.1-7.1,122.7"/>
		<path id="path4707_1_" inkscape:connector-curvature="0" sodipodi:nodetypes="cc" class="st11" d="M631.2,853.9l-5.9,3.8"/>
		<path id="path4709_1_" inkscape:connector-curvature="0" class="st11" d="M1046.3,852.6l6.2,4.2"/>
	</g>
	<g id="Couch" transform="translate(-7.7716175,-81.601984)">
		
			<radialGradient id="path7792_3_" cx="1550.2225" cy="595.4662" r="280.078" gradientTransform="matrix(1.5607 -2.493697e-02 -1.117898e-02 -0.6996 -1575.3125 1243.1191)" gradientUnits="userSpaceOnUse">
			<stop  offset="0" style="stop-color:#556897"/>
			<stop  offset="1" style="stop-color:#37156C"/>
		</radialGradient>
		<path id="path7792" inkscape:connector-curvature="0" sodipodi:nodetypes="cccsscsccsscsssssssssssc" class="st12" d="M599,752.9
			l22-3.7c0,0,26.6,1.5,22-27.7c1.8-3.7,4-22.6,4.8-29.9c0.7-6.5,1.6-8.2,8-9.2c22.3-3.5,141.9-9.4,176.7-3
			c8.3-0.4,3.7,121.2,5.1,121.5c2.2,0.5-5.8-123.8,6-121.5c9.2-1.6,132.6-10.1,183.9-2.8c7.9,7.3,8.7,35.3,12.1,37.8
			c8.1,6.1-5.4,23.1,1.6,25.9c8.6,3.4,31.6,7.2,37.9,9.5c4.4,2.3,17.8,4.7,28.3,15c8,7.9,16.9,34.5,0.4,44.6s-29.2,4-29.5,20.5
			c-0.1,7.2-1.5,102-7.7,102.6c-9.2,0.9-215.9-5.6-237.9-3.7S634.2,928,618.4,929c-12.7,0.8-14-13.2-15.5-42.2
			c-1.8-34.8-3.4-65.2-16.2-73.4s-24-5.7-27.7-24.7c-1.4-7.1-3.9-13.7,7.6-24.2c8.4-7.7,9-7.2,19.5-9.8
			C591.5,753.4,592.8,754,599,752.9L599,752.9z"/>
		<path id="path4691" inkscape:connector-curvature="0" sodipodi:nodetypes="cssssssssc" class="st11" d="M630.1,814.7
			c0,0,35.9-22.7,41.8-23s116.6-1,125.3-0.3s40.2,0.3,39.8,8.7c-0.3,8.4-1.3,15.5-1.3,17.2s1,35-0.3,36.6s-11.7,4.2-44,2.9
			c-32.4-1.3-133.7,0.6-137.9,0.6s-21.7,2.6-22.7-4.9C629.8,845.1,626.9,816.6,630.1,814.7L630.1,814.7z"/>
		
			<linearGradient id="path4678_1_" gradientUnits="userSpaceOnUse" x1="652.2358" y1="485.2044" x2="778.3496" y2="485.2044" gradientTransform="matrix(1 0 0 -1 -38.858 1249.6019)">
			<stop  offset="0" style="stop-color:#731390"/>
			<stop  offset="1" style="stop-color:#B04283"/>
		</linearGradient>
		<path id="path4678" inkscape:connector-curvature="0" sodipodi:nodetypes="csssssssssc" class="st13" d="M686.2,721.7
			c0,0-25.6-2.3-33.7-1c-8.1,1.3-36.1-4.9-38.5-3.9c-0.8,0.3,4.8,29,6.5,31.7c1.5,2.5,22.7,34,29.8,37.9s13.6,17.5,14.9,19.4
			c1.3,1.9,12.6,8.1,16.8,5.8s19.4-12,25.3-12s31.1-10.4,31.7-12.3c0.6-1.9-8.4-11.3-9.4-15.2S699.8,727.9,686.2,721.7L686.2,721.7z
			"/>
		<path id="path4693" inkscape:connector-curvature="0" sodipodi:nodetypes="cssscssscc" class="st11" d="M838,798.2
			c1.9-1,5.2-4.2,12.3-5.5s88.7-4.9,92.3-4.9s60.6-1.3,63.8-0.6c3.2,0.6,38.9,20.1,39.2,23.6c1.9,3.6,3.9,39.8,0.6,42.1
			s-25.6,3.9-96.5,3.6s-111.7,1.6-113-3.2s-1-35.9-1-35.9S836.4,799.5,838,798.2L838,798.2z"/>
		
			<linearGradient id="path4689_1_" gradientUnits="userSpaceOnUse" x1="977.1015" y1="488.925" x2="1108.9424" y2="488.925" gradientTransform="matrix(1 0 0 -1 -38.858 1249.6019)">
			<stop  offset="0" style="stop-color:#B04283"/>
			<stop  offset="1" style="stop-color:#731390"/>
		</linearGradient>
		<path id="path4689" inkscape:connector-curvature="0" sodipodi:nodetypes="csssscssssc" class="st14" d="M1001.6,717.2
			c0,0,23.5-3.2,33-2.6c11,0.6,28.3,0.6,34.3,2.6c3.3,1.1-6.8,18-8.1,22.3c-1.1,3.4-8.4,12.3-13.6,18.8c-5.8,7.2-15.2,22-19.4,26.2
			c-3.6,2.6-28.5,23.2-39.2,22.3c-4.5-0.4-14.9-10.4-18.5-11.3c-2.3-0.6-16-2.9-19.1-3.9c-8.7-2.9-12-4.5-12.3-9.4
			S986.3,716.6,1001.6,717.2L1001.6,717.2z"/>
		<path id="path4695" inkscape:connector-curvature="0" class="st11" d="M629.5,815.7c0,0,23.3,3.9,38.5,3.2
			c15.2-0.6,164.2-2.9,166.8-2.3c2.6,0.6,107.2-0.3,112.4-0.6s92.9-5.5,98.1-2.6"/>
		<path id="path4697" inkscape:connector-curvature="0" class="st11" d="M614,717.5c0,0,5.2,13.3,12,18.5s21.7,26.9,23.6,27.5
			s20.4,20.7,22,25.3s11.3,21.4,14.6,20.1"/>
		<path id="path4699" inkscape:connector-curvature="0" class="st11" d="M1069.2,720.1c0,0-8.7,8.7-11,9.4c-2.3,0.6-23.6,22-24,24
			s-18.8,21.4-21.4,22.3c-2.6,1-16.8,16.2-18.5,17.8c-1.6,1.6-13.9,10-15.2,8.1"/>
		<path id="path4701" inkscape:connector-curvature="0" sodipodi:nodetypes="csssc" class="st11" d="M578.3,756.6
			c0,0,11.4-5.5,26.8,9.6c9.9,9.7,13.8,28.5,13.7,37.6c-0.1,4.6,7.4,57.2,7.8,64.9c0.3,7.8,2.9,58.3,3.6,59.9"/>
		<path id="path4703" inkscape:connector-curvature="0" sodipodi:nodetypes="cc" class="st11" d="M627.9,903.4
			c0,0,417.8,0.6,421.4,2.3"/>
		<path id="path4705" inkscape:connector-curvature="0" sodipodi:nodetypes="cssc" class="st11" d="M1103.4,761.4
			c0,0-17.9-7.3-28.7,0.5c-15.2,11-19.4,33.7-19.4,47.3s-7.8,120.1-7.1,122.7"/>
		<path id="path4707" inkscape:connector-curvature="0" sodipodi:nodetypes="cc" class="st11" d="M631.2,853.9l-5.9,3.8"/>
		<path id="path4709" inkscape:connector-curvature="0" class="st11" d="M1046.3,852.6l6.2,4.2"/>
	</g>
	<g id="Table">
		
			<radialGradient id="path6342_1_" cx="-1069.0156" cy="730.7005" r="14.9253" gradientTransform="matrix(0.5134 -2.206269e-02 -2.097850e-02 -0.4881 1243.3125 1099.5352)" gradientUnits="userSpaceOnUse">
			<stop  offset="0" style="stop-color:#B99F9A"/>
			<stop  offset="1" style="stop-color:#A38886"/>
		</radialGradient>
		<path id="path6342" inkscape:connector-curvature="0" class="st15" d="M690.4,887.1l2.5-5.7V763.9h-25.4l-3.4,3.4v119.8
			L690.4,887.1z"/>
		
			<radialGradient id="path6344_1_" cx="308.5375" cy="493.5856" r="14.8108" gradientTransform="matrix(0.7349 -9.274770e-03 -8.458310e-03 -0.6702 756.1934 1099.2031)" gradientUnits="userSpaceOnUse">
			<stop  offset="0" style="stop-color:#B99F9A"/>
			<stop  offset="1" style="stop-color:#A38886"/>
		</radialGradient>
		<path id="path6344" inkscape:connector-curvature="0" class="st16" d="M964.9,881.4V763.5h26.3l2.3,3.7v119.5h-25.6L964.9,881.4z"
			/>
		
			<radialGradient id="path6348_1_" cx="1004.944" cy="664.064" r="17.3305" gradientTransform="matrix(0.9996 -2.797465e-02 -1.321220e-02 -0.4721 2.8897 1132.9095)" gradientUnits="userSpaceOnUse">
			<stop  offset="0" style="stop-color:#C6B1B2"/>
			<stop  offset="1" style="stop-color:#B99F9A"/>
		</radialGradient>
		<path id="path6348" inkscape:connector-curvature="0" class="st17" d="M980.9,785l3.9,5.7l-0.7,33.7l-2.5-0.2V916l3.2,7.6h29.3
			v-133l-3.4-4.8L980.9,785z"/>
		
			<radialGradient id="path6346_3_" cx="829.9501" cy="2616.3865" r="181.6191" gradientTransform="matrix(1 0 0 -8.093024e-02 0 989.1948)" gradientUnits="userSpaceOnUse">
			<stop  offset="0" style="stop-color:#B99F8A"/>
			<stop  offset="1" style="stop-color:#AF8F8D"/>
		</radialGradient>
		<path id="path6346" inkscape:connector-curvature="0" class="st18" d="M649.4,786.6l14.4-19l27,0.2l2.3-3.4l271.6-1.1l2.1,4.1
			l27.2-0.2l16.5,18.5l-29.5-0.5l3.7,5.5l-308.2,0.9l3-5.3L649.4,786.6z"/>
		
			<radialGradient id="path6350_1_" cx="1279.756" cy="290.8813" r="17.4993" gradientTransform="matrix(1.4961 5.960614e-02 3.058616e-02 -0.7677 -1260.1395 938.5591)" gradientUnits="userSpaceOnUse">
			<stop  offset="0" style="stop-color:#C5B5B6"/>
			<stop  offset="1" style="stop-color:#B99F9A"/>
		</radialGradient>
		<path id="path6350" inkscape:connector-curvature="0" class="st19" d="M649.4,786.4l-3.7,4.6v133.9h30l3.7-8.7v-90.7l-3-0.7v-33
			l3-5.5h-30V786.4z"/>
		<path id="path6352_1_" inkscape:connector-curvature="0" class="st20" d="M678.7,825.5l305-1.1l0.7-33.4L676,791.7l-0.2,32.7
			L678.7,825.5z"/>
		
			<radialGradient id="path6346_4_" cx="830.4501" cy="2613.915" r="181.7175" gradientTransform="matrix(1 0 0 -8.093024e-02 0 989.1948)" gradientUnits="userSpaceOnUse">
			<stop  offset="0" style="stop-color:#B99F8A"/>
			<stop  offset="1" style="stop-color:#AF8F8D"/>
		</radialGradient>
		<path id="path6346_1_" inkscape:connector-curvature="0" class="st21" d="M649.9,786.8l14.4-19l27,0.2l2.3-3.4l271.6-1.1l2.1,4.1
			l27.2-0.2l16.5,18.5l-29.5-0.5l3.7,5.5L677,791.8l3-5.3L649.9,786.8z"/>
	</g>
	<g id="Man" transform="matrix(0.36978013,0,0,0.36978013,579.13867,117.92768)">
		<path id="path10521" inkscape:connector-curvature="0" class="st22" d="M770,1224.1c0,0,0.7-8.5,2.6-10.6c1.9-2.1,5.7-3.2,6.3-1.4
			c0.6,1.7,2.8,5.3,2.9,7.7c0.1,2.4-2.6,12-1.1,15.7c1.5,3.6,1.8,14.4,1.9,15.3c0.1,0.9-0.3,7.6-3.2,8.1c-3,0.5-5.3,2.3-6.1,1.4
			s-0.1-20.1-1.3-23.5C770.8,1233.3,770,1224.1,770,1224.1L770,1224.1z"/>
		<path id="path10457" inkscape:connector-curvature="0" class="st23" d="M528.1,1381.4c0,0,2.3,29.1-0.3,35s-15.2,64.8-17.8,69.6
			c-2.6,4.9,10.4,59.6,25.3,54.4s37.9-51.8,38.2-57.6s1.9-15.5,3.2-17.8s17.5-55,17.5-56.7s-26.9-15.2-31.7-16.2
			C557.6,1391.1,529.4,1381,528.1,1381.4L528.1,1381.4z"/>
		<path id="path10473" inkscape:connector-curvature="0" class="st24" d="M663.5,1278.4c0,0-3.6,13-5.5,13.6s12.6,49.9,16.2,54.4
			c3.6,4.5,8.7,21.7,19.8,22c11,0.3,18.5,1,23-0.3s9.7-37.9,9.4-39.8s-9.1-5.8-15.2-11S663.5,1278.4,663.5,1278.4z"/>
		<path id="path10455" inkscape:connector-curvature="0" sodipodi:nodetypes="cccssccsscsscssscssccscscssssc" class="st25" d="
			M663.8,1279c0,0-14.2,1.3-17.5,0.6c-3.2-0.6-8.4,4.5-8.4,4.5s-6.5,0.6-10.4,0.6s-5.8,1.3-9.1,1.9s-11,4.5-13.6,5.2
			c-2.6,0.6-13.6,3.9-15.5,6.5s-22.7,18.1-28.5,20.1c-5.8,1.9-26.6,42.1-28.5,49.2s-9.1,11-9.1,11s5.5,2.9,8.1,3.6
			c2,0.5,29.9,8.9,35.3,11c12.7,5.1,26.9,14.6,26.9,14.6s-16.1,52.8-16.2,56c-1.9,74.2-9.1,97.5-1,101.7
			c16.1,8.4,65.1,29.6,81.3,28.2c52.1-4.5,61.2,5.8,69.6,3.2s69.3-35,75.8-39.5s-14.2-118.5-11-126.3s51.8-12.3,55-11.7
			c3.2,0.6,13.6,7.1,13.6,7.1s1.9-42.1,0-51.8c-1.9-9.7-3.9-26.6-8.4-29.8c-4.5-3.2-28.5-31.1-51.2-39.5s-24.6-13-24.6-13
			s-18.1,53.1-25.9,53.8s-27.8,17.5-38.2,18.1s-22.7,0.6-29.1-9.1c-6.5-9.7-18.1-36.9-17.5-42.1
			C666.4,1308.2,659.9,1280.3,663.8,1279L663.8,1279z"/>
		<path id="path10459" inkscape:connector-curvature="0" class="st26" d="M583.2,1497.3c0,0,3.6-4.2,1-7.8
			c-2.6-3.6-6.5-8.1-9.4-10.4s-8.4-6.5-9.4-8.1s-8.1-3.2-11.7-3.2c-3.6,0-30.8,11.3-33.4,11c-2.6-0.3-9.7,7.8-13.6,10.4
			c-3.9,2.6-16.2,9.1-16.8,17.8s2.3,24,8.7,32.7c6.5,8.7,17.5,12.3,23,13.3s14.9,2.3,16.5,3.2s16.5,1,19.4-0.3s20.4-5.2,22.7-8.7
			c2.3-3.6,16.5-13.6,18.8-14.9s9.1-16.2,8.4-18.5s-0.3-6.8-1.9-6.5s-2.6,1-2.9-0.3c-0.3-1.3-2.6-7.4-4.5-6.8s-4.5-0.3-6.2,1.3
			c-1.6,1.6-13,18.5-16.5,19.1c-3.6,0.6-12,4.5-15.9,1s-6.8-6.5-6.8-8.7s-1.3-11,1.3-12.6s6.5-0.3,8.1-1.3s-12.3-12.6-13.3-13
			c-1-0.3,12.6,10.7,15.2,12c2.6,1.3,4.2,2.9,9.4,3.2C578.7,1501.5,582.2,1498.6,583.2,1497.3L583.2,1497.3z"/>
		<path id="path10461" inkscape:connector-curvature="0" sodipodi:nodetypes="ccscssc" class="st27" d="M554.7,1500.2
			c0,0,44.7-1.6,45.7-0.3c1,1.3,2.6,9.7,1.9,13.3c-0.6,3.6-3.6,8.7-5.2,9.1s-39.2-0.3-40.5-0.6s-6.8-10.4-6.5-12.3
			C550.5,1507.3,551.5,1499.9,554.7,1500.2L554.7,1500.2z"/>
		<path id="path10463" inkscape:connector-curvature="0" sodipodi:nodetypes="cssc" class="st11" d="M527.5,1519.3
			c0,0,12.6,12.3,19.1,17.2s7.1,3.2,13.9,3.2s37.6-10,42.1-13.3"/>
		<path id="path10465" inkscape:connector-curvature="0" sodipodi:nodetypes="ccc" class="st11" d="M509.4,1526.4
			c0,0,18.1,21.7,28.5,25.9c7.4,2.6,44.7-7.4,44.7-7.4"/>
		<path id="path10467" inkscape:connector-curvature="0" class="st26" d="M798.9,1426.4c0,0-1.9,53.8,8.4,61.2
			c10.4,7.4,41.1,52.5,43.4,51.5c2.3-1,14.2-21.4,14.2-24.3s0.3-42.1-1.6-47.9s-5.5-24-5.2-28.2s1-12.6,1-12.6s-5.2-8.4-14.9-8.4
			S800.2,1422.2,798.9,1426.4L798.9,1426.4z"/>
		<path id="path10519" inkscape:connector-curvature="0" class="st22" d="M652.3,1242c0,0-3.4-7.8-6-9.2c-2.5-1.4-6.4-1.1-6.4,0.7
			s-0.9,6-0.2,8.2c0.7,2.3,6.4,10.5,6.2,14.4s3,14.2,3.2,15.1s2.7,7.1,5.7,6.6s5.7,0.5,6.2-0.7c0.5-1.1-6.4-19-6.4-22.7
			C654.6,1250.9,652.3,1242,652.3,1242L652.3,1242z"/>
		<path id="path10471" inkscape:connector-curvature="0" sodipodi:nodetypes="csssssccccsssscc" class="st22" d="M708.7,1141.9
			c0,0-29.5,5.2-39.2,11s-17.6,17.7-19.2,24.5s-7.1,19.5-5.8,27.3s7,30.9,7,34.5s3.6,24,5.2,27.2s12.3,25.3,13.9,28.2
			c1.6,2.9,18.8,23,21.4,24.3c2.6,1.3,14.6,11,19.8,11.7c5.2,0.6,13.9,0.3,15.2-0.6c1.3-1,50.2-60.2,46.6-84.5
			c-1.3-8.7-4.5-18.1-4.5-22s-3.2-34.4-3.8-37.7c-0.6-3.2-5.7-19-12.2-24.9s-16.7-10.7-24.8-12.9
			C720.2,1145.6,711,1141.9,708.7,1141.9L708.7,1141.9z"/>
		<path id="path10469" inkscape:connector-curvature="0" class="st26" d="M778.5,1230.8c0,0-5.8-0.6-6.8,3.6s-1.3,13-1.3,13
			s0-2.3-2.3,0s-4.9,10.4-5.8,14.2c-1,3.9-4.2,10.7-5.2,16.2c-1,5.5-2.6,9.1-2.6,10.7s-5.8,6.5-8.1,10.7s-18.1,19.8-21.4,26.2
			c-3.2,6.5-7.4,11.7-8.4,13.3s-1.6,6.2-0.6,12s4.9,20.1,5.8,24c1,3.9,20.7,52.8,22,58s23.6,60.9,25.6,64.1
			c1.9,3.2,25.3,38.5,30.4,43.7s6.8,11.7,9.7,13.3c2.9,1.6,33.7,1,34.6-1.3c1-2.3,11-17.5,13.6-23.3s7.4-10,6.2-12.3
			c-1.3-2.3-4.5-21-12-30.4c-7.4-9.4-42.4-42.4-44.7-46.6s-38.5-55-41.1-59.9s-6.8-11-6.5-13.6s-1.9-5.8-3.2-8.1s-1-9.7,0.3-10.7
			s18.5-24.6,20.4-25.9s0.6-17.2,0.6-19.1s1.6-18.8,2.6-21.4c1-2.6-1-25.6-0.6-30.4S778.1,1232.4,778.5,1230.8L778.5,1230.8z"/>
		<path id="path10475" inkscape:connector-curvature="0" sodipodi:nodetypes="cccssccc" class="st28" d="M712.7,1291
			c0,0-5.2-0.8-9.7-0.3c-2.6,1.6-6.5,3.6-3.6,4.9s7.6,3.2,8.4,0.8c1.6-4.7,4.9-5.7,7.1-5.7s5.5-0.3,7.1-1.3s6.2-1.8,8.4-2.8
			c2.3-1,9.1-0.2,9.4-1.5"/>
		<path id="path10479" inkscape:connector-curvature="0" class="st29" d="M691.8,1297.8c0,0,2.8,0,3.9,1.6s0.8,3.9,0.8,3.9l10.8-6.5
			c0,0,0.2-1.5-0.8-2.9c-1-1.5-3.9-2.6-3.9-2.6L691.8,1297.8z"/>
		<path id="path10481" inkscape:connector-curvature="0" class="st30" d="M671.4,1309l21-12c0,0,3.7-0.2,4.7,1.1c1,1.3,1,4.2,1,4.2
			l-21.9,13.4l-2.9-5.3L671.4,1309z"/>
		
			<radialGradient id="path10483_1_" cx="672.9502" cy="1312.7505" r="1.1351" gradientTransform="matrix(6.911926e-03 0 0 -9.571525e-03 5562.4365 1060.2029)" gradientUnits="userSpaceOnUse">
			<stop  offset="0" style="stop-color:#FFEBF2"/>
			<stop  offset="0.3262" style="stop-color:#FBDB26"/>
			<stop  offset="0.6525" style="stop-color:#F79D26"/>
			<stop  offset="1" style="stop-color:#F04500"/>
		</radialGradient>
		<path id="path10483" inkscape:connector-curvature="0" sodipodi:nodetypes="ccccc" class="st31" d="M670.6,1309.1c0,0,0,2.1,1,4.4
			s3.7,2.9,3.7,2.9s-1-4.2-1.5-5C673.4,1310.6,670.6,1309.1,670.6,1309.1z"/>
		<path id="path10477" inkscape:connector-curvature="0" sodipodi:nodetypes="ccsccsc" class="st11" d="M704,1290.7l-32.4,18.5
			c0,0,1.2,0.8,2.9,3.6c1.1,1.8,1.3,3.2,1.3,3.2l31.2-18.9c0,0,1.5-0.2-0.4-3.8C704.6,1289.7,704,1290.7,704,1290.7L704,1290.7z"/>
		<path id="path10493" inkscape:connector-curvature="0" sodipodi:nodetypes="cscsccc" class="st32" d="M725.4,1235.3
			c0,0,4.6-5,6.2-6c1.6-0.9,6.2-2.3,9.2-1.8s7.8,3.4,8.9,3.4c1.1,0-3.4,3.9-4.6,4.4c-1.1,0.5-7.1,2.3-10.1,2.1
			C731.6,1236.9,727,1236.2,725.4,1235.3z"/>
		<path id="path10495" inkscape:connector-curvature="0" sodipodi:nodetypes="cscsccc" class="st32" d="M674.1,1241
			c0,0,5-4.6,6.6-5.5s6.2-2.3,9.2-1.8s8,5.3,9.2,5.3c1.1,0-3.7,2.1-4.8,2.5c-1.1,0.5-7.1,2.3-10.1,2.1
			C680.7,1243.1,675.7,1242,674.1,1241L674.1,1241z"/>
		<path id="path10497" inkscape:connector-curvature="0" class="st33" d="M681,1235.8c0,0-0.2,3.7,1.4,5c1.6,1.4,4.6,1.4,6.2,0.7
			c1.6-0.7,2.1-3.2,2.1-5s-1.1-3-1.1-3s-5.3,0.7-6.6,1.1C681.4,1235.1,681,1235.8,681,1235.8L681,1235.8z"/>
		<path id="path10499" inkscape:connector-curvature="0" sodipodi:nodetypes="ccssccc" class="st33" d="M732.7,1229.6
			c0,0-0.2,3.7,1.4,5c1.6,1.4,4.6,1.4,6.2,0.7c1.6-0.7,2.1-3.2,2.1-5s-0.5-2.5-0.5-2.5s-3.9-0.5-5.3,0
			C735.2,1228.2,732.7,1229.6,732.7,1229.6L732.7,1229.6z"/>
		<path id="path10501" inkscape:connector-curvature="0" class="st34" d="M719.7,1225.2l3,5.5c0,0,16.5-9.6,21.1-9.6
			s12.8,2.7,13.7,3.4c0.9,0.7-7.3-6-9.4-6.4c-2.1-0.5-8.9-1.6-11-0.9S719.7,1225.2,719.7,1225.2L719.7,1225.2z"/>
		<path id="path10511" inkscape:connector-curvature="0" class="st34" d="M702.5,1227.3l-1.1,6.2c0,0-18.7-4-23-2.5
			c-4.3,1.4-11.3,6.6-12,7.6s5.1-7.9,6.9-9c1.8-1.1,8-4.3,10.2-4.3C685.6,1225.1,702.5,1227.3,702.5,1227.3z"/>
		<path id="path10513" inkscape:connector-curvature="0" class="st11" d="M706.8,1239c0,0,6,14.4,5.3,18.5"/>
		<path id="path10515" inkscape:connector-curvature="0" class="st11" d="M705,1271.9c0,0,1.4,3.2,3.4,2.7c2.1-0.5,3.7-3,5.5-2.1
			s1.6,3.4,4.1,3c2.5-0.5,3.9-4.6,5.7-4.6s3.9,2.3,5.5,1.6c1.6-0.7,3-3.7,3-3.7"/>
		<path id="path10517" inkscape:connector-curvature="0" sodipodi:nodetypes="csccsccsscssssssssssc" class="st34" d="M652.6,1246.5
			c0,0,1.8-35.7,0.5-43.3s-3-19.9,0.7-22.9s8.5-13.1,15.6-11s28.9,14.4,35.3,12.6s22-11.7,23.6-15.3c1.6-3.7,6-8.5,9.8-6.6
			s15.8,8.2,17.6,17.4c1.8,9.2,6,36.4,8.2,39.8s5.3,8.5,5.3,8.5s0.5-33.7,0.5-35s-1.6-12.1-3.2-15.3c-1.6-3.2-7.5-15.2-17.9-23.4
			c-9.2-7.2-29.3-12.8-36.6-12.8s-38.5,6.4-41.7,9.2s-11.2,8.7-15.1,13.1c-3.9,4.4-8.2,15.8-10.1,19.9s-4.4,18.5-4.1,21.1
			c0.2,2.5,3,12.6,3.7,14.9s7.3,20.8,7.3,22C651.9,1240.3,652.6,1246.5,652.6,1246.5L652.6,1246.5z"/>
		<path id="path10529" inkscape:connector-curvature="0" class="st35" d="M539.5,1927c0,0-24.3,41.7-29.8,44.4
			c-5.5,2.7-21.5,13.7-22.4,16.9s-2.7,10.5-5.5,13.7s-5.5,2.7-4.6,7.3c0.9,4.6,4.6,12.4,4.6,12.4s16.5,6.9,23.4,8.2
			c6.9,1.4,22.9,4.1,29.8,2.7c6.9-1.4,28.4-9.2,30.2-12.4c1.8-3.2,8.2-18.8,8.2-18.8s10.5-7.3,14.7-7.3s24.7-6.9,25.6-9.2
			s5-14.7,5-18.8c0-4.1-1.4-22.9-1.4-22.9s-23.4-23.4-29.8-22S541.8,1923.4,539.5,1927L539.5,1927z"/>
		<path id="path10531" inkscape:connector-curvature="0" class="st35" d="M764.8,1942.6c0,0-2.3,24.3-1.8,30.2s4.1,14.2,4.1,14.2
			s10.5,5.5,10.5,7.8s-0.9,17.9,3.2,23.4c4.1,5.5,4.6,12.4,11.4,14.2s17.9,3.2,21.1,2.7c3.2-0.5,36.2-2.7,41.2-1.8s11.4-5,12.4-8.2
			c0.9-3.2,1.8-17.4,0-21.1s-11.9-17.4-12.8-20.6c-0.9-3.2-13.3-19.2-14.2-25.6s-3.7-19.2-3.2-21.1c0.5-1.8-8.2-13.7-16.9-12.8
			c-8.7,0.9-32.1,0.9-38.5,4.6C774.8,1932.1,765.2,1938,764.8,1942.6z"/>
		<path id="path10523" inkscape:connector-curvature="0" class="st36" d="M526.6,1550.6c0,0-18.8-1.4-23.8,1.4
			c-5,2.7-11.4,7.3-13.7,11.9c-2.3,4.6-8.7,11-8.7,11s-4.1,3.2-5,11.9s-4.6,27.5-3.2,32.1s8.2,13.7,7.8,16.5s1.4,40.8,2.7,48.1
			c1.4,7.3,6.4,43,8.7,49.5s15.1,47.6,15.1,50.8c0,3.2,8.2,42.6,8.2,42.6s-1.8,13.3-1.4,15.6c0.5,2.3,2.3,28.4,4.6,32.1
			s4.1,16,6,19.2c1.8,3.2,8.7,7.8,10.5,7.3s0.9,1.8,0.9,4.1s1.4,6.9,2.7,8.7c1.4,1.8,2.7,14.7,2.7,14.7s6.4-1.8,9.2-2.3
			c2.7-0.5,27-0.9,32.1,2.3s10.1,9.6,17.9,12.4c7.8,2.7,17.9,2.7,17.9,2.7l0.9-6.9c0,0,8.2-13.7,8.7-17.4c0.5-3.7-5-11.4-5-15.6
			c0-4.1-0.5-14.2-0.5-14.2s6.9-2.7,6.9-5.5c0-2.7-2.3-17.4-4.1-21.5s-9.6-63.7-12.4-68.7c-2.7-5-3.7-51.7-6-55.9
			c-2.3-4.1-15.1-54.5-16-57.7s15.1,3.2,19.7,3.2s141.5,0.9,141.5,0.9l28.9-3.7c0,0,0,11-0.9,16s-9.2,40.3-9.2,46.7
			c0,6.4-0.9,51.7-0.5,58.2s4.6,26.6,1.8,30.7c-2.7,4.1-9.2,22.4-11.4,24.3s-6.9,11-6.4,15.6s11.9,17.9,11.4,21.1s-5.5,7.8-6.9,11.9
			s-3.7,11.9-2.3,17.9s3.7,4.6,3.7,8.2c0,3.7,3.7,13.3,3.7,13.3s10.5-8.2,12.8-7.8c2.3,0.5,13.7-7.3,17.9-7.3s24.3-0.9,30.2,0.9
			c6,1.8,12.4,7.8,12.4,7.8s5-3.7,6-8.7c0.9-5,4.6-15.1,3.7-18.3s-6-11.9-6-11.9l6.9-19.2c0,0,8.2-31.6,11.4-34.8
			c3.2-3.2,6.9-14.7,6.4-16.9s2.3-40.8,3.2-44s-0.5-12.4,1.8-16.5s13.3-44.9,12.8-48.5c-0.5-3.7,6.4-64.1,4.6-70.1
			c-1.8-6-0.5-9.2-0.5-12.8c0-3.7-4.1-6.4-3.2-9.2s6-10.5,6.4-12.4s-2.3-25.2-4.6-28.9c-2.3-3.7-13.7-20.6-18.3-25.2
			s-24.7-11.4-29.3-10.5s-29.8,3.2-32.1,5.5s-62.7,36.6-67.8,37.6c-5,0.9-34.3-0.9-42.6-1.8s-39.4,2.3-47.6,0.5
			c-8.2-1.8-60.9-20.6-65.5-22.9s-11.4-6.4-14.7-8.2S524.8,1549.7,526.6,1550.6L526.6,1550.6z"/>
		<path id="path10525" inkscape:connector-curvature="0" class="st11" d="M589.4,1677.9c0,0-12.8-51.3-11.4-55.4"/>
		<path id="path10527" inkscape:connector-curvature="0" class="st11" d="M780.3,1679.3c0,0,9.6-47.6,5.5-55"/>
		
			<linearGradient id="path10610_1_" gradientUnits="userSpaceOnUse" x1="1394.1617" y1="34026.7109" x2="1380.045" y2="34071.2344" gradientTransform="matrix(0.1126 0 0 -3.897483e-02 520.3557 2643.4875)">
			<stop  offset="0" style="stop-color:#6E6E6E"/>
			<stop  offset="1" style="stop-color:#AFAFAF;stop-opacity:0.2357"/>
		</linearGradient>
		<path id="path10610" inkscape:connector-curvature="0" class="st37" d="M483.4,1089.2c0,0,89.6,41.1,44.8,56.6s-58,63.9-15.8,76.7
			c42.2,12.8,121.3,19.2,118.7,45.6c-2.6,26.5,26.4,43.8,39.6,44.7c13.2,0.9-39.6-9.1-26.4-27.4c13.2-18.3,21.1-31,10.5-37.4
			c-10.5-6.4-60.6-29.2-84.4-30.1c-23.7-0.9-63.3-16.4-60.6-21.9c2.6-5.5-13.2-27.4,23.7-37.4c36.9-10,76.5-21,55.4-30.1
			S536.2,1098.4,483.4,1089.2L483.4,1089.2z"/>
		<path id="path6352" inkscape:connector-curvature="0" class="st20" d="M270.3,1913l824.8-3l1.9-90.3l-834,1.9l-0.5,88.4
			L270.3,1913z"/>
		
			<radialGradient id="path6346_5_" cx="-17808.9492" cy="48370.457" r="181.6136" gradientTransform="matrix(0.1367 0 0 -1.106619e-02 3116.2295 2318.8311)" gradientUnits="userSpaceOnUse">
			<stop  offset="0" style="stop-color:#B99F8A"/>
			<stop  offset="1" style="stop-color:#AF8F8D"/>
		</radialGradient>
		<path id="path6346_2_" inkscape:connector-curvature="0" class="st38" d="M192.7,1808.3l38.9-51.4l73,0.5l6.2-9.2l734.5-3
			l5.7,11.1l73.6-0.5l44.6,50l-79.8-1.4l10,14.9l-833.5,2.4l8.1-14.3L192.7,1808.3z"/>
		<g id="Ashtray" transform="matrix(0.49921396,0,0,0.60805085,683.99052,710.30129)">
			<g id="g9667" transform="translate(2.5676714,-234.45984)">
				<g id="g4305" transform="matrix(0.22428884,0,0,0.22428884,-47.717841,222.26023)">
					<g id="g4278" transform="translate(106.06601,9.0913723)">
						<path id="path4269" inkscape:connector-curvature="0" class="st39" d="M-3151.3,7611.7c0,0,192.8-69.5,357.8-71.1
							c134.7-1.4,344.3-8.1,510.8,79.2c0,0-84.6,235-95.7,265c-10.8,30-661.2-8.1-661.2-8.1S-3099.4,7797.5-3151.3,7611.7z"/>
						<path id="path4267" inkscape:connector-curvature="0" class="st40" d="M-3151.3,7626.7v284.2c0,0,360.5,211.7,871.3,8.1
							v-289.6l-163.9,57.3c-9.5,163.6-117.4,133.1-126.6,24.1C-2570.4,7710.8-2930.4,7734.1-3151.3,7626.7z"/>
					</g>
					<g id="g4282" transform="matrix(0.99554896,-0.09424574,0.09424574,0.99554896,74.251963,48.473931)">
						<g id="g4296" transform="matrix(0.37349181,-0.92763348,0.92763348,0.37349181,-48.532115,983.05133)">
							<g id="g4275">
								<path id="path4271" inkscape:connector-curvature="0" class="st32" d="M-7184.7-903.4v751.3c0,0,51.9,46.5,90.1-2.7V-898
									C-7094.7-898-7138.5-938.8-7184.7-903.4z"/>
							</g>
							<path id="path4273" inkscape:connector-curvature="0" class="st41" d="M-7185.2-288.7c0,0,47.1,40.3,90.9-2.7v133.9
								c0,0-30,58.1-90.1,2.7C-7184.7-220.6-7185.2-288.7-7185.2-288.7z"/>
						</g>
					</g>
					<path id="path4301" inkscape:connector-curvature="0" class="st40" d="M-2602.2,7723.2c0,0,129.5,3,136.3-3.8
						s1.9,89.8,70.6,91.7c68.7,1.9-78.2,150.6-78.2,150.6s-214.5-112-165.2-143.1C-2589.5,7788.1-2602.2,7723.2-2602.2,7723.2z"/>
					<path id="path4303" inkscape:connector-curvature="0" class="st42" d="M-2587.7,7733.2c0,0-6.2,2-27,0
						c-62.7-6-117.9,114.9-104.4,140.1c13.5,25.1,248.3,127.4,265.6,116c17.3-11.6,129.5-143.9,126.6-164.2c-3-20.3-106,1.1-106,1.1
						s10.6,86.8-41.6,81.9s-105.9-125.4-97.2-134.3S-2587.7,7733.2-2587.7,7733.2z"/>
				</g>
			</g>
			<g id="layer2-8" transform="translate(-8.8609,114.11159)">
			</g>
			<g id="layer1-5" transform="translate(-8.8609,114.11159)">
			</g>
		</g>
	</g>
	<g id="Door">
		<path id="path6416" inkscape:connector-curvature="0" class="st43" d="M1486.5,924V312.4l-143.7,48.3v481.5L1486.5,924z"/>
		
			<radialGradient id="path6418_1_" cx="512.9085" cy="502.6423" r="14.4278" gradientTransform="matrix(0.6642 0 0 -1.0342 1128.1071 1144.7327)" gradientUnits="userSpaceOnUse">
			<stop  offset="0" style="stop-color:#FFF400"/>
			<stop  offset="1" style="stop-color:#E97B00"/>
		</radialGradient>
		
			<path id="path6418" sodipodi:cx="1467.2146" sodipodi:cy="627.43823" sodipodi:end="6.2725213" sodipodi:open="true" sodipodi:rx="10.342377" sodipodi:ry="16.101948" sodipodi:start="6.2776875" sodipodi:type="arc" class="st44" d="
			M1477.6,624.8c0,7.5-3.9,13.6-8.7,13.7c-4.8,0.1-8.8-6-8.8-13.5s3.8-13.6,8.6-13.7C1473.5,611.2,1477.5,617.3,1477.6,624.8"/>
	</g>
	<g id="ShelfePlace">
		<path id="path4934_1_" inkscape:connector-curvature="0" class="st45" d="M166.7,702.4v-39.9h132.8l0.2,39.9H166.7z"/>
		<path id="path4936_1_" inkscape:connector-curvature="0" sodipodi:nodetypes="ccccc" class="st46" d="M166.3,662.2l227.3-40.8
			l76,0.9l-169.9,39.9L166.3,662.2L166.3,662.2z"/>
		<path id="path4938_1_" inkscape:connector-curvature="0" sodipodi:nodetypes="ccccc" class="st47" d="M299.7,702.4l169.6-49.1
			l0.3-31.1l-169.9,40V702.4z"/>
	</g>
	<g id="Fireplace">
		<path id="path4934" inkscape:connector-curvature="0" class="st45" d="M164.9,942.5V662.2h132.8v280.3H164.9z"/>
		<path id="path4936" inkscape:connector-curvature="0" sodipodi:nodetypes="ccccc" class="st46" d="M164.5,661.8L391.8,621h79.7
			l-173.6,40.8H164.5z"/>
		<path id="path4938" inkscape:connector-curvature="0" sodipodi:nodetypes="ccccc" class="st47" d="M297.9,941.6L470.2,825l0.6-204
			l-172.9,40.8L297.9,941.6L297.9,941.6z"/>
		<path id="path5898" inkscape:connector-curvature="0" sodipodi:nodetypes="ccccc" class="st48" d="M340,912.1l0.6-158l109.5-44
			v127.6L340,912.1z"/>
		<path id="path6113" inkscape:connector-curvature="0" sodipodi:nodetypes="ccsccsc" class="st49" d="M340,861.3l57.6-36.9
			c0,0,6.5-3.9,12.3,3.9s0,12.3,0,12.3l-55.7,37.6c0,0,1.9-3.2-4.5-11S340,861.3,340,861.3L340,861.3z"/>
		
			<radialGradient id="path5911_1_" cx="-24.2938" cy="496.4906" r="41.5498" gradientTransform="matrix(0.8257 1.847300e-02 2.673571e-02 -1.1951 387.9958 1438.0514)" gradientUnits="userSpaceOnUse">
			<stop  offset="0" style="stop-color:#FFEBF2"/>
			<stop  offset="0.3262" style="stop-color:#FBDB26"/>
			<stop  offset="0.6525" style="stop-color:#F79D26"/>
			<stop  offset="1" style="stop-color:#F04500"/>
		</radialGradient>
		<path id="path5911" inkscape:connector-curvature="0" class="st50" d="M359.3,808.5c0,0-9,21.4-9,27.6s1.4,19,6.7,22.3
			s16.2,4.3,17.6,3.8s10.9,1,12.4,0c1.4-1,9.5,0,13.3-1.9s10.5-7.6,10.9-13.8c0.5-6.2,0-15.7-4.3-23.8s-8.6-15.2-8.6-15.2
			s-1.9,11.4-4.8,11.9s-8.1-9.5-9.5-13.8s-4.8-13.8-3.8-15.7s-14.7,26.6-15.2,32.8C364.5,828.9,358.8,811.3,359.3,808.5L359.3,808.5
			z"/>
		<path id="path6115" inkscape:connector-curvature="0" sodipodi:nodetypes="ccsccsc" class="st49" d="M352.3,874.9L410,838
			c0,0,6.5-3.9,12.3,3.9s0,12.3,0,12.3l-55.7,37.6c0,0,1.9-3.2-4.5-11S352.3,874.9,352.3,874.9L352.3,874.9z"/>
	</g>
	<g id="Lamp" transform="matrix(2.1458667,0,0,2.1458667,-633.52575,-358.76078)">
		<g id="layer1-5-9" transform="translate(-23.146657,11.254371)">
			<g id="g4734" transform="matrix(0.29557483,0,0,0.29557483,363.95629,274.36555)">
				
					<linearGradient id="path3926_1_" gradientUnits="userSpaceOnUse" x1="-21470.9785" y1="3238.1582" x2="-21425.3379" y2="3238.1582" gradientTransform="matrix(0.1027 0 0 -0.1027 2457.1423 893.3813)">
					<stop  offset="0" style="stop-color:#000000"/>
					<stop  offset="1" style="stop-color:#4E413B"/>
				</linearGradient>
				<path id="path3926" inkscape:connector-curvature="0" class="st51" d="M271.8,488.1v8.2h-9.3c0,0,5.4,3.2,7.1,2.5
					s-1.1,2.9,2.1,3.2s-3.2,1.1,0,2.1c3.2,1.1-5,1.4-1.8,1.4s1.8,2.1,1.8,2.1v93.6c0,0-1.4-0.7-1.1,0.7s1.8,2.5,1.8,2.5
					s-1.4,1.8-2.5,3.2s-5.7,6.8-7.5,8.2c-1.8,1.4-5.5,2.7-8.2,4.6c-0.9,3.6-1.1,10.7-1.1,10.7s8.2,3,11.6,3c2.5,0,31.2,1.5,32.7-3.2
					c0.9-2.9-0.2-10.5-0.2-10.5s-6.6-3.4-8.9-4.5c-2.3-1-6.8-7.5-6.8-7.5l-1.2-1.6l-2.5-2.9l1.4-1.6l-1.1-2.3v-94.3l3.5-0.3
					c0,0-6.9-0.9-1.9-2c0.7-0.2-1.6-1.7-1.6-1.7s3.2-1.4,2.1-2.5s6.8-3.2,6.8-3.2h-10v-8.6L271.8,488.1z"/>
				
					<radialGradient id="path3924_1_" cx="-21253.668" cy="5664.7334" r="48.3724" gradientTransform="matrix(0.1027 0 0 -7.014962e-02 2457.1423 853.2251)" gradientUnits="userSpaceOnUse">
					<stop  offset="0" style="stop-color:#FFAA00"/>
					<stop  offset="1" style="stop-color:#8E392E"/>
				</radialGradient>
				<path id="path3924" inkscape:connector-curvature="0" class="st52" d="M238.9,427l-11.8,61.4h95.7L311,426.6
					C311.1,426.6,269.1,418.9,238.9,427z"/>
			</g>
		</g>
	</g>
	<g id="Dog" transform="matrix(0.57733876,0,0,0.57733876,209.89548,737.73202)">
		<g id="g9657" transform="translate(-23.146657,11.254371)">
			<g id="g4778" transform="translate(186.07143,-425.35714)">
				<path id="path4316" inkscape:connector-curvature="0" class="st53" d="M411.1,718.5c0,0,12.9-2,24.5-1s32.6,3.5,34.1,6.1
					s7.1,9.1,9.3,9.8c2.3,0.8,24.2,5.8,30.6,5.3c6.3-0.5,13.1,1.3,16.2-0.8s7.1-2.5,6.8-3.5s-2.5-7.1-2.5-7.1s-4.5-8.6-6.8-9.1
					s-8.1,0-8.1-1.3s-9.1-2.8-9.1-2.8s-4.3-1.8-6.1-2.5s-9.6-4-9.6-4l-5.1-5.3c0,0,1.3-11.1-2.3-17.2c-3.5-6.1-7.8-22.2-15.4-30.6
					c-7.6-8.3-10.6-13.4-10.9-15.9s-3.3-17.4-5.1-19.7c-1.8-2.3,3.3-10.4,5.3-10.4s-6.1-11.9-6.1-14.1c0-2.3-6.6-14.4-5.3-18.4
					c1.3-4,1.8-25.8-0.5-27.8s0.5,1.3,1.8,0.3s8.1,1,11.4-2s17.9-28.3,18.2-29c0.3-0.8-2.5-9.6-4.5-10.4s-12.4-8.3-12.4-8.3
					s-12.1-11.4-12.6-13.4s-3.3-8.1-6.6-8.8c-3.3-0.8-10.6-1.5-10.9,0s-7.3-3.8-8.3-3.8s-11.9-5.6-19.2-5.8s-24.2,2.8-27.8,4.3
					c-2.5,1.1-18,7.8-26,17.2c-1.5,1.8-9.6,2.5-11.1,7.6c-2.5,8.2-7.6,16.9-14.4,22.7s-1.8,19.2,0,21s15.5,18.7,15.9,20
					c0.8,2,8.3,1.3,8.6-0.3s-1.8,19.4-3.3,19.7s-3.3,8.8-3,9.1s-5.1,1-7.1,2.8s-11.6-0.3-12.1,0.8c-0.5,1-3,4.5-4.8,5.6
					s-8.6-1.5-11.9,1c-3.3,2.5-20.7,10.6-22.5,13.1s-16.2,18.7-15.4,20.2c0.8,1.5-13.9,11.1-12.9,15.9c1,4.8,2,21,10.6,24.7
					c8.6,3.8,12.6,11.4,12.1,12.9s-6.8-5.6-8.3-5.6s-4.3-4.3-8.8-4s-18.4,3.5-24,8.1S222,700.3,219,700.6c-3,0.3,62.6,0.3,62.6,0.3
					s11.9-0.3,15.4,1.8s13.6,11.6,19.7,10.4s7.7-1.4,9-0.1s-1.1,5.7,6.4,8.5s39.6,11.6,42.4,13.9c2.4,1.9,18.2,7.8,18.9,10.9
					c0.8,3,16.7,3.5,16.7,3.5s3,4.5,6.8,4.5s9.3,2.8,13.1,2.3s12.6,3.3,13.6,0.8s7.6,3,8.8,0.5s3.5-1.5,4.3-3s3.8-13.1,0-16.4
					s1-3.8-0.5-4.8s-9.8-5.1-11.6-4.5c-1.8,0.5-15.4-2.3-20-1.5c-4.5,0.8-3.3-3.8-6.3-4.8S411.1,718.5,411.1,718.5L411.1,718.5z"/>
				<path id="path4318" inkscape:connector-curvature="0" class="st11" d="M341.4,635.4c0,0-11.7,56.6-15,60.9
					c-2.1,2.7-1.3,13.3,0.1,20.2"/>
				<path id="path4320" inkscape:connector-curvature="0" class="st11" d="M393.9,682.4c0,0-23.9,10-23.6,12.5
					c0.4,2.5-8.9-3.2-15.4-1.4"/>
				<path id="path4322" inkscape:connector-curvature="0" class="st11" d="M411.1,718.6c0,0-23.8-7.5-25.5-9.5s-15.7-13.9-15.7-13.9
					"/>
				<path id="path4324" inkscape:connector-curvature="0" class="st11" d="M440,677c0,0,20,10.7,23.2,7.7s12.5-4.5,12.9-3.6"/>
				<path id="path4326" inkscape:connector-curvature="0" class="st11" d="M462.5,684.9c0,0-6.7,12.7-6.4,20.7
					c0.2,6.3,10.2,17,13.4,17.5"/>
				<path id="path4328" inkscape:connector-curvature="0" class="st11" d="M281.1,700.8c0,0-4.1-4.1-3.4-5.4s-0.7-7.5,1.8-9.3
					s2.9-3.9,5-2.7s5.4,0.4,6.4,3.4c1.1,3,4.5,8.2,4.3,10.4c-0.2,2.1,0.2,4.8,0.2,4.8S283.2,700.2,281.1,700.8L281.1,700.8z"/>
				<path id="path4330" inkscape:connector-curvature="0" class="st28" d="M367.1,541.5c0,0,7,8,7.7,6.8s4.5-1.8,5.7-5.4
					s7.5-6.4,8.4-5.4s10.5,3.4,13.6,7c3,3.6,12.9-3.2,13.4-4.6s6.1-4.1,6.2-1.1s-5.2,19.1-8.6,20.5s-8.2,4.5-11.8,9.3
					c-3.6,4.8-21.1,2.7-20.5,0.5c0.5-2.1-2.9-8.6-4.5-8s-5.2-9.5-5.2-9.5L367.1,541.5z"/>
				
					<radialGradient id="path4332_1_" cx="14829.0479" cy="17259.4258" r="14.2919" gradientTransform="matrix(-5.167964e-03 -6.391140e-02 -0.1706 1.378779e-02 3408.1111 1223.9871)" gradientUnits="userSpaceOnUse">
					<stop  offset="0" style="stop-color:#916F6F"/>
					<stop  offset="1" style="stop-color:#532100"/>
				</radialGradient>
				<path id="path4332" inkscape:connector-curvature="0" class="st54" d="M388.6,536.6l-0.5-5c0,0-7.7-2.5-8.4-3.4
					s-5.9-4.1-5.9-6.4c0-2.3,1.4-7.5,2.3-7.5s4.3-5.2,7-4.5s9.5-1.2,10.7,0.2c1.2,1.4,5.2,2.9,5.5,4.8s2.5,2,2,4.3s-4.8,9.3-8,10.5
					s-5.2,2-5.2,2L388.6,536.6z"/>
				<path id="path4334" inkscape:connector-curvature="0" class="st55" d="M374.8,500.6c0,0-2.5,0.2-2.5-0.5s-1.1-3-2.9-4.1
					c-0.9-0.6-4.1-1.2-5.6,2c-1.7,3.4-1.5,4.3-1.5,4.3s1.6,0.5,2.5,1.4s3,1.4,4.5,0.7c1.7-0.4,3-1,3-2.1
					C372.3,501.1,374.8,500.6,374.8,500.6z"/>
				<path id="path4336" inkscape:connector-curvature="0" class="st55" d="M407,498.1c0,0,0.5-1.8,1.4-2.8c1.1-1.2,1.4-1.9,2.8-2.3
					s2.2-0.3,4.4,0.6c1.3,0.6,2.4,2.2,3,2.7c1,0.7,2,2.8,2.9,2.6c0.9-0.2-3.5,1.1-4.3,1.8c-0.8,0.7-3.1,1.1-4.4,0.8
					c-1.2-0.3-2.6-0.9-3.2-1.3C408.3,499.4,407.7,497.5,407,498.1z"/>
				<path id="path4338" inkscape:connector-curvature="0" class="st11" d="M347,559.1c0,0,5.2-7.1,3.8-10.7s-2-18.6-1.6-21.8
					c0.2-2.1,0.1-25,0.4-26.1c0.4-1.6,2.1-7.9,4.1-10.9c1.6-2.3,4.1-5.3,6.1-7.7c1.6-2,4.5-5.7,4.5-5.7"/>
				<path id="path4340" inkscape:connector-curvature="0" class="st11" d="M429.1,477c0,0,9.1,15.4,9.5,21.6s3.8,21.4,2.9,23.2
					s-2.1,15.7-0.4,19.1c1.8,3.4,1.6,5.9,3.6,7"/>
				<path id="path4342" inkscape:connector-curvature="0" class="st11" d="M355,545.8c0,0,8.7,11.4,13.2,15.2
					c6.8,5.7,7.3,9.8,9.1,10c1.8,0.2,5.8,3.3,10.2,3.9c4.3,0.6,10.1,1.4,13.6,0c4.2-1.7,6.3-4.7,8.6-6.8c3-2.9,10.2-11.1,11.8-12.5
					s6.6-5.9,8.4-7.7c2-2,5-3.9,7.5-6.8"/>
				<path id="path4368" inkscape:connector-curvature="0" class="st56" d="M378,545.5l0.5,2.8c0,0-1.6,2.9-1.4,3.5
					c0.3,0.6-2.7,0.9-2.8,1.9c-0.1,1,0.6,4.4,2,4.4s1.9,0.5,2.1,1.4c0.3,0.9,1.5,4.3,2.4,4.2s2.5,1.6,4,1.1s4.8-1.9,5.9-1.3
					c1.1,0.6,4.8,0.8,5.6,0.4c0.8-0.4,4.3-1.8,4.3-3.2s3.3-4,3.3-4s1.9-6.2,1.3-6.6s3.9-2.1,4-2.9c0.1-0.8,1.1-3.4,1.8-3.3
					c0.6,0.1-4.8,1.5-6.4,1.4s-4.3,2.1-5.2,3.2s-5.7-1.3-8.1,1.4s0.5-0.9-0.8-0.5s-4.5-2.7-8.5-0.8c-3.9,1.9-4.5,1.3-4.5,1.3l1-1.9
					L378,545.5z"/>
				<path id="path4370" inkscape:connector-curvature="0" class="st11" d="M388,531.4l-0.8-14.4"/>
				
					<ellipse id="path4372" transform="matrix(-0.2018 0.9794 -0.9794 -0.2018 967.2272 253.3356)" class="st28" cx="380.4" cy="520.8" rx="1.2" ry="3.5"/>
				<circle id="path4405" class="st28" cx="393.3" cy="520.1" r="0.8"/>
				
					<ellipse id="path4417" transform="matrix(-0.2018 0.9794 -0.9794 -0.2018 932.3246 241.1836)" class="st57" cx="367.9" cy="500.5" rx="0.8" ry="2.8"/>
				
					<ellipse id="path4419" transform="matrix(-0.2018 0.9794 -0.9794 -0.2018 983.5024 193.6596)" class="st58" cx="412.8" cy="497.6" rx="0.9" ry="2.4"/>
				<path id="path4727" inkscape:connector-curvature="0" class="st11" d="M430,752.9c0,0,3.2,5.7,2.9,7.1c-0.4,1.4,1.2-6.2-0.4-6.8
					S430,752.9,430,752.9z"/>
				<path id="path4729" inkscape:connector-curvature="0" class="st11" d="M447.5,753.6c0,0,3.2,3.9,2.5,5.2s2.1-3.8,0.9-4.1
					c-1.2-0.4-2.7-1.1-2.7-1.1L447.5,753.6z"/>
				<path id="path4731" inkscape:connector-curvature="0" class="st11" d="M454.3,750c0,0,4.3,4.3,3.8,5.2s1.6-5.2,0.4-5.4
					S454.3,750,454.3,750z"/>
			</g>
		</g>
	</g>
	<g id="Plant_1_" transform="matrix(0.57727261,0,0,0.57727261,228.73184,422.45885)">
		<g id="Plant" transform="translate(-23.146657,11.254371)">
			<g id="g4542" transform="translate(23.571429,-149.28571)">
				<path id="path4530" inkscape:connector-curvature="0" class="st59" d="M116.8,463.1l8,17.7l59.8,0.5l6.6-18.6
					c0,0-16.1-5-37.9-4.3C139.1,458.1,125.5,458.8,116.8,463.1L116.8,463.1z"/>
				<path id="path4522" inkscape:connector-curvature="0" class="st60" d="M152.7,469.5c0,0-1.1-25.5-1.2-28.4
					c-0.1-1.7,0-8.2-2.1-13.8c-1.2-3-4.5-5.9-4.5-5.9s-7.2-1.1-10.5-2.7c-3-1.4-4.8-1.4-8.4-7.5c-3.6-6.1-2.9-5-4.8-8.8
					c-1.1-2.3-2.1-5.2-4.3-9.5c-2.4-4.7-3.2-4.6-3.2-4.6s11.3,5.4,12.3,5.9c5.7,2.9,8.7,3.6,8.7,3.6c5,3.1,9.5,9.5,10.4,12
					s1.8,10,1.2,10.4c-0.5,0.4,3.2,5,3.9,6.4c0.5,1,2.3,9.5,2.7,13c0.2,2.5,2.7,28.7,2,29.8C154.1,470.6,152.7,469.5,152.7,469.5
					L152.7,469.5z"/>
				<path id="path4524" inkscape:connector-curvature="0" class="st60" d="M177.3,409.3c0,0-8.9,1.2-15.5,8.8
					c-6.6,7.5-8.2,10.9-8.6,18c-0.2,3.9,2,12.3,2.5,13s-1.6,3-1.6,3l0.5,7.3c0,0,0.4-7.9,2.1-9.6s7.8-5,11.2-9.1
					c2.9-3.4,8.2-11.7,9.6-21.8C178.4,414.2,177.3,409.3,177.3,409.3L177.3,409.3z"/>
				<path id="path4526" inkscape:connector-curvature="0" class="st61" d="M142.1,417.9c0.9,0.9-3.9-14.6-18.4-20.7"/>
				<path id="path4528" inkscape:connector-curvature="0" class="st62" d="M157.3,445.8c0,0,1.1-21.2,15-30.9"/>
				
					<linearGradient id="path4532_1_" gradientUnits="userSpaceOnUse" x1="-46714.0312" y1="5807.2241" x2="-46635.4023" y2="5807.2241" gradientTransform="matrix(6.413499e-02 0 0 -6.413499e-02 3110.0234 869.7089)">
					<stop  offset="0" style="stop-color:#803A00"/>
					<stop  offset="1" style="stop-color:#DEAA87"/>
				</linearGradient>
				<path id="path4532" inkscape:connector-curvature="0" class="st63" d="M115.2,465.4l0.7,17.3c0,0,1.6,1.8,4.5,2.5
					c1.1-0.9,10.5,42.5,12.3,42.9s12.3,3.8,20.4,3.4c8.3-0.5,20.9-1.8,22.7-3.9c1.8-2.1,11.4-41.6,11.8-43c1.2-0.5,3.4-0.5,3.9-2.1
					c0.7-2.1,2-19.3,1.1-19.5s-5.6,4.1-10,4.8c-9.3,1.6-33.6,3.4-40.4,2.9c-2.6-0.2-21.2-4.9-25-7
					C115.2,462.6,115.2,465.4,115.2,465.4L115.2,465.4z"/>
			</g>
			<g id="Plant2" transform="matrix(0.80456969,0,0,0.80456969,375.02729,-348.99765)">
				<path id="path10568" inkscape:connector-curvature="0" class="st64" d="M1496.4,1089.9c0,0,33.6-5.5,70.7-5.5s80.7,5.5,80.7,5.5
					s5.5,18-12.3,22.5c-18,4.5-106.5,6.8-120,2.3C1502.2,1110.2,1496.4,1089.9,1496.4,1089.9z"/>
				<path id="path10570" inkscape:connector-curvature="0" sodipodi:nodetypes="ccccc" class="st65" d="M1564.9,1119.2V608.7l16.8,1
					v515L1564.9,1119.2z"/>
				<path id="path10566" inkscape:connector-curvature="0" class="st66" d="M1497.7,1091.1l4.5,160.4c0,0,28.1,15.8,74,15.8
					s69.6-15.8,69.6-15.8l3.3-159.4c0,0-32.6,16.8-72.9,16.8S1497.7,1091.1,1497.7,1091.1z"/>
				
					<radialGradient id="path10572_1_" cx="-25408.75" cy="-939.6235" r="43.3707" gradientTransform="matrix(0.1124 0 0 -0.1124 4430.0498 459.8312)" gradientUnits="userSpaceOnUse">
					<stop  offset="0" style="stop-color:#B1EF70"/>
					<stop  offset="1" style="stop-color:#1D9712"/>
				</radialGradient>
				<circle id="path10572" class="st67" cx="1575.1" cy="565.4" r="30"/>
				
					<radialGradient id="circle10574_1_" cx="-25433.668" cy="-2397.1138" r="56.6197" gradientTransform="matrix(0.1124 0 0 -0.1124 4430.0498 459.8312)" gradientUnits="userSpaceOnUse">
					<stop  offset="0" style="stop-color:#B1EF70"/>
					<stop  offset="1" style="stop-color:#1D9712"/>
				</radialGradient>
				<circle id="circle10574" class="st68" cx="1572.3" cy="729.3" r="39.3"/>
				
					<radialGradient id="circle10576_1_" cx="-25408.75" cy="-4459.0801" r="68.6014" gradientTransform="matrix(0.1124 0 0 -0.1124 4430.0498 459.8312)" gradientUnits="userSpaceOnUse">
					<stop  offset="0" style="stop-color:#B1EF70"/>
					<stop  offset="1" style="stop-color:#1D9712"/>
				</radialGradient>
				<circle id="circle10576" class="st69" cx="1575.1" cy="961" r="47.4"/>
			</g>
		</g>
	</g>
	<g id="Girl" transform="matrix(0.54887071,0,0,0.54887071,541.82521,91.588507)">
		<path id="path8624" inkscape:connector-curvature="0" class="st70" d="M1002.1,1448.1c0,0-2.8-4.7-3.4-7.1s-0.6-8.1-1-9.1
			c-0.3-1-0.8-3.2-0.3-4.4c0.5-1.1-0.2-6.3,0.5-7.6s2.1-4.9,1.1-5.3c-1-0.5-2.9-1.9-2.6-3.9c0.3-1.9,1-4-0.2-3.9s-3.4-1.3-3.9-2.4
			s-1.3-4-0.6-5.2c0.6-1.1,2.6-4.4,1.6-6s-2.3-4.2-2.1-5.7s-1.3-5.3-2.3-5s-17.3-1.8-20.1-2.1s-5.5,1.5-8.4-0.5s-5.3-6.2-5.5-8.9
			s6-17.6,7.3-19.3s10.7-14.1,13-16.2s3.1-4.4,4.4-5.2c1.3-0.8,6.6-4.9,7.3-5.7c0.6-0.8,20.4-13.8,20.9-12.8s1.9,5.8,3.2,6.6
			c1.3,0.8,3.2,2.6,4,3.2s5.5,4,7.1,4.9c1.6,0.8,2.9,1.5,3.6,2.3c0.6,0.8,5,43.2,2.3,47.4s-15.4,41.4-15.4,42.7
			S1002.1,1448.1,1002.1,1448.1L1002.1,1448.1z"/>
		<path id="path8622" inkscape:connector-curvature="0" class="st71" d="M1014.4,1421.7l-4.4-0.6c0,0-6.8,18.8-7.4,23.2
			c-0.6,4.4-1.3,12.3-0.5,13.8s13.6-27.5,13.6-27.5L1014.4,1421.7z"/>
		<path id="path8618" inkscape:connector-curvature="0" class="st72" d="M1062.9,1367.8l-1.9,27.2l13.4,34l18.6,12.8l25.9-5.8
			l15.5-41.4l-9.2-47.8l-14.2-1.5l-36.4,17l-12,3.2L1062.9,1367.8z"/>
		<path id="path8344" inkscape:connector-curvature="0" class="st72" d="M1093.7,1399.5c0,0,0.6-5,1.1-5s1.5,1.3,2.9,1.5
			c1.5,0.2,5.8-0.3,5.8-1.1c0-0.8-1.5,11.2-3.2,12.1S1094.3,1399.7,1093.7,1399.5L1093.7,1399.5z"/>
		<path id="path4202" inkscape:connector-curvature="0" sodipodi:nodetypes="csscsscssccccsccccccssssscssc" class="st71" d="
			M1051.4,1360.3c0,0-15.9-1.6-20.4,2.3s-12.6,9.1-13.3,11s-13,13.3-13.6,15.2c-0.6,1.9-1.6,5.5-2.9,5.8s-5.2,5.8-5.2,6.8
			s11,14.6,11.7,16.5c0.6,1.9,14.2,16.8,18.5,19.4c4.2,2.6,13,4.2,14.6,9.1s-3.9,6.5-3.9,6.5s0.6,4.9,1.9,5.2
			c0.3,2.6,12.3,17.2,17.2,20.1s23,4.5,28.5,3.6c5.5-1,10.4-6.8,17.8-8.7c7.4-1.9,16.2-2.9,17.5-5.2c1.3-2.3,9.1-12,10-14.6
			c1-2.6,15.9-44.7,18.1-45.7c2.3-1,6.2,1,7.4-0.6c1.3-1.6,17.8-27.2,18.1-30.4s4.5-11.3,4.5-11.3s-13.9-11-16.8-15.2
			c-2.9-4.2-14.2-7.8-16.2-7.1s-20.7,1-23,2.9s1.9,38.5-1,43.1c-2.9,4.5-9.4,20.4-9.7,25.3c-0.3,4.9-5.8,16.2-10,14.9
			c-4.2-1.3-2.9,3.2-11.7-0.3c-8.7-3.6-33-28.8-32.7-42.4S1051.4,1360.3,1051.4,1360.3L1051.4,1360.3z"/>
		<path id="path8348" inkscape:connector-curvature="0" class="st73" d="M1092.9,1432.5l2.8,8.6l0.3-8.7
			C1096,1432.4,1093.9,1433.5,1092.9,1432.5z"/>
		<path id="path5220" inkscape:connector-curvature="0" sodipodi:nodetypes="csccscsccc" class="st72" d="M1011.6,1423.8
			c0,0-15.9,56.3-16.2,59.3c-0.3,2.9,6.2-0.3,6.2-0.3s23.6-5.8,28.5-8.7c4.9-2.9,4.5-5.2,4.9-2.9c0.3,2.3-3.2-7.4-3.2-7.4
			s2.9-8.1,4.5-9.7s3.2-10.4,1.9-11.3c-1.3-1-23-21.7-23-21.7L1011.6,1423.8z"/>
		<path id="path8346" inkscape:connector-curvature="0" sodipodi:nodetypes="ccsccc" class="st74" d="M1084.1,1352.7l8.7,79.7
			c0,0,1.6,1,3.1-0.2c0.2-0.1-7-79.7-7-79.7s-1.3-1-2.8-0.6S1084.1,1352.7,1084.1,1352.7L1084.1,1352.7z"/>
		<path id="path8342" inkscape:connector-curvature="0" class="st72" d="M1073.5,1403.4c0,0,5.3-8.6,5.5-9.9s1.8-6.6,2.6-6.8
			c0.8-0.2,12.6-0.8,13.8-0.3c1.1,0.5,9.9,6,9.9,5.8s0.3,1.5-1.3,2.6c-1.6,1.1-6.3,1.1-7.8,0.5s-1.9-1.3-2.9-1.1
			c-1,0.2-5,1.5-5.7,1.3c-0.6-0.2,1,2.6-1.8,4.7C1083,1402.2,1073.5,1403.4,1073.5,1403.4L1073.5,1403.4z"/>
		<path id="path8364" inkscape:connector-curvature="0" class="st72" d="M1095.5,1276.3c0,0-9.6-9.2-22.8-6.2s-24.6,3.4-28.3,11
			c-3.7,7.6-9.4,35-6.6,41.4c2.8,6.5,8.1,19.3,9.1,21.2c1,1.9,7.3,12.8,7.8,14.4s7.1,9.4,8.6,9.9s15.1,2.3,17.6,1.9
			c2.6-0.3,12.6-1.6,14.4-2.9s8.6-6,9.1-7s9.7-7.8,10.5-10.2c0.8-2.4,1.8-12.5,1.3-14.4s-2.4-17.6-3.2-20.9
			c-0.8-3.2-4.7-25.1-7.1-27.5S1097.6,1276.8,1095.5,1276.3L1095.5,1276.3z"/>
		<path id="path8386" inkscape:connector-curvature="0" sodipodi:nodetypes="csccsc" class="st75" d="M1062.7,1311.6
			c0,0-7.1,0.2-9.7,1.7c-2.8,1.6-7.6,3.4-9,6.9s1.8-6.9,3.9-7.9s12.2-5.1,13.6-4.3C1062.9,1308.8,1062.3,1310.3,1062.7,1311.6z"/>
		<path id="path8382" inkscape:connector-curvature="0" class="st76" d="M1065,1322c0,0-4.1-3-5.4-3.2s-4.3-0.6-5.6,0.2
			c-1.2,0.8-3.6,5-4.4,5.5s2.3,0.3,4,0.6C1055.3,1325.5,1063.6,1321.4,1065,1322z"/>
		
			<path id="path8616" inkscape:connector-curvature="0" sodipodi:nodetypes="cscssccccscccccccssscssccccsscccsccsscsscccssscccsscsscsscc" class="st77" d="
			M1082.5,1277.1c0,0-15.5-1-18.8,3.1c-3.2,4-8.4,8.1-9.4,13.6s-2.9,32.5-5.7,39c-2.8,6.5-4.4,9.7-3.2,11c1.1,1.3,7.4,11,8.1,12.6
			c0.6,1.6,9.1,10.5,9.7,11.7c0.6,1.1,8.9,8.7,9.4,11.5s5.3,8.7,3.9,14.1c-1.5,5.3-12.3,42.4-13.6,43.9c-1.3,1.5-15.1,20.6-18,21.5
			c-2.9,1-11.3,4.9-13.1,3.4s5.3-9.6,6-10.2c0.6-0.6,3.2-1.1,3.4-2.9c0.2-1.8-0.5-7.1-1.5-7c-1,0.2-7.3,12.5-11.3,14.7
			c-4,2.3-9.2,2.1-11.7,1.9c-2.4-0.2,6.6-1.3,8.3-4.7c1.7-3.4,0-15.9,2.1-17.5s8.1-4.5,9.6-8.3c1.5-3.7,4.7-11,2.3-15.1
			c-2.4-4-0.8-2.1-2.3-4.4s-11.3-19.9-11.3-24.4s-5.7-21-4.2-23.5c1.5-2.4,6.2-15.5,5.7-18.6s-2.3-22.7-1.6-27.2
			c0.6-4.5,5.3-23.3,6.2-25.4c0.8-2.1,9.2-16,11.2-18c1.9-1.9,10.7-8.4,14.7-9.6c4-1.1,10.8-1.5,13-0.8c2.1,0.6,5.2,5.3,5.8,4.4
			c0.6-1,1.3-3.1,2.6-3.4c1.3-0.3,10.4,0.2,15.2,3.2c4.9,3.1,15.1,13.9,17.6,18.6c2.6,4.7,12.8,20.1,13.3,23.6
			c0.5,3.6,16.2,45.3,17.6,47s2.1,22.7,2.3,27.5c0.2,4.9,7.4,19.1,9.6,21.4s4.7,24.1,1,28.3s-21.9,15.5-21.9,21s1.3,7-3.2,0
			s-1.1-18.6,0.8-18.9s3.6-13.1,1.9-13.9c-1.6-0.8-4.6,11-7.9,15.7c-3.2,4.6-19.7,15.8-17.8,13.8c2.9-3.1,7.2-9.8,9.6-13.1
			c5.7-7.8,8.6-14.4,7.9-17.2c-0.6-2.8-9.9,15.5-13.1,18.5c-3.2,2.9-13.8,4.9-11.2,4.7c1.3-1,4.4-1.1,7.1-5.5
			c2.2-3.6,4.7-13.8,5-17.5s3.4-20.2,5.2-23.3c1.8-3.1-0.3-34.8-2.1-36.8s1-20.7,1-22.2s-3.9-24.3-4.4-26.2
			c-0.5-1.9-0.8-4.8-6.3-8.3c-5.5-3.4-9-11.5-12.6-15.5c-3.2-3.6-6.3-9.4-7.6-9.9C1084.3,1277.3,1082.5,1277.1,1082.5,1277.1
			L1082.5,1277.1z"/>
		<path id="path8620" inkscape:connector-curvature="0" class="st78" d="M981.7,1532.1l79.3,44.8l107.8-29.3l-87.4-39.7
			L981.7,1532.1z"/>
		<path id="path8340" inkscape:connector-curvature="0" sodipodi:nodetypes="cssssscsssccsccccsccccssscccsscc" class="st72" d="
			M1063.1,1437c0,0-3.7,5-4.8,6s-3.2,2.7-5.5,4.4c-2.7,1.9-11.5,9.5-16.9,12.6c-3,1.7-9.5,5.9-17.6,8.2c-4.7,1.3-10.8,4.9-14.4,7.3
			c-4.2,2.9-8.2,6.9-9.2,8.9c-0.9,2.1-3.4,13.1-2.5,15.8c0.9,2.7,3.6,7.1,4.7,8.2c1.5,1.5,2,2.6,3.2,4c1.2,1.5,2.6,3.4,4,3.8
			c1.4,0.5,7.1,0.7,8-0.5c0.9-1.1,5.3-4.6,6.3-5.7c1.9-2,15.7-11.3,16.8-12.6c1.1-1.4,18.4-19.6,20-21.9s5.9-7.1,8.4-9.4
			s14.6-15.2,17.4-17.2s5.7-5.8,6.6-8.1c0.9-2.3,4.9-7.5,5.5-8.9c0.7-1.4,3.4-3.2,3.9-4.1s-0.2-3,0.5-2.8s2.5,1.9,2.9,0.5
			c0.5-1.4,0.7-4.4,1.1-5.5s1.6-5,1.6-5.7s-1.8-5.2-2.7-7.3c-0.9-1.9-3.2-5.9-5.1-7c-1.8-1.1-10-0.1-12.8,0.6
			c-2.7,0.7-11.2,1.2-12.6,2.3c-1.4,1.1-3.4,2.5-3.4,4.8s0.9,11.7,0,13.5S1063.9,1434,1063.1,1437L1063.1,1437z"/>
		<path id="path8350" inkscape:connector-curvature="0" class="st72" d="M1163.3,1393.2c0,0-1.5,31.6-2.3,35s-2.8,22.7-3.6,24.8
			c-0.8,2.1-3.4,18-3.4,19.1s-2.3,8.6-3.4,10.4s-4.5,7.1-6.8,8.7s-24.6,8.7-27.2,9.7s-21,3.1-22.8,3.4s-10.8,2.8-12,3.1
			c-1.1,0.3-5,1.9-5.8,1.5c-0.8-0.5-5.8,5.5-6.6,6.8c-0.8,1.3-4.2,5.2-5.7,5.5s-13.6-0.5-16.2-1.9s-4.4-3.4-4.9-4.5
			s-2.9-1.8-3.6-2.1c-0.6-0.3-1.8-4-1.1-4.5c0.6-0.5-1.8-1.1-1.9-2.8c-0.2-1.6-0.6-5.2,0.3-5.2c1,0-1.6-1.9-1.1-2.6
			c0.5-0.6,19.4-21.4,19.4-21.4s2.8,1,4.9,1.6s4.9,1.9,6.3,2.8c1.5,0.8,21.2,1.3,24.8,0.6c3.6-0.6,12.1-3.2,13.3-4
			c1.1-0.8,11.2-5.8,13.1-6.5c1.9-0.6,9.6-3.7,9.6-4.9c0-1.1,3.1-8.3,2.9-11s13.4-36.9,13.8-38.2s4.9-9.2,4.9-9.2s6.6,1.5,7,0.6
			c0.3-0.8,8.3-12.3,8.3-13C1163.3,1394.3,1163.3,1393.2,1163.3,1393.2L1163.3,1393.2z"/>
		<path id="path8352" inkscape:connector-curvature="0" class="st11" d="M1036.7,1499.9c0,0,4.7,1.3,6,0.8s8.4-1.6,9.1-1.3"/>
		<path id="path8354" inkscape:connector-curvature="0" class="st11" d="M1038.2,1507.5c0,0,3.6,1.3,5.3,1c1.8-0.3,9.4,0.3,9.4,0.3"
			/>
		<path id="path8356" inkscape:connector-curvature="0" class="st11" d="M1042.5,1514.9c0,0,2.8,0.2,3.9,0.3
			c1.1,0.2,8.3-0.2,8.9,0.3"/>
		<path id="path8358" inkscape:connector-curvature="0" class="st11" d="M1039.3,1493.6c0,0,3.9,0.6,4.7,0c0.8-0.6,3.4-3.1,4.9-3.7
			s2.4-2.1,3.7-2.6c1.3-0.5,7.4-3.1,7.8-3.7"/>
		<path id="path8360" inkscape:connector-curvature="0" class="st11" d="M1073.5,1412.9c0,0,18.5,6.5,18.9,5.7s2.4,6.3,1.9,7.3
			s-3.4,5.2-4.4,5.5s-7.4,2.3-7.8,1.6c-0.3-0.6-0.5-5-0.5-5.5s1.1-0.6,1.5-1.1c0.3-0.5,4.7,0.6,4.9-0.3"/>
		<path id="path8362" inkscape:connector-curvature="0" sodipodi:nodetypes="cssscccc" class="st11" d="M1072.8,1406.9
			c0,0,1.8,0.2,4.9,0.6s10.5,2.1,12,2.1s7.1,1.8,7.1,2.8s0.6,11.5,0.5,12.6c-0.2,1.1,0,3.6-0.8,4c-0.8,0.5-1.9,1.8-2.8,1.6
			s-2.9-0.2-2.9-0.2"/>
		<path id="path8366" inkscape:connector-curvature="0" class="st72" d="M1116.2,1335.4c0,0,1.6,2.1,3.1,1.6s4.4-2.8,4.7-3.6
			c0.3-0.8,1.1-2.6,0.3-4.4s-3.1-8.6-4.4-10.5s-7-5.8-7-5.8l-1-1.9L1116.2,1335.4z"/>
		<path id="path8368" inkscape:connector-curvature="0" class="st79" d="M1072.6,1353.2c0,0,3.7-9.6,4.7-10c1-0.5,4.4,0.6,5.3-0.5
			c1-1.1,1.5-2.1,2.6-2.1s9.2,3.9,10.7,3.1s-4.5,4-7.6,5.2C1085.3,1349.9,1074.9,1354,1072.6,1353.2L1072.6,1353.2z"/>
		<path id="path8370" inkscape:connector-curvature="0" class="st11" d="M1072.5,1353.3c0,0,5.3-5.7,7.3-6.3
			c1.9-0.6,12.5-2.9,14.9-2.6"/>
		<path id="path8372" inkscape:connector-curvature="0" class="st28" d="M1076,1335.1c0,0-1.5-0.6-2.8-0.2s-2.3,1.1-1.9,2.1
			c0.3,1,2.4,0.2,3.4-0.2C1075.7,1336.5,1076,1335.1,1076,1335.1L1076,1335.1z"/>
		<path id="path8374" inkscape:connector-curvature="0" class="st28" d="M1079.9,1333.9c0,0,0.3-1.8,1.9-2.3s2.6-0.5,2.8,0.3
			s-0.3,2.3-1.8,2.4C1081.4,1334.6,1079.9,1333.9,1079.9,1333.9L1079.9,1333.9z"/>
		<path id="path8376" inkscape:connector-curvature="0" class="st11" d="M1070.4,1338.6c0,0-2.4-0.6-2.1-2.3c0.3-1.6,3.2-4,3.1-5
			c-0.2-1,0.6-4.5,3.1-5.5c2.4-1,5.2,1.6,7.3,2.1c2.1,0.5,5.5-0.2,5.8,2.4"/>
		<path id="path8378" inkscape:connector-curvature="0" class="st11" d="M1066.2,1314.2c0,0,8.6,9.1,6.5,12.5"/>
		<path id="path8380" inkscape:connector-curvature="0" class="st76" d="M1081.9,1315.6c0,0,1.9-4.7,2.9-5.5s3.4-2.8,4.9-2.8
			s5.7,2.4,6.6,2.4s-1.8,1.5-3.1,2.6C1091.9,1313.5,1082.7,1314.3,1081.9,1315.6L1081.9,1315.6z"/>
		<path id="path8384" inkscape:connector-curvature="0" sodipodi:nodetypes="csccsc" class="st75" d="M1077,1307.2
			c0,0,5.7-4.1,8.7-4.5c3.2-0.4,8.1-1.9,11.3,0c3.2,1.9-5.7-4.4-7.9-3.9c-2.3,0.5-12.8,3.4-13.4,4.9S1076.5,1305.9,1077,1307.2
			L1077,1307.2z"/>
		<path id="path8388" inkscape:connector-curvature="0" sodipodi:nodetypes="cscsc" class="st80" d="M1089,1307.7
			c3,0.1,2.4,0,4.4,1.5c1.3,1-0.2,2.9-2.2,3.7c-2,0.8-3.6-0.3-3.9-2C1087,1309.1,1087.8,1308.1,1089,1307.7L1089,1307.7z"/>
		<path id="path8390" inkscape:connector-curvature="0" sodipodi:nodetypes="cscsc" class="st80" d="M1055.8,1318.8
			c3.4-0.7,2.9-0.3,4.2,0.9c1.2,1.1,0.9,3.1-1.1,3.9s-3.6-0.3-3.9-2C1054.8,1319.8,1054.6,1319.2,1055.8,1318.8L1055.8,1318.8z"/>
		<path id="path8630" inkscape:connector-curvature="0" class="st72" d="M985.1,1300.7c0,0-7.6-4-9.2-5.3c-1.6-1.3-6.5-4.5-8.9-6.3
			s-5.3-4-6.3-4.9c-1-0.8-4.9-3.9-6-4.2c-1.1-0.3-4.4-0.2-5,0.5c-0.6,0.6-2.1,1.3-3.2,2.4s-2.4,2.1-2.4,3.4s-3.6,4.2-2.6,5.5
			s2.9,1.1,3.7,1.3c0.8,0.2,2.1,1,1.1,1.6s-2.4-0.2-2.4-0.2s-1.5-2.3-2.8-2.1s-3.4,1.9-3.4,3.9s1,5,1.8,5s1.9,0.6,2.6,1.3
			c0.6,0.6,1.6,1.1,2.6,1.1s2.6,3.2,3.4,3.4c0.8,0.2,10.8,3.1,12.8,4.2c1.9,1.1,8.6,3.1,9.1,3.9s1.5,4,3.1,5s7.4,2.3,8.7,2.4
			c1.3,0.2,3.2,0,4.5,1.1s2.1,1.3,2.1-0.3s0.5-4.5-0.2-5.8s-3.1-6.5-3.2-7.8C984.7,1308.7,985.1,1300.7,985.1,1300.7L985.1,1300.7z"
			/>
		<path id="path8626" inkscape:connector-curvature="0" class="st72" d="M988.1,1335.1c0,0,0-8.3,0-9.6c0-1.3-0.2-4.5,0.2-5.7
			c0.3-1.1-2.8-7.8-3.2-9.1s-0.3-9.6,0.3-10.8c0.6-1.3-2.8-8.4-3.7-9.6s-4-8.1-5.7-9.1s-3.2-3.6-3.7-4.9s-3.2-7.3-4.7-8.7
			c-1.5-1.5-3.6-6.8-3.4-7.4c0.2-0.6-2.3-3.6-1.8-4c0.5-0.5,1.5-2.9,1.8-4s1.9-3.7,2.9-4.5s0.5-2.6,1.3-3.2s2.1-1.8,2.9-1.5
			s1.8,1.9,1.8,3.2s-1,2.8-0.3,3.1s2.6,0.8,2.1-0.2s-1.3-2.8-1.3-2.8s-2.1-2.9-1.5-3.7c0.6-0.8,2.4-2.3,3.4-2.1s2.8,2.9,2.6,3.7
			c-0.2,0.8-0.2,2.9,0.8,3.6c1,0.6,3.2-0.2,3.2-0.2l0.5-1.5c0,0-2.4-2.9-2.8-3.7c-0.3-0.8-1-2.9-0.8-3.9s1-3.1,1.9-3.2
			c1-0.2,3.6-0.6,4.5-0.3c1,0.3,2.4,3.1,3.4,4.2s1,6.5,1.5,7.3s3.2,5.8,3.2,7.6s1,6.6,1.9,9.9s5.5,14.7,6.5,16.2s2.6,8.4,2.9,10
			c0.3,1.6,0.3,5.3,1.1,6.8s2.6,4.2,2.3,5.3c-0.3,1.1-1.8,7.1-1.3,8.7s-1.9,7-3.1,8.6c-1.1,1.6-7.6,8.6-8.4,9.2
			C994.8,1329.5,988.1,1333.6,988.1,1335.1L988.1,1335.1z"/>
		<path id="path8628" inkscape:connector-curvature="0" class="st11" d="M971.6,1251.3c0,0-5.2,2.6-6,4.9"/>
		<path id="path8632" inkscape:connector-curvature="0" class="st11" d="M954,1281.6c0,0-7.3,7.8-6.6,9.7"/>
	</g>
	<g id="Lamp2">
		
			<radialGradient id="path9671_1_" cx="1634.011" cy="785.7104" r="96.7524" gradientTransform="matrix(1.7637 0.1102 3.952568e-02 -0.6328 -2085.1797 620.4516)" gradientUnits="userSpaceOnUse">
			<stop  offset="0" style="stop-color:#CE278A"/>
			<stop  offset="1" style="stop-color:#8D278A"/>
		</radialGradient>
		<path id="path9671" inkscape:connector-curvature="0" sodipodi:nodetypes="csscc" class="st81" d="M824.4,238.9
			c0,0-111.2,43.9-92.6,80.3c14.7,28.8,180.8,22.1,189.1,0c13.9-37-87.1-80.3-87.1-80.3L824.4,238.9L824.4,238.9z"/>
		<path id="path9673" inkscape:connector-curvature="0" class="st11" d="M730,316.9c0,0,49.5-17.4,98-17.4s93.4,19.2,93.4,19.2"/>
		<path id="path9685" inkscape:connector-curvature="0" sodipodi:nodetypes="cssssscc" class="st82" d="M821.5,299.8
			c0,0-0.9,5.2,0.1,8.9c0.9,3.7-18.3,3.7-18.3,11.9s4.6,22,25.6,22s21.1-13.7,21.1-22s-14.7-6.4-15.6-11.9s0-9.2,0-9.2L821.5,299.8z
			"/>
		<path id="path9669" inkscape:connector-curvature="0" sodipodi:nodetypes="ccccc" class="st45" d="M825.2,158.8v81.5h8.2
			l-0.1-81.6L825.2,158.8z"/>
	</g>
	<g id="Sneakers" transform="matrix(0.13167947,0,0,0.13167947,140.43939,706.9889)">
		<path id="path5356" inkscape:connector-curvature="0" class="st83" d="M748.8,1447.3c0,0-30.3-30.7-32.7-37
			c-2.3-6.4-26.8-47.1-26.9-49.7c-0.2-2.6,0.9-18.2-3.9-22.5c-4.8-4.3-21.6-14.9-28.8-15.8c-7.2-0.9-24.1-1.2-29.4-2.8
			c-5.3-1.6-22.8-1.9-32.3,2.5c-9.5,4.4-48.7,98.9-43.8,105.1c4.9,6.2,8.7,48.1,18,52.1c9.3,4,44.2,23.4,64.4,13.7
			c20.2-9.6,64.8-34.3,78.4-35.1C725.3,1457.1,748.8,1447.3,748.8,1447.3z"/>
		<path id="path5358" inkscape:connector-curvature="0" class="st84" d="M628.9,1327.8c0,0,7.5,17.1,7.5,28.8
			c0,11.7,4.1,47.8,7.1,54.7c3,7,23.5,35,30.2,39.1c6.7,4.1,5.4,15.3,1.6,16.1c-3.8,0.9-34.1,5.2-45,6.5
			c-10.9,1.3-36.9,0.9-39.1-2.9c-2.2-3.8-10-16.3-7.2-22.9c2.9-6.7,9.8-32.4,14.5-40.4c4.7-8.1,19.1-49.8,19.5-54.3
			C618.4,1347.9,629.4,1336.2,628.9,1327.8L628.9,1327.8z"/>
		<path id="path5360" inkscape:connector-curvature="0" class="st85" d="M1033.9,1942.5c0,0-25.9-50.8-29.7-53.3
			c-3.8-2.5-39.3-59.2-42.4-65.4c-3.1-6.2-41.5-66.4-44.6-72.6s-54.5-115.2-57.5-120.5c-3.1-5.3-19.4-64.9-19.8-71.3
			s-17-55.9-17.4-61.4c-0.3-5.5-3.5-28.2-3.5-28.2s-3.2-7.2-7.9-8.7c-4.7-1.6-13.8-0.1-13.8-0.1s-5.4-14.4-10.2-17.8
			c-4.8-3.4-21.6-8.8-26.1-7.6c-4.5,1.2,3.8,2.5,0.4,6.4c-3.4,3.9-78.8,16.6-86.5,11.5c-7.6-5.1-12.3-6.6-16.8-4.5
			s-19.3,14.9-19.7,24.1c-0.4,9.2-31.3,14.7-42.5,9.8c-11.3-4.8-26.2-8.6-30.7-22.1c-4.5-13.5-11.3-36-2-49.4
			c9.3-13.4,19.2-32.3,18-36.8c-1.2-4.5,1-30.3,5.2-36.1c4.2-5.8,9.3-13.4,12.7-17.3c3.4-3.9-19,4.8-22.4,9.6
			c-3.4,4.8-19.3,31.4-25.1,40.9c-5.9,9.5-16.2,36.7-22.2,43.5c-6,6.8-20,34.2-23.3,40.8c-3.3,6.6-13.5,36.6-10.9,49.3
			c2.6,12.7,12.4,55.2,18.5,65c6.1,9.7,37.5,60.2,45.9,79c8.4,18.8,33.7,57.7,36.2,86c2.6,28.3,14.5,90,24.5,105
			c10.1,15,31.9,89.9,58.8,95.6c26.9,5.8,90,47.9,111.5,39.3c21.5-8.6,67.5-22.3,84.3-17.8s90,33.3,104.1,22.3
			C993.2,1968.7,1031,1955.5,1033.9,1942.5L1033.9,1942.5z"/>
		<path id="path5362" inkscape:connector-curvature="0" class="st86" d="M990.9,1870.3c0,0,17.1,15.9,19.3,19
			c2.1,3.1,16.3,24.3,19.4,31.3c3,7,7.2,22.9,6.9,29.4c-0.3,6.5-12.5,74-16.4,74.9c-3.8,0.9-108.3,22.6-118.2,20.6
			c-9.8-2-151.2-56.7-156.9-65.4c-5.7-8.7-98.3-71.4-100.6-77.8s8-19.3,11.8-20.2c3.8-0.9,12.8-3.3,20.7-1.2
			c7.9,2.1,29.1,10,31.3,14.4s38,39.9,42.8,44.2c4.8,4.3,20.8,23.4,29.3,23.6c8.4,0.2,20.4,5.3,19.2-5c-1.3-10.3-12.2-20.7-15.7-25
			c-3.5-4.3-32-48.1-33.4-60.3c-1.4-12.2-12-61.6-7-75.5c5-13.9,11.8-42.2,21.6-51.2c9.9-9,17.9-16,20.6-14.2
			c2.7,1.8,18.7,32,19,35.9c0.2,3.9,6.5,21.7,2.2,26.5c-4.3,4.8-14.9,0.2-18.1,0.4c-3.2,0.2-13.4,4-14.3,10.6
			c-0.9,6.5-5.3,41.8,5.6,62c10.9,20.1,16.6,40.5,46,55c29.4,14.5,81.5,28.3,84.7,27.5s6.4,10,7.8,11.9c1.4,1.9,32.1,5.9,34.5,2.5
			c2.4-3.4,3.3-9.9,9.1-10.9s23.2-2,22.9-7.8c-0.3-5.8-5.2-23-0.4-28.5c4.9-5.5,25.3-10.6,29.2-10.1
			C1017.7,1907,992.3,1872.8,990.9,1870.3L990.9,1870.3z"/>
		<path id="path5364" inkscape:connector-curvature="0" class="st87" d="M899.7,2040.5c0,0,37.2-41.1,42.4-51.8
			c5.2-10.7-5.2,54.8-10.3,56.4C926.6,2046.7,904.5,2046,899.7,2040.5z"/>
		<path id="path5366" inkscape:connector-curvature="0" sodipodi:nodetypes="csccscc" class="st88" d="M1011.2,2006
			c0,0,5.8-23,5-25.6c-0.8-2.5-5.1-21.1-7-20.3c-1.9,0.8-33.8,9.1-44.9,8.5c-2.3,5.3,1.6,16.1,0.9,25.9c-0.7,9.8-3.8,23.6-3.8,23.6
			S1013.5,2011.7,1011.2,2006L1011.2,2006z"/>
		<path id="path5368" inkscape:connector-curvature="0" sodipodi:nodetypes="ccsc" class="st87" d="M1015.5,2014.2l11.6-35.1
			c0,0-1.3,33.2-6.6,41.9C1013.1,2033.2,1015.5,2014.2,1015.5,2014.2z"/>
		<path id="path5370" inkscape:connector-curvature="0" class="st89" d="M1022.1,2026.8c0,0-6.3-19.1-9-21.5s-40.3-0.9-42.8,0.6
			c-2.5,1.4-28.3,36.7-69.3,35.9c-40.9-0.8-123.6-17.4-127.8-22.3c-4.2-4.9-22.1-22.7-33.3-25.9c-11.2-3.2-142.6-108.4-141.5-133.8
			s-4.2-115.9-11.2-125.2c-7-9.3-55.5-95.4-65.6-101.2c-10.1-5.9-38.4-90.5-38.7-107.4c-0.3-16.8-2.8-25.1-2.3-27.8
			c0.5-2.6-8.9,13.5-9.9,18.7s-1,15.6-1,15.6s-7.6,25.7-6.7,29.6c0.9,3.8-2.9,6-2.6,10.5c0.3,4.5,0.9,14.9,3.5,14.7
			c2.6-0.2,3.9,10.8,3.9,10.8s-3.5,7.3-1.2,12.4c2.2,5.1,5.2,10.7,7.8,11.2c2.6,0.5,3.8,8.9,4,12.7c0.2,3.9,2.2,14.8,4.1,15.3
			s7.6-3.7,9.1,0.8c1.6,4.4,2.6,11.5,4.8,14.6c2.1,3.1,42.1,20.2,50.8,25.6c8.7,5.3,21.7,15.6,24.8,24.5
			c3.1,8.9,24.4,72.5,17.3,95.7c-7.1,23.1-13.4,26.7-12.5,29.9s5.1,19.8,7,19.7c1.9-0.1,6.5-10.8,8.6-8.3s5.5,16.5,3.1,19.9
			s-7.1,1.1-6.9,3.6c0.2,2.6-1,16.9,6,25.6c7,8.7,5.2,12,6.5,11.9c1.3-0.1,4.9-4.2,8.7-5.7s7,8.7,4.5,10.8c-2.5,2.1-7.6,3.7-5.4,7.5
			c2.2,3.8,10,15.6,15.2,15.3c5.2-0.3,11.9-7.2,17.2-4.9c5.3,2.3,2.4,18.7,2.4,18.7s-6.3,3.6-4.8,6.8c1.5,3.2,11.9,14.2,16.6,17.8
			c4.8,3.6,14.2,10.2,18.1,10c3.9-0.2,23.1-4,27-3.5c3.9,0.4-3.8,13.2-3.8,13.2s-2.5,2.1,1.7,6.4c4.1,4.3,29.2,11.9,32.5,12.4
			s32.2-4.5,34.7-5.9c2.5-1.4,6,13.9,8.9,18.3s1.8,9,6.4,9.4s37.5,9.5,40.7,8c3.2-1.5,13.7-9.9,16.4-7.5c2.7,2.4-0.1,9.1,3.2,10.8
			c3.3,1.8,23.5,3.2,30,2.1c6.4-1,17.7,2.9,26.2,3.7c8.5,0.8,26.1,3,31.3,2.1c5.1-0.9,9.8,0.7,16.2,0.3c6.5-0.4,27.8-1.6,34.7-5.9
			c6.9-4.3,23.9-13.1,29-14.7C1013.6,2037,1019.7,2030.2,1022.1,2026.8L1022.1,2026.8z"/>
		<path id="path5372" inkscape:connector-curvature="0" class="st88" d="M706.3,1939.6l37.4-3.5l-29-30.7l-38.6,5.5L706.3,1939.6z"
			/>
		<path id="path5374" inkscape:connector-curvature="0" class="st87" d="M743.7,1969.8c0,0,8.9-13.5,10.2-14.2s-15.8,6.8-16.3,9.4
			C737.1,1967.6,743.7,1969.8,743.7,1969.8L743.7,1969.8z"/>
		<path id="path5376" inkscape:connector-curvature="0" sodipodi:nodetypes="csssc" class="st88" d="M828.3,2018.7
			c0,0,64.2-55.7,66.8-55.8s-64.1-19.5-72.4-28.2c-2.6-2.7-62.3,44.5-60.8,47.7C763.4,1985.5,828.7,2014.1,828.3,2018.7
			L828.3,2018.7z"/>
		<path id="path5378" inkscape:connector-curvature="0" class="st88" d="M871.8,2030.4c0,0,16.9-32.8,21.9-35.7
			c5-2.9-37.4,26.8-37.8,30.8C855.5,2029.4,871.8,2030.4,871.8,2030.4z"/>
		<path id="path5380" inkscape:connector-curvature="0" class="st90" d="M903.5,2040.2c0,0-103.4-38-106.2-41.8
			c-2.8-3.7-82.1-51-84.3-54.7c-2.2-3.8-61.5-53.5-61.7-56.7s-33.2-68.8-34.1-73.3c-0.9-4.5-13.3-49.8-13.1-58.3
			c0.2-8.4-12-50.5-14.9-54.3c-2.8-3.7-22.4-49.3-25.9-53.6c-3.5-4.3-27.3-56.1-34.1-61.6c-6.8-5.4-21.9-29.9-22.3-37.6
			c-0.5-7.8-9.2-34.5-8.8-39.1c0.4-4.6,0-44.1,5-48.3c4.9-4.2-18.6,25.7-22.1,33.1c-3.5,7.3-6.1,18.5-6,30.8s3.9,54.9,7.6,63.8
			c3.8,8.9,17.6,46.3,23.4,55.7c5.7,9.4,21.7,26.6,26.4,30.2c4.8,3.6,25.8,19.9,30.2,27.4c4.3,7.5,20,41.6,19.7,48.2
			c-0.3,6.5-0.7,53.9-2.3,61.1c-1.5,7.2,2.7,35.5,6,36.6c3.3,1.1,5.1-1.6,5.1-1.6s-3.6,15.8-2.1,19.6c1.5,3.8,16.6,39.9,22.3,48.6
			c5.7,8.7,15,23.1,18.8,22.3c3.8-0.9,6.1-6.2,7-2.4c0.9,3.8-1.2,13,1.5,14.2c2.7,1.1,27.1,19.8,32.6,24.7
			c5.5,4.9,36.9,21.2,44.8,23.3c7.9,2.1,32.2,17.6,35.4,17.4c3.2-0.2,4.8-7.4,8.1-5c3.4,2.4,5.9,11.3,8.4,11.2
			c2.6-0.2,49.5,14,53.5,16.3c4,2.4,5-3.5,5-3.5s4.3,7.5,8.2,7.3C838.5,2040,893.4,2044.1,903.5,2040.2L903.5,2040.2z"/>
		<path id="path5382" inkscape:connector-curvature="0" sodipodi:nodetypes="csccssc" class="st91" d="M881.5,1774.9
			c0,0,18.1-11.4,23.5-18.9c5.4-7.5,10.2-14.9,10.2-14.9s9.2,13.7,7.5,17.1c-1.7,3.4-10.7,16.5-14.4,19.7
			c-4.9,4.2-22.2,19.5-23.1,15.6C884.3,1789.6,884.3,1778,881.5,1774.9z"/>
		<path id="path5384" inkscape:connector-curvature="0" class="st91" d="M859.2,1781.4c0,0-55.8-11.6-63.6-11.8
			c-7.8-0.2-17.6-2.2-22.1,0c-4.4,2.2-5.6,4.2-6.1,6.8c-0.5,2.6,3.8,8.9,8.4,9.9c4.6,1,40.5,4.1,49.7,6.8c9.2,2.7,36,5,37.4,6.9
			C864.3,1801.9,861.9,1783.2,859.2,1781.4L859.2,1781.4z"/>
		<path id="path5386" inkscape:connector-curvature="0" sodipodi:nodetypes="cscssscsc" class="st91" d="M865.3,1720.7
			c0,0,24.5,8.3,26.7,12.1c2.2,3.8,3.2,21.2,3.2,21.2s-11-11-24.2-14.8c-12.7-3.6-36.3-10.8-65.5-11.1c-19.5-0.2-22.7,0.7-22.9-2.6
			c-0.2-3.2-4-13.4-4.8-14.6s51.9,0.8,60.5,2.9C846.9,1715.9,856,1716.7,865.3,1720.7L865.3,1720.7z"/>
		<path id="path5388" inkscape:connector-curvature="0" sodipodi:nodetypes="cssssc" class="st91" d="M878.3,1708.9
			c0,0-29.9,20.6-37.4,25.5c-7.5,5-39.3,26.3-38.6,28.2c0.8,1.9-6.8-17.1-8.9-18.9c-2.1-1.8,72.3-49.7,76.9-49.9
			C871.5,1693.7,875.3,1703.2,878.3,1708.9z"/>
		<path id="path5390" inkscape:connector-curvature="0" sodipodi:nodetypes="csssssc" class="st91" d="M890,1687.5
			c0,0-31.7-9.7-48.1-12.1c-28.1-4.2-77.2-10.4-80.3-8.9c-3.2,1.5-1.3-10.3-3.4-13.4c-2.1-3.1,58.6,3.1,67.8,5.1
			c9.2,2.1,53.1,9.9,57.1,11.6C887.1,1671.4,888.9,1679.7,890,1687.5z"/>
		<path id="path5392" inkscape:connector-curvature="0" sodipodi:nodetypes="cssssssc" class="st91" d="M750.5,1720.3
			c0,0,7.9,2.1,13.3-5.3c5.4-7.5,39.6-38.6,49.3-44.4c14.4-8.6,32.9-14.9,37.4-15.2c4.5-0.3,0.6-12.4-3.3-12.8
			c-3.9-0.4-26.7,2.9-41.4,12.8c-15,10.1-45.9,35.1-48.9,39.8C753.8,1700,745,1715.4,750.5,1720.3z"/>
		<path id="path5394" inkscape:connector-curvature="0" sodipodi:nodetypes="ccssssc" class="st91" d="M848.9,1583.5
			c0,0,5.2,11.4,2.8,14.8c-2.4,3.4-19.7-4-44-9.1c-24.3-5.1-76.3-17.6-78.8-15.5c-2.5,2.1-1.4-12.9-2.8-15.4
			c-1.4-2.5,43.5,12.4,58,14.8C798.4,1575.4,834.8,1576.5,848.9,1583.5L848.9,1583.5z"/>
		<path id="path5396" inkscape:connector-curvature="0" sodipodi:nodetypes="cscssc" class="st91" d="M820.9,1570.8
			c0,0-72.6,12-85.6,23.2c-13,11.1-22.2,9.1-24.2,8.6s0.1-9.7,5.6-15.2c5.5-5.5,58.2-31.5,94.2-30.8
			C823.7,1556.7,820.9,1570.8,820.9,1570.8z"/>
		<path id="path5398" inkscape:connector-curvature="0" class="st92" d="M790.5,1538.9c0,0,15.9,27,16.7,41.8
			c0.9,14.9,5.7,42.5,2.1,46.6c-3.7,4.1-6.6,8.8-15.7,9.4c-9.1,0.5-16.1,2.2-17-2.9s1.3-43.5-1.2-54.4c-2.6-10.9-12-38.2-15.4-41.3
			C756.5,1535,786.5,1537.2,790.5,1538.9z"/>
		<path id="path5400" inkscape:connector-curvature="0" sodipodi:nodetypes="csscscccsc" class="st91" d="M864.6,1629.9
			c0,0-10.3,1.3-20.7,0.6c-10.4-0.7-38.2,0.9-53.2-0.8c-5.5-0.6-41.7-14.4-44.9-13.6s3.1-2.1,0.3-6.5c-2.9-4.4-4.4-8.8-4.4-8.8
			s36.3,10.2,41.5,11.2c5.2,1,29.5,4.8,38.6,4.9c9.1,0.1,36.8-2.8,38.2-1.6C861.2,1616.5,865.7,1627.3,864.6,1629.9z"/>
		<path id="path5402" inkscape:connector-curvature="0" sodipodi:nodetypes="cscssccc" class="st91" d="M835.8,1614.7
			c0,0-33.1,4.1-48.1,10c-17,6.6-46.8,31.3-50.5,34.8c-3.7,3.5-8.3,2.4-9.2-1.4s-3.2-10.8-1.5-14.2c1.8-3.3,31-23.9,41.2-27.7
			c18.3-8.2,55.4-17.5,62.1-14.7C836.5,1604.3,835.8,1614.7,835.8,1614.7L835.8,1614.7z"/>
		<path id="path5404" inkscape:connector-curvature="0" class="st93" d="M675.6,1483.3c0,0,38.9-22.4,68.5-26.1s55.9,2.6,59.6,10.1
			c3.7,7.6-6.7,62.7-22.9,74C764.7,1552.7,695.2,1485.4,675.6,1483.3z"/>
		<path id="path5406" inkscape:connector-curvature="0" class="st91" d="M831.9,1527.4c0,0,10.3,9.8,4.6,12.7
			c-5.7,2.9-122.1-13-132.5-13.6c-10.4-0.7-26.6,0.3-29.1,2.4s-4.4-8.8-0.8-12.9c3.7-4.1,14.5-6.7,28.2-6.2
			C716.1,1510.2,819.4,1524.2,831.9,1527.4L831.9,1527.4z"/>
		<path id="path5408" inkscape:connector-curvature="0" sodipodi:nodetypes="ccssc" class="st91" d="M823.2,1489.6
			c0,0,11.2,14.3,3.5,15.4c-7.7,1.1-84.9,19-118.9,51.7c-14.9,14.3-20.7,1.2-16-7.5S748.6,1500.5,823.2,1489.6z"/>
		<path id="path5410" inkscape:connector-curvature="0" sodipodi:nodetypes="csssssc" class="st94" d="M683.3,1702.2
			c0,0,9.5,40.3-18.5,49.1c-28,8.8-56.6-46.6-61.2-69.7c-3.9-19.5-5-107.5-3.5-115.3c1-5.2,13.9,91.7,17.6,101.5
			c5.6,14.6,16.9,44.4,32.8,51.3C664.9,1725.2,680.7,1724.4,683.3,1702.2L683.3,1702.2z"/>
		<path id="path5322" inkscape:connector-curvature="0" class="st83" d="M402.2,1384c0,0,28.5-32.4,30.4-38.9s24-48.6,24-51.2
			s-1.9-18.1,2.6-22.7c4.5-4.5,20.7-16.2,27.8-17.5c7.1-1.3,24-2.6,29.1-4.5c5.2-1.9,22.7-3.2,32.4,0.6
			c9.7,3.9,54.4,95.9,49.9,102.3c-4.5,6.5-5.8,48.6-14.9,53.1c-9.1,4.5-42.7,25.9-63.5,17.5c-20.7-8.4-66.7-30.4-80.3-30.4
			C426.1,1392.4,402.2,1384,402.2,1384L402.2,1384z"/>
		<path id="path5324" inkscape:connector-curvature="0" class="st84" d="M514.9,1257.7c0,0-6.5,17.5-5.8,29.1
			c0.6,11.7-1.3,47.9-3.9,55c-2.6,7.1-21.4,36.3-27.8,40.8c-6.5,4.5-4.5,15.5-0.6,16.2c3.9,0.6,34.3,3.2,45.3,3.9
			c11,0.6,36.9-1.3,38.9-5.2c1.9-3.9,9.1-16.8,5.8-23.3c-3.2-6.5-11.7-31.7-16.8-39.5c-5.2-7.8-22-48.6-22.7-53.1
			S514.9,1266.1,514.9,1257.7L514.9,1257.7z"/>
		<path id="path4242" inkscape:connector-curvature="0" class="st85" d="M146.5,1895c0,0,22.9-52.2,26.6-55
			c3.7-2.7,35.7-61.4,38.5-67.8c2.7-6.4,37.6-68.7,40.3-75.1c2.7-6.4,47.6-118.2,50.4-123.6c2.7-5.5,15.6-65.9,15.6-72.4
			c0-6.4,13.7-56.8,13.7-62.3c0-5.5,1.8-28.4,1.8-28.4s2.7-7.3,7.3-9.2c4.6-1.8,13.7-0.9,13.7-0.9s4.6-14.7,9.2-18.3
			s21.1-10.1,25.6-9.2c4.6,0.9-3.7,2.7,0,6.4s79.7,11.9,87,6.4c7.3-5.5,11.9-7.3,16.5-5.5c4.6,1.8,20.1,13.7,21.1,22.9
			s32.1,12.8,43,7.3c11-5.5,25.6-10.1,29.3-23.8c3.7-13.7,9.2-36.6-0.9-49.5c-10.1-12.8-21.1-31.1-20.1-35.7
			c0.9-4.6-2.7-30.2-7.3-35.7c-4.6-5.5-10.1-12.8-13.7-16.5s19.2,3.7,22.9,8.2c3.7,4.6,21.1,30.2,27.5,39.4
			c6.4,9.2,18.3,35.7,24.7,42.1c6.4,6.4,22,33,25.6,39.4s15.6,35.7,13.7,48.5c-1.8,12.8-9.2,55.9-14.7,65.9
			c-5.5,10.1-33.9,62.3-41.2,81.5c-7.3,19.2-30.2,59.5-31.1,87.9c-0.9,28.4-9.2,90.7-18.3,106.2c-9.2,15.6-26.6,91.6-53.1,98.9
			c-26.6,7.3-87,53.1-109,45.8c-22-7.3-68.7-18.3-85.2-12.8s-87.9,38.5-102.6,28.4C188.7,1918.8,150.2,1907.8,146.5,1895L146.5,1895
			z"/>
		<path id="path5274" inkscape:connector-curvature="0" class="st86" d="M185.2,1820.5c0,0-16.2,16.8-18.1,20.1
			c-1.9,3.2-14.9,25.3-17.5,32.4c-2.6,7.1-5.8,23.3-5.2,29.8s16.8,73.2,20.7,73.8c3.9,0.6,109.5,16.2,119.2,13.6
			s147.7-65.4,152.8-74.5c5.2-9.1,93.9-77.1,95.9-83.5c1.9-6.5-9.1-18.8-13-19.4s-13-2.6-20.7,0c-7.8,2.6-28.5,11.7-30.4,16.2
			c-1.9,4.5-35.6,42.1-40.2,46.6c-4.5,4.5-19.4,24.6-27.8,25.3s-20.1,6.5-19.4-3.9c0.6-10.4,11-21.4,14.2-25.9
			c3.2-4.5,29.1-49.9,29.8-62.2c0.7-12.3,8.4-62.2,2.6-75.8c-5.8-13.6-14.2-41.4-24.6-49.9c-10.4-8.4-18.8-14.9-21.4-13
			c-2.6,1.9-16.8,33-16.8,36.9c0,3.9-5.2,22-0.6,26.6c4.5,4.5,14.9-0.6,18.1-0.6c3.2,0,13.6,3.2,14.9,9.7c1.3,6.5,7.8,41.4-1.9,62.2
			c-9.7,20.7-14.2,41.4-42.7,57.6c-28.5,16.2-79.7,33-82.9,32.4s-5.8,10.4-7.1,12.3c-1.3,1.9-31.7,7.8-34.3,4.5
			c-2.6-3.2-3.9-9.7-9.7-10.4c-5.8-0.6-23.3-0.6-23.3-6.5s3.9-23.3-1.3-28.5s-25.9-9.1-29.8-8.4S183.9,1823.1,185.2,1820.5
			L185.2,1820.5z"/>
		<path id="path5282" inkscape:connector-curvature="0" class="st87" d="M286.3,1985c0,0-39.5-38.9-45.3-49.2
			c-5.8-10.4,8.4,54.4,13.6,55.7C259.7,1992.7,281.7,1990.8,286.3,1985z"/>
		<path id="path5280" inkscape:connector-curvature="0" sodipodi:nodetypes="csccscc" class="st88" d="M172.9,1957.1
			c0,0-7.1-22.7-6.5-25.3c0.6-2.6,3.9-21.4,5.8-20.7c1.9,0.6,34.3,7.1,45.3,5.8c2.6,5.2-0.6,16.2,0.6,25.9
			c1.3,9.7,5.2,23.3,5.2,23.3S171,1962.9,172.9,1957.1L172.9,1957.1z"/>
		<path id="path5278" inkscape:connector-curvature="0" sodipodi:nodetypes="ccsc" class="st87" d="M169,1965.5l-13.6-34.3
			c0,0,3.2,33,9.1,41.4C172.6,1984.4,169,1965.5,169,1965.5z"/>
		<path id="path5276" inkscape:connector-curvature="0" class="st89" d="M163.2,1978.5c0,0,5.2-19.4,7.8-22
			c2.6-2.6,40.2-3.2,42.7-1.9c2.6,1.3,30.4,35,71.2,31.7s122.4-24.6,126.3-29.8c3.9-5.2,20.7-24,31.7-27.8
			c11-3.9,136-116.6,133.4-141.8c-2.6-25.3-2.6-115.9,3.9-125.6c6.5-9.7,49.9-98.4,59.6-104.9c9.7-6.5,33-92.6,32.4-109.5
			c-0.6-16.8,1.3-25.3,0.6-27.8s9.7,13,11,18.1c1.3,5.2,1.9,15.5,1.9,15.5s9.1,25.3,8.4,29.1s3.2,5.8,3.2,10.4
			c0,4.5,0,14.9-2.6,14.9s-3.2,11-3.2,11s3.9,7.1,1.9,12.3c-1.9,5.2-4.5,11-7.1,11.7c-2.6,0.6-3.2,9.1-3.2,13s-1.3,14.9-3.2,15.5
			s-7.8-3.2-9.1,1.3c-1.3,4.5-1.9,11.7-3.9,14.9c-1.9,3.2-40.8,22.7-49.2,28.5c-8.4,5.8-20.7,16.8-23.3,25.9
			c-2.6,9.1-20.1,73.8-11.7,96.5c8.4,22.7,14.9,25.9,14.2,29.1s-3.9,20.1-5.8,20.1c-1.9,0-7.1-10.4-9.1-7.8
			c-1.9,2.6-4.5,16.8-1.9,20.1c2.6,3.2,7.1,0.6,7.1,3.2s1.9,16.8-4.5,25.9c-6.5,9.1-4.5,12.3-5.8,12.3s-5.2-3.9-9.1-5.2
			c-3.9-1.3-6.5,9.1-3.9,11c2.6,1.9,7.8,3.2,5.8,7.1c-1.9,3.9-9.1,16.2-14.2,16.2s-12.3-6.5-17.5-3.9s-1.3,18.8-1.3,18.8
			s6.5,3.2,5.2,6.5c-1.3,3.2-11,14.9-15.5,18.8c-4.5,3.9-13.6,11-17.5,11s-23.3-2.6-27.2-1.9c-3.9,0.6,4.5,13,4.5,13
			s2.6,1.9-1.3,6.5c-3.9,4.5-28.5,13.6-31.7,14.2c-3.2,0.6-32.4-2.6-35-3.9c-2.6-1.3-5.2,14.2-7.8,18.8c-2.6,4.5-1.3,9.1-5.8,9.7
			c-4.5,0.6-36.9,11.7-40.2,10.4c-3.2-1.3-14.2-9.1-16.8-6.5c-2.6,2.6,0.6,9.1-2.6,11c-3.2,1.9-23.3,4.5-29.8,3.9
			c-6.5-0.6-17.5,3.9-25.9,5.2c-8.4,1.3-25.9,4.5-31.1,3.9c-5.2-0.6-9.7,1.3-16.2,1.3c-6.5,0-27.8,0-35-3.9
			c-7.1-3.9-24.6-11.7-29.8-13C172.3,1988.2,165.8,1981.7,163.2,1978.5L163.2,1978.5z"/>
		<path id="path5288" inkscape:connector-curvature="0" class="st88" d="M473.4,1872.9l-37.6-1.3l27.2-32.4l38.9,3.2L473.4,1872.9z"
			/>
		<path id="path5290" inkscape:connector-curvature="0" class="st87" d="M437.8,1905.3c0,0-9.7-13-11-13.6
			c-1.3-0.6,16.2,5.8,16.8,8.4C444.3,1902.7,437.8,1905.3,437.8,1905.3z"/>
		<path id="path5286" inkscape:connector-curvature="0" sodipodi:nodetypes="csssc" class="st88" d="M356.2,1959.1
			c0,0-67.4-51.8-69.9-51.8c-2.6,0,62.8-23.2,70.6-32.4c2.4-2.9,64.8,40.8,63.5,44C419,1922.1,355.6,1954.5,356.2,1959.1z"/>
		<path id="path5284" inkscape:connector-curvature="0" class="st88" d="M313.5,1973.3c0,0-18.8-31.7-24-34.3
			c-5.2-2.6,38.9,24.6,39.5,28.5S313.5,1973.3,313.5,1973.3z"/>
		<path id="path5272" inkscape:connector-curvature="0" class="st90" d="M282.4,1985c0,0,101-44,103.6-47.9c2.6-3.9,79-55.7,81-59.6
			c1.9-3.9,58.3-57,58.3-60.2s29.1-70.6,29.8-75.1c0.6-4.5,10.4-50.5,9.7-58.9c-0.6-8.4,9.1-51.2,11.7-55c2.6-3.9,19.4-50.5,22.7-55
			c3.2-4.5,24-57.6,30.4-63.5c6.5-5.8,20.1-31.1,20.1-38.9c0-7.8,7.1-35,6.5-39.5s-2.6-44-7.8-47.9c-5.2-3.9,20.1,24.6,24,31.7
			s7.1,18.1,7.8,30.4c0.6,12.3-0.6,55-3.9,64.1c-3.2,9.1-14.9,47.3-20.1,57c-5.2,9.7-20.1,27.8-24.6,31.7
			c-4.5,3.9-24.6,21.4-28.5,29.1c-3.9,7.8-17.5,42.7-16.8,49.2c0.6,6.5,3.9,53.8,5.8,60.9c1.9,7.1-0.6,35.6-3.9,36.9
			s-5.2-1.3-5.2-1.3s4.5,15.5,3.2,19.4s-14.2,40.8-19.4,49.9c-5.2,9.1-13.6,24-17.5,23.3c-3.9-0.6-6.5-5.8-7.1-1.9s1.9,13-0.6,14.2
			c-2.6,1.3-25.9,21.4-31.1,26.6c-5.2,5.2-35.6,23.3-43.4,25.9S436,1950,432.8,1950c-3.2,0-5.2-7.1-8.4-4.5
			c-3.2,2.6-5.2,11.7-7.8,11.7c-2.6,0-48.6,16.8-52.5,19.4c-3.9,2.6-5.2-3.2-5.2-3.2s-3.9,7.8-7.8,7.8
			C347.1,1981.1,292.7,1988.2,282.4,1985L282.4,1985z"/>
		<path id="path5292" inkscape:connector-curvature="0" sodipodi:nodetypes="csccssc" class="st91" d="M288.8,1718.8
			c0,0-18.8-10.4-24.6-17.5c-5.8-7.1-11-14.2-11-14.2s-8.4,14.2-6.5,17.5c1.9,3.2,11.6,15.8,15.5,18.8c5.2,3.9,23.3,18.1,24,14.2
			S286.3,1722,288.8,1718.8z"/>
		<path id="path5294" inkscape:connector-curvature="0" class="st91" d="M311.5,1724c0,0,55-14.9,62.8-15.5c7.8-0.6,17.5-3.2,22-1.3
			c4.5,1.9,5.8,3.9,6.5,6.5s-3.2,9.1-7.8,10.4c-4.5,1.3-40.2,6.5-49.2,9.7s-35.6,7.1-36.9,9.1C307.6,1744.7,308.9,1725.9,311.5,1724
			z"/>
		<path id="path5296" inkscape:connector-curvature="0" sodipodi:nodetypes="cscssscsc" class="st91" d="M301.8,1663.7
			c0,0-24,9.7-25.9,13.6c-1.9,3.9-1.9,21.4-1.9,21.4s10.4-11.7,23.3-16.2c12.5-4.4,35.6-13,64.8-14.9c19.4-1.3,22.7-0.6,22.7-3.9
			s3.2-13.6,3.9-14.9s-51.8,3.9-60.2,6.5C319.9,1657.9,310.9,1659.2,301.8,1663.7z"/>
		<path id="path5298" inkscape:connector-curvature="0" sodipodi:nodetypes="cssssc" class="st91" d="M288.2,1652.7
			c0,0,31.1,18.8,38.9,23.3c7.8,4.5,40.8,24,40.2,25.9c-0.6,1.9,5.8-17.5,7.8-19.4c1.9-1.9-75.1-45.3-79.7-45.3
			C294,1637.2,290.8,1646.9,288.2,1652.7L288.2,1652.7z"/>
		<path id="path5300" inkscape:connector-curvature="0" sodipodi:nodetypes="csssssc" class="st91" d="M275.2,1632
			c0,0,31.1-11.5,47.3-14.9c27.8-5.8,76.4-14.9,79.7-13.6c3.2,1.3,0.6-10.4,2.6-13.6c1.9-3.2-58.3,6.5-67.4,9.1s-52.5,13-56.3,14.9
			C277.2,1615.8,275.9,1624.2,275.2,1632z"/>
		<path id="path5302" inkscape:connector-curvature="0" sodipodi:nodetypes="cssssssc" class="st91" d="M416.4,1656.6
			c0,0-7.8,2.6-13.6-4.5c-5.8-7.1-41.8-36.2-51.8-41.4c-14.9-7.8-33.7-13-38.2-13s-1.3-12.3,2.6-13c3.9-0.6,26.9,1.4,42.1,10.4
			c15.5,9.2,47.9,32.4,51.2,36.9C411.9,1636.5,421.6,1651.4,416.4,1656.6L416.4,1656.6z"/>
		<path id="path5308" inkscape:connector-curvature="0" sodipodi:nodetypes="ccssssc" class="st91" d="M310.2,1525.8
			c0,0-4.5,11.7-1.9,14.9c2.6,3.2,19.4-5.2,43.4-11.7c24-6.5,75.1-22,77.7-20.1s0.6-13,1.9-15.5s-42.7,14.9-57,18.1
			C360.1,1514.8,323.8,1518,310.2,1525.8L310.2,1525.8z"/>
		<path id="path5310" inkscape:connector-curvature="0" sodipodi:nodetypes="cscssc" class="st91" d="M337.4,1511.5
			c0,0,73.2,7.8,86.8,18.1c13.6,10.4,22.7,7.8,24.6,7.1c1.9-0.6-0.6-9.7-6.5-14.9c-5.8-5.2-59.9-28-95.9-25.3
			C333.8,1497.6,337.4,1511.5,337.4,1511.5z"/>
		<path id="path5312" inkscape:connector-curvature="0" class="st92" d="M365.9,1477.9c0,0-14.2,27.8-14.2,42.7
			c0,14.9-3.2,42.7,0.6,46.6c3.9,3.9,7.1,8.4,16.2,8.4s16.2,1.3,16.8-3.9c0.6-5.2-3.9-43.4-1.9-54.4c1.9-11,9.7-38.9,13-42.1
			C399.6,1472,369.8,1475.9,365.9,1477.9L365.9,1477.9z"/>
		<path id="path5304" inkscape:connector-curvature="0" sodipodi:nodetypes="csscscccsc" class="st91" d="M297.3,1573.1
			c0,0,10.4,0.6,20.7-0.6c10.4-1.3,38.2-1.3,53.1-3.9c5.5-0.9,40.8-16.8,44-16.2c3.2,0.6-3.2-1.9-0.6-6.5c2.6-4.5,3.9-9.1,3.9-9.1
			s-35.6,12.3-40.8,13.6c-5.2,1.3-29.1,6.5-38.2,7.1s-36.9-0.6-38.2,0.6C299.9,1559.5,296,1570.5,297.3,1573.1z"/>
		<path id="path5306" inkscape:connector-curvature="0" sodipodi:nodetypes="cscssccc" class="st91" d="M325.1,1556.2
			c0,0,33.3,2.2,48.6,7.1c17.3,5.6,48.6,28.5,52.5,31.7c3.9,3.2,8.4,1.9,9.1-1.9c0.6-3.9,2.6-11,0.6-14.2
			c-1.9-3.2-32.4-22-42.7-25.3c-18.8-7.1-56.3-14.2-62.8-11C323.8,1545.9,325.1,1556.2,325.1,1556.2z"/>
		<path id="path5318" inkscape:connector-curvature="0" class="st93" d="M477.3,1415.7c0,0-40.2-20.1-69.9-22
			c-29.8-1.9-55.7,5.8-58.9,13.6c-3.2,7.8,10.4,62.2,27.2,72.5C392.5,1490.2,457.9,1418.9,477.3,1415.7z"/>
		<path id="path5314" inkscape:connector-curvature="0" class="st91" d="M323.8,1468.8c0,0-9.7,10.4-3.9,13
			c5.8,2.6,121.1-20.1,131.5-21.4c10.4-1.3,26.6-1.3,29.1,0.6s3.9-9.1,0-13c-3.9-3.9-14.9-5.8-28.5-4.5
			C438.4,1444.8,336.1,1464.9,323.8,1468.8L323.8,1468.8z"/>
		<path id="path5316" inkscape:connector-curvature="0" sodipodi:nodetypes="ccssc" class="st91" d="M330.3,1430.6
			c0,0-10.4,14.9-2.6,15.5s85.9,14,121.8,44.7c15.7,13.4,20.7,0,15.5-8.4C459.8,1474,405.4,1437.1,330.3,1430.6z"/>
		<path id="path5320" inkscape:connector-curvature="0" sodipodi:nodetypes="csssssc" class="st94" d="M482.5,1634.6
			c0,0-7.1,40.8,21.4,47.9c28.5,7.1,53.8-49.9,57-73.2c2.7-19.7-1.3-107.6-3.2-115.3c-1.3-5.2-8.5,92.3-11.7,102.3
			c-4.8,14.9-14.2,45.3-29.8,53.1C502.2,1656.5,486.4,1656.6,482.5,1634.6L482.5,1634.6z"/>
	</g>
	<g id="Skateboard" transform="matrix(0.15913459,0,0,0.15913459,715.7727,525.75851)">
		<path id="path5497" inkscape:connector-curvature="0" class="st95" d="M307.9,2280.4c-30.9,1.7-59.1,24.3-60.2,51.4
			c-1.1,27.1,18.2,59.7,50.8,59.7s64.7-24.9,61.9-60.2C357.6,2295.9,327.8,2280.4,307.9,2280.4z"/>
		<path id="path5501" inkscape:connector-curvature="0" class="st95" d="M1158.9,2279c30.9,1.7,59.1,24.3,60.2,51.4
			s-18.2,59.7-50.8,59.7c-32.6,0-64.7-24.9-61.9-60.2C1109.1,2294.5,1139,2279,1158.9,2279L1158.9,2279z"/>
		<path id="path5503" inkscape:connector-curvature="0" class="st96" d="M1165.6,2296c31.5,0.5,41.3,30.5,41.3,39.8
			s-9.8,44.3-40.3,44.3c-30.5,0-44.3-22.6-44.3-44.8S1145,2295,1165.6,2296z"/>
		<path id="path5505" inkscape:connector-curvature="0" class="st97" d="M1233,2244.6l35,8.4c0,0-0.6,5.8-3.2,7.8s-15.5,0-16.2,2.6
			c-0.6,2.6-10.4,25.9-10.4,25.9l-8.4,13c0,0-5.2-5.2-7.8-3.9c-2.6,1.3-4.5,10.4-4.5,10.4s-23.3,1.3-34.3,9.1
			c-11,7.8-23.3,24-24,26.6s-10.4-5.8-11.7-9.1c-1.3-3.2,6.5-5.8,16.8-11c10.4-5.2,22-13.6,27.2-24.6s8.4-12.3,4.5-14.9
			c-3.9-2.6-13-8.4-20.7-7.8c-7.8,0.6-20.1,10.4-24,15.5c-3.9,5.2-14.9,10.4-23.3,12.3c-8.4,1.9-20.1,3.9-21.4,0s-11-43.4-13.6-45.3
			c-2.6-1.9,5.8,1.3,7.1,2.6c1.3,1.3,0-11.7-2.6-13C1095,2247.8,1214.8,2242,1233,2244.6L1233,2244.6z"/>
		<path id="path5483" inkscape:connector-curvature="0" sodipodi:nodetypes="cssssssssssssssssssc" class="st98" d="M-134.8,2141.5
			c0,0-11.7,8.1-9.9,14.5s6.4,14.7,19.2,22.9s88.8,42.1,98,45.8s82.4,28.4,104.4,30.2s87.9,2.7,108.1-1.8c20.1-4.6,120-11,142-11.9
			s619.1-1.8,629.2-1.8c10.1,0,201.5-1.8,210.7,0s100.7,15.6,112.7,16.5c11.9,0.9,22.9,2.7,48.5,1.8c25.6-0.9,94.3-19.2,109-23.8
			s110.8-36.6,118.2-41.2c7.3-4.6,58.6-30.2,59.5-33.9s4.6-16.5,0-20.1c-4.6-3.6-5.5-5.8-9.2-5.8s-230.8,87.3-283.9,80.9
			c-53.1-6.4-364.5-10.1-374.6-10.1c-10.1,0-708.9,0-745.5,1.8S-120.1,2155.4-134.8,2141.5L-134.8,2141.5z"/>
		<path id="path5481" inkscape:connector-curvature="0" class="st99" d="M-137.3,2143c0,0,9.1-6.5,22-7.8
			c13-1.3,133.4,18.1,149,23.3c15.5,5.2,128.2,35,146.4,36.3c18.1,1.3,73.8,1.3,108.8-3.9s259.1-6.5,305.7-5.2s478,3.9,488.3,3.9
			c10.4,0,115.3,11.7,142.5,11.7c27.2,0,90.7-7.8,120.5-16.8c29.8-9.1,172.3-45.3,196.9-47.9c24.6-2.6,58.3-5.2,64.8-3.9
			c6.5,1.3-27.2,25.9-46.6,33.7c-19.4,7.8-134.7,46.6-146.4,50.5c-11.7,3.9-67.4,16.8-94.6,15.5c-27.2-1.3-106.2-10.4-119.2-14.2
			c-13-3.9-154.1-6.5-171-3.9c-16.8,2.6-602.3,2.6-616.5,2.6s-136,0-152.8,1.3c-16.8,1.3-89.4,13-101,13c-11.7,0-92,0-115.3-7.8
			s-107.5-33.7-121.8-41.4S-129.5,2150.7-137.3,2143L-137.3,2143z"/>
		<path id="path5499" inkscape:connector-curvature="0" class="st96" d="M301.1,2297.4c-31.5,0.5-41.3,30.5-41.3,39.8
			s9.8,44.3,40.3,44.3c30.5,0,44.3-22.6,44.3-44.8S321.8,2296.4,301.1,2297.4z"/>
		<path id="path5485" inkscape:connector-curvature="0" class="st97" d="M233.8,2245.9l-35,8.4c0,0,0.6,5.8,3.2,7.8
			c2.6,1.9,15.5,0,16.2,2.6c0.6,2.6,10.4,25.9,10.4,25.9l8.4,13c0,0,5.2-5.2,7.8-3.9c2.6,1.3,4.5,10.4,4.5,10.4s23.3,1.3,34.3,9.1
			c11,7.8,23.3,24,24,26.6c0.6,2.6,10.4-5.8,11.7-9.1s-6.5-5.8-16.8-11s-22-13.6-27.2-24.6c-5.2-11-8.4-12.3-4.5-14.9
			c3.9-2.6,13-8.4,20.7-7.8c7.8,0.6,20.1,10.4,24,15.5c3.9,5.2,14.9,10.4,23.3,12.3s20.1,3.9,21.4,0s11-43.4,13.6-45.3
			s-5.8,1.3-7.1,2.6c-1.3,1.3,0-11.7,2.6-13C371.7,2249.2,251.9,2243.4,233.8,2245.9L233.8,2245.9z"/>
		<path id="path5489" inkscape:connector-curvature="0" class="st100" d="M251.9,2310.7c-36.3,1.9-69.3,28.5-70.6,60.2
			c-1.3,31.7,21.4,69.9,59.6,69.9s75.8-29.1,72.5-70.6C310.2,2328.8,275.2,2310.7,251.9,2310.7L251.9,2310.7z"/>
		<path id="path5493" inkscape:connector-curvature="0" class="st101" d="M238.3,2325.6c-41.4,0.6-54.4,40.2-54.4,52.5
			s13,58.3,53.1,58.3c40.2,0,58.3-29.8,58.3-58.9C295.3,2348.3,265.5,2324.3,238.3,2325.6z"/>
		<path id="path5495" inkscape:connector-curvature="0" sodipodi:nodetypes="csssc" class="st102" d="M239.5,2353.8
			c-23.4,1.8-25,25.5-24.3,32.5c0.6,5.8,10.1,21.1,24.3,19.7c14.2-1.4,27.9-11.9,26.6-27.9S254.2,2356.6,239.5,2353.8L239.5,2353.8z
			"/>
		<path id="path5507" inkscape:connector-curvature="0" class="st100" d="M1214.8,2309.3c36.3,1.9,69.3,28.5,70.6,60.2
			c1.3,31.7-21.4,69.9-59.6,69.9c-38.2,0-75.8-29.1-72.5-70.6C1156.6,2327.5,1191.5,2309.3,1214.8,2309.3L1214.8,2309.3z"/>
		<path id="path5509" inkscape:connector-curvature="0" class="st101" d="M1228.4,2324.2c41.4,0.6,54.4,40.2,54.4,52.5
			s-13,58.3-53.1,58.3c-40.2,0-58.3-29.8-58.3-58.9C1171.4,2346.9,1201.2,2322.9,1228.4,2324.2z"/>
		<path id="path5511" inkscape:connector-curvature="0" sodipodi:nodetypes="csssc" class="st102" d="M1227.3,2352.5
			c23.4,1.8,25,25.5,24.3,32.5c-0.6,5.8-10.1,21.1-24.3,19.7c-14.2-1.4-27.9-11.9-26.6-27.9
			C1202.1,2360.7,1212.6,2355.2,1227.3,2352.5L1227.3,2352.5z"/>
	</g>
	<g id="Backpack" transform="translate(316.69342,-481.8403)">
		<path id="path5776" inkscape:connector-curvature="0" class="st103" d="M1146.2,1460.2c0,0-0.7,11.4,0.5,14.4s8.5,9.6,12.4,10.5
			s35.5,7.8,40.3,8.7c4.8,0.9,51.7,7.8,55.2,7.3c3.4-0.5,8.7-2.7,10.5-4.4s5.7-5.7,8.2-6c2.5-0.2,12.6-5.7,13.7-7.8
			c1.1-2.1,8.5-11.9,8.5-14.7s1.8-19.5,1.8-22.7s-3-20.6-4.6-24s-4.1-14.7-5.3-15.1c-1.1-0.5-32.1,45.6-30.7,50.1
			c1.4,4.6-74.4,6.6-86.6,6.2S1146.9,1459.2,1146.2,1460.2L1146.2,1460.2z"/>
		<path id="path5774" inkscape:connector-curvature="0" class="st104" d="M1146.9,1460.2c0,0,0-17.2,0.5-25.2s6.2-20.6,6.6-22.9
			c0.5-2.3,3.4-10.5,4.1-15.6c0.7-5,3.9-25.9,3.7-27.7c-0.2-1.8,8-15.8,8.7-18.1c0.7-2.3,5.5-14.7,9.2-16.7
			c3.7-2.1,13.5-5.5,15.3-6.9s9.2-5,9.8-6c0.7-0.9,13.1-5.3,16.5-5.7c3.4-0.5,17.4-0.7,21.3-0.5s22,4.8,25.4,6.9s9.4,8.2,11,13.3
			c1.6,5,3.2,21.3,3,24.5s-1.4,16-0.2,18.1c1.1,2.1,2.7,12.8,3,16.5s0.9,10.5,2.1,12.6c1.1,2.1-2.5,5.5-2.1,8.2
			c0.5,2.7-0.7,5.5-1.8,8c-1.1,2.5-6.9,7.8-6.9,10.3s-2.3,1.8-2.3,4.8s0.5,8.9-0.5,9.8s-4.6,3.7-4.6,5.5s-1.6,0.5-1.4,3.9
			s1.4,8.5,0.2,11s-9.4,7.1-10.8,8.5s-16.3,6.6-17.9,8s-20.8,0.5-28.2,0.2s-30.2-4.1-37.6-7.6c-7.3-3.4-21.3-9.4-22.9-11.7
			C1148.8,1463.6,1147.2,1461.1,1146.9,1460.2L1146.9,1460.2z"/>
		<path id="path5778" inkscape:connector-curvature="0" sodipodi:nodetypes="ccccssssccccssccccc" class="st103" d="M1148.1,1464.1
			c0,0,2.1-24.3,2.5-27c0.5-2.7,3.7-20.1,4.8-22.2c1.1-2.1,9.2-19.2,12.4-21.8c3.2-2.5,15.1-5.7,17.9-5.7s22.2,1.8,25.9,3.4
			s15.3,6.4,20.6,15.1s10.8,11.9,12.8,23.4c2.1,11.4,6.9,48.3,6.4,49.9s-6,3.7-8,3.7c-1.4,0.5-1.8-30.2-3-36.2
			c-1.1-6-4.8-27.2-8.7-33c-3.9-5.7-6.9-14-16.3-17.2s-25.6-6.9-31.1-6s-14.9,3.2-15.8,6c-0.9,2.7-7.8,13.5-8.5,16.7s-4.8,14.2-6,22
			c-1.1,7.8-1.8,30.7-1.6,32.3C1152.7,1469.1,1150.8,1465.4,1148.1,1464.1L1148.1,1464.1z"/>
		<path id="path5780" inkscape:connector-curvature="0" class="st103" d="M1157.2,1424.2c0,0,24.3-0.2,30,0s50.6,11.9,51.3,13.1
			c0.7,1.1-2.1-10.1-2.7-11s-34.3-11-40.5-11s-34.6-1.1-35.5-0.2S1158.1,1423.1,1157.2,1424.2L1157.2,1424.2z"/>
		<path id="path5782" inkscape:connector-curvature="0" class="st103" d="M1186.8,1424.9c0,0-2.1,23.6-1.1,30s3.9,26.1,5,27.2
			s11.4,1.8,12.4,1.8s-3.4-20.6-3.9-27.2s-0.7-29.1,0.2-29.5C1200.3,1426.7,1188.6,1423.5,1186.8,1424.9z"/>
		<path id="path5784" inkscape:connector-curvature="0" sodipodi:nodetypes="ccscc" class="st103" d="M1193,1387.1
			c0,0,0.2-12.6,1.1-12.4s11.2,3.4,12.4,2.1c1.1-1.4-2.1,11.2-0.9,12.1C1206.7,1389.9,1193.9,1388.3,1193,1387.1z"/>
		<path id="path5786" inkscape:connector-curvature="0" sodipodi:nodetypes="csssssssssssc" class="st103" d="M1188.6,1333.3
			c0,0-7,10-9.4,15.3c-3.6,8-1.1,13.3,0.9,15.8c3.2,3.9,9.8,7.3,17.2,7.6c7.3,0.2,17.5,1.8,23.8-3.2c9.6-7.6,15.8-24.7,16-28.2
			s6.4,1.6,6.4,3s-6.8,16.8-11.2,22.4c-4.2,5.4-11.5,9.3-20.1,10.5c-8.4,1.2-17.4-0.6-25.9-3.2c-7.3-2.3-10.7-7.3-11.2-13.1
			c-0.7-8.7,6.9-23.1,8.7-25C1185.6,1333.5,1188.6,1333.3,1188.6,1333.3L1188.6,1333.3z"/>
		<path id="path5790" inkscape:connector-curvature="0" class="st103" d="M1254.3,1374.3c0,0,3.9,25.2,3.9,29.5s3.2,17.4,3.9,19
			s3.7,17.4,3.2,19.7c-0.5,2.3,0.9-12.1-0.5-19s-4.4-18.3-4.1-21.8s0.9-11.9,0.5-14.4c-0.5-2.5-3-13.7-3.9-14.4
			S1256.8,1373.6,1254.3,1374.3z"/>
		<path id="path5792" inkscape:connector-curvature="0" class="st103" d="M1191.1,1329.4c0,0,21.8-0.5,23.8,0.5
			c2.1,0.9,5.5,3.7,8.2,3.7s7.1-1.1,11.9,0.9c4.8,2.1,16.3,10.5,20.8,15.1s8.9,19,10.1,25.6c1.1,6.6,1.8,25.4,1.1,27.9
			c-0.7,2.5-1.4,9.8-1.1,11.7c0.2,1.8,3,8.9,3.2,11.9s-0.2,25.2-0.7,27s3.4-12.1,3.4-19.2s-1.6-16.7-2.5-18.1s0.2-15.1,0.5-18.8
			s0.2-19.2-0.9-24.7s-6-20.4-8.2-22.9s-8.7-10.5-15.8-13.7s-10.1-5-13.3-5.3c-3.2-0.2-6.4,0.7-8.9-0.2s-3.9-1.8-7.3-2.7
			s-21.3-0.9-22.2-0.5C1192.3,1328,1191.1,1329.4,1191.1,1329.4L1191.1,1329.4z"/>
		<path id="path5794" inkscape:connector-curvature="0" class="st103" d="M1201.4,1323.5c0,0,12.6-2.1,16.7-1.1s13.5-0.2,14.7,1.6
			c1.1,1.8,4.4,4.1,7.1,3.7c2.7-0.5,4.6-1.8,6.9,0s9.6,5.5,11.9,8.5s11.2,22.7,11.2,24.5s2.7,14.2,2.5,18.5
			c-0.2,4.4,0.9,14.2,0.7,16.9c-0.2,2.7,1.4,26.8,1.4,30s0.9,9.6,1.1,8.7s-0.9-10.3-0.9-14.9s-1.4-28.9-1.4-31.4s-0.7-16-0.7-17.6
			s-2.3-12.4-1.6-13.3c0.7-0.9,3.2,3.7,3.2,5.3s1.4,16.7,1.6,19s3,11.2,3,12.6s1.6,20.6,1.6,22.4s0.9,9.2,0.9,9.2l2.1-4.8
			c0,0-1.8-10.1-1.8-14.9s0.9-8.2-0.7-11.7c-1.6-3.4-4.4-14-4.4-17.6s-0.5-12.6-0.7-14.2s-1.4-5.7-3-8.7s-6.4-11.9-7.6-14
			c-1.1-2.1-5-6.2-8.7-9.2s-9.8-5.5-12.6-6.2c-2.7-0.7-10.5-3.7-14-3.7s-22.2-0.2-24.3,0.2
			C1203.7,1321.9,1201.9,1322.1,1201.4,1323.5L1201.4,1323.5z"/>
		<path id="path5788" inkscape:connector-curvature="0" sodipodi:nodetypes="ccccsssc" class="st103" d="M1252.9,1413.9
			c0,0,14.2-7.8,18.3-15.8c4.1-8,7.3-22.7,6.9-25c-0.5-2.3,2.7-2.1,2.7-2.1s0.2,8-0.5,11.9s-3.5,13.7-6.2,19.7
			c-2.7,6.2-11.5,18.3-19.2,22.2C1253.6,1425.6,1255,1416.4,1252.9,1413.9L1252.9,1413.9z"/>
		<path id="path5796" inkscape:connector-curvature="0" class="st105" d="M1203.3,1320.9c0,0,6.9-8.7,9.8-10.3c3-1.6,8.5-4.6,16-5
			c7.6-0.5,19.7,3.4,21.5,4.6c1.8,1.1,11.4,7.1,11.4,8.5s-5,7.1-7.1,6.9s-8-8.7-9.4-9.4c-1.4-0.7-7.3-7.1-10.8-7.3s-12.4-0.7-14,1.4
			s-6,6.9-7.1,7.8C1212.6,1318.9,1204.6,1320.7,1203.3,1320.9L1203.3,1320.9z"/>
	</g>
</g>
<path id="path4684" sodipodi:cx="659.35077" sodipodi:cy="121.72581" sodipodi:end="6.283" sodipodi:rx="33.92857" sodipodi:ry="6.0714288" sodipodi:start="0" sodipodi:type="arc" class="st106" d="
	M863.2,152.6c0,3.4-15.2,6.1-33.9,6.1s-33.9-2.7-33.9-6.1c0-3.4,15.2-6.1,33.9-6.1S863.2,149.3,863.2,152.6h-33.9H863.2z"/>
</svg>
