<?xml version="1.0" encoding="utf-8"?>
<!-- Generator: Adobe Illustrator 19.2.1, SVG Export Plug-In . SVG Version: 6.00 Build 0)  -->
<svg version="1.1" id="Layer_1" xmlns="http://www.w3.org/2000/svg" xmlns:xlink="http://www.w3.org/1999/xlink" x="0px" y="0px"
	 viewBox="0 0 612 792" style="enable-background:new 0 0 612 792;" xml:space="preserve">
<style type="text/css">
	.st0{fill:#020202;stroke:#020202;}
	.st1{fill:url(#path4180_6_);stroke:#020202;}
	.st2{fill:url(#path4180_7_);stroke:#020202;}
	.st3{fill:url(#path4180_8_);stroke:#020202;}
	.st4{fill:url(#path4180_9_);stroke:#020202;}
	.st5{fill:url(#path4180_10_);stroke:#020202;}
	.st6{fill:url(#path4180_11_);stroke:#020202;}
</style>
<g id="Roach_7_">
	<g id="Roach_6" transform="translate(-209.83059,-347.01403)">
		<g id="Roach_5_" transform="translate(-23.146657,11.254371)">
			<g id="g4222_4_" transform="matrix(0.19792639,0,0,0.19792639,170.23744,185.41242)">
				<g id="g4233_4_" transform="translate(30.622068,153.11034)">
					<path id="path4214_4_" class="st0" d="M1691,2622.6c0,0-1.9-5-0.4-6.7c1.5-1.8-9.1-12.9-10.6-13.4s4-6,4-6l-2.4-1.7l5.8,2.3
						c0,0-4.6,4-4.1,4.9s8.7,9.9,8.5,13.1C1691.5,2618.5,1691,2622.6,1691,2622.6z"/>
					<path id="path4220_4_" class="st0" d="M1667.3,2590.4l0.1,5c0,0,2.3,6.9,3.6,7.8c1.2,0.9,1.8,3.4,7,6.2
						c5.2,2.8,13.1,5.6,14.3,5.8s14.3,1,15.3,1.1c4.1,0.7,6.7,0.9,8.6,1.6c2.6,0.9,5.7,2.3,7.7,4c2.1,1.9,3.1,2.5,2.4,3.5
						c0,0,1.3-2.2-6.3-6.2c-9.1-4.9-23.1-2.5-33-6.7c-10-4.3-14.8-9.8-14.8-9.8s-3.5-4.9-2.8-6.4s-1.1-5.2-1.1-5.2l0.1-1.2
						L1667.3,2590.4z"/>
					<path id="path4212_4_" class="st0" d="M1676.6,2594.2l-1.6,4.6l-7.6,2.3c0,0-4.1,3.5-4.1,4.9c0,1.3-0.4,2.1-0.4,2.1l5-6.1
						c0,0,8.3-2,9-1.2c0.7,0.8,1.2-5.7,2.3-6.7C1680.2,2592.9,1678.8,2592.3,1676.6,2594.2z"/>
					<path id="path4208_4_" class="st0" d="M1683.7,2576.5c0,0-1.3-6.6-1.6-7.7c-0.3-1,8.7-2.1,9-2.8c0.3-0.6-0.5-1.5,1.2-2.5
						c1.8-1,3.2-0.3,4-2.9c0.9-2.6,0.9-3,0.9-3s0.8,3.1,0.3,3.9c-0.5,0.8-1.2,0.8-1.2,0.8s-3.1,1.9-3.8,2.5
						c-0.8,0.6-0.1,1.9-1.1,2.4c-1.1,0.5-6.3,2-5.9,2.9s1.6,6.9,0.7,7C1685.1,2577.2,1683.7,2576.5,1683.7,2576.5z"/>
					<path id="path4206_4_" class="st0" d="M1677.7,2578.1c0,0-0.9-4.3-0.7-4.8c0.2-0.4-8,0.8-9.4,0.3c-1.3-0.5-4.2-5.7-7.5-5.1
						c-3.3,0.6,2.1-1.5,3.7,0c1.5,1.5,4.3,4.3,4.3,4.3s10-1.5,10.1-2.4s1.1,6.5,1.6,6.4C1680.4,2576.6,1677.7,2578.1,1677.7,2578.1z
						"/>
					<path id="path4216_4_" class="st0" d="M1692.4,2598.3c0,0-2.1,8-1.7,8.3s1.7,1.1,2.5,1s16.9-0.7,17.8-0.9c1-0.3,2.7,1.6,3.5,2
						s14.5,5.1,14.8,5.6c0.3,0.4-13.8-6.3-14.4-6.5c-0.7-0.2-3-2.5-3.5-2.3c-0.4,0.2-9.9,1.3-17.5-0.2c0,0,1.7-2.8,2-6
						C1696,2597.1,1692.4,2598.3,1692.4,2598.3z"/>
					<path id="path4210_4_" class="st0" d="M1689.5,2577.1l2.7-3.3c0,0,0-3.2,0.7-3.3s6.3,2.5,6.8,2.3s4.8,0.2,5.1,0.7
						s3.2,1,3.8,0.5c0.7-0.5,8.8-3.8,9.1-3.6c0.4,0.2-4.6,2-5.3,3.4c-0.6,1.4-5.3,1.9-7.1,1.2c-1.8-0.7-6.5-0.1-8.1-1.3
						c-1.5-1.2-2.7-1-2.7-1s-0.8,4.6-2.3,4.8C1691,2577.9,1689.5,2577.1,1689.5,2577.1z"/>
					
						<linearGradient id="path4180_6_" gradientUnits="userSpaceOnUse" x1="-61136.0273" y1="15480.3418" x2="-61131.2461" y2="15491.3877" gradientTransform="matrix(9.653155e-04 7.581208e-04 -7.581208e-04 9.653155e-04 5232.1436 -1006.8334)">
						<stop  offset="0" style="stop-color:#2A1B12"/>
						<stop  offset="1" style="stop-color:#7A4623"/>
					</linearGradient>
					<path id="path4180_4_" class="st1" d="M1677.1,2576.5c0,0-10-0.4-13.6,6.5c-3.6,6.7,13,11.3,13,11.3s1.7-0.5,1.8-1.2
						c0.1-0.7,4.5,5.4,22.2,6.7c17.8,1.3,23.3-3,23.3-3s-1.3-2.2-1-3.4c0.4-1.2-12.1-10.5-13.4-10.9s-11.5-5.1-17.2-5
						c-5.7,0.2-11.3-1.8-14.3-0.1C1677.9,2577.4,1677.9,2577.4,1677.1,2576.5z"/>
					<path id="path4218_4_" class="st0" d="M1664.7,2581.4c0,0-0.7-9.5,0-10.7s4.4-6.7,5.5-6.8s6.7-1.4,7.2-1.1
						c0.5,0.3,5.2,0.4,6.4,0.7s22.8,5.9,26.6,3.3c2.4-1.7,2.4-1.7,2.4-1.7s-4.1,5.7-23.2,0.2c-19.1-5.5-23.3,4.3-23.3,4.3
						s-0.3,7.3-0.3,7.8C1665.8,2577.9,1664.7,2581.4,1664.7,2581.4z"/>
				</g>
			</g>
		</g>
	</g>
	<g id="Roach_5" transform="translate(-209.83059,-347.01403)">
		<g id="Roach_6_" transform="translate(-23.146657,11.254371)">
			<g id="g4222_5_" transform="matrix(0.19792639,0,0,0.19792639,170.23744,185.41242)">
				<g id="g4233_5_" transform="translate(30.622068,153.11034)">
					<path id="path4214_5_" class="st0" d="M1611.6,2618.3c0,0,1.4-3.3,2.9-3.6c1.5-0.3,2-10.5,1.5-11.4c-0.4-0.9,4.4-1.3,4.4-1.3
						l-0.3-2l1.4,3.7c0,0-3.8,0-4,0.7s-0.7,8.9-2.3,10.4C1613.6,2616.5,1611.6,2618.3,1611.6,2618.3z"/>
					<path id="path4220_5_" class="st0" d="M1615.9,2591.7l-2.2,2.6c0,0-2.1,4.5-1.9,5.5c0.1,1-0.8,2.5,0.2,6.3s3.1,8.6,3.5,9.2
						c0.4,0.6,5.7,6.8,6,7.3c1.4,2.2,2.5,3.4,3,4.6c0.7,1.6,1.4,3.6,1.5,5.4c0,1.8,0.2,2.6-0.6,2.8c0,0,1.5-0.5,0.1-5.9
						c-1.7-6.5-8.7-11.4-11.1-18c-2.3-6.5-1.9-11.4-1.9-11.4s0.7-4,1.7-4.4c1-0.4,1.9-3.1,1.9-3.1l0.6-0.5L1615.9,2591.7z"/>
					<path id="path4212_5_" class="st0" d="M1618.2,2597.7l-2.7,1.6l-4.3-2.2c0,0-3.4,0-4,0.7c-0.6,0.6-1.1,0.9-1.1,0.9l4.9-0.9
						c0,0,4.5,2.6,4.4,3.3s3.1-2.4,4-2.4C1620.3,2598.6,1620,2597.7,1618.2,2597.7z"/>
					<path id="path4208_5_" class="st0" d="M1629.2,2591.8c0,0,2.4-3.9,2.8-4.6s4.7,2.7,5.1,2.6c0.4-0.2,0.5-1,1.6-0.7
						c1.2,0.3,1.5,1.3,3,0.3c1.6-0.9,1.8-1.1,1.8-1.1s-1.1,1.9-1.6,2.1c-0.6,0.2-0.9-0.1-0.9-0.1s-2.2-0.4-2.8-0.4s-0.9,0.9-1.6,0.7
						c-0.7-0.3-3.6-1.7-3.8-1.1s-2.5,4.2-2.9,3.9C1629.5,2592.8,1629.2,2591.8,1629.2,2591.8z"/>
					<path id="path4206_5_" class="st0" d="M1625.9,2590c0,0,1.6-2.6,1.9-2.7c0.3-0.1-3.8-3.1-4.1-4c-0.3-0.8,0.8-4.7-0.9-5.9
						c-1.7-1.1,1.6,0.2,1.6,1.6c0,1.4-0.1,4.1-0.1,4.1s5,3.6,5.4,3.2c0.5-0.4-2.4,3.8-2.2,4C1627.8,2590.4,1625.9,2590,1625.9,2590z
						"/>
					<path id="path4216_5_" class="st0" d="M1623.1,2606.7c0,0-4.5,3.1-4.5,3.4s0.2,1.3,0.6,1.6s7.5,7.1,8,7.4
						c0.5,0.3,0.4,2,0.6,2.6c0.1,0.5,3.9,9,3.8,9.4c0,0.4-3.1-9.3-3.2-9.6c-0.2-0.4-0.2-2.6-0.5-2.7c-0.3-0.1-4.8-3.7-7.4-7.8
						c0,0,2-0.6,3.5-2.2C1625.2,2607.7,1623.1,2606.7,1623.1,2606.7z"/>
					<path id="path4210_5_" class="st0" d="M1631.4,2594.7l2.7-0.5c0,0,1.4-1.6,1.8-1.3c0.4,0.2,1.5,4,1.9,4.2s2,2.2,1.9,2.6
						c-0.1,0.4,0.9,1.9,1.4,1.9s5.4,2,5.5,2.2c0.1,0.3-2.9-1-3.8-0.6s-3.1-1.4-3.6-2.5s-2.8-2.9-2.9-4.2s-0.7-1.7-0.7-1.7
						s-2.4,1.9-3.2,1.4C1631.7,2595.7,1631.4,2594.7,1631.4,2594.7z"/>
					
						<linearGradient id="path4180_7_" gradientUnits="userSpaceOnUse" x1="-61178.6016" y1="15438.5869" x2="-61176.8086" y2="15442.7373" gradientTransform="matrix(7.101556e-05 8.084695e-04 -7.601642e-04 1.546548e-04 7003.3711 876.8856)">
						<stop  offset="0" style="stop-color:#2A1B12"/>
						<stop  offset="1" style="stop-color:#7A4623"/>
					</linearGradient>
					<path id="path4180_5_" class="st2" d="M1626.4,2588.9c0,0-4.1-4.6-8.7-2.7c-4.6,1.8,0.5,11.4,0.5,11.4s1,0.5,1.3,0.2
						s-0.5,4.7,6.5,13.2s11.3,8.8,11.3,8.8s0.4-1.7,1.1-2.1s-0.4-10.6-0.8-11.4s-2.6-7.7-5.1-10.1s-4-5.9-6.1-6.4
						C1626.3,2589.7,1626.3,2589.7,1626.4,2588.9z"/>
					<path id="path4218_5_" class="st0" d="M1618.9,2585.9c0,0,4-5.1,4.9-5.4c0.9-0.3,4.9-1.4,5.4-1s3.5,2.2,3.6,2.6
						c0.1,0.4,2,2.5,2.4,3.2s7.1,13,9.9,13.3c1.8,0.2,1.8,0.2,1.8,0.2s-4.4,1.1-10-10.1s-11.9-8.1-11.9-8.1s-3.4,3.6-3.7,3.8
						C1620.9,2584.6,1618.9,2585.9,1618.9,2585.9z"/>
				</g>
			</g>
		</g>
	</g>
	<g id="Roach_4" transform="translate(-209.83059,-347.01403)">
		<g id="Roach_3_" transform="translate(-23.146657,11.254371)">
			<g id="g4222_2_" transform="matrix(0.19792639,0,0,0.19792639,170.23744,185.41242)">
				<g id="g4233_2_" transform="translate(30.622068,153.11034)">
					<path id="path4214_2_" class="st0" d="M1824.8,2665.4c0,0-0.9-6.2,1.5-8.1c2.3-1.9-7-16.8-8.7-17.4c-1.7-0.7,6.5-6.8,6.5-6.8
						l-2.4-2.4l6.2,3.6c0,0-6.6,4.3-6.4,5.4c0.4,1,7.5,13,6.2,16.9C1826.5,2660.5,1824.8,2665.4,1824.8,2665.4z"/>
					<path id="path4220_2_" class="st0" d="M1806.1,2623.8l-1.4,6.1c0,0,0.8,8.7,2,9.8c1.2,1.2,1.1,4.3,6.6,8.5s14.1,8.3,15.2,8.8
						c1.2,0.4,16.8,2.9,17.8,3.2c4.8,1.2,7.7,1.9,9.7,3c2.8,1.4,6.2,3.4,8,5.8c1.9,2.5,3,3.4,1.8,4.5c0,0,2.2-2.4-5.7-8.3
						c-9.4-7-26.8-5.8-37.5-12.1c-10.6-6.4-14.8-13.5-14.8-13.5s-2.7-6.3-1.5-8.1s0.2-6.4,0.2-6.4l0.4-1.5L1806.1,2623.8z"/>
					<path id="path4212_2_" class="st0" d="M1816,2629.4l-3.2,5.4l-9.8,1.8c0,0-6,3.9-6.4,5.4s-1.1,2.5-1.1,2.5l7.7-6.8
						c0,0,10.4-1.5,11.1-0.4c0.6,1,3.1-6.7,4.7-7.9C1820.7,2628.4,1819.2,2627.5,1816,2629.4z"/>
					<path id="path4208_2_" class="st0" d="M1829.7,2608.9c0,0,0.4-8.1,0.3-9.4s11-1.6,11.5-2.2c0.6-0.7-0.2-2,2.2-2.9
						c2.3-0.9,3.9,0,5.7-3c1.8-3,2.1-3.5,2.1-3.5s0,3.8-0.7,4.6s-1.7,0.8-1.7,0.8s-4.3,1.9-5.3,2.5s-0.7,2.3-2.1,2.8
						s-8.2,1.6-7.8,2.8c0.2,1.2,0,8.5-1.2,8.6C1831.4,2610,1829.7,2608.9,1829.7,2608.9z"/>
					<path id="path4206_2_" class="st0" d="M1822,2610.2c0,0,0.2-5.4,0.7-5.9s-9.8,0-11.2-0.8c-1.5-0.7-3.4-7.3-7.5-6.9
						c-4.1,0.3,3-1.6,4.3,0.3c1.5,2,3.9,5.6,3.9,5.6s12.5-0.6,12.9-1.7c0.4-1.1-0.6,7.9,0.1,7.8
						C1825.8,2608.7,1822,2610.2,1822,2610.2z"/>
					<path id="path4216_2_" class="st0" d="M1833.7,2636.3c0,0-4.9,9.4-4.5,9.8c0.4,0.4,1.8,1.6,2.7,1.5s20.3,1.3,21.5,1
						c1.2-0.2,2.7,2.4,3.6,2.8c0.8,0.5,15.8,8,16.1,8.6c0.4,0.6-14.5-9.3-15.3-9.6c-0.7-0.4-2.8-3.4-3.4-3.2
						c-0.6,0.3-12.2,0.3-20.9-2.3c0,0,3-3.1,4.1-7C1838.3,2635.3,1833.7,2636.3,1833.7,2636.3z"/>
					<path id="path4210_2_" class="st0" d="M1836.5,2610.5l4.1-3.6c0,0,1-3.8,1.9-4c1-0.1,6.7,3.8,7.5,3.6c0.7-0.2,5.7,0.8,5.8,1.4
						c0.3,0.7,3.4,1.6,4.5,0.9c1-0.6,11.6-3.5,11.9-3.1s-6.1,1.8-7.3,3.4c-1.2,1.6-6.9,1.7-8.9,0.7c-1.9-1-7.8-0.9-9.3-2.6
						c-1.5-1.7-2.9-1.5-2.9-1.5s-2.3,5.4-4.2,5.5C1837.9,2611.7,1836.5,2610.5,1836.5,2610.5z"/>
					
						<linearGradient id="path4180_8_" gradientUnits="userSpaceOnUse" x1="-61118.7148" y1="15620.6748" x2="-61113.2734" y2="15633.2412" gradientTransform="matrix(9.267729e-04 1.029715e-03 -1.189018e-03 1.070150e-03 5140.3911 -1550.8383)">
						<stop  offset="0" style="stop-color:#2A1B12"/>
						<stop  offset="1" style="stop-color:#7A4623"/>
					</linearGradient>
					<path id="path4180_2_" class="st3" d="M1821.8,2608.1c0,0-11.8-1.7-18,6.1c-6.2,7.7,12.1,15.2,12.1,15.2s2.2-0.5,2.6-1.2
						c0.4-0.8,3.7,7,24.5,10.9c20.8,3.8,28.7-0.8,28.7-0.8s-0.9-2.8-0.1-4.2c0.7-1.4-11.4-14.2-12.8-14.8c-1.5-0.7-12.2-7.5-19-8.1
						s-12.9-3.6-17.1-1.9C1822.4,2609.4,1822.4,2609.4,1821.8,2608.1z"/>
					<path id="path4218_2_" class="st0" d="M1805.5,2612.6c0,0,2-11.6,3.2-12.9c1.2-1.2,7.2-7.6,8.6-7.6s8.4-0.8,9-0.5
						s6,1.2,7.4,1.6s25.4,9.9,30.7,7.3c3.4-1.7,3.4-1.7,3.4-1.7s-6.7,6.4-27.8-2.6c-21.1-9.1-29.1,2.3-29.1,2.3s-2.5,8.8-2.7,9.4
						S1805.5,2612.6,1805.5,2612.6z"/>
				</g>
			</g>
		</g>
	</g>
	<g id="Roach_3" transform="translate(-209.83059,-347.01403)">
		<g id="Roach_4_" transform="translate(-23.146657,11.254371)">
			<g id="g4222_3_" transform="matrix(0.19792639,0,0,0.19792639,170.23744,185.41242)">
				<g id="g4233_3_" transform="translate(30.622068,153.11034)">
					<path id="path4214_3_" class="st0" d="M1721.3,2624.7c0,0,4.8-2.4,6.6-1s12-10.3,12.3-11.8s6.3,3.4,6.3,3.4l1.5-2.6l-1.8,6
						c0,0-4.4-4.2-5.3-3.6c-0.8,0.6-9,9.6-12.3,9.7C1725.4,2624.8,1721.3,2624.7,1721.3,2624.7z"/>
					<path id="path4220_3_" class="st0" d="M1751,2598.1l-5,0.6c0,0-6.7,3-7.4,4.4c-0.7,1.3-3.2,2.1-5.5,7.6s-4.3,13.6-4.4,14.7
						c-0.2,1.2,0.4,14.3,0.4,15.3c-0.3,4.1-0.3,6.7-0.7,8.7c-0.7,2.7-1.7,5.9-3.3,8.1c-1.7,2.2-2.2,3.3-3.3,2.7c0,0,2.3,1.1,5.6-6.8
						c4-9.5,0.3-23.2,3.6-33.5c3.3-10.3,8.3-15.6,8.3-15.6s4.5-3.9,6.1-3.4s5.1-1.6,5.1-1.6h1.2L1751,2598.1z"/>
					<path id="path4212_3_" class="st0" d="M1748.2,2607.7l-4.7-1.1l-3-7.3c0,0-3.9-3.8-5.3-3.6c-1.3,0.1-2.1-0.2-2.1-0.2l6.6,4.4
						c0,0,2.8,8,2,8.8s5.8,0.7,6.9,1.6C1749.8,2611.2,1750.2,2609.7,1748.2,2607.7z"/>
					<path id="path4208_3_" class="st0" d="M1766.5,2613.1c0,0,6.5-1.9,7.5-2.3s3,8.4,3.6,8.7s1.5-0.6,2.6,1
						c1.2,1.7,0.6,3.1,3.2,3.7c2.7,0.7,3.1,0.6,3.1,0.6s-3,1.1-3.8,0.7c-0.8-0.4-0.9-1.1-0.9-1.1s-2.2-2.9-2.8-3.6
						c-0.6-0.7-1.9,0.1-2.5-0.9c-0.6-1.1-2.6-6.1-3.5-5.6s-6.8,2.2-6.9,1.3C1765.9,2614.5,1766.5,2613.1,1766.5,2613.1z"/>
					<path id="path4206_3_" class="st0" d="M1764.3,2607.2c0,0,4.2-1.3,4.7-1.2c0.4,0.2-1.6-7.9-1.2-9.3c0.4-1.4,5.2-4.8,4.3-7.9
						c-0.9-3.2,1.7,2,0.4,3.7c-1.4,1.7-3.9,4.7-3.9,4.7s2.5,9.8,3.4,9.9c0.9,0.1-6.3,1.7-6.2,2.2
						C1766.1,2609.8,1764.3,2607.2,1764.3,2607.2z"/>
					<path id="path4216_3_" class="st0" d="M1745.7,2623.8c0,0-8.2-1.4-8.5-0.9c-0.2,0.4-1,1.8-0.7,2.6c0.2,0.8,2.3,16.8,2.6,17.6
						c0.4,0.9-1.4,2.9-1.7,3.7c-0.3,0.8-3.7,14.9-4.2,15.3c-0.4,0.4,5-14.3,5.1-14.9c0.1-0.7,2.2-3.2,1.9-3.7
						c-0.3-0.4-2.2-9.7-1.5-17.4c0,0,2.9,1.5,6.1,1.4C1747.2,2627.3,1745.7,2623.8,1745.7,2623.8z"/>
					<path id="path4210_3_" class="st0" d="M1766.4,2619l3.5,2.4c0,0,3.2-0.3,3.3,0.4c0.2,0.7-1.9,6.5-1.7,7s0.3,4.8-0.2,5.2
						s-0.7,3.2-0.1,3.8s4.6,8.4,4.4,8.8s-2.4-4.4-3.9-5c-1.4-0.5-2.4-5.1-1.9-6.9c0.5-1.9-0.5-6.5,0.5-8.2c1-1.6,0.7-2.8,0.7-2.8
						s-4.6-0.4-5-1.9C1765.7,2620.4,1766.4,2619,1766.4,2619z"/>
					
						<linearGradient id="path4180_9_" gradientUnits="userSpaceOnUse" x1="-61134.9102" y1="15570.3311" x2="-61133.2188" y2="15574.2363" gradientTransform="matrix(-6.627252e-04 1.033139e-03 -1.033139e-03 -6.627252e-04 9375.2432 2522.291)">
						<stop  offset="0" style="stop-color:#2A1B12"/>
						<stop  offset="1" style="stop-color:#7A4623"/>
					</linearGradient>
					<path id="path4180_3_" class="st4" d="M1765.8,2606.5c0,0-0.6-10-7.7-12.9c-7-3-10,14-10,14s0.7,1.7,1.4,1.7
						c0.7,0-4.9,5-4.6,22.8c0.4,17.8,5.2,22.9,5.2,22.9s2.1-1.5,3.3-1.3c1.2,0.2,9.3-13,9.6-14.4c0.3-1.3,4-12,3.3-17.6
						c-0.7-5.7,0.8-11.4-1.2-14.3C1765,2607.4,1765,2607.4,1765.8,2606.5z"/>
					<path id="path4218_3_" class="st0" d="M1759.8,2594.6c0,0,9.4-1.6,10.7-1c1.3,0.7,7,3.7,7.3,4.8s2,6.5,1.7,7.1
						c-0.2,0.5,0.1,5.2-0.1,6.4c-0.1,1.2-3.7,23.3-0.7,26.7c1.9,2.2,1.9,2.2,1.9,2.2s-6.1-3.6-2.4-23.1s-6.5-22.8-6.5-22.8
						s-7.3,0.4-7.8,0.4C1763.3,2595.4,1759.8,2594.6,1759.8,2594.6z"/>
				</g>
			</g>
		</g>
	</g>
	<g id="Roach_2" transform="translate(-209.83059,-347.01403)">
		<g id="Roach_1_" transform="translate(-23.146657,11.254371)">
			<g id="g4222_1_" transform="matrix(0.19792639,0,0,0.19792639,170.23744,185.41242)">
				<g id="g4233_1_" transform="translate(30.622068,153.11034)">
					<path id="path4214_1_" class="st0" d="M1981,2626.1c0,0-5.3,0.3-6.5-1.7s-15.1,4.7-16,6s-4.5-5.6-4.5-5.6l-2.4,1.8l4-4.8
						c0,0,2.4,5.6,3.4,5.4s12.1-5.3,15.1-4.1C1977.3,2624.4,1981,2626.1,1981,2626.1z"/>
					<path id="path4220_1_" class="st0" d="M1943.2,2638.8l4.8,1.4c0,0,7.3-0.1,8.5-1.1c1.2-0.9,3.8-0.7,8.1-4.8
						c4.3-4.1,9.3-10.8,9.9-11.8s5.3-13.3,5.7-14.2c1.9-3.7,2.9-6.1,4.1-7.7c1.7-2.2,3.9-4.7,6.2-6.1c2.4-1.4,3.3-2.2,4.1-1.2
						c0,0-1.7-1.9-7.8,4.1c-7.4,7.2-9.4,21.2-16.5,29.4s-13.8,11.1-13.8,11.1s-5.7,1.8-6.9,0.7c-1.2-1.1-5.3-0.5-5.3-0.5l-1.1-0.5
						L1943.2,2638.8L1943.2,2638.8z"/>
					<path id="path4212_1_" class="st0" d="M1949.6,2631.1l3.9,2.9l-0.1,7.9c0,0,2.1,5,3.4,5.4c1.2,0.4,1.9,1,1.9,1l-4.3-6.6
						c0,0,0.6-8.5,1.6-8.9s-5.1-2.9-5.7-4.2C1949.5,2627.3,1948.5,2628.5,1949.6,2631.1z"/>
					<path id="path4208_1_" class="st0" d="M1934.9,2619c0,0-6.7-0.8-7.8-0.8c-1.1,0,0.6-8.9,0.1-9.4c-0.5-0.5-1.6,0-2-1.9
						c-0.4-2,0.7-3.1-1.5-4.7c-2.2-1.7-2.6-1.8-2.6-1.8s3.2,0.2,3.8,0.9s0.4,1.4,0.4,1.4s0.9,3.5,1.2,4.4c0.3,0.9,1.8,0.7,1.9,1.8
						c0.1,1.2,0,6.6,1,6.5s7.1,0.6,6.9,1.5C1936,2617.9,1934.9,2619,1934.9,2619z"/>
					<path id="path4206_1_" class="st0" d="M1934.6,2625.2c0,0-4.4-0.5-4.8-0.8c-0.3-0.3-1.7,7.9-2.6,9c-0.9,1.1-6.7,2.3-7.1,5.6
						s-0.8-2.5,1.1-3.5s5.4-2.8,5.4-2.8s1.6-10,0.8-10.4c-0.8-0.4,6.5,0.9,6.6,0.4C1934,2622.1,1934.6,2625.2,1934.6,2625.2z"/>
					<path id="path4216_1_" class="st0" d="M1958.3,2617.3c0,0,7,4.5,7.4,4.2s1.6-1.3,1.7-2.1s4.5-16.3,4.6-17.2c0-1,2.4-2.1,3-2.7
						s9.3-12.2,9.9-12.4c0.5-0.2-10.2,11.2-10.6,11.7c-0.4,0.6-3.3,2.1-3.2,2.6s-1.8,9.8-5.5,16.6c0,0-2.1-2.5-5.1-3.7
						C1958.3,2613.5,1958.3,2617.3,1958.3,2617.3z"/>
					<path id="path4210_1_" class="st0" d="M1937.3,2613.6l-2.3-3.6c0,0-3-1-2.9-1.7s4.3-5.2,4.3-5.8s1.6-4.5,2.2-4.7
						s1.9-2.7,1.6-3.5s-0.9-9.5-0.6-9.8s0.5,5,1.6,6.1c1.1,1,0.2,5.6-1,7.1s-2.1,6.2-3.7,7.3s-1.8,2.3-1.8,2.3s4.1,2.2,3.9,3.7
						C1938.5,2612.5,1937.3,2613.6,1937.3,2613.6z"/>
					
						<linearGradient id="path4180_10_" gradientUnits="userSpaceOnUse" x1="-61071.832" y1="15729.9033" x2="-61069.0742" y2="15736.2744" gradientTransform="matrix(1.016515e-03 -6.879527e-04 6.879527e-04 1.016515e-03 1624.6067 1799.5083)">
						<stop  offset="0" style="stop-color:#2A1B12"/>
						<stop  offset="1" style="stop-color:#7A4623"/>
					</linearGradient>
					<path id="path4180_1_" class="st5" d="M1932.9,2625.3c0,0-3.4,9.4,2,14.9c5.3,5.5,14.7-8.9,14.7-8.9s0-1.8-0.6-2.1
						s6.5-2.6,13.2-19.1s4.3-23.1,4.3-23.1s-2.5,0.6-3.5-0.1c-1-0.7-13.7,8.3-14.5,9.4c-0.8,1.1-8.4,9.4-10,14.9s-5.2,10.2-4.5,13.6
						C1934,2624.8,1934,2624.8,1932.9,2625.3z"/>
					<path id="path4218_1_" class="st0" d="M1933.8,2638.6c0,0-9.3-2.2-10.2-3.3s-5-6.2-4.8-7.3s0.7-6.8,1.2-7.2
						c0.4-0.4,2-4.8,2.6-5.9c0.6-1.1,12.6-19.9,11.2-24.3c-0.9-2.8-0.9-2.8-0.9-2.8s4.2,5.7-6.9,22.2c-11.1,16.5-3,23.5-3,23.5
						s6.9,2.5,7.3,2.7C1930.8,2636.5,1933.8,2638.6,1933.8,2638.6z"/>
				</g>
			</g>
		</g>
	</g>
	<g id="Roach_1_1_" transform="translate(-209.83059,-347.01403)">
		<g id="Roach" transform="translate(-23.146657,11.254371)">
			<g id="g4222" transform="matrix(0.19792639,0,0,0.19792639,170.23744,185.41242)">
				<g id="g4233" transform="translate(30.622068,153.11034)">
					<path id="path4214" class="st0" d="M2032.5,2597.7c0,0-4.6-2.7-4.4-5c0.1-2.3-15.2-4.6-16.6-4c-1.5,0.6-0.6-7.2-0.6-7.2l-3,0.1
						l6-1.7c0,0-1.1,6-0.2,6.4c0.9,0.3,13,2.4,14.8,5.1C2030.3,2594.2,2032.5,2597.7,2032.5,2597.7z"/>
					<path id="path4220" class="st0" d="M1994,2587l3.2,3.9c0,0,6.2,4,7.6,3.9c1.5-0.1,3.5,1.6,9.5,0.6s13.8-3.8,14.8-4.2
						c1-0.5,11.9-8.1,12.7-8.5c3.6-2.1,5.8-3.4,7.7-4c2.6-0.9,5.9-1.8,8.6-1.6c2.8,0.2,4,0,4,1.3c0,0-0.3-2.5-8.8-1
						c-10.2,1.8-19.7,12.3-30.2,15.2c-10.5,2.8-17.7,1.5-17.7,1.5s-5.7-1.7-6.2-3.3c-0.5-1.6-4.1-3.4-4.1-3.4l-0.7-1L1994,2587z"/>
					<path id="path4212" class="st0" d="M2003.6,2584.2l1.6,4.6l-4.6,6.5c0,0-1,5.4-0.2,6.4s1,1.9,1,1.9l0.1-7.9
						c0,0,5.2-6.7,6.3-6.5c1,0.2-2.6-5.2-2.4-6.7C2005.7,2581,2004.2,2581.4,2003.6,2584.2z"/>
					<path id="path4208" class="st0" d="M1998.2,2565.9c0,0-5.1-4.4-6-5s5.5-7.1,5.4-7.7c-0.1-0.7-1.4-0.9-0.6-2.7s2.3-2.2,1.4-4.8
						s-1.1-3-1.1-3s2.5,1.9,2.6,2.8c0.1,0.9-0.5,1.4-0.5,1.4s-1.3,3.4-1.5,4.3c-0.2,0.9,1.1,1.6,0.6,2.6s-3.8,5.5-2.8,5.9
						c0.9,0.5,5.6,4.4,4.9,5.1S1998.2,2565.9,1998.2,2565.9z"/>
					<path id="path4206" class="st0" d="M1994.5,2570.9c0,0-3.4-2.9-3.5-3.4s-5.8,5.6-7.2,6c-1.4,0.5-6.8-1.8-9,0.7s0.7-2.5,2.8-2.3
						c2.2,0.2,6,0.7,6,0.7s7-7.4,6.5-8.2s4.9,4.4,5.2,4C1995.8,2568,1994.5,2570.9,1994.5,2570.9z"/>
					<path id="path4216" class="st0" d="M2018.6,2577.7c0,0,3.3,7.6,3.8,7.6s2.1-0.2,2.6-0.8s12.9-10.9,13.4-11.7
						c0.6-0.8,3.2-0.3,4-0.6c0.8-0.2,14.6-4.9,15.2-4.8c0.6,0.1-14.7,3.5-15.4,3.8c-0.7,0.2-3.9-0.1-4.1,0.3
						c-0.2,0.5-7,7.1-13.9,10.7c0,0-0.3-3.3-2.2-5.9C2020.7,2574.5,2018.6,2577.7,2018.6,2577.7z"/>
					<path id="path4210" class="st0" d="M2003.3,2562.8l0.1-4.2c0,0-1.9-2.5-1.5-3.1c0.5-0.6,6.5-1.9,6.8-2.4s3.9-2.8,4.4-2.6
						c0.6,0.2,3.1-1.1,3.3-2.1c0.2-0.9,4.6-8.4,5-8.4s-2.4,4.4-2.1,5.9s-3,4.8-4.8,5.4c-1.8,0.6-5.2,4-7.2,4c-2,0-2.7,0.9-2.7,0.9
						s2.2,4.1,1.1,5.2C2004.9,2562.6,2003.3,2562.8,2003.3,2562.8z"/>
					
						<linearGradient id="path4180_11_" gradientUnits="userSpaceOnUse" x1="-61010.2461" y1="15762.3994" x2="-61005.8281" y2="15772.6201" gradientTransform="matrix(1.227417e-03 0 0 1.227417e-03 2385.7983 -674.3632)">
						<stop  offset="0" style="stop-color:#2A1B12"/>
						<stop  offset="1" style="stop-color:#7A4623"/>
					</linearGradient>
					<path id="path4180" class="st6" d="M1993,2570c0,0-8.1,5.9-6.7,13.4s17.2,0.9,17.2,0.9s1-1.5,0.7-2.1s6.8,1.5,21.7-8.4
						c14.8-9.9,16.5-16.8,16.5-16.8s-2.4-0.9-2.8-2.1c-0.5-1.1-16.1-0.8-17.3-0.3c-1.3,0.5-12.2,3.1-16.6,6.7
						c-4.4,3.6-10,5.5-11.4,8.8C1994.2,2570.3,1994.2,2570.3,1993,2570z"/>
					<path id="path4218" class="st0" d="M1986.3,2581.6c0,0-6.5-7.1-6.6-8.4s-0.7-8,0.1-8.8c0.8-0.8,4.4-5.2,5-5.4s4.3-2.8,5.5-3.4
						c1.2-0.6,21.6-9.4,23-13.8c0.9-2.8,0.9-2.8,0.9-2.8s0.3,7.1-18.2,14.5c-18.5,7.4-15.7,17.8-15.7,17.8s4.3,5.9,4.6,6.4
						S1986.3,2581.6,1986.3,2581.6z"/>
				</g>
			</g>
		</g>
	</g>
</g>
</svg>
