<?xml version="1.0" encoding="UTF-8" standalone="no"?>
<!-- Created with Inkscape (http://www.inkscape.org/) -->

<svg
   xmlns:dc="http://purl.org/dc/elements/1.1/"
   xmlns:cc="http://creativecommons.org/ns#"
   xmlns:rdf="http://www.w3.org/1999/02/22-rdf-syntax-ns#"
   xmlns:svg="http://www.w3.org/2000/svg"
   xmlns="http://www.w3.org/2000/svg"
   xmlns:xlink="http://www.w3.org/1999/xlink"
   xmlns:sodipodi="http://sodipodi.sourceforge.net/DTD/sodipodi-0.dtd"
   xmlns:inkscape="http://www.inkscape.org/namespaces/inkscape"
   width="111.99573mm"
   height="65.459686mm"
   viewBox="0 0 396.83526 231.94377"
   id="svg2"
   version="1.1"
   inkscape:version="0.91 r13725"
   sodipodi:docname="stuffedanimals.svg">
  <defs
     id="defs4">
    <linearGradient
       inkscape:collect="always"
       id="linearGradient4259">
      <stop
         style="stop-color:#f5deff;stop-opacity:1"
         offset="0"
         id="stop4261" />
      <stop
         style="stop-color:#d7b9c7;stop-opacity:1"
         offset="1"
         id="stop4263" />
    </linearGradient>
    <linearGradient
       id="linearGradient4195"
       inkscape:collect="always">
      <stop
         id="stop4197"
         offset="0"
         style="stop-color:#ae897c;stop-opacity:1" />
      <stop
         id="stop4199"
         offset="1"
         style="stop-color:#6b4929;stop-opacity:1" />
    </linearGradient>
    <linearGradient
       inkscape:collect="always"
       id="linearGradient5674">
      <stop
         style="stop-color:#efc8b4;stop-opacity:1"
         offset="0"
         id="stop5676" />
      <stop
         style="stop-color:#b48866;stop-opacity:1"
         offset="1"
         id="stop5678" />
    </linearGradient>
    <linearGradient
       inkscape:collect="always"
       id="linearGradient4166">
      <stop
         id="stop4170"
         offset="0"
         style="stop-color:#9ab900;stop-opacity:1" />
      <stop
         id="stop4168"
         offset="1"
         style="stop-color:#00b900;stop-opacity:1;" />
    </linearGradient>
    <radialGradient
       inkscape:collect="always"
       xlink:href="#linearGradient4166"
       id="radialGradient4172"
       cx="424.28479"
       cy="378.78738"
       fx="424.28479"
       fy="378.78738"
       r="68.838989"
       gradientTransform="matrix(2.5811377,0.01406838,-0.01167011,2.1411246,-666.43702,-442.44756)"
       gradientUnits="userSpaceOnUse" />
    <radialGradient
       inkscape:collect="always"
       xlink:href="#linearGradient4195"
       id="radialGradient5680"
       cx="381.86212"
       cy="335.97018"
       fx="381.86212"
       fy="335.97018"
       r="187.91592"
       gradientTransform="matrix(0.99998945,0.00459255,-0.00403167,0.87786217,1.3606785,39.12686)"
       gradientUnits="userSpaceOnUse" />
    <radialGradient
       inkscape:collect="always"
       xlink:href="#linearGradient5674"
       id="radialGradient4193"
       cx="330.51309"
       cy="299.43506"
       fx="330.51309"
       fy="299.43506"
       r="29.849819"
       gradientTransform="matrix(1,0,0,1.0434821,0,-13.020062)"
       gradientUnits="userSpaceOnUse" />
    <radialGradient
       inkscape:collect="always"
       xlink:href="#linearGradient4259"
       id="radialGradient4265"
       cx="203.71622"
       cy="319.28879"
       fx="203.71622"
       fy="319.28879"
       r="74.124939"
       gradientTransform="matrix(1,0,0,1.0704528,0,-22.494792)"
       gradientUnits="userSpaceOnUse" />
  </defs>
  <sodipodi:namedview
     id="base"
     pagecolor="#ffffff"
     bordercolor="#666666"
     borderopacity="1.0"
     inkscape:pageopacity="0.0"
     inkscape:pageshadow="2"
     inkscape:zoom="2.8"
     inkscape:cx="154.41907"
     inkscape:cy="157.79657"
     inkscape:document-units="px"
     inkscape:current-layer="layer1"
     showgrid="false"
     inkscape:snap-global="false"
     inkscape:window-width="2560"
     inkscape:window-height="1315"
     inkscape:window-x="-4"
     inkscape:window-y="2"
     inkscape:window-maximized="0"
     fit-margin-top="0"
     fit-margin-left="0"
     fit-margin-right="0"
     fit-margin-bottom="0" />
  <metadata
     id="metadata7">
    <rdf:RDF>
      <cc:Work
         rdf:about="">
        <dc:format>image/svg+xml</dc:format>
        <dc:type
           rdf:resource="http://purl.org/dc/dcmitype/StillImage" />
        <dc:title></dc:title>
      </cc:Work>
    </rdf:RDF>
  </metadata>
  <g
     inkscape:label="Layer 1"
     inkscape:groupmode="layer"
     id="layer1"
     transform="translate(-46.030484,-209.69627)">
    <g
       id="g4220"
       transform="translate(-171.42858,-10.714286)">
      <g
         id="g4209">
        <path
           style="opacity:1;fill:url(#radialGradient5680);fill-opacity:1;fill-rule:evenodd;stroke:#000000;stroke-width:1px;stroke-linecap:butt;stroke-linejoin:miter;stroke-opacity:1"
           d="m 272.05228,344.53589 c 0,0 -10.67531,2.79586 -17.12401,1.07668 -6.63794,-1.76963 -10.72389,-6.87981 -13.13198,-12.405 -2.4961,-5.72714 -4.97272,-12.26688 0.20921,-19.58594 5.86966,-8.29043 11.89993,-10.58866 13.16262,-10.8412 1.26269,-0.25253 -2.43704,-14.83153 2.32887,-25.34264 4.30148,-9.48685 11.92997,-21.13744 13.25452,-22.41244 0,0 -3.9672,-17.68296 0.26523,-22.74638 3.76004,-4.49828 8.83036,-9.97498 12.89214,-10.58866 3.74852,-0.56635 14.91899,-2.22211 20.19562,2.16824 5.80807,4.83253 11.97501,9.02937 14.25943,15.42277 0.48411,1.35489 12.40312,-2.0331 17.03735,0.26523 8.70994,4.31968 20.09232,17.81597 22.08068,23.55259 3.37491,9.73695 5.03863,17.90867 5.41534,27.60805 0.058,1.49247 15.3583,-5.95689 30.29188,-4.50236 23.64975,2.30349 55.00653,16.88625 69.64977,21.5756 16.5951,5.31442 33.2685,21.61368 38.06673,29.6949 4.79822,8.08122 5.85407,13.57091 4.17059,14.59863 -0.72698,0.4438 22.66728,4.77018 24.97807,5.40265 2.45141,0.67095 15.76197,6.82378 25.52956,7.47679 5.38662,0.36012 13.5504,0.74493 20.874,0.74493 7.32361,0 11.65587,-0.56631 16.04515,-0.13525 6.07886,0.597 13.88982,1.97263 16.42767,5.75236 3.12237,4.65029 5.09409,10.76723 4.84155,15.56546 -0.25254,4.79822 -1.59445,12.7442 -3.37491,16.08847 -1.78017,3.34372 -6.32614,11.30294 -9.86168,12.56563 -3.53553,1.26269 -5.05076,1.6938 -6.56599,2.19887 -1.51523,0.50508 -6.50997,11.33358 -8.82614,14.57325 -2.29424,3.209 -5.58647,7.8847 -7.61947,9.99692 -2.30344,2.39319 -11.73406,7.14504 -13.75436,7.39757 -2.02031,0.25254 -7.05312,1.45396 -11.00707,0.83159 -2.90926,-0.45794 -13.50118,-3.92196 -15.12165,-5.34664 -4.32905,-3.80601 -9.1706,-8.60424 -10.18075,-12.39231 -1.01015,-3.78807 -4.70631,-14.05022 -8.49438,-16.32307 -3.78808,-2.27284 -21.21321,-12.6269 -28.28427,-12.6269 -7.07107,0 -16.25436,-8.99203 -17.01197,-5.20396 -0.75762,3.78808 4.24102,16.12308 2.33412,20.80004 -2.2549,5.53046 -7.08902,9.28264 -10.87709,8.52502 -3.78808,-0.75761 -38.13544,1.10207 -43.13544,-0.63506 -2.14696,-0.74591 -43.18402,-60.10407 -44.19417,-57.83123 -1.01015,2.27284 -5.3033,20.96066 -2.77792,24.4962 2.52538,3.53553 10.10153,25.25381 12.12183,25.50635 2.02031,0.25254 4.47916,13.20595 3.16044,18.7491 -1.25083,5.25781 -3.40029,10.35406 -8.95613,11.86929 -5.55584,1.51523 -16.51432,2.4768 -22.48858,0.94888 -5.16118,-1.31997 -14.35316,-7.01801 -17.21592,-10.55802 -3.67604,-4.54568 -9.97338,-16.18437 -11.12437,-20.32034 -1.55112,-5.57379 -7.23169,-15.8053 -7.66806,-19.37148 -0.49931,-4.08059 -0.91057,-21.63475 1.03553,-29.20776 1.22635,-4.77216 9.33414,-15.94053 10.72916,-17.26451 2.30348,-2.18618 8.83883,-11.11168 11.11168,-11.86929 2.27284,-0.75762 10.85914,-3.03046 7.57614,-4.29315 -3.283,-1.26269 -11.14231,5.47444 -14.19072,7.06363 -1.92636,1.00426 -21.18782,16.19308 -24.72336,16.9507 -3.53553,0.75761 -16.02323,-0.36137 -20.89413,-1.6124 -3.51304,-0.90228 -10.03499,-4.66825 -12.99674,-7.34155 -2.2574,-2.03756 -8.44362,-8.70885 -8.44362,-8.70885 z"
           id="path4196"
           inkscape:connector-curvature="0"
           sodipodi:nodetypes="csssssssssssssssssssssssssssssssssssssssssssssssssssssssc" />
        <path
           style="fill:none;fill-rule:evenodd;stroke:#000000;stroke-width:1px;stroke-linecap:butt;stroke-linejoin:miter;stroke-opacity:1"
           d="m 505.32881,352.32649 c -0.25254,-2.52538 -8.48753,-6.46545 -14.89975,-8.58629 -4.65537,-1.53976 -24.4962,-7.07107 -27.27412,-7.3236 -2.77792,-0.25254 -26.92993,-13.0761 -31.56727,-16.41498 -6.31345,-4.54569 -12.62691,-8.08123 -20.70812,-10.60661 -9.16279,-2.86338 -30.80966,-2.52538 -30.80966,-2.52538 0,0 0,-5.05076 -6.31345,-8.08122"
           id="path4165"
           inkscape:connector-curvature="0"
           sodipodi:nodetypes="cssssc" />
        <path
           style="fill:none;fill-rule:evenodd;stroke:#000000;stroke-width:1px;stroke-linecap:butt;stroke-linejoin:miter;stroke-opacity:1"
           d="m 377.03943,364.70086 c 0,0 3.53554,-4.04061 2.52539,-7.57614 -1.01016,-3.53553 -0.75762,-11.11168 -5.3033,-13.63706"
           id="path4167"
           inkscape:connector-curvature="0" />
        <path
           style="fill:none;fill-rule:evenodd;stroke:#000000;stroke-width:1px;stroke-linecap:butt;stroke-linejoin:miter;stroke-opacity:1"
           d="m 461.63971,349.0435 c 0,0 22.98097,-3.283 28.53681,-1.51523 5.55584,1.76777 12.93894,5.95306 19.1929,8.5863 4.79822,2.0203 16.41498,4.29315 19.44543,5.80837 3.03046,1.51523 9.59645,2.77792 17.93021,10.60661 8.33376,7.82868 12.62691,14.64721 17.67767,14.89975 5.05076,0.25253 16.1506,1.80721 22.4759,9.3439 6.13707,7.31243 6.56599,14.89976 6.06091,21.46575"
           id="path4169"
           inkscape:connector-curvature="0"
           sodipodi:nodetypes="cssssssc" />
        <path
           style="fill:none;fill-rule:evenodd;stroke:#000000;stroke-width:1px;stroke-linecap:butt;stroke-linejoin:miter;stroke-opacity:1"
           d="m 306.07622,267.47368 c 0,0 -6.31345,5.55584 -6.06092,7.82868"
           id="path4171"
           inkscape:connector-curvature="0" />
        <path
           style="fill:none;fill-rule:evenodd;stroke:#000000;stroke-width:1px;stroke-linecap:butt;stroke-linejoin:miter;stroke-opacity:1"
           d="m 294.45946,290.95973 c 0,0 -4.54568,9.59645 -2.0203,11.36422"
           id="path4173"
           inkscape:connector-curvature="0" />
        <path
           style="fill:#000000;fill-opacity:1;fill-rule:evenodd;stroke:#000000;stroke-width:1px;stroke-linecap:butt;stroke-linejoin:miter;stroke-opacity:1"
           d="m 300.52038,273.02952 c 0,0 -3.74345,-1.41499 -1.76777,-3.78806 2.02038,-2.42676 4.29316,-0.88389 5.3033,-0.25255"
           id="path4175"
           inkscape:connector-curvature="0"
           sodipodi:nodetypes="csc" />
        <path
           style="fill:url(#radialGradient4193);fill-opacity:1;fill-rule:evenodd;stroke:#000000;stroke-width:1px;stroke-linecap:butt;stroke-linejoin:miter;stroke-opacity:1"
           d="m 335,268.79078 c 0,0 -22.85714,1.07143 -29.64286,15.71429 -6.78571,14.64285 -6.42857,34.28571 9.28572,41.42857 15.71428,7.14286 31.78571,4.64286 37.85714,-4.28572 6.07143,-8.92857 19.28571,-41.78571 -17.5,-52.85714 z"
           id="path4185"
           inkscape:connector-curvature="0" />
        <path
           style="fill:#000000;fill-opacity:1;fill-rule:evenodd;stroke:#000000;stroke-width:1px;stroke-linecap:butt;stroke-linejoin:miter;stroke-opacity:1"
           d="m 292.94424,293.73765 c 0,0 -3.9732,-1.58426 -4.67196,2.02031 -0.57119,2.94652 2.27284,3.78806 3.15673,3.91434"
           id="path4177"
           inkscape:connector-curvature="0"
           sodipodi:nodetypes="csc" />
        <path
           style="fill:#dc92a9;fill-opacity:1;fill-rule:evenodd;stroke:#000000;stroke-width:1px;stroke-linecap:butt;stroke-linejoin:miter;stroke-opacity:1"
           d="m 319.33447,279.72178 c 0,0 -11.02039,11.70352 -8.46003,20.8344 7.35999,2.74085 16.03618,-4.16688 16.03618,-4.16688 0,0 -0.63135,-13.25825 -7.57615,-16.66752 z"
           id="path4179"
           inkscape:connector-curvature="0"
           sodipodi:nodetypes="cccc" />
        <path
           style="fill:none;fill-rule:evenodd;stroke:#000000;stroke-width:1px;stroke-linecap:butt;stroke-linejoin:miter;stroke-opacity:1"
           d="m 326.91062,296.01049 c 0,0 11.23794,0.12627 14.2684,6.31345 3.03046,6.18719 -2.14657,17.29887 -2.14657,17.29887"
           id="path4181"
           inkscape:connector-curvature="0" />
        <path
           style="fill:none;fill-rule:evenodd;stroke:#000000;stroke-width:1px;stroke-linecap:butt;stroke-linejoin:miter;stroke-opacity:1"
           d="m 341.55783,302.32394 c 0,0 10.98541,-5.55583 10.85914,-10.48033"
           id="path4183"
           inkscape:connector-curvature="0" />
        <path
           style="fill:none;fill-rule:evenodd;stroke:#000000;stroke-width:1px;stroke-linecap:butt;stroke-linejoin:miter;stroke-opacity:1"
           d="m 278.57143,253.43364 c 0,0 -8.21429,-24.28572 5.71428,-25.71429 13.92857,-1.42857 25.35715,3.92857 26.78572,13.21429"
           id="path4203"
           inkscape:connector-curvature="0" />
        <path
           style="fill:none;fill-rule:evenodd;stroke:#000000;stroke-width:1px;stroke-linecap:butt;stroke-linejoin:miter;stroke-opacity:1"
           d="m 257.85714,308.0765 c 0,0 -20.71428,9.64285 -10.35714,22.14285 10.35714,12.5 5,11.42857 23.92857,9.28572"
           id="path4207"
           inkscape:connector-curvature="0" />
      </g>
      <g
         id="g4182">
        <path
           style="opacity:1;fill:url(#radialGradient4172);fill-opacity:1;fill-rule:evenodd;stroke:#000000;stroke-width:1px;stroke-linecap:butt;stroke-linejoin:miter;stroke-opacity:1"
           d="m 388.90873,368.48893 c 0,0 -10.13695,-13.25286 -1.76776,-30.05204 5.06906,-10.17497 4.63155,-13.61686 7.57614,-18.43528 5.55583,-9.09138 11.15511,-6.33759 21.2132,-4.04061 7.58984,1.7333 13.43545,-6.02967 22.22335,0 9.97153,6.84179 17.93021,17.67767 21.71828,26.26396 3.22346,7.3065 4.79823,19.44544 0,21.46575 -2.32747,0.97999 10.13722,-0.14446 15.90991,2.0203 6.06092,2.27285 15.15229,4.79823 16.16244,12.37437 1.01015,7.57614 3.53553,14.64721 -2.52538,17.17259 -6.06092,2.52538 -14.64721,8.5863 -15.65737,5.55584 -1.01015,-3.03046 0.57699,21.54975 -8.27992,23.66244 -0.87708,0.20922 6.25962,5.63199 7.26977,11.18783 1.01015,5.55583 -2.0203,10.10152 -3.53553,10.6066 -1.51523,0.50507 -9.59645,5.55584 -14.64721,5.05076 -5.05077,-0.50508 -18.68783,-5.55584 -19.69798,-8.08122 -1.01015,-2.52538 -7.07107,-8.5863 -6.56599,-12.12183 0.50508,-3.53553 -4.04061,-5.55584 -4.04061,-5.55584 0,0 -5.35868,-0.96756 -8.58629,1.51522 -3.283,2.52539 -8.83884,3.53554 -8.83884,3.53554 0,0 -6.31689,0.42753 -11.8693,-1.26269 -6.2879,-1.91411 -5.55583,-5.55584 -13.63705,-18.43528 -2.41599,-3.85049 -7.27995,-11.73004 -2.52538,-15.40483 2.88175,-2.22729 -8.08122,1.2627 -13.38452,-7.32361 -3.69679,-5.98528 -10.56984,-10.93269 -8.33377,-15.40482 1.01016,-2.02031 1.51337,-8.80196 7.32361,-8.33376 10.33289,0.83266 19.95051,-1.01015 24.4962,4.04061 z"
           id="path4147"
           inkscape:connector-curvature="0"
           sodipodi:nodetypes="csssssssssssssssscscssssssc" />
        <path
           style="fill:none;fill-rule:evenodd;stroke:#000000;stroke-width:1px;stroke-linecap:butt;stroke-linejoin:miter;stroke-opacity:1"
           d="m 404.56609,330.10314 c 0,0 14.89975,-6.81853 26.01143,-4.29315"
           id="path4143"
           inkscape:connector-curvature="0" />
        <path
           style="fill:#000000;fill-opacity:1;fill-rule:evenodd;stroke:#000000;stroke-width:1px;stroke-linecap:butt;stroke-linejoin:miter;stroke-opacity:1"
           d="m 408.10163,328.58791 c 0,0 -1.2627,-2.77792 0.50507,-3.53553 1.76777,-0.75762 3.03046,0.25254 3.78807,2.0203 -3.26024,1.05348 -4.29314,1.51523 -4.29314,1.51523 z"
           id="path4145"
           inkscape:connector-curvature="0"
           sodipodi:nodetypes="cscc" />
        <path
           style="fill:#000000;fill-opacity:1;fill-rule:evenodd;stroke:#000000;stroke-width:1px;stroke-linecap:butt;stroke-linejoin:miter;stroke-opacity:1"
           d="m 420.47599,325.36356 c 0,0 0,-3.0891 2.27285,-3.0891 2.27284,0 1.39005,1.57387 2.80593,2.77792 -2.78055,0.13261 -5.07878,0.31118 -5.07878,0.31118 z"
           id="path4148"
           inkscape:connector-curvature="0"
           sodipodi:nodetypes="cscc" />
        <path
           style="fill:none;fill-rule:evenodd;stroke:#000000;stroke-width:1px;stroke-linecap:butt;stroke-linejoin:miter;stroke-opacity:1"
           d="m 379.05974,395.25798 c 0,0 7.57614,-8.5863 10.6066,-9.09137 3.03046,-0.50508 3.283,-4.79823 9.09137,-0.75762 5.80838,4.04061 15.15229,11.86929 15.90991,16.16244 0.75761,4.29315 7.82868,12.12183 7.07106,15.40483 -0.75761,3.28299 -1.51522,8.08121 -4.79822,9.34391"
           id="path4152"
           inkscape:connector-curvature="0"
           sodipodi:nodetypes="cssssc" />
        <path
           style="fill:#b0b900;fill-opacity:1;fill-rule:evenodd;stroke:#000000;stroke-width:1px;stroke-linecap:butt;stroke-linejoin:miter;stroke-opacity:1"
           d="m 380.32243,403.59174 c 0,0 3.78807,-9.84899 5.80838,-10.35407 2.0203,-0.50507 4.54568,-6.56599 8.33376,-4.29314 3.78807,2.27284 10.35406,7.3236 12.12183,11.36421 1.76776,4.04061 10.6066,13.38452 8.83883,15.40483 -1.76777,2.0203 -16.41498,9.09137 -18.94036,7.57614 -2.52538,-1.51523 -9.09137,-2.52538 -9.59645,-6.31345 -0.50507,-3.78807 -6.56599,-13.38452 -6.56599,-13.38452 z"
           id="path4154"
           inkscape:connector-curvature="0" />
        <path
           style="fill:#b0b900;fill-opacity:1;fill-rule:evenodd;stroke:#000000;stroke-width:1px;stroke-linecap:butt;stroke-linejoin:miter;stroke-opacity:1"
           d="m 434.87067,439.19961 c 0,0 11.36421,-1.01015 16.92005,0.25254 5.55584,1.26269 16.41498,1.01015 16.16244,3.78807 -0.25253,2.77792 -9.59645,7.32361 -10.85914,7.32361 -1.26269,0 -15.15228,-3.283 -15.15228,-4.04061 0,-0.75761 -8.08122,-3.03046 -7.07107,-7.32361 z"
           id="path4156"
           inkscape:connector-curvature="0" />
        <path
           style="fill:none;fill-rule:evenodd;stroke:#000000;stroke-width:1px;stroke-linecap:butt;stroke-linejoin:miter;stroke-opacity:1"
           d="m 383.85796,350.55873 c 0,0 10.10153,13.8896 24.74874,14.64721 14.64721,0.75762 28.03173,1.01015 34.85026,-2.77792 6.81853,-3.78807 18.43529,-12.12183 18.18275,-13.8896"
           id="path4158"
           inkscape:connector-curvature="0" />
        <path
           style="fill:none;fill-rule:evenodd;stroke:#000000;stroke-width:1px;stroke-linecap:butt;stroke-linejoin:miter;stroke-opacity:1"
           d="m 397.67857,384.59435 c 0,0 6.15809,-5.01269 8.21166,-5.10197"
           id="path4160"
           inkscape:connector-curvature="0"
           sodipodi:nodetypes="cc" />
        <path
           style="fill:none;fill-rule:evenodd;stroke:#000000;stroke-width:1px;stroke-linecap:butt;stroke-linejoin:miter;stroke-opacity:1"
           d="m 446.65573,376.7092 c 0,0 23.84672,10.46918 26.34672,24.57633"
           id="path4162"
           inkscape:connector-curvature="0"
           sodipodi:nodetypes="cc" />
        <path
           style="fill:none;fill-rule:evenodd;stroke:#000000;stroke-width:1px;stroke-linecap:butt;stroke-linejoin:miter;stroke-opacity:1"
           d="m 388.66071,368.07649 c 0,0 8.83929,11.60715 15.98214,11.51786 7.14286,-0.0893 11.15247,0.92697 19.55358,0.625 4.38036,-0.15745 8.99973,0.24118 21.69642,-3.21428 5.88868,-1.60263 11.07144,-13.03572 13.92857,-13.125"
           id="path4164"
           inkscape:connector-curvature="0"
           sodipodi:nodetypes="csssc" />
        <path
           style="fill:none;fill-rule:evenodd;stroke:#000000;stroke-width:1px;stroke-linecap:butt;stroke-linejoin:miter;stroke-opacity:1"
           d="m 426.53691,426.57271 c 0,0 3.78807,0.50507 6.31345,-0.25254 2.52538,-0.75762 8.73867,1.43033 15.08359,-0.27792 6.56599,-1.76777 13.77755,0.2451 17.31308,-1.77521"
           id="path4180"
           inkscape:connector-curvature="0"
           sodipodi:nodetypes="cssc" />
      </g>
      <g
         transform="translate(89.285714,50.357143)"
         id="g4203">
        <path
           style="fill:url(#radialGradient4265);fill-opacity:1;fill-rule:evenodd;stroke:#000000;stroke-width:1px;stroke-linecap:butt;stroke-linejoin:miter;stroke-opacity:1"
           d="m 223.92857,249.86221 c 0,0 -25.71429,-18.57143 -52.14286,-3.57143 -18.92857,16.78571 -23.91119,31.49547 -30,45.625 -6.38468,14.81616 -22.35803,36.17701 -5.89286,46.69643 12.85715,8.21429 14.07742,-22.64884 30.44906,-41.31128 1.71463,-1.95455 4.10452,-8.06372 5.08666,-11.01015 1.12938,-3.38816 4.28571,-10 3.92857,-11.42857 -0.35714,-1.42857 2.1845,6.18841 4.28572,7.58928 0,0 -8.57143,7.24484 -10.35715,10.10198 -1.78571,2.85714 -25.77991,38.1066 -21.93057,51.657 0.48797,1.71775 9.07651,4.05113 11.57651,2.62256 2.5,-1.42857 15.80951,-36.15047 16.42549,-37.09709 l 7.16453,-11.01015 c 0,0 -6.76777,10.40419 -7.48206,12.1899 -0.71429,1.78572 -7.70921,19.0078 -7.70921,19.0078 -0.754,2.68553 -6.76109,13.82344 -7.60461,16.5765 -2.92585,9.5494 -0.71428,12.5 -0.35714,13.92857 0.35714,1.42857 -17.94008,16.57651 -10.44008,28.71936 7.5,12.14286 35.75473,10.36249 38.57143,6.78572 3.20928,-4.07528 5.72407,-11.44094 5.625,-14.73215 -0.0529,-1.75567 7.00949,-1.10798 12.49999,-2.23214 1.0061,-0.20599 0.80358,14.46429 16.51787,11.60714 15.71428,-2.85714 27.85714,-0.35714 25.71428,-11.07142 -2.14286,-10.71429 -6.875,-21.87501 -17.94643,-26.16072 -5,-8.75 -6.10372,-21.06566 -6.25,-22.05357 -0.30531,-2.06191 -6.25,-30.98214 -6.25,-30.98214 0,0 6.65075,30.79827 6.51786,32.14286 -0.17057,1.72581 3.48214,19.73214 7.05357,21.51786 3.57143,1.78571 9.28572,0.35713 11.78572,-2.50001 2.5,-2.85714 -1.75942,-24.02894 -4.55357,-32.41071 0,0 5.85579,20.90241 16.25,21.51785 13.57142,0.80358 15.62499,-8.57142 11.33928,-17.49999 -4.28572,-8.92857 -15.08929,-46.42858 -17.23214,-50 -2.14286,-3.57143 -12.5,-18.57143 -17.85715,-20.71429 -5.35714,-2.14286 -6.78571,-2.5 -6.78571,-2.5 z"
           id="path4225"
           inkscape:connector-curvature="0"
           sodipodi:nodetypes="ccsssssssssscsssssssssscscssssssssc" />
        <path
           style="fill:none;fill-rule:evenodd;stroke:#000000;stroke-width:2;stroke-linecap:butt;stroke-linejoin:miter;stroke-miterlimit:4;stroke-dasharray:none;stroke-opacity:1"
           d="m 188.92857,262.36221 c 0,0 5.35714,-2.85714 7.14286,-2.5"
           id="path4227"
           inkscape:connector-curvature="0" />
        <path
           style="fill:none;fill-opacity:1;fill-rule:evenodd;stroke:#000000;stroke-width:2;stroke-linecap:butt;stroke-linejoin:miter;stroke-miterlimit:4;stroke-dasharray:none;stroke-opacity:1"
           d="m 216.33928,262.63007 c 0,0 5.35715,1.51785 6.42858,3.66071"
           id="path4229"
           inkscape:connector-curvature="0"
           sodipodi:nodetypes="cc" />
        <path
           style="fill:#ffb9c7;fill-opacity:1;fill-rule:evenodd;stroke:#000000;stroke-width:1px;stroke-linecap:butt;stroke-linejoin:miter;stroke-opacity:1"
           d="m 212.14286,273.79078 c 0,0 0.71429,-1.875 -6.16072,0.53572 -1.50722,0.5285 -5.89285,-2.58929 -7.32143,-2.32144 -2.67333,0.50125 3.125,5.00001 4.55357,5.00001 1.42858,0 6.42858,1.42857 8.92858,-3.21429 z"
           id="path4231"
           inkscape:connector-curvature="0"
           sodipodi:nodetypes="csssc" />
        <path
           style="fill:none;fill-rule:evenodd;stroke:#000000;stroke-width:1px;stroke-linecap:butt;stroke-linejoin:miter;stroke-opacity:1"
           d="m 204.28571,277.36221 -0.35714,3.92857 -4.28571,1.42857"
           id="path4233"
           inkscape:connector-curvature="0" />
        <path
           style="fill:none;fill-rule:evenodd;stroke:#000000;stroke-width:1px;stroke-linecap:butt;stroke-linejoin:miter;stroke-opacity:1"
           d="m 206.42857,283.79078 -2.5,-2.85714"
           id="path4235"
           inkscape:connector-curvature="0" />
        <path
           style="fill:none;fill-rule:evenodd;stroke:#000000;stroke-width:0.5;stroke-linecap:butt;stroke-linejoin:miter;stroke-miterlimit:4;stroke-dasharray:none;stroke-opacity:1"
           d="M 186.78571,273.0765 172.5,269.50507"
           id="path4237"
           inkscape:connector-curvature="0" />
        <path
           style="fill:none;fill-rule:evenodd;stroke:#000000;stroke-width:0.5;stroke-linecap:butt;stroke-linejoin:miter;stroke-miterlimit:4;stroke-dasharray:none;stroke-opacity:1"
           d="m 184.28571,277.36221 c 0,0 -13.21428,1.07143 -14.28571,3.21429"
           id="path4239"
           inkscape:connector-curvature="0" />
        <path
           style="fill:none;fill-rule:evenodd;stroke:#000000;stroke-width:0.5;stroke-linecap:butt;stroke-linejoin:miter;stroke-miterlimit:4;stroke-dasharray:none;stroke-opacity:1"
           d="m 218.21428,279.50507 c 0,0 12.85715,3.92857 13.57143,14.28571"
           id="path4241"
           inkscape:connector-curvature="0" />
        <path
           style="fill:none;fill-rule:evenodd;stroke:#000000;stroke-width:0.5;stroke-linecap:butt;stroke-linejoin:miter;stroke-miterlimit:4;stroke-dasharray:none;stroke-opacity:1"
           d="m 216.78571,283.0765 c 0,0 8.21429,6.78571 5,11.78571"
           id="path4243"
           inkscape:connector-curvature="0" />
        <path
           style="fill:none;fill-rule:evenodd;stroke:#000000;stroke-width:1px;stroke-linecap:butt;stroke-linejoin:miter;stroke-opacity:1"
           d="m 159.27937,360.62879 c 0,0 4.59611,-4.04369 17.50634,1.01913 12.63069,4.95319 16.78572,9.91072 16.42857,18.83929"
           id="path4249"
           inkscape:connector-curvature="0"
           sodipodi:nodetypes="csc" />
        <path
           style="fill:none;fill-rule:evenodd;stroke:#000000;stroke-width:1px;stroke-linecap:butt;stroke-linejoin:miter;stroke-opacity:1"
           d="m 205.80357,379.14793 c 0,0 0.21376,-11.26666 1.51786,-14.82144 1.16155,-3.16619 6.8149,-9.27824 14.01785,-10.80357 C 228.92857,351.91578 235,355.5765 235,355.5765"
           id="path4251"
           inkscape:connector-curvature="0"
           sodipodi:nodetypes="cssc" />
        <path
           style="fill:none;fill-rule:evenodd;stroke:#000000;stroke-width:1px;stroke-linecap:butt;stroke-linejoin:miter;stroke-opacity:1"
           d="m 172.14286,254.50507 c 0,0 3.92857,19.28571 3.57142,20.71428"
           id="path4253"
           inkscape:connector-curvature="0" />
        <path
           style="fill:none;fill-rule:evenodd;stroke:#000000;stroke-width:1px;stroke-linecap:butt;stroke-linejoin:miter;stroke-opacity:1"
           d="m 225.35714,258.43364 c 0,0 3.08016,13.4085 0.17858,20.17857 -3.05908,7.13756 -5.02529,8.07972 -8.57144,10.08928 -4.01299,2.27412 -7.85714,2.50001 -13.125,2.14287 -5.18817,-0.35174 -13.125,-2.32144 -14.91071,-3.12501 -2.34855,-1.05685 -7.41071,-3.92857 -10.35714,-6.42857"
           id="path4255"
           inkscape:connector-curvature="0"
           sodipodi:nodetypes="cssssc" />
        <path
           style="fill:none;fill-rule:evenodd;stroke:#000000;stroke-width:1px;stroke-linecap:butt;stroke-linejoin:miter;stroke-opacity:1"
           d="m 238.57143,319.86221 c 0,0 -13.21429,-25.71429 -15,-37.85714"
           id="path4257"
           inkscape:connector-curvature="0" />
      </g>
    </g>
  </g>
</svg>
